G75*
%MOIN*%
%OFA0B0*%
%FSLAX25Y25*%
%IPPOS*%
%LPD*%
%AMOC8*
5,1,8,0,0,1.08239X$1,22.5*
%
%ADD10OC8,0.17717*%
%ADD11C,0.18504*%
%ADD12C,0.05150*%
%ADD13C,0.00000*%
%ADD14R,0.08000X0.08000*%
%ADD15C,0.08000*%
%ADD16C,0.10000*%
%ADD17OC8,0.10000*%
%ADD18C,0.06500*%
%ADD19R,0.07400X0.07400*%
%ADD20C,0.07400*%
%ADD21R,0.05150X0.05150*%
%ADD22C,0.05150*%
%ADD23C,0.01600*%
%ADD24C,0.02400*%
%ADD25C,0.01200*%
D10*
X0350000Y0092500D03*
D11*
X0368750Y0080000D03*
X0350000Y0067500D03*
D12*
X0240000Y0057575D02*
X0240000Y0052425D01*
X0230000Y0052425D02*
X0230000Y0057575D01*
X0220000Y0057575D02*
X0220000Y0052425D01*
X0210000Y0052425D02*
X0210000Y0057575D01*
X0200000Y0057575D02*
X0200000Y0052425D01*
X0190000Y0052425D02*
X0190000Y0057575D01*
X0180000Y0057575D02*
X0180000Y0052425D01*
X0170000Y0052425D02*
X0170000Y0057575D01*
X0160000Y0057575D02*
X0160000Y0052425D01*
X0150000Y0052425D02*
X0150000Y0057575D01*
X0140000Y0057575D02*
X0140000Y0052425D01*
X0130000Y0052425D02*
X0130000Y0057575D01*
X0120000Y0057575D02*
X0120000Y0052425D01*
X0110000Y0052425D02*
X0110000Y0057575D01*
X0100000Y0057575D02*
X0100000Y0052425D01*
X0100000Y0112425D02*
X0100000Y0117575D01*
X0110000Y0117575D02*
X0110000Y0112425D01*
X0120000Y0112425D02*
X0120000Y0117575D01*
X0130000Y0117575D02*
X0130000Y0112425D01*
X0140000Y0112425D02*
X0140000Y0117575D01*
X0150000Y0117575D02*
X0150000Y0112425D01*
X0160000Y0112425D02*
X0160000Y0117575D01*
X0170000Y0117575D02*
X0170000Y0112425D01*
X0180000Y0112425D02*
X0180000Y0117575D01*
X0190000Y0117575D02*
X0190000Y0112425D01*
X0200000Y0112425D02*
X0200000Y0117575D01*
X0210000Y0117575D02*
X0210000Y0112425D01*
X0220000Y0112425D02*
X0220000Y0117575D01*
X0230000Y0117575D02*
X0230000Y0112425D01*
X0240000Y0112425D02*
X0240000Y0117575D01*
D13*
X0032559Y0005000D02*
X0014843Y0005000D01*
X0014605Y0005003D01*
X0014367Y0005011D01*
X0014130Y0005026D01*
X0013893Y0005046D01*
X0013657Y0005072D01*
X0013421Y0005103D01*
X0013186Y0005140D01*
X0012952Y0005183D01*
X0012719Y0005232D01*
X0012487Y0005286D01*
X0012257Y0005346D01*
X0012028Y0005411D01*
X0011801Y0005482D01*
X0011576Y0005558D01*
X0011353Y0005640D01*
X0011131Y0005727D01*
X0010912Y0005819D01*
X0010695Y0005917D01*
X0010481Y0006019D01*
X0010269Y0006127D01*
X0010059Y0006241D01*
X0009853Y0006359D01*
X0009649Y0006482D01*
X0009449Y0006610D01*
X0009252Y0006742D01*
X0009057Y0006880D01*
X0008867Y0007022D01*
X0008679Y0007169D01*
X0008496Y0007320D01*
X0008316Y0007475D01*
X0008140Y0007635D01*
X0007968Y0007799D01*
X0007799Y0007968D01*
X0007635Y0008140D01*
X0007475Y0008316D01*
X0007320Y0008496D01*
X0007169Y0008679D01*
X0007022Y0008867D01*
X0006880Y0009057D01*
X0006742Y0009252D01*
X0006610Y0009449D01*
X0006482Y0009649D01*
X0006359Y0009853D01*
X0006241Y0010059D01*
X0006127Y0010269D01*
X0006019Y0010481D01*
X0005917Y0010695D01*
X0005819Y0010912D01*
X0005727Y0011131D01*
X0005640Y0011353D01*
X0005558Y0011576D01*
X0005482Y0011801D01*
X0005411Y0012028D01*
X0005346Y0012257D01*
X0005286Y0012487D01*
X0005232Y0012719D01*
X0005183Y0012952D01*
X0005140Y0013186D01*
X0005103Y0013421D01*
X0005072Y0013657D01*
X0005046Y0013893D01*
X0005026Y0014130D01*
X0005011Y0014367D01*
X0005003Y0014605D01*
X0005000Y0014843D01*
X0005000Y0036500D01*
X0005000Y0265000D01*
X0004989Y0265252D01*
X0004984Y0265504D01*
X0004986Y0265757D01*
X0004993Y0266009D01*
X0005006Y0266261D01*
X0005026Y0266512D01*
X0005051Y0266763D01*
X0005083Y0267013D01*
X0005121Y0267263D01*
X0005164Y0267511D01*
X0005214Y0267758D01*
X0005270Y0268004D01*
X0005331Y0268249D01*
X0005399Y0268492D01*
X0005472Y0268733D01*
X0005551Y0268973D01*
X0005636Y0269210D01*
X0005727Y0269446D01*
X0005823Y0269679D01*
X0005925Y0269909D01*
X0006032Y0270138D01*
X0006145Y0270363D01*
X0006263Y0270586D01*
X0006387Y0270806D01*
X0006516Y0271022D01*
X0006650Y0271236D01*
X0006789Y0271446D01*
X0006934Y0271653D01*
X0007083Y0271857D01*
X0007237Y0272056D01*
X0007396Y0272252D01*
X0007560Y0272444D01*
X0007728Y0272632D01*
X0007900Y0272816D01*
X0008077Y0272995D01*
X0008259Y0273171D01*
X0008444Y0273342D01*
X0008634Y0273508D01*
X0008828Y0273670D01*
X0009025Y0273827D01*
X0009226Y0273979D01*
X0009431Y0274126D01*
X0009639Y0274268D01*
X0009851Y0274405D01*
X0010066Y0274537D01*
X0010284Y0274664D01*
X0010505Y0274786D01*
X0010729Y0274902D01*
X0010955Y0275012D01*
X0011185Y0275118D01*
X0011416Y0275217D01*
X0011650Y0275311D01*
X0011887Y0275399D01*
X0012125Y0275482D01*
X0012365Y0275559D01*
X0012607Y0275630D01*
X0012851Y0275695D01*
X0013096Y0275754D01*
X0013343Y0275807D01*
X0013590Y0275854D01*
X0013839Y0275895D01*
X0014089Y0275931D01*
X0014339Y0275960D01*
X0014591Y0275983D01*
X0014842Y0276000D01*
X0014843Y0276000D02*
X0064055Y0276000D01*
X0387598Y0276000D01*
X0387857Y0275989D01*
X0388115Y0275973D01*
X0388372Y0275950D01*
X0388630Y0275921D01*
X0388886Y0275886D01*
X0389141Y0275844D01*
X0389395Y0275797D01*
X0389648Y0275743D01*
X0389900Y0275683D01*
X0390150Y0275617D01*
X0390399Y0275545D01*
X0390646Y0275467D01*
X0390890Y0275384D01*
X0391133Y0275294D01*
X0391373Y0275198D01*
X0391611Y0275097D01*
X0391847Y0274990D01*
X0392080Y0274877D01*
X0392310Y0274759D01*
X0392537Y0274635D01*
X0392761Y0274506D01*
X0392982Y0274371D01*
X0393199Y0274231D01*
X0393413Y0274086D01*
X0393624Y0273936D01*
X0393831Y0273780D01*
X0394034Y0273620D01*
X0394233Y0273455D01*
X0394428Y0273285D01*
X0394619Y0273110D01*
X0394805Y0272931D01*
X0394988Y0272748D01*
X0395165Y0272560D01*
X0395339Y0272367D01*
X0395507Y0272171D01*
X0395671Y0271971D01*
X0395829Y0271766D01*
X0395983Y0271558D01*
X0396132Y0271347D01*
X0396276Y0271132D01*
X0396414Y0270913D01*
X0396547Y0270691D01*
X0396674Y0270466D01*
X0396797Y0270238D01*
X0396913Y0270007D01*
X0397024Y0269773D01*
X0397129Y0269537D01*
X0397229Y0269298D01*
X0397323Y0269057D01*
X0397411Y0268814D01*
X0397493Y0268568D01*
X0397569Y0268321D01*
X0397639Y0268072D01*
X0397703Y0267822D01*
X0397760Y0267569D01*
X0397812Y0267316D01*
X0397858Y0267061D01*
X0397897Y0266806D01*
X0397931Y0266549D01*
X0397958Y0266292D01*
X0397979Y0266034D01*
X0397993Y0265776D01*
X0398002Y0265517D01*
X0398004Y0265259D01*
X0398000Y0265000D01*
X0398000Y0243000D01*
X0398000Y0014843D01*
X0398000Y0014842D02*
X0397990Y0014598D01*
X0397975Y0014354D01*
X0397953Y0014110D01*
X0397926Y0013867D01*
X0397893Y0013624D01*
X0397854Y0013383D01*
X0397809Y0013142D01*
X0397758Y0012903D01*
X0397701Y0012665D01*
X0397639Y0012428D01*
X0397571Y0012193D01*
X0397498Y0011960D01*
X0397418Y0011728D01*
X0397334Y0011499D01*
X0397243Y0011271D01*
X0397147Y0011046D01*
X0397046Y0010823D01*
X0396940Y0010603D01*
X0396828Y0010385D01*
X0396711Y0010170D01*
X0396589Y0009958D01*
X0396461Y0009749D01*
X0396329Y0009544D01*
X0396192Y0009341D01*
X0396050Y0009142D01*
X0395903Y0008946D01*
X0395751Y0008754D01*
X0395595Y0008566D01*
X0395434Y0008381D01*
X0395269Y0008201D01*
X0395100Y0008024D01*
X0394926Y0007852D01*
X0394748Y0007683D01*
X0394567Y0007519D01*
X0394381Y0007360D01*
X0394191Y0007205D01*
X0393998Y0007055D01*
X0393802Y0006909D01*
X0393601Y0006769D01*
X0393398Y0006633D01*
X0393191Y0006502D01*
X0392981Y0006376D01*
X0392769Y0006255D01*
X0392553Y0006140D01*
X0392334Y0006029D01*
X0392113Y0005924D01*
X0391890Y0005825D01*
X0391664Y0005730D01*
X0391436Y0005642D01*
X0391206Y0005558D01*
X0390974Y0005481D01*
X0390740Y0005409D01*
X0390504Y0005343D01*
X0390267Y0005282D01*
X0390029Y0005227D01*
X0389789Y0005178D01*
X0389548Y0005135D01*
X0389307Y0005097D01*
X0389064Y0005066D01*
X0388821Y0005040D01*
X0388577Y0005020D01*
X0388332Y0005006D01*
X0388088Y0004998D01*
X0387843Y0004996D01*
X0387598Y0005000D01*
X0032559Y0005000D01*
X0017126Y0025000D02*
X0017128Y0025193D01*
X0017135Y0025386D01*
X0017147Y0025579D01*
X0017164Y0025772D01*
X0017185Y0025964D01*
X0017211Y0026155D01*
X0017242Y0026346D01*
X0017277Y0026536D01*
X0017317Y0026725D01*
X0017362Y0026913D01*
X0017411Y0027100D01*
X0017465Y0027286D01*
X0017523Y0027470D01*
X0017586Y0027653D01*
X0017654Y0027834D01*
X0017725Y0028013D01*
X0017802Y0028191D01*
X0017882Y0028367D01*
X0017967Y0028540D01*
X0018056Y0028712D01*
X0018149Y0028881D01*
X0018246Y0029048D01*
X0018348Y0029213D01*
X0018453Y0029375D01*
X0018562Y0029534D01*
X0018676Y0029691D01*
X0018793Y0029844D01*
X0018913Y0029995D01*
X0019038Y0030143D01*
X0019166Y0030288D01*
X0019297Y0030429D01*
X0019432Y0030568D01*
X0019571Y0030703D01*
X0019712Y0030834D01*
X0019857Y0030962D01*
X0020005Y0031087D01*
X0020156Y0031207D01*
X0020309Y0031324D01*
X0020466Y0031438D01*
X0020625Y0031547D01*
X0020787Y0031652D01*
X0020952Y0031754D01*
X0021119Y0031851D01*
X0021288Y0031944D01*
X0021460Y0032033D01*
X0021633Y0032118D01*
X0021809Y0032198D01*
X0021987Y0032275D01*
X0022166Y0032346D01*
X0022347Y0032414D01*
X0022530Y0032477D01*
X0022714Y0032535D01*
X0022900Y0032589D01*
X0023087Y0032638D01*
X0023275Y0032683D01*
X0023464Y0032723D01*
X0023654Y0032758D01*
X0023845Y0032789D01*
X0024036Y0032815D01*
X0024228Y0032836D01*
X0024421Y0032853D01*
X0024614Y0032865D01*
X0024807Y0032872D01*
X0025000Y0032874D01*
X0025193Y0032872D01*
X0025386Y0032865D01*
X0025579Y0032853D01*
X0025772Y0032836D01*
X0025964Y0032815D01*
X0026155Y0032789D01*
X0026346Y0032758D01*
X0026536Y0032723D01*
X0026725Y0032683D01*
X0026913Y0032638D01*
X0027100Y0032589D01*
X0027286Y0032535D01*
X0027470Y0032477D01*
X0027653Y0032414D01*
X0027834Y0032346D01*
X0028013Y0032275D01*
X0028191Y0032198D01*
X0028367Y0032118D01*
X0028540Y0032033D01*
X0028712Y0031944D01*
X0028881Y0031851D01*
X0029048Y0031754D01*
X0029213Y0031652D01*
X0029375Y0031547D01*
X0029534Y0031438D01*
X0029691Y0031324D01*
X0029844Y0031207D01*
X0029995Y0031087D01*
X0030143Y0030962D01*
X0030288Y0030834D01*
X0030429Y0030703D01*
X0030568Y0030568D01*
X0030703Y0030429D01*
X0030834Y0030288D01*
X0030962Y0030143D01*
X0031087Y0029995D01*
X0031207Y0029844D01*
X0031324Y0029691D01*
X0031438Y0029534D01*
X0031547Y0029375D01*
X0031652Y0029213D01*
X0031754Y0029048D01*
X0031851Y0028881D01*
X0031944Y0028712D01*
X0032033Y0028540D01*
X0032118Y0028367D01*
X0032198Y0028191D01*
X0032275Y0028013D01*
X0032346Y0027834D01*
X0032414Y0027653D01*
X0032477Y0027470D01*
X0032535Y0027286D01*
X0032589Y0027100D01*
X0032638Y0026913D01*
X0032683Y0026725D01*
X0032723Y0026536D01*
X0032758Y0026346D01*
X0032789Y0026155D01*
X0032815Y0025964D01*
X0032836Y0025772D01*
X0032853Y0025579D01*
X0032865Y0025386D01*
X0032872Y0025193D01*
X0032874Y0025000D01*
X0032872Y0024807D01*
X0032865Y0024614D01*
X0032853Y0024421D01*
X0032836Y0024228D01*
X0032815Y0024036D01*
X0032789Y0023845D01*
X0032758Y0023654D01*
X0032723Y0023464D01*
X0032683Y0023275D01*
X0032638Y0023087D01*
X0032589Y0022900D01*
X0032535Y0022714D01*
X0032477Y0022530D01*
X0032414Y0022347D01*
X0032346Y0022166D01*
X0032275Y0021987D01*
X0032198Y0021809D01*
X0032118Y0021633D01*
X0032033Y0021460D01*
X0031944Y0021288D01*
X0031851Y0021119D01*
X0031754Y0020952D01*
X0031652Y0020787D01*
X0031547Y0020625D01*
X0031438Y0020466D01*
X0031324Y0020309D01*
X0031207Y0020156D01*
X0031087Y0020005D01*
X0030962Y0019857D01*
X0030834Y0019712D01*
X0030703Y0019571D01*
X0030568Y0019432D01*
X0030429Y0019297D01*
X0030288Y0019166D01*
X0030143Y0019038D01*
X0029995Y0018913D01*
X0029844Y0018793D01*
X0029691Y0018676D01*
X0029534Y0018562D01*
X0029375Y0018453D01*
X0029213Y0018348D01*
X0029048Y0018246D01*
X0028881Y0018149D01*
X0028712Y0018056D01*
X0028540Y0017967D01*
X0028367Y0017882D01*
X0028191Y0017802D01*
X0028013Y0017725D01*
X0027834Y0017654D01*
X0027653Y0017586D01*
X0027470Y0017523D01*
X0027286Y0017465D01*
X0027100Y0017411D01*
X0026913Y0017362D01*
X0026725Y0017317D01*
X0026536Y0017277D01*
X0026346Y0017242D01*
X0026155Y0017211D01*
X0025964Y0017185D01*
X0025772Y0017164D01*
X0025579Y0017147D01*
X0025386Y0017135D01*
X0025193Y0017128D01*
X0025000Y0017126D01*
X0024807Y0017128D01*
X0024614Y0017135D01*
X0024421Y0017147D01*
X0024228Y0017164D01*
X0024036Y0017185D01*
X0023845Y0017211D01*
X0023654Y0017242D01*
X0023464Y0017277D01*
X0023275Y0017317D01*
X0023087Y0017362D01*
X0022900Y0017411D01*
X0022714Y0017465D01*
X0022530Y0017523D01*
X0022347Y0017586D01*
X0022166Y0017654D01*
X0021987Y0017725D01*
X0021809Y0017802D01*
X0021633Y0017882D01*
X0021460Y0017967D01*
X0021288Y0018056D01*
X0021119Y0018149D01*
X0020952Y0018246D01*
X0020787Y0018348D01*
X0020625Y0018453D01*
X0020466Y0018562D01*
X0020309Y0018676D01*
X0020156Y0018793D01*
X0020005Y0018913D01*
X0019857Y0019038D01*
X0019712Y0019166D01*
X0019571Y0019297D01*
X0019432Y0019432D01*
X0019297Y0019571D01*
X0019166Y0019712D01*
X0019038Y0019857D01*
X0018913Y0020005D01*
X0018793Y0020156D01*
X0018676Y0020309D01*
X0018562Y0020466D01*
X0018453Y0020625D01*
X0018348Y0020787D01*
X0018246Y0020952D01*
X0018149Y0021119D01*
X0018056Y0021288D01*
X0017967Y0021460D01*
X0017882Y0021633D01*
X0017802Y0021809D01*
X0017725Y0021987D01*
X0017654Y0022166D01*
X0017586Y0022347D01*
X0017523Y0022530D01*
X0017465Y0022714D01*
X0017411Y0022900D01*
X0017362Y0023087D01*
X0017317Y0023275D01*
X0017277Y0023464D01*
X0017242Y0023654D01*
X0017211Y0023845D01*
X0017185Y0024036D01*
X0017164Y0024228D01*
X0017147Y0024421D01*
X0017135Y0024614D01*
X0017128Y0024807D01*
X0017126Y0025000D01*
X0017126Y0256000D02*
X0017128Y0256193D01*
X0017135Y0256386D01*
X0017147Y0256579D01*
X0017164Y0256772D01*
X0017185Y0256964D01*
X0017211Y0257155D01*
X0017242Y0257346D01*
X0017277Y0257536D01*
X0017317Y0257725D01*
X0017362Y0257913D01*
X0017411Y0258100D01*
X0017465Y0258286D01*
X0017523Y0258470D01*
X0017586Y0258653D01*
X0017654Y0258834D01*
X0017725Y0259013D01*
X0017802Y0259191D01*
X0017882Y0259367D01*
X0017967Y0259540D01*
X0018056Y0259712D01*
X0018149Y0259881D01*
X0018246Y0260048D01*
X0018348Y0260213D01*
X0018453Y0260375D01*
X0018562Y0260534D01*
X0018676Y0260691D01*
X0018793Y0260844D01*
X0018913Y0260995D01*
X0019038Y0261143D01*
X0019166Y0261288D01*
X0019297Y0261429D01*
X0019432Y0261568D01*
X0019571Y0261703D01*
X0019712Y0261834D01*
X0019857Y0261962D01*
X0020005Y0262087D01*
X0020156Y0262207D01*
X0020309Y0262324D01*
X0020466Y0262438D01*
X0020625Y0262547D01*
X0020787Y0262652D01*
X0020952Y0262754D01*
X0021119Y0262851D01*
X0021288Y0262944D01*
X0021460Y0263033D01*
X0021633Y0263118D01*
X0021809Y0263198D01*
X0021987Y0263275D01*
X0022166Y0263346D01*
X0022347Y0263414D01*
X0022530Y0263477D01*
X0022714Y0263535D01*
X0022900Y0263589D01*
X0023087Y0263638D01*
X0023275Y0263683D01*
X0023464Y0263723D01*
X0023654Y0263758D01*
X0023845Y0263789D01*
X0024036Y0263815D01*
X0024228Y0263836D01*
X0024421Y0263853D01*
X0024614Y0263865D01*
X0024807Y0263872D01*
X0025000Y0263874D01*
X0025193Y0263872D01*
X0025386Y0263865D01*
X0025579Y0263853D01*
X0025772Y0263836D01*
X0025964Y0263815D01*
X0026155Y0263789D01*
X0026346Y0263758D01*
X0026536Y0263723D01*
X0026725Y0263683D01*
X0026913Y0263638D01*
X0027100Y0263589D01*
X0027286Y0263535D01*
X0027470Y0263477D01*
X0027653Y0263414D01*
X0027834Y0263346D01*
X0028013Y0263275D01*
X0028191Y0263198D01*
X0028367Y0263118D01*
X0028540Y0263033D01*
X0028712Y0262944D01*
X0028881Y0262851D01*
X0029048Y0262754D01*
X0029213Y0262652D01*
X0029375Y0262547D01*
X0029534Y0262438D01*
X0029691Y0262324D01*
X0029844Y0262207D01*
X0029995Y0262087D01*
X0030143Y0261962D01*
X0030288Y0261834D01*
X0030429Y0261703D01*
X0030568Y0261568D01*
X0030703Y0261429D01*
X0030834Y0261288D01*
X0030962Y0261143D01*
X0031087Y0260995D01*
X0031207Y0260844D01*
X0031324Y0260691D01*
X0031438Y0260534D01*
X0031547Y0260375D01*
X0031652Y0260213D01*
X0031754Y0260048D01*
X0031851Y0259881D01*
X0031944Y0259712D01*
X0032033Y0259540D01*
X0032118Y0259367D01*
X0032198Y0259191D01*
X0032275Y0259013D01*
X0032346Y0258834D01*
X0032414Y0258653D01*
X0032477Y0258470D01*
X0032535Y0258286D01*
X0032589Y0258100D01*
X0032638Y0257913D01*
X0032683Y0257725D01*
X0032723Y0257536D01*
X0032758Y0257346D01*
X0032789Y0257155D01*
X0032815Y0256964D01*
X0032836Y0256772D01*
X0032853Y0256579D01*
X0032865Y0256386D01*
X0032872Y0256193D01*
X0032874Y0256000D01*
X0032872Y0255807D01*
X0032865Y0255614D01*
X0032853Y0255421D01*
X0032836Y0255228D01*
X0032815Y0255036D01*
X0032789Y0254845D01*
X0032758Y0254654D01*
X0032723Y0254464D01*
X0032683Y0254275D01*
X0032638Y0254087D01*
X0032589Y0253900D01*
X0032535Y0253714D01*
X0032477Y0253530D01*
X0032414Y0253347D01*
X0032346Y0253166D01*
X0032275Y0252987D01*
X0032198Y0252809D01*
X0032118Y0252633D01*
X0032033Y0252460D01*
X0031944Y0252288D01*
X0031851Y0252119D01*
X0031754Y0251952D01*
X0031652Y0251787D01*
X0031547Y0251625D01*
X0031438Y0251466D01*
X0031324Y0251309D01*
X0031207Y0251156D01*
X0031087Y0251005D01*
X0030962Y0250857D01*
X0030834Y0250712D01*
X0030703Y0250571D01*
X0030568Y0250432D01*
X0030429Y0250297D01*
X0030288Y0250166D01*
X0030143Y0250038D01*
X0029995Y0249913D01*
X0029844Y0249793D01*
X0029691Y0249676D01*
X0029534Y0249562D01*
X0029375Y0249453D01*
X0029213Y0249348D01*
X0029048Y0249246D01*
X0028881Y0249149D01*
X0028712Y0249056D01*
X0028540Y0248967D01*
X0028367Y0248882D01*
X0028191Y0248802D01*
X0028013Y0248725D01*
X0027834Y0248654D01*
X0027653Y0248586D01*
X0027470Y0248523D01*
X0027286Y0248465D01*
X0027100Y0248411D01*
X0026913Y0248362D01*
X0026725Y0248317D01*
X0026536Y0248277D01*
X0026346Y0248242D01*
X0026155Y0248211D01*
X0025964Y0248185D01*
X0025772Y0248164D01*
X0025579Y0248147D01*
X0025386Y0248135D01*
X0025193Y0248128D01*
X0025000Y0248126D01*
X0024807Y0248128D01*
X0024614Y0248135D01*
X0024421Y0248147D01*
X0024228Y0248164D01*
X0024036Y0248185D01*
X0023845Y0248211D01*
X0023654Y0248242D01*
X0023464Y0248277D01*
X0023275Y0248317D01*
X0023087Y0248362D01*
X0022900Y0248411D01*
X0022714Y0248465D01*
X0022530Y0248523D01*
X0022347Y0248586D01*
X0022166Y0248654D01*
X0021987Y0248725D01*
X0021809Y0248802D01*
X0021633Y0248882D01*
X0021460Y0248967D01*
X0021288Y0249056D01*
X0021119Y0249149D01*
X0020952Y0249246D01*
X0020787Y0249348D01*
X0020625Y0249453D01*
X0020466Y0249562D01*
X0020309Y0249676D01*
X0020156Y0249793D01*
X0020005Y0249913D01*
X0019857Y0250038D01*
X0019712Y0250166D01*
X0019571Y0250297D01*
X0019432Y0250432D01*
X0019297Y0250571D01*
X0019166Y0250712D01*
X0019038Y0250857D01*
X0018913Y0251005D01*
X0018793Y0251156D01*
X0018676Y0251309D01*
X0018562Y0251466D01*
X0018453Y0251625D01*
X0018348Y0251787D01*
X0018246Y0251952D01*
X0018149Y0252119D01*
X0018056Y0252288D01*
X0017967Y0252460D01*
X0017882Y0252633D01*
X0017802Y0252809D01*
X0017725Y0252987D01*
X0017654Y0253166D01*
X0017586Y0253347D01*
X0017523Y0253530D01*
X0017465Y0253714D01*
X0017411Y0253900D01*
X0017362Y0254087D01*
X0017317Y0254275D01*
X0017277Y0254464D01*
X0017242Y0254654D01*
X0017211Y0254845D01*
X0017185Y0255036D01*
X0017164Y0255228D01*
X0017147Y0255421D01*
X0017135Y0255614D01*
X0017128Y0255807D01*
X0017126Y0256000D01*
X0370126Y0256000D02*
X0370128Y0256193D01*
X0370135Y0256386D01*
X0370147Y0256579D01*
X0370164Y0256772D01*
X0370185Y0256964D01*
X0370211Y0257155D01*
X0370242Y0257346D01*
X0370277Y0257536D01*
X0370317Y0257725D01*
X0370362Y0257913D01*
X0370411Y0258100D01*
X0370465Y0258286D01*
X0370523Y0258470D01*
X0370586Y0258653D01*
X0370654Y0258834D01*
X0370725Y0259013D01*
X0370802Y0259191D01*
X0370882Y0259367D01*
X0370967Y0259540D01*
X0371056Y0259712D01*
X0371149Y0259881D01*
X0371246Y0260048D01*
X0371348Y0260213D01*
X0371453Y0260375D01*
X0371562Y0260534D01*
X0371676Y0260691D01*
X0371793Y0260844D01*
X0371913Y0260995D01*
X0372038Y0261143D01*
X0372166Y0261288D01*
X0372297Y0261429D01*
X0372432Y0261568D01*
X0372571Y0261703D01*
X0372712Y0261834D01*
X0372857Y0261962D01*
X0373005Y0262087D01*
X0373156Y0262207D01*
X0373309Y0262324D01*
X0373466Y0262438D01*
X0373625Y0262547D01*
X0373787Y0262652D01*
X0373952Y0262754D01*
X0374119Y0262851D01*
X0374288Y0262944D01*
X0374460Y0263033D01*
X0374633Y0263118D01*
X0374809Y0263198D01*
X0374987Y0263275D01*
X0375166Y0263346D01*
X0375347Y0263414D01*
X0375530Y0263477D01*
X0375714Y0263535D01*
X0375900Y0263589D01*
X0376087Y0263638D01*
X0376275Y0263683D01*
X0376464Y0263723D01*
X0376654Y0263758D01*
X0376845Y0263789D01*
X0377036Y0263815D01*
X0377228Y0263836D01*
X0377421Y0263853D01*
X0377614Y0263865D01*
X0377807Y0263872D01*
X0378000Y0263874D01*
X0378193Y0263872D01*
X0378386Y0263865D01*
X0378579Y0263853D01*
X0378772Y0263836D01*
X0378964Y0263815D01*
X0379155Y0263789D01*
X0379346Y0263758D01*
X0379536Y0263723D01*
X0379725Y0263683D01*
X0379913Y0263638D01*
X0380100Y0263589D01*
X0380286Y0263535D01*
X0380470Y0263477D01*
X0380653Y0263414D01*
X0380834Y0263346D01*
X0381013Y0263275D01*
X0381191Y0263198D01*
X0381367Y0263118D01*
X0381540Y0263033D01*
X0381712Y0262944D01*
X0381881Y0262851D01*
X0382048Y0262754D01*
X0382213Y0262652D01*
X0382375Y0262547D01*
X0382534Y0262438D01*
X0382691Y0262324D01*
X0382844Y0262207D01*
X0382995Y0262087D01*
X0383143Y0261962D01*
X0383288Y0261834D01*
X0383429Y0261703D01*
X0383568Y0261568D01*
X0383703Y0261429D01*
X0383834Y0261288D01*
X0383962Y0261143D01*
X0384087Y0260995D01*
X0384207Y0260844D01*
X0384324Y0260691D01*
X0384438Y0260534D01*
X0384547Y0260375D01*
X0384652Y0260213D01*
X0384754Y0260048D01*
X0384851Y0259881D01*
X0384944Y0259712D01*
X0385033Y0259540D01*
X0385118Y0259367D01*
X0385198Y0259191D01*
X0385275Y0259013D01*
X0385346Y0258834D01*
X0385414Y0258653D01*
X0385477Y0258470D01*
X0385535Y0258286D01*
X0385589Y0258100D01*
X0385638Y0257913D01*
X0385683Y0257725D01*
X0385723Y0257536D01*
X0385758Y0257346D01*
X0385789Y0257155D01*
X0385815Y0256964D01*
X0385836Y0256772D01*
X0385853Y0256579D01*
X0385865Y0256386D01*
X0385872Y0256193D01*
X0385874Y0256000D01*
X0385872Y0255807D01*
X0385865Y0255614D01*
X0385853Y0255421D01*
X0385836Y0255228D01*
X0385815Y0255036D01*
X0385789Y0254845D01*
X0385758Y0254654D01*
X0385723Y0254464D01*
X0385683Y0254275D01*
X0385638Y0254087D01*
X0385589Y0253900D01*
X0385535Y0253714D01*
X0385477Y0253530D01*
X0385414Y0253347D01*
X0385346Y0253166D01*
X0385275Y0252987D01*
X0385198Y0252809D01*
X0385118Y0252633D01*
X0385033Y0252460D01*
X0384944Y0252288D01*
X0384851Y0252119D01*
X0384754Y0251952D01*
X0384652Y0251787D01*
X0384547Y0251625D01*
X0384438Y0251466D01*
X0384324Y0251309D01*
X0384207Y0251156D01*
X0384087Y0251005D01*
X0383962Y0250857D01*
X0383834Y0250712D01*
X0383703Y0250571D01*
X0383568Y0250432D01*
X0383429Y0250297D01*
X0383288Y0250166D01*
X0383143Y0250038D01*
X0382995Y0249913D01*
X0382844Y0249793D01*
X0382691Y0249676D01*
X0382534Y0249562D01*
X0382375Y0249453D01*
X0382213Y0249348D01*
X0382048Y0249246D01*
X0381881Y0249149D01*
X0381712Y0249056D01*
X0381540Y0248967D01*
X0381367Y0248882D01*
X0381191Y0248802D01*
X0381013Y0248725D01*
X0380834Y0248654D01*
X0380653Y0248586D01*
X0380470Y0248523D01*
X0380286Y0248465D01*
X0380100Y0248411D01*
X0379913Y0248362D01*
X0379725Y0248317D01*
X0379536Y0248277D01*
X0379346Y0248242D01*
X0379155Y0248211D01*
X0378964Y0248185D01*
X0378772Y0248164D01*
X0378579Y0248147D01*
X0378386Y0248135D01*
X0378193Y0248128D01*
X0378000Y0248126D01*
X0377807Y0248128D01*
X0377614Y0248135D01*
X0377421Y0248147D01*
X0377228Y0248164D01*
X0377036Y0248185D01*
X0376845Y0248211D01*
X0376654Y0248242D01*
X0376464Y0248277D01*
X0376275Y0248317D01*
X0376087Y0248362D01*
X0375900Y0248411D01*
X0375714Y0248465D01*
X0375530Y0248523D01*
X0375347Y0248586D01*
X0375166Y0248654D01*
X0374987Y0248725D01*
X0374809Y0248802D01*
X0374633Y0248882D01*
X0374460Y0248967D01*
X0374288Y0249056D01*
X0374119Y0249149D01*
X0373952Y0249246D01*
X0373787Y0249348D01*
X0373625Y0249453D01*
X0373466Y0249562D01*
X0373309Y0249676D01*
X0373156Y0249793D01*
X0373005Y0249913D01*
X0372857Y0250038D01*
X0372712Y0250166D01*
X0372571Y0250297D01*
X0372432Y0250432D01*
X0372297Y0250571D01*
X0372166Y0250712D01*
X0372038Y0250857D01*
X0371913Y0251005D01*
X0371793Y0251156D01*
X0371676Y0251309D01*
X0371562Y0251466D01*
X0371453Y0251625D01*
X0371348Y0251787D01*
X0371246Y0251952D01*
X0371149Y0252119D01*
X0371056Y0252288D01*
X0370967Y0252460D01*
X0370882Y0252633D01*
X0370802Y0252809D01*
X0370725Y0252987D01*
X0370654Y0253166D01*
X0370586Y0253347D01*
X0370523Y0253530D01*
X0370465Y0253714D01*
X0370411Y0253900D01*
X0370362Y0254087D01*
X0370317Y0254275D01*
X0370277Y0254464D01*
X0370242Y0254654D01*
X0370211Y0254845D01*
X0370185Y0255036D01*
X0370164Y0255228D01*
X0370147Y0255421D01*
X0370135Y0255614D01*
X0370128Y0255807D01*
X0370126Y0256000D01*
X0370126Y0025000D02*
X0370128Y0025193D01*
X0370135Y0025386D01*
X0370147Y0025579D01*
X0370164Y0025772D01*
X0370185Y0025964D01*
X0370211Y0026155D01*
X0370242Y0026346D01*
X0370277Y0026536D01*
X0370317Y0026725D01*
X0370362Y0026913D01*
X0370411Y0027100D01*
X0370465Y0027286D01*
X0370523Y0027470D01*
X0370586Y0027653D01*
X0370654Y0027834D01*
X0370725Y0028013D01*
X0370802Y0028191D01*
X0370882Y0028367D01*
X0370967Y0028540D01*
X0371056Y0028712D01*
X0371149Y0028881D01*
X0371246Y0029048D01*
X0371348Y0029213D01*
X0371453Y0029375D01*
X0371562Y0029534D01*
X0371676Y0029691D01*
X0371793Y0029844D01*
X0371913Y0029995D01*
X0372038Y0030143D01*
X0372166Y0030288D01*
X0372297Y0030429D01*
X0372432Y0030568D01*
X0372571Y0030703D01*
X0372712Y0030834D01*
X0372857Y0030962D01*
X0373005Y0031087D01*
X0373156Y0031207D01*
X0373309Y0031324D01*
X0373466Y0031438D01*
X0373625Y0031547D01*
X0373787Y0031652D01*
X0373952Y0031754D01*
X0374119Y0031851D01*
X0374288Y0031944D01*
X0374460Y0032033D01*
X0374633Y0032118D01*
X0374809Y0032198D01*
X0374987Y0032275D01*
X0375166Y0032346D01*
X0375347Y0032414D01*
X0375530Y0032477D01*
X0375714Y0032535D01*
X0375900Y0032589D01*
X0376087Y0032638D01*
X0376275Y0032683D01*
X0376464Y0032723D01*
X0376654Y0032758D01*
X0376845Y0032789D01*
X0377036Y0032815D01*
X0377228Y0032836D01*
X0377421Y0032853D01*
X0377614Y0032865D01*
X0377807Y0032872D01*
X0378000Y0032874D01*
X0378193Y0032872D01*
X0378386Y0032865D01*
X0378579Y0032853D01*
X0378772Y0032836D01*
X0378964Y0032815D01*
X0379155Y0032789D01*
X0379346Y0032758D01*
X0379536Y0032723D01*
X0379725Y0032683D01*
X0379913Y0032638D01*
X0380100Y0032589D01*
X0380286Y0032535D01*
X0380470Y0032477D01*
X0380653Y0032414D01*
X0380834Y0032346D01*
X0381013Y0032275D01*
X0381191Y0032198D01*
X0381367Y0032118D01*
X0381540Y0032033D01*
X0381712Y0031944D01*
X0381881Y0031851D01*
X0382048Y0031754D01*
X0382213Y0031652D01*
X0382375Y0031547D01*
X0382534Y0031438D01*
X0382691Y0031324D01*
X0382844Y0031207D01*
X0382995Y0031087D01*
X0383143Y0030962D01*
X0383288Y0030834D01*
X0383429Y0030703D01*
X0383568Y0030568D01*
X0383703Y0030429D01*
X0383834Y0030288D01*
X0383962Y0030143D01*
X0384087Y0029995D01*
X0384207Y0029844D01*
X0384324Y0029691D01*
X0384438Y0029534D01*
X0384547Y0029375D01*
X0384652Y0029213D01*
X0384754Y0029048D01*
X0384851Y0028881D01*
X0384944Y0028712D01*
X0385033Y0028540D01*
X0385118Y0028367D01*
X0385198Y0028191D01*
X0385275Y0028013D01*
X0385346Y0027834D01*
X0385414Y0027653D01*
X0385477Y0027470D01*
X0385535Y0027286D01*
X0385589Y0027100D01*
X0385638Y0026913D01*
X0385683Y0026725D01*
X0385723Y0026536D01*
X0385758Y0026346D01*
X0385789Y0026155D01*
X0385815Y0025964D01*
X0385836Y0025772D01*
X0385853Y0025579D01*
X0385865Y0025386D01*
X0385872Y0025193D01*
X0385874Y0025000D01*
X0385872Y0024807D01*
X0385865Y0024614D01*
X0385853Y0024421D01*
X0385836Y0024228D01*
X0385815Y0024036D01*
X0385789Y0023845D01*
X0385758Y0023654D01*
X0385723Y0023464D01*
X0385683Y0023275D01*
X0385638Y0023087D01*
X0385589Y0022900D01*
X0385535Y0022714D01*
X0385477Y0022530D01*
X0385414Y0022347D01*
X0385346Y0022166D01*
X0385275Y0021987D01*
X0385198Y0021809D01*
X0385118Y0021633D01*
X0385033Y0021460D01*
X0384944Y0021288D01*
X0384851Y0021119D01*
X0384754Y0020952D01*
X0384652Y0020787D01*
X0384547Y0020625D01*
X0384438Y0020466D01*
X0384324Y0020309D01*
X0384207Y0020156D01*
X0384087Y0020005D01*
X0383962Y0019857D01*
X0383834Y0019712D01*
X0383703Y0019571D01*
X0383568Y0019432D01*
X0383429Y0019297D01*
X0383288Y0019166D01*
X0383143Y0019038D01*
X0382995Y0018913D01*
X0382844Y0018793D01*
X0382691Y0018676D01*
X0382534Y0018562D01*
X0382375Y0018453D01*
X0382213Y0018348D01*
X0382048Y0018246D01*
X0381881Y0018149D01*
X0381712Y0018056D01*
X0381540Y0017967D01*
X0381367Y0017882D01*
X0381191Y0017802D01*
X0381013Y0017725D01*
X0380834Y0017654D01*
X0380653Y0017586D01*
X0380470Y0017523D01*
X0380286Y0017465D01*
X0380100Y0017411D01*
X0379913Y0017362D01*
X0379725Y0017317D01*
X0379536Y0017277D01*
X0379346Y0017242D01*
X0379155Y0017211D01*
X0378964Y0017185D01*
X0378772Y0017164D01*
X0378579Y0017147D01*
X0378386Y0017135D01*
X0378193Y0017128D01*
X0378000Y0017126D01*
X0377807Y0017128D01*
X0377614Y0017135D01*
X0377421Y0017147D01*
X0377228Y0017164D01*
X0377036Y0017185D01*
X0376845Y0017211D01*
X0376654Y0017242D01*
X0376464Y0017277D01*
X0376275Y0017317D01*
X0376087Y0017362D01*
X0375900Y0017411D01*
X0375714Y0017465D01*
X0375530Y0017523D01*
X0375347Y0017586D01*
X0375166Y0017654D01*
X0374987Y0017725D01*
X0374809Y0017802D01*
X0374633Y0017882D01*
X0374460Y0017967D01*
X0374288Y0018056D01*
X0374119Y0018149D01*
X0373952Y0018246D01*
X0373787Y0018348D01*
X0373625Y0018453D01*
X0373466Y0018562D01*
X0373309Y0018676D01*
X0373156Y0018793D01*
X0373005Y0018913D01*
X0372857Y0019038D01*
X0372712Y0019166D01*
X0372571Y0019297D01*
X0372432Y0019432D01*
X0372297Y0019571D01*
X0372166Y0019712D01*
X0372038Y0019857D01*
X0371913Y0020005D01*
X0371793Y0020156D01*
X0371676Y0020309D01*
X0371562Y0020466D01*
X0371453Y0020625D01*
X0371348Y0020787D01*
X0371246Y0020952D01*
X0371149Y0021119D01*
X0371056Y0021288D01*
X0370967Y0021460D01*
X0370882Y0021633D01*
X0370802Y0021809D01*
X0370725Y0021987D01*
X0370654Y0022166D01*
X0370586Y0022347D01*
X0370523Y0022530D01*
X0370465Y0022714D01*
X0370411Y0022900D01*
X0370362Y0023087D01*
X0370317Y0023275D01*
X0370277Y0023464D01*
X0370242Y0023654D01*
X0370211Y0023845D01*
X0370185Y0024036D01*
X0370164Y0024228D01*
X0370147Y0024421D01*
X0370135Y0024614D01*
X0370128Y0024807D01*
X0370126Y0025000D01*
D14*
X0305700Y0050000D03*
D15*
X0290520Y0050000D03*
X0278141Y0050000D03*
X0262961Y0050000D03*
D16*
X0352953Y0175000D03*
D17*
X0366063Y0175000D03*
D18*
X0365000Y0135000D03*
X0355000Y0135000D03*
D19*
X0350000Y0235500D03*
X0295000Y0235500D03*
X0245000Y0235500D03*
X0195000Y0235500D03*
X0150000Y0235500D03*
X0115000Y0235500D03*
X0080000Y0235500D03*
X0045000Y0235500D03*
X0025500Y0175000D03*
D20*
X0024500Y0165000D03*
X0025500Y0155000D03*
X0024500Y0145000D03*
X0025500Y0135000D03*
X0024500Y0125000D03*
X0025500Y0115000D03*
X0024500Y0105000D03*
X0060000Y0214000D03*
X0070000Y0215000D03*
X0080000Y0214000D03*
X0090000Y0215000D03*
X0100000Y0214000D03*
X0115000Y0215000D03*
X0125000Y0214000D03*
X0135000Y0215000D03*
X0145000Y0214000D03*
X0155000Y0215000D03*
X0165000Y0214000D03*
X0160000Y0234500D03*
X0170000Y0235500D03*
X0205000Y0234500D03*
X0215000Y0235500D03*
X0225000Y0234500D03*
X0230000Y0215000D03*
X0240000Y0214000D03*
X0250000Y0215000D03*
X0260000Y0214000D03*
X0285000Y0215000D03*
X0295000Y0214000D03*
X0305000Y0215000D03*
X0315000Y0214000D03*
X0325000Y0215000D03*
X0335000Y0214000D03*
X0325000Y0234500D03*
X0315000Y0235500D03*
X0305000Y0234500D03*
X0275000Y0234500D03*
X0265000Y0235500D03*
X0255000Y0234500D03*
X0220000Y0214000D03*
X0210000Y0215000D03*
X0135000Y0235500D03*
X0125000Y0234500D03*
X0100000Y0235500D03*
X0090000Y0234500D03*
X0065000Y0235500D03*
X0055000Y0234500D03*
X0050000Y0215000D03*
X0360000Y0234500D03*
X0370000Y0235500D03*
X0380000Y0234500D03*
D21*
X0220000Y0185000D03*
X0095000Y0185000D03*
D22*
X0102874Y0185000D03*
X0110748Y0185000D03*
X0118622Y0185000D03*
X0126496Y0185000D03*
X0134370Y0185000D03*
X0142244Y0185000D03*
X0150118Y0185000D03*
X0157992Y0185000D03*
X0165866Y0185000D03*
X0227874Y0185000D03*
X0235748Y0185000D03*
X0243622Y0185000D03*
X0251496Y0185000D03*
X0259370Y0185000D03*
X0267244Y0185000D03*
X0275118Y0185000D03*
X0282992Y0185000D03*
X0290866Y0185000D03*
D23*
X0290866Y0189375D01*
X0290522Y0189375D01*
X0289842Y0189267D01*
X0289187Y0189054D01*
X0288573Y0188742D01*
X0288016Y0188337D01*
X0287529Y0187850D01*
X0287124Y0187293D01*
X0287053Y0187152D01*
X0286870Y0187591D01*
X0285584Y0188878D01*
X0283902Y0189575D01*
X0282082Y0189575D01*
X0280401Y0188878D01*
X0279114Y0187591D01*
X0279055Y0187450D01*
X0278996Y0187591D01*
X0277710Y0188878D01*
X0276028Y0189575D01*
X0274208Y0189575D01*
X0272527Y0188878D01*
X0271240Y0187591D01*
X0271181Y0187450D01*
X0271122Y0187591D01*
X0269836Y0188878D01*
X0268154Y0189575D01*
X0266334Y0189575D01*
X0264653Y0188878D01*
X0263366Y0187591D01*
X0263307Y0187450D01*
X0263248Y0187591D01*
X0261961Y0188878D01*
X0260280Y0189575D01*
X0258460Y0189575D01*
X0256779Y0188878D01*
X0255492Y0187591D01*
X0255433Y0187450D01*
X0255374Y0187591D01*
X0254087Y0188878D01*
X0252406Y0189575D01*
X0250586Y0189575D01*
X0248905Y0188878D01*
X0247618Y0187591D01*
X0247559Y0187450D01*
X0247500Y0187591D01*
X0246213Y0188878D01*
X0244532Y0189575D01*
X0242712Y0189575D01*
X0241031Y0188878D01*
X0239744Y0187591D01*
X0239685Y0187450D01*
X0239626Y0187591D01*
X0238339Y0188878D01*
X0236658Y0189575D01*
X0234838Y0189575D01*
X0233157Y0188878D01*
X0231870Y0187591D01*
X0231811Y0187450D01*
X0231752Y0187591D01*
X0230465Y0188878D01*
X0228784Y0189575D01*
X0226964Y0189575D01*
X0225283Y0188878D01*
X0224575Y0188171D01*
X0224575Y0188403D01*
X0223403Y0189575D01*
X0216597Y0189575D01*
X0215425Y0188403D01*
X0215425Y0181597D01*
X0216597Y0180425D01*
X0223403Y0180425D01*
X0224575Y0181597D01*
X0224575Y0181829D01*
X0225283Y0181122D01*
X0226964Y0180425D01*
X0228784Y0180425D01*
X0230465Y0181122D01*
X0231752Y0182409D01*
X0231811Y0182550D01*
X0231870Y0182409D01*
X0233157Y0181122D01*
X0234838Y0180425D01*
X0236658Y0180425D01*
X0238339Y0181122D01*
X0239626Y0182409D01*
X0239685Y0182550D01*
X0239744Y0182409D01*
X0241031Y0181122D01*
X0242712Y0180425D01*
X0244532Y0180425D01*
X0246213Y0181122D01*
X0247500Y0182409D01*
X0247559Y0182550D01*
X0247618Y0182409D01*
X0248905Y0181122D01*
X0250586Y0180425D01*
X0252406Y0180425D01*
X0254087Y0181122D01*
X0255374Y0182409D01*
X0255433Y0182550D01*
X0255492Y0182409D01*
X0256779Y0181122D01*
X0258460Y0180425D01*
X0260280Y0180425D01*
X0261961Y0181122D01*
X0263248Y0182409D01*
X0263307Y0182550D01*
X0263366Y0182409D01*
X0264653Y0181122D01*
X0266334Y0180425D01*
X0268154Y0180425D01*
X0269836Y0181122D01*
X0271122Y0182409D01*
X0271181Y0182550D01*
X0271240Y0182409D01*
X0272527Y0181122D01*
X0274208Y0180425D01*
X0276028Y0180425D01*
X0277710Y0181122D01*
X0278996Y0182409D01*
X0279055Y0182550D01*
X0279114Y0182409D01*
X0280401Y0181122D01*
X0282082Y0180425D01*
X0283902Y0180425D01*
X0285584Y0181122D01*
X0286870Y0182409D01*
X0287053Y0182848D01*
X0287124Y0182707D01*
X0287529Y0182150D01*
X0288016Y0181663D01*
X0288573Y0181258D01*
X0289187Y0180946D01*
X0289842Y0180733D01*
X0290522Y0180625D01*
X0290866Y0180625D01*
X0290866Y0185000D01*
X0290866Y0185000D01*
X0290866Y0185000D01*
X0290866Y0189375D01*
X0291210Y0189375D01*
X0291891Y0189267D01*
X0292545Y0189054D01*
X0293159Y0188742D01*
X0293716Y0188337D01*
X0294203Y0187850D01*
X0294608Y0187293D01*
X0294920Y0186679D01*
X0295133Y0186024D01*
X0295241Y0185344D01*
X0295241Y0185000D01*
X0290866Y0185000D01*
X0290866Y0180625D01*
X0291210Y0180625D01*
X0291891Y0180733D01*
X0292545Y0180946D01*
X0293159Y0181258D01*
X0293716Y0181663D01*
X0294203Y0182150D01*
X0294608Y0182707D01*
X0294920Y0183321D01*
X0295133Y0183976D01*
X0295241Y0184656D01*
X0295241Y0185000D01*
X0290866Y0185000D01*
X0290866Y0185000D01*
X0290866Y0185632D02*
X0290866Y0185632D01*
X0290866Y0187230D02*
X0290866Y0187230D01*
X0290866Y0188829D02*
X0290866Y0188829D01*
X0288744Y0188829D02*
X0285633Y0188829D01*
X0287020Y0187230D02*
X0287093Y0187230D01*
X0286881Y0182435D02*
X0287322Y0182435D01*
X0289524Y0180836D02*
X0284894Y0180836D01*
X0281090Y0180836D02*
X0277020Y0180836D01*
X0279007Y0182435D02*
X0279103Y0182435D01*
X0273216Y0180836D02*
X0269146Y0180836D01*
X0271133Y0182435D02*
X0271229Y0182435D01*
X0265342Y0180836D02*
X0261272Y0180836D01*
X0263259Y0182435D02*
X0263355Y0182435D01*
X0257468Y0180836D02*
X0253398Y0180836D01*
X0255385Y0182435D02*
X0255481Y0182435D01*
X0249594Y0180836D02*
X0245524Y0180836D01*
X0247511Y0182435D02*
X0247607Y0182435D01*
X0241720Y0180836D02*
X0237650Y0180836D01*
X0239637Y0182435D02*
X0239733Y0182435D01*
X0233846Y0180836D02*
X0229776Y0180836D01*
X0231763Y0182435D02*
X0231859Y0182435D01*
X0225972Y0180836D02*
X0223814Y0180836D01*
X0216186Y0180836D02*
X0167209Y0180836D01*
X0166891Y0180733D02*
X0167545Y0180946D01*
X0168159Y0181258D01*
X0168716Y0181663D01*
X0169203Y0182150D01*
X0169608Y0182707D01*
X0169920Y0183321D01*
X0170133Y0183976D01*
X0170241Y0184656D01*
X0170241Y0185000D01*
X0170241Y0185344D01*
X0170133Y0186024D01*
X0169920Y0186679D01*
X0169608Y0187293D01*
X0169203Y0187850D01*
X0168716Y0188337D01*
X0168159Y0188742D01*
X0167545Y0189054D01*
X0166891Y0189267D01*
X0166210Y0189375D01*
X0165866Y0189375D01*
X0165522Y0189375D01*
X0164842Y0189267D01*
X0164187Y0189054D01*
X0163573Y0188742D01*
X0163016Y0188337D01*
X0162529Y0187850D01*
X0162124Y0187293D01*
X0162053Y0187152D01*
X0161870Y0187591D01*
X0160584Y0188878D01*
X0158902Y0189575D01*
X0157082Y0189575D01*
X0155401Y0188878D01*
X0154114Y0187591D01*
X0154055Y0187450D01*
X0153996Y0187591D01*
X0152710Y0188878D01*
X0151028Y0189575D01*
X0149208Y0189575D01*
X0147527Y0188878D01*
X0146240Y0187591D01*
X0146181Y0187450D01*
X0146122Y0187591D01*
X0144836Y0188878D01*
X0143154Y0189575D01*
X0141334Y0189575D01*
X0139653Y0188878D01*
X0138366Y0187591D01*
X0138307Y0187450D01*
X0138248Y0187591D01*
X0136961Y0188878D01*
X0135280Y0189575D01*
X0133460Y0189575D01*
X0131779Y0188878D01*
X0130492Y0187591D01*
X0130433Y0187450D01*
X0130374Y0187591D01*
X0129087Y0188878D01*
X0127406Y0189575D01*
X0125586Y0189575D01*
X0123905Y0188878D01*
X0122618Y0187591D01*
X0122559Y0187450D01*
X0122500Y0187591D01*
X0121213Y0188878D01*
X0119532Y0189575D01*
X0117712Y0189575D01*
X0116031Y0188878D01*
X0114744Y0187591D01*
X0114685Y0187450D01*
X0114626Y0187591D01*
X0113339Y0188878D01*
X0111658Y0189575D01*
X0109838Y0189575D01*
X0108157Y0188878D01*
X0106870Y0187591D01*
X0106811Y0187450D01*
X0106752Y0187591D01*
X0105465Y0188878D01*
X0103784Y0189575D01*
X0101964Y0189575D01*
X0100283Y0188878D01*
X0099575Y0188171D01*
X0099575Y0188403D01*
X0098403Y0189575D01*
X0098200Y0189575D01*
X0098200Y0196175D01*
X0112070Y0210044D01*
X0113866Y0209300D01*
X0116134Y0209300D01*
X0118229Y0210168D01*
X0119777Y0211716D01*
X0120168Y0210771D01*
X0121771Y0209168D01*
X0123866Y0208300D01*
X0126134Y0208300D01*
X0128229Y0209168D01*
X0129832Y0210771D01*
X0130223Y0211716D01*
X0131771Y0210168D01*
X0133866Y0209300D01*
X0136134Y0209300D01*
X0138229Y0210168D01*
X0139777Y0211716D01*
X0140168Y0210771D01*
X0141771Y0209168D01*
X0143866Y0208300D01*
X0146134Y0208300D01*
X0148229Y0209168D01*
X0149832Y0210771D01*
X0150223Y0211716D01*
X0151771Y0210168D01*
X0153866Y0209300D01*
X0156134Y0209300D01*
X0158229Y0210168D01*
X0159832Y0211771D01*
X0159893Y0211919D01*
X0159903Y0211889D01*
X0160296Y0211117D01*
X0160805Y0210417D01*
X0161417Y0209805D01*
X0162117Y0209296D01*
X0162889Y0208903D01*
X0163712Y0208635D01*
X0164567Y0208500D01*
X0164800Y0208500D01*
X0164800Y0213800D01*
X0165200Y0213800D01*
X0165200Y0214200D01*
X0164800Y0214200D01*
X0164800Y0219500D01*
X0164567Y0219500D01*
X0163712Y0219365D01*
X0162889Y0219097D01*
X0162117Y0218704D01*
X0161417Y0218195D01*
X0160805Y0217583D01*
X0160356Y0216965D01*
X0159832Y0218229D01*
X0158229Y0219832D01*
X0156134Y0220700D01*
X0153866Y0220700D01*
X0151771Y0219832D01*
X0150168Y0218229D01*
X0149777Y0217284D01*
X0148229Y0218832D01*
X0146134Y0219700D01*
X0143866Y0219700D01*
X0141771Y0218832D01*
X0140223Y0217284D01*
X0139832Y0218229D01*
X0138229Y0219832D01*
X0136134Y0220700D01*
X0133866Y0220700D01*
X0131771Y0219832D01*
X0130168Y0218229D01*
X0129777Y0217284D01*
X0128229Y0218832D01*
X0126134Y0219700D01*
X0123866Y0219700D01*
X0121771Y0218832D01*
X0120223Y0217284D01*
X0119832Y0218229D01*
X0118229Y0219832D01*
X0116134Y0220700D01*
X0113866Y0220700D01*
X0111771Y0219832D01*
X0110168Y0218229D01*
X0109436Y0216461D01*
X0105210Y0212235D01*
X0105365Y0212712D01*
X0105500Y0213567D01*
X0105500Y0213800D01*
X0100200Y0213800D01*
X0100200Y0214200D01*
X0099800Y0214200D01*
X0099800Y0219500D01*
X0099567Y0219500D01*
X0098712Y0219365D01*
X0097889Y0219097D01*
X0097117Y0218704D01*
X0096417Y0218195D01*
X0095805Y0217583D01*
X0095356Y0216965D01*
X0094832Y0218229D01*
X0093229Y0219832D01*
X0091134Y0220700D01*
X0088866Y0220700D01*
X0086771Y0219832D01*
X0085168Y0218229D01*
X0084777Y0217284D01*
X0083229Y0218832D01*
X0081134Y0219700D01*
X0078866Y0219700D01*
X0076771Y0218832D01*
X0075223Y0217284D01*
X0074832Y0218229D01*
X0073229Y0219832D01*
X0071134Y0220700D01*
X0068866Y0220700D01*
X0066771Y0219832D01*
X0065168Y0218229D01*
X0064777Y0217284D01*
X0063229Y0218832D01*
X0061134Y0219700D01*
X0058866Y0219700D01*
X0056771Y0218832D01*
X0055223Y0217284D01*
X0054832Y0218229D01*
X0053229Y0219832D01*
X0051134Y0220700D01*
X0048866Y0220700D01*
X0046771Y0219832D01*
X0045168Y0218229D01*
X0044300Y0216134D01*
X0044300Y0213866D01*
X0045168Y0211771D01*
X0046771Y0210168D01*
X0048866Y0209300D01*
X0051134Y0209300D01*
X0053229Y0210168D01*
X0054777Y0211716D01*
X0055168Y0210771D01*
X0056771Y0209168D01*
X0058866Y0208300D01*
X0061134Y0208300D01*
X0063229Y0209168D01*
X0064832Y0210771D01*
X0065223Y0211716D01*
X0066771Y0210168D01*
X0068866Y0209300D01*
X0071134Y0209300D01*
X0073229Y0210168D01*
X0074777Y0211716D01*
X0075168Y0210771D01*
X0076771Y0209168D01*
X0078866Y0208300D01*
X0081134Y0208300D01*
X0083229Y0209168D01*
X0084832Y0210771D01*
X0085223Y0211716D01*
X0086771Y0210168D01*
X0088866Y0209300D01*
X0091134Y0209300D01*
X0093229Y0210168D01*
X0094832Y0211771D01*
X0094893Y0211919D01*
X0094903Y0211889D01*
X0095296Y0211117D01*
X0095805Y0210417D01*
X0096417Y0209805D01*
X0097117Y0209296D01*
X0097889Y0208903D01*
X0098712Y0208635D01*
X0099567Y0208500D01*
X0099800Y0208500D01*
X0099800Y0213800D01*
X0100200Y0213800D01*
X0100200Y0208500D01*
X0100433Y0208500D01*
X0101288Y0208635D01*
X0101765Y0208790D01*
X0093187Y0200213D01*
X0092287Y0199313D01*
X0091800Y0198137D01*
X0091800Y0189575D01*
X0091597Y0189575D01*
X0090425Y0188403D01*
X0090425Y0181597D01*
X0091597Y0180425D01*
X0098403Y0180425D01*
X0099575Y0181597D01*
X0099575Y0181829D01*
X0100283Y0181122D01*
X0101964Y0180425D01*
X0103784Y0180425D01*
X0105465Y0181122D01*
X0106752Y0182409D01*
X0106811Y0182550D01*
X0106870Y0182409D01*
X0108157Y0181122D01*
X0109838Y0180425D01*
X0111658Y0180425D01*
X0113339Y0181122D01*
X0114626Y0182409D01*
X0114685Y0182550D01*
X0114744Y0182409D01*
X0116031Y0181122D01*
X0117712Y0180425D01*
X0119532Y0180425D01*
X0121213Y0181122D01*
X0122500Y0182409D01*
X0122559Y0182550D01*
X0122618Y0182409D01*
X0123905Y0181122D01*
X0125586Y0180425D01*
X0127406Y0180425D01*
X0129087Y0181122D01*
X0130374Y0182409D01*
X0130433Y0182550D01*
X0130492Y0182409D01*
X0131779Y0181122D01*
X0133460Y0180425D01*
X0135280Y0180425D01*
X0136961Y0181122D01*
X0138248Y0182409D01*
X0138307Y0182550D01*
X0138366Y0182409D01*
X0139653Y0181122D01*
X0141334Y0180425D01*
X0143154Y0180425D01*
X0144836Y0181122D01*
X0146122Y0182409D01*
X0146181Y0182550D01*
X0146240Y0182409D01*
X0147527Y0181122D01*
X0149208Y0180425D01*
X0151028Y0180425D01*
X0152710Y0181122D01*
X0153996Y0182409D01*
X0154055Y0182550D01*
X0154114Y0182409D01*
X0155401Y0181122D01*
X0157082Y0180425D01*
X0158902Y0180425D01*
X0160584Y0181122D01*
X0161870Y0182409D01*
X0162053Y0182848D01*
X0162124Y0182707D01*
X0162529Y0182150D01*
X0163016Y0181663D01*
X0163573Y0181258D01*
X0164187Y0180946D01*
X0164842Y0180733D01*
X0165522Y0180625D01*
X0165866Y0180625D01*
X0165866Y0185000D01*
X0165866Y0189375D01*
X0165866Y0185000D01*
X0165866Y0185000D01*
X0165866Y0185000D01*
X0165866Y0180625D01*
X0166210Y0180625D01*
X0166891Y0180733D01*
X0165866Y0180836D02*
X0165866Y0180836D01*
X0164524Y0180836D02*
X0159894Y0180836D01*
X0161881Y0182435D02*
X0162322Y0182435D01*
X0165866Y0182435D02*
X0165866Y0182435D01*
X0165866Y0184033D02*
X0165866Y0184033D01*
X0165866Y0185000D02*
X0165866Y0185000D01*
X0170241Y0185000D01*
X0165866Y0185000D01*
X0165866Y0185632D02*
X0165866Y0185632D01*
X0165866Y0187230D02*
X0165866Y0187230D01*
X0165866Y0188829D02*
X0165866Y0188829D01*
X0163744Y0188829D02*
X0160633Y0188829D01*
X0162020Y0187230D02*
X0162093Y0187230D01*
X0167988Y0188829D02*
X0215851Y0188829D01*
X0215425Y0187230D02*
X0169640Y0187230D01*
X0170195Y0185632D02*
X0215425Y0185632D01*
X0215425Y0184033D02*
X0170142Y0184033D01*
X0169410Y0182435D02*
X0215425Y0182435D01*
X0224149Y0188829D02*
X0225233Y0188829D01*
X0230515Y0188829D02*
X0233107Y0188829D01*
X0238389Y0188829D02*
X0240981Y0188829D01*
X0246263Y0188829D02*
X0248855Y0188829D01*
X0254137Y0188829D02*
X0256729Y0188829D01*
X0262011Y0188829D02*
X0264603Y0188829D01*
X0269885Y0188829D02*
X0272477Y0188829D01*
X0277759Y0188829D02*
X0280351Y0188829D01*
X0290866Y0184033D02*
X0290866Y0184033D01*
X0290866Y0182435D02*
X0290866Y0182435D01*
X0290866Y0180836D02*
X0290866Y0180836D01*
X0292209Y0180836D02*
X0348890Y0180836D01*
X0348988Y0180934D02*
X0347018Y0178965D01*
X0345953Y0176392D01*
X0345953Y0173608D01*
X0347018Y0171035D01*
X0348988Y0169066D01*
X0351560Y0168000D01*
X0354345Y0168000D01*
X0356918Y0169066D01*
X0358887Y0171035D01*
X0359334Y0172113D01*
X0363246Y0168200D01*
X0365863Y0168200D01*
X0365863Y0174800D01*
X0366263Y0174800D01*
X0366263Y0175200D01*
X0372863Y0175200D01*
X0372863Y0177817D01*
X0368880Y0181800D01*
X0366263Y0181800D01*
X0366263Y0175200D01*
X0365863Y0175200D01*
X0365863Y0181800D01*
X0363246Y0181800D01*
X0359334Y0177887D01*
X0358887Y0178965D01*
X0356918Y0180934D01*
X0354345Y0182000D01*
X0351560Y0182000D01*
X0348988Y0180934D01*
X0347291Y0179238D02*
X0031200Y0179238D01*
X0031200Y0179528D02*
X0030028Y0180700D01*
X0020972Y0180700D01*
X0019800Y0179528D01*
X0019800Y0170472D01*
X0020855Y0169416D01*
X0019668Y0168229D01*
X0018800Y0166134D01*
X0018800Y0163866D01*
X0019668Y0161771D01*
X0021271Y0160168D01*
X0022216Y0159777D01*
X0020668Y0158229D01*
X0019800Y0156134D01*
X0019800Y0153866D01*
X0020668Y0151771D01*
X0022216Y0150223D01*
X0021271Y0149832D01*
X0019668Y0148229D01*
X0018800Y0146134D01*
X0018800Y0143866D01*
X0019668Y0141771D01*
X0021271Y0140168D01*
X0022216Y0139777D01*
X0020668Y0138229D01*
X0019800Y0136134D01*
X0019800Y0133866D01*
X0020668Y0131771D01*
X0022216Y0130223D01*
X0021271Y0129832D01*
X0019668Y0128229D01*
X0018800Y0126134D01*
X0018800Y0123866D01*
X0019668Y0121771D01*
X0021271Y0120168D01*
X0022535Y0119644D01*
X0021917Y0119195D01*
X0021305Y0118583D01*
X0020796Y0117883D01*
X0020403Y0117111D01*
X0020135Y0116288D01*
X0020000Y0115433D01*
X0020000Y0115200D01*
X0025300Y0115200D01*
X0025300Y0114800D01*
X0020000Y0114800D01*
X0020000Y0114567D01*
X0020135Y0113712D01*
X0020403Y0112889D01*
X0020796Y0112117D01*
X0021305Y0111417D01*
X0021917Y0110805D01*
X0022535Y0110356D01*
X0021271Y0109832D01*
X0019668Y0108229D01*
X0018800Y0106134D01*
X0018800Y0103866D01*
X0019668Y0101771D01*
X0021271Y0100168D01*
X0023366Y0099300D01*
X0025634Y0099300D01*
X0027729Y0100168D01*
X0029332Y0101771D01*
X0030200Y0103866D01*
X0030200Y0106134D01*
X0029332Y0108229D01*
X0027729Y0109832D01*
X0027581Y0109893D01*
X0027611Y0109903D01*
X0028383Y0110296D01*
X0029083Y0110805D01*
X0029695Y0111417D01*
X0030204Y0112117D01*
X0030597Y0112889D01*
X0030865Y0113712D01*
X0031000Y0114567D01*
X0031000Y0114800D01*
X0025700Y0114800D01*
X0025700Y0115200D01*
X0031000Y0115200D01*
X0031000Y0115433D01*
X0030865Y0116288D01*
X0030597Y0117111D01*
X0030204Y0117883D01*
X0029695Y0118583D01*
X0029083Y0119195D01*
X0028383Y0119704D01*
X0027611Y0120097D01*
X0027581Y0120107D01*
X0027729Y0120168D01*
X0029332Y0121771D01*
X0029593Y0122400D01*
X0036423Y0122400D01*
X0044900Y0113923D01*
X0044900Y0076983D01*
X0045296Y0076027D01*
X0047796Y0073527D01*
X0048527Y0072796D01*
X0049483Y0072400D01*
X0158923Y0072400D01*
X0167400Y0063923D01*
X0167400Y0061445D01*
X0166122Y0060166D01*
X0165425Y0058485D01*
X0165425Y0051515D01*
X0166122Y0049834D01*
X0167409Y0048547D01*
X0169090Y0047850D01*
X0170910Y0047850D01*
X0172591Y0048547D01*
X0173878Y0049834D01*
X0174575Y0051515D01*
X0174575Y0058485D01*
X0173878Y0060166D01*
X0172600Y0061445D01*
X0172600Y0065517D01*
X0172204Y0066473D01*
X0171473Y0067204D01*
X0161473Y0077204D01*
X0161000Y0077400D01*
X0161423Y0077400D01*
X0177389Y0061434D01*
X0176122Y0060166D01*
X0175425Y0058485D01*
X0175425Y0051515D01*
X0176122Y0049834D01*
X0177409Y0048547D01*
X0179090Y0047850D01*
X0180910Y0047850D01*
X0182591Y0048547D01*
X0183878Y0049834D01*
X0184575Y0051515D01*
X0184575Y0058485D01*
X0183878Y0060166D01*
X0182600Y0061445D01*
X0182600Y0063017D01*
X0182204Y0063973D01*
X0181473Y0064704D01*
X0163973Y0082204D01*
X0163500Y0082400D01*
X0168923Y0082400D01*
X0187400Y0063923D01*
X0187400Y0061445D01*
X0186122Y0060166D01*
X0185425Y0058485D01*
X0185425Y0051515D01*
X0186122Y0049834D01*
X0187409Y0048547D01*
X0189090Y0047850D01*
X0190910Y0047850D01*
X0192591Y0048547D01*
X0193878Y0049834D01*
X0194575Y0051515D01*
X0194575Y0058485D01*
X0193878Y0060166D01*
X0192600Y0061445D01*
X0192600Y0065517D01*
X0192204Y0066473D01*
X0191473Y0067204D01*
X0171473Y0087204D01*
X0171000Y0087400D01*
X0171423Y0087400D01*
X0197389Y0061434D01*
X0196122Y0060166D01*
X0195425Y0058485D01*
X0195425Y0051515D01*
X0196122Y0049834D01*
X0197409Y0048547D01*
X0199090Y0047850D01*
X0200910Y0047850D01*
X0202591Y0048547D01*
X0203878Y0049834D01*
X0204575Y0051515D01*
X0204575Y0058485D01*
X0203878Y0060166D01*
X0202600Y0061445D01*
X0202600Y0063017D01*
X0202204Y0063973D01*
X0201473Y0064704D01*
X0201473Y0064704D01*
X0173973Y0092204D01*
X0173017Y0092600D01*
X0080941Y0092600D01*
X0075100Y0097468D01*
X0075100Y0120517D01*
X0074704Y0121473D01*
X0073973Y0122204D01*
X0038973Y0157204D01*
X0038017Y0157600D01*
X0030593Y0157600D01*
X0030332Y0158229D01*
X0028729Y0159832D01*
X0027784Y0160223D01*
X0029332Y0161771D01*
X0029593Y0162400D01*
X0073923Y0162400D01*
X0113527Y0122796D01*
X0114483Y0122400D01*
X0218923Y0122400D01*
X0219173Y0122150D01*
X0219090Y0122150D01*
X0217409Y0121453D01*
X0216122Y0120166D01*
X0215425Y0118485D01*
X0215425Y0111515D01*
X0216122Y0109834D01*
X0217409Y0108547D01*
X0219090Y0107850D01*
X0220910Y0107850D01*
X0222591Y0108547D01*
X0223878Y0109834D01*
X0224575Y0111515D01*
X0224575Y0116748D01*
X0225425Y0115898D01*
X0225425Y0111515D01*
X0226122Y0109834D01*
X0227409Y0108547D01*
X0229090Y0107850D01*
X0230910Y0107850D01*
X0232591Y0108547D01*
X0233878Y0109834D01*
X0234575Y0111515D01*
X0234575Y0116748D01*
X0235425Y0115898D01*
X0235425Y0111515D01*
X0236122Y0109834D01*
X0237409Y0108547D01*
X0239090Y0107850D01*
X0240910Y0107850D01*
X0242591Y0108547D01*
X0243878Y0109834D01*
X0244575Y0111515D01*
X0244575Y0118485D01*
X0243878Y0120166D01*
X0242591Y0121453D01*
X0240910Y0122150D01*
X0239090Y0122150D01*
X0237409Y0121453D01*
X0237316Y0121361D01*
X0227204Y0131473D01*
X0226473Y0132204D01*
X0225517Y0132600D01*
X0121077Y0132600D01*
X0077204Y0176473D01*
X0076473Y0177204D01*
X0075517Y0177600D01*
X0031200Y0177600D01*
X0031200Y0179528D01*
X0031200Y0177639D02*
X0346469Y0177639D01*
X0345953Y0176041D02*
X0077636Y0176041D01*
X0079235Y0174442D02*
X0345953Y0174442D01*
X0346269Y0172844D02*
X0080833Y0172844D01*
X0082432Y0171245D02*
X0346931Y0171245D01*
X0348407Y0169647D02*
X0084030Y0169647D01*
X0085629Y0168048D02*
X0351444Y0168048D01*
X0354461Y0168048D02*
X0393200Y0168048D01*
X0393200Y0166450D02*
X0087227Y0166450D01*
X0088826Y0164851D02*
X0393200Y0164851D01*
X0393200Y0163253D02*
X0090424Y0163253D01*
X0092023Y0161654D02*
X0393200Y0161654D01*
X0393200Y0160056D02*
X0093621Y0160056D01*
X0095220Y0158457D02*
X0393200Y0158457D01*
X0393200Y0156859D02*
X0096818Y0156859D01*
X0098417Y0155260D02*
X0393200Y0155260D01*
X0393200Y0153662D02*
X0100015Y0153662D01*
X0101614Y0152063D02*
X0393200Y0152063D01*
X0393200Y0150465D02*
X0103212Y0150465D01*
X0104811Y0148866D02*
X0393200Y0148866D01*
X0393200Y0147268D02*
X0106409Y0147268D01*
X0108008Y0145669D02*
X0393200Y0145669D01*
X0393200Y0144070D02*
X0109606Y0144070D01*
X0111205Y0142472D02*
X0393200Y0142472D01*
X0393200Y0140873D02*
X0112803Y0140873D01*
X0114402Y0139275D02*
X0351850Y0139275D01*
X0352026Y0139451D02*
X0350549Y0137974D01*
X0349750Y0136044D01*
X0349750Y0133956D01*
X0350549Y0132026D01*
X0352026Y0130549D01*
X0353956Y0129750D01*
X0356044Y0129750D01*
X0357974Y0130549D01*
X0359451Y0132026D01*
X0360126Y0133657D01*
X0360320Y0133061D01*
X0360681Y0132353D01*
X0361148Y0131710D01*
X0361710Y0131148D01*
X0362353Y0130681D01*
X0363061Y0130320D01*
X0363817Y0130074D01*
X0364603Y0129950D01*
X0365000Y0129950D01*
X0365397Y0129950D01*
X0366183Y0130074D01*
X0366939Y0130320D01*
X0367647Y0130681D01*
X0368290Y0131148D01*
X0368852Y0131710D01*
X0369319Y0132353D01*
X0369680Y0133061D01*
X0369926Y0133817D01*
X0370050Y0134603D01*
X0370050Y0135000D01*
X0370050Y0135397D01*
X0369926Y0136183D01*
X0369680Y0136939D01*
X0369319Y0137647D01*
X0368852Y0138290D01*
X0368290Y0138852D01*
X0367647Y0139319D01*
X0366939Y0139680D01*
X0366183Y0139926D01*
X0365397Y0140050D01*
X0365000Y0140050D01*
X0365000Y0135000D01*
X0370050Y0135000D01*
X0365000Y0135000D01*
X0365000Y0135000D01*
X0365000Y0135000D01*
X0365000Y0129950D01*
X0365000Y0135000D01*
X0365000Y0135000D01*
X0365000Y0140050D01*
X0364603Y0140050D01*
X0363817Y0139926D01*
X0363061Y0139680D01*
X0362353Y0139319D01*
X0361710Y0138852D01*
X0361148Y0138290D01*
X0360681Y0137647D01*
X0360320Y0136939D01*
X0360126Y0136343D01*
X0359451Y0137974D01*
X0357974Y0139451D01*
X0356044Y0140250D01*
X0353956Y0140250D01*
X0352026Y0139451D01*
X0350426Y0137676D02*
X0116000Y0137676D01*
X0117599Y0136078D02*
X0349764Y0136078D01*
X0349750Y0134479D02*
X0119198Y0134479D01*
X0120796Y0132881D02*
X0350195Y0132881D01*
X0351293Y0131282D02*
X0227395Y0131282D01*
X0228993Y0129684D02*
X0393200Y0129684D01*
X0393200Y0131282D02*
X0368424Y0131282D01*
X0369588Y0132881D02*
X0393200Y0132881D01*
X0393200Y0134479D02*
X0370030Y0134479D01*
X0369942Y0136078D02*
X0393200Y0136078D01*
X0393200Y0137676D02*
X0369298Y0137676D01*
X0367708Y0139275D02*
X0393200Y0139275D01*
X0393200Y0128085D02*
X0230592Y0128085D01*
X0232190Y0126487D02*
X0393200Y0126487D01*
X0393200Y0124888D02*
X0233789Y0124888D01*
X0235387Y0123290D02*
X0393200Y0123290D01*
X0393200Y0121691D02*
X0242016Y0121691D01*
X0243909Y0120093D02*
X0393200Y0120093D01*
X0393200Y0118494D02*
X0244571Y0118494D01*
X0244575Y0116896D02*
X0393200Y0116896D01*
X0393200Y0115297D02*
X0244575Y0115297D01*
X0244575Y0113699D02*
X0393200Y0113699D01*
X0393200Y0112100D02*
X0244575Y0112100D01*
X0244155Y0110502D02*
X0393200Y0110502D01*
X0393200Y0108903D02*
X0242948Y0108903D01*
X0237052Y0108903D02*
X0232948Y0108903D01*
X0234155Y0110502D02*
X0235845Y0110502D01*
X0235425Y0112100D02*
X0234575Y0112100D01*
X0234575Y0113699D02*
X0235425Y0113699D01*
X0235425Y0115297D02*
X0234575Y0115297D01*
X0236986Y0121691D02*
X0237984Y0121691D01*
X0225425Y0115297D02*
X0224575Y0115297D01*
X0224575Y0113699D02*
X0225425Y0113699D01*
X0225425Y0112100D02*
X0224575Y0112100D01*
X0224155Y0110502D02*
X0225845Y0110502D01*
X0227052Y0108903D02*
X0222948Y0108903D01*
X0217052Y0108903D02*
X0212595Y0108903D01*
X0212850Y0109088D02*
X0213337Y0109575D01*
X0213742Y0110132D01*
X0214054Y0110746D01*
X0214267Y0111401D01*
X0214375Y0112081D01*
X0214375Y0115000D01*
X0214375Y0117919D01*
X0214267Y0118599D01*
X0214054Y0119254D01*
X0213742Y0119868D01*
X0213337Y0120425D01*
X0212850Y0120912D01*
X0212293Y0121316D01*
X0211679Y0121629D01*
X0211024Y0121842D01*
X0210344Y0121950D01*
X0210000Y0121950D01*
X0209656Y0121950D01*
X0208976Y0121842D01*
X0208321Y0121629D01*
X0207707Y0121316D01*
X0207150Y0120912D01*
X0206663Y0120425D01*
X0206258Y0119868D01*
X0205946Y0119254D01*
X0205733Y0118599D01*
X0205625Y0117919D01*
X0205625Y0115000D01*
X0210000Y0115000D01*
X0214375Y0115000D01*
X0210000Y0115000D01*
X0210000Y0115000D01*
X0210000Y0115000D01*
X0210000Y0121950D01*
X0210000Y0115000D01*
X0210000Y0108050D01*
X0210000Y0115000D01*
X0210000Y0115000D01*
X0210000Y0115000D01*
X0205625Y0115000D01*
X0205625Y0112081D01*
X0205733Y0111401D01*
X0205946Y0110746D01*
X0206258Y0110132D01*
X0206663Y0109575D01*
X0207150Y0109088D01*
X0207707Y0108684D01*
X0208321Y0108371D01*
X0208976Y0108158D01*
X0209656Y0108050D01*
X0210000Y0108050D01*
X0210344Y0108050D01*
X0211024Y0108158D01*
X0211679Y0108371D01*
X0212293Y0108684D01*
X0212850Y0109088D01*
X0213930Y0110502D02*
X0215845Y0110502D01*
X0215425Y0112100D02*
X0214375Y0112100D01*
X0214375Y0113699D02*
X0215425Y0113699D01*
X0215425Y0115297D02*
X0214375Y0115297D01*
X0214375Y0116896D02*
X0215425Y0116896D01*
X0215429Y0118494D02*
X0214284Y0118494D01*
X0213578Y0120093D02*
X0216091Y0120093D01*
X0217984Y0121691D02*
X0211488Y0121691D01*
X0210000Y0121691D02*
X0210000Y0121691D01*
X0208512Y0121691D02*
X0202016Y0121691D01*
X0202591Y0121453D02*
X0200910Y0122150D01*
X0199090Y0122150D01*
X0197409Y0121453D01*
X0196122Y0120166D01*
X0195425Y0118485D01*
X0195425Y0111515D01*
X0196122Y0109834D01*
X0197409Y0108547D01*
X0199090Y0107850D01*
X0200910Y0107850D01*
X0202591Y0108547D01*
X0203878Y0109834D01*
X0204575Y0111515D01*
X0204575Y0118485D01*
X0203878Y0120166D01*
X0202591Y0121453D01*
X0203909Y0120093D02*
X0206422Y0120093D01*
X0205716Y0118494D02*
X0204571Y0118494D01*
X0204575Y0116896D02*
X0205625Y0116896D01*
X0205625Y0115297D02*
X0204575Y0115297D01*
X0204575Y0113699D02*
X0205625Y0113699D01*
X0205625Y0112100D02*
X0204575Y0112100D01*
X0204155Y0110502D02*
X0206070Y0110502D01*
X0207405Y0108903D02*
X0202948Y0108903D01*
X0197052Y0108903D02*
X0192948Y0108903D01*
X0192591Y0108547D02*
X0193878Y0109834D01*
X0194575Y0111515D01*
X0194575Y0118485D01*
X0193878Y0120166D01*
X0192591Y0121453D01*
X0190910Y0122150D01*
X0189090Y0122150D01*
X0187409Y0121453D01*
X0186122Y0120166D01*
X0185425Y0118485D01*
X0185425Y0111515D01*
X0186122Y0109834D01*
X0187409Y0108547D01*
X0189090Y0107850D01*
X0190910Y0107850D01*
X0192591Y0108547D01*
X0194155Y0110502D02*
X0195845Y0110502D01*
X0195425Y0112100D02*
X0194575Y0112100D01*
X0194575Y0113699D02*
X0195425Y0113699D01*
X0195425Y0115297D02*
X0194575Y0115297D01*
X0194575Y0116896D02*
X0195425Y0116896D01*
X0195429Y0118494D02*
X0194571Y0118494D01*
X0193909Y0120093D02*
X0196091Y0120093D01*
X0197984Y0121691D02*
X0192016Y0121691D01*
X0187984Y0121691D02*
X0182016Y0121691D01*
X0182591Y0121453D02*
X0180910Y0122150D01*
X0179090Y0122150D01*
X0177409Y0121453D01*
X0176122Y0120166D01*
X0175425Y0118485D01*
X0175425Y0111515D01*
X0176122Y0109834D01*
X0177409Y0108547D01*
X0179090Y0107850D01*
X0180910Y0107850D01*
X0182591Y0108547D01*
X0183878Y0109834D01*
X0184575Y0111515D01*
X0184575Y0118485D01*
X0183878Y0120166D01*
X0182591Y0121453D01*
X0183909Y0120093D02*
X0186091Y0120093D01*
X0185429Y0118494D02*
X0184571Y0118494D01*
X0184575Y0116896D02*
X0185425Y0116896D01*
X0185425Y0115297D02*
X0184575Y0115297D01*
X0184575Y0113699D02*
X0185425Y0113699D01*
X0185425Y0112100D02*
X0184575Y0112100D01*
X0184155Y0110502D02*
X0185845Y0110502D01*
X0187052Y0108903D02*
X0182948Y0108903D01*
X0177052Y0108903D02*
X0172948Y0108903D01*
X0172591Y0108547D02*
X0173878Y0109834D01*
X0174575Y0111515D01*
X0174575Y0118485D01*
X0173878Y0120166D01*
X0172591Y0121453D01*
X0170910Y0122150D01*
X0169090Y0122150D01*
X0167409Y0121453D01*
X0166122Y0120166D01*
X0165425Y0118485D01*
X0165425Y0111515D01*
X0166122Y0109834D01*
X0167409Y0108547D01*
X0169090Y0107850D01*
X0170910Y0107850D01*
X0172591Y0108547D01*
X0174155Y0110502D02*
X0175845Y0110502D01*
X0175425Y0112100D02*
X0174575Y0112100D01*
X0174575Y0113699D02*
X0175425Y0113699D01*
X0175425Y0115297D02*
X0174575Y0115297D01*
X0174575Y0116896D02*
X0175425Y0116896D01*
X0175429Y0118494D02*
X0174571Y0118494D01*
X0173909Y0120093D02*
X0176091Y0120093D01*
X0177984Y0121691D02*
X0172016Y0121691D01*
X0167984Y0121691D02*
X0162016Y0121691D01*
X0162591Y0121453D02*
X0160910Y0122150D01*
X0159090Y0122150D01*
X0157409Y0121453D01*
X0156122Y0120166D01*
X0155425Y0118485D01*
X0155425Y0111515D01*
X0156122Y0109834D01*
X0157409Y0108547D01*
X0159090Y0107850D01*
X0160910Y0107850D01*
X0162591Y0108547D01*
X0163878Y0109834D01*
X0164575Y0111515D01*
X0164575Y0118485D01*
X0163878Y0120166D01*
X0162591Y0121453D01*
X0163909Y0120093D02*
X0166091Y0120093D01*
X0165429Y0118494D02*
X0164571Y0118494D01*
X0164575Y0116896D02*
X0165425Y0116896D01*
X0165425Y0115297D02*
X0164575Y0115297D01*
X0164575Y0113699D02*
X0165425Y0113699D01*
X0165425Y0112100D02*
X0164575Y0112100D01*
X0164155Y0110502D02*
X0165845Y0110502D01*
X0167052Y0108903D02*
X0162948Y0108903D01*
X0157052Y0108903D02*
X0152948Y0108903D01*
X0152591Y0108547D02*
X0153878Y0109834D01*
X0154575Y0111515D01*
X0154575Y0118485D01*
X0153878Y0120166D01*
X0152591Y0121453D01*
X0150910Y0122150D01*
X0149090Y0122150D01*
X0147409Y0121453D01*
X0146122Y0120166D01*
X0145425Y0118485D01*
X0145425Y0111515D01*
X0146122Y0109834D01*
X0147409Y0108547D01*
X0149090Y0107850D01*
X0150910Y0107850D01*
X0152591Y0108547D01*
X0154155Y0110502D02*
X0155845Y0110502D01*
X0155425Y0112100D02*
X0154575Y0112100D01*
X0154575Y0113699D02*
X0155425Y0113699D01*
X0155425Y0115297D02*
X0154575Y0115297D01*
X0154575Y0116896D02*
X0155425Y0116896D01*
X0155429Y0118494D02*
X0154571Y0118494D01*
X0153909Y0120093D02*
X0156091Y0120093D01*
X0157984Y0121691D02*
X0152016Y0121691D01*
X0147984Y0121691D02*
X0142016Y0121691D01*
X0142591Y0121453D02*
X0140910Y0122150D01*
X0139090Y0122150D01*
X0137409Y0121453D01*
X0136122Y0120166D01*
X0135425Y0118485D01*
X0135425Y0111515D01*
X0136122Y0109834D01*
X0137409Y0108547D01*
X0139090Y0107850D01*
X0140910Y0107850D01*
X0142591Y0108547D01*
X0143878Y0109834D01*
X0144575Y0111515D01*
X0144575Y0118485D01*
X0143878Y0120166D01*
X0142591Y0121453D01*
X0143909Y0120093D02*
X0146091Y0120093D01*
X0145429Y0118494D02*
X0144571Y0118494D01*
X0144575Y0116896D02*
X0145425Y0116896D01*
X0145425Y0115297D02*
X0144575Y0115297D01*
X0144575Y0113699D02*
X0145425Y0113699D01*
X0145425Y0112100D02*
X0144575Y0112100D01*
X0144155Y0110502D02*
X0145845Y0110502D01*
X0147052Y0108903D02*
X0142948Y0108903D01*
X0137052Y0108903D02*
X0132948Y0108903D01*
X0132591Y0108547D02*
X0133878Y0109834D01*
X0134575Y0111515D01*
X0134575Y0118485D01*
X0133878Y0120166D01*
X0132591Y0121453D01*
X0130910Y0122150D01*
X0129090Y0122150D01*
X0127409Y0121453D01*
X0126122Y0120166D01*
X0125425Y0118485D01*
X0125425Y0111515D01*
X0126122Y0109834D01*
X0127409Y0108547D01*
X0129090Y0107850D01*
X0130910Y0107850D01*
X0132591Y0108547D01*
X0134155Y0110502D02*
X0135845Y0110502D01*
X0135425Y0112100D02*
X0134575Y0112100D01*
X0134575Y0113699D02*
X0135425Y0113699D01*
X0135425Y0115297D02*
X0134575Y0115297D01*
X0134575Y0116896D02*
X0135425Y0116896D01*
X0135429Y0118494D02*
X0134571Y0118494D01*
X0133909Y0120093D02*
X0136091Y0120093D01*
X0137984Y0121691D02*
X0132016Y0121691D01*
X0127984Y0121691D02*
X0122016Y0121691D01*
X0122591Y0121453D02*
X0120910Y0122150D01*
X0119090Y0122150D01*
X0117409Y0121453D01*
X0116122Y0120166D01*
X0115425Y0118485D01*
X0115425Y0111515D01*
X0116122Y0109834D01*
X0117409Y0108547D01*
X0119090Y0107850D01*
X0120910Y0107850D01*
X0122591Y0108547D01*
X0123878Y0109834D01*
X0124575Y0111515D01*
X0124575Y0118485D01*
X0123878Y0120166D01*
X0122591Y0121453D01*
X0123909Y0120093D02*
X0126091Y0120093D01*
X0125429Y0118494D02*
X0124571Y0118494D01*
X0124575Y0116896D02*
X0125425Y0116896D01*
X0125425Y0115297D02*
X0124575Y0115297D01*
X0124575Y0113699D02*
X0125425Y0113699D01*
X0125425Y0112100D02*
X0124575Y0112100D01*
X0124155Y0110502D02*
X0125845Y0110502D01*
X0127052Y0108903D02*
X0122948Y0108903D01*
X0117052Y0108903D02*
X0112948Y0108903D01*
X0112591Y0108547D02*
X0113878Y0109834D01*
X0114575Y0111515D01*
X0114575Y0118485D01*
X0113878Y0120166D01*
X0112591Y0121453D01*
X0110910Y0122150D01*
X0109090Y0122150D01*
X0107409Y0121453D01*
X0106122Y0120166D01*
X0105425Y0118485D01*
X0105425Y0111515D01*
X0106122Y0109834D01*
X0107409Y0108547D01*
X0109090Y0107850D01*
X0110910Y0107850D01*
X0112591Y0108547D01*
X0114155Y0110502D02*
X0115845Y0110502D01*
X0115425Y0112100D02*
X0114575Y0112100D01*
X0114575Y0113699D02*
X0115425Y0113699D01*
X0115425Y0115297D02*
X0114575Y0115297D01*
X0114575Y0116896D02*
X0115425Y0116896D01*
X0115429Y0118494D02*
X0114571Y0118494D01*
X0113909Y0120093D02*
X0116091Y0120093D01*
X0117984Y0121691D02*
X0112016Y0121691D01*
X0113033Y0123290D02*
X0072887Y0123290D01*
X0071289Y0124888D02*
X0111435Y0124888D01*
X0109836Y0126487D02*
X0069690Y0126487D01*
X0068092Y0128085D02*
X0108238Y0128085D01*
X0106639Y0129684D02*
X0066493Y0129684D01*
X0064895Y0131282D02*
X0105041Y0131282D01*
X0103442Y0132881D02*
X0063296Y0132881D01*
X0061698Y0134479D02*
X0101844Y0134479D01*
X0100245Y0136078D02*
X0060099Y0136078D01*
X0058500Y0137676D02*
X0098647Y0137676D01*
X0097048Y0139275D02*
X0056902Y0139275D01*
X0055303Y0140873D02*
X0095450Y0140873D01*
X0093851Y0142472D02*
X0053705Y0142472D01*
X0052106Y0144070D02*
X0092253Y0144070D01*
X0090654Y0145669D02*
X0050508Y0145669D01*
X0048909Y0147268D02*
X0089056Y0147268D01*
X0087457Y0148866D02*
X0047311Y0148866D01*
X0045712Y0150465D02*
X0085859Y0150465D01*
X0084260Y0152063D02*
X0044114Y0152063D01*
X0042515Y0153662D02*
X0082661Y0153662D01*
X0081063Y0155260D02*
X0040917Y0155260D01*
X0039318Y0156859D02*
X0079464Y0156859D01*
X0077866Y0158457D02*
X0030104Y0158457D01*
X0028190Y0160056D02*
X0076267Y0160056D01*
X0074669Y0161654D02*
X0029215Y0161654D01*
X0021542Y0160056D02*
X0009800Y0160056D01*
X0009800Y0161654D02*
X0019785Y0161654D01*
X0019054Y0163253D02*
X0009800Y0163253D01*
X0009800Y0164851D02*
X0018800Y0164851D01*
X0018931Y0166450D02*
X0009800Y0166450D01*
X0009800Y0168048D02*
X0019593Y0168048D01*
X0020625Y0169647D02*
X0009800Y0169647D01*
X0009800Y0171245D02*
X0019800Y0171245D01*
X0019800Y0172844D02*
X0009800Y0172844D01*
X0009800Y0174442D02*
X0019800Y0174442D01*
X0019800Y0176041D02*
X0009800Y0176041D01*
X0009800Y0177639D02*
X0019800Y0177639D01*
X0019800Y0179238D02*
X0009800Y0179238D01*
X0009800Y0180836D02*
X0091186Y0180836D01*
X0090425Y0182435D02*
X0009800Y0182435D01*
X0009800Y0184033D02*
X0090425Y0184033D01*
X0090425Y0185632D02*
X0009800Y0185632D01*
X0009800Y0187230D02*
X0090425Y0187230D01*
X0090851Y0188829D02*
X0009800Y0188829D01*
X0009800Y0190427D02*
X0091800Y0190427D01*
X0091800Y0192026D02*
X0009800Y0192026D01*
X0009800Y0193624D02*
X0091800Y0193624D01*
X0091800Y0195223D02*
X0009800Y0195223D01*
X0009800Y0196821D02*
X0091800Y0196821D01*
X0091917Y0198420D02*
X0009800Y0198420D01*
X0009800Y0200018D02*
X0092993Y0200018D01*
X0094591Y0201617D02*
X0009800Y0201617D01*
X0009800Y0203215D02*
X0096190Y0203215D01*
X0097788Y0204814D02*
X0009800Y0204814D01*
X0009800Y0206412D02*
X0099387Y0206412D01*
X0100985Y0208011D02*
X0009800Y0208011D01*
X0009800Y0209609D02*
X0048119Y0209609D01*
X0045731Y0211208D02*
X0009800Y0211208D01*
X0009800Y0212806D02*
X0044739Y0212806D01*
X0044300Y0214405D02*
X0009800Y0214405D01*
X0009800Y0216003D02*
X0044300Y0216003D01*
X0044908Y0217602D02*
X0009800Y0217602D01*
X0009800Y0219201D02*
X0046139Y0219201D01*
X0053860Y0219201D02*
X0057660Y0219201D01*
X0055541Y0217602D02*
X0055092Y0217602D01*
X0062340Y0219201D02*
X0066139Y0219201D01*
X0064908Y0217602D02*
X0064459Y0217602D01*
X0073860Y0219201D02*
X0077660Y0219201D01*
X0075541Y0217602D02*
X0075092Y0217602D01*
X0082340Y0219201D02*
X0086139Y0219201D01*
X0084908Y0217602D02*
X0084459Y0217602D01*
X0085013Y0211208D02*
X0085731Y0211208D01*
X0083670Y0209609D02*
X0088119Y0209609D01*
X0091881Y0209609D02*
X0096686Y0209609D01*
X0095250Y0211208D02*
X0094269Y0211208D01*
X0099800Y0211208D02*
X0100200Y0211208D01*
X0100200Y0212806D02*
X0099800Y0212806D01*
X0100200Y0214200D02*
X0105500Y0214200D01*
X0105500Y0214433D01*
X0105365Y0215288D01*
X0105097Y0216111D01*
X0104704Y0216883D01*
X0104195Y0217583D01*
X0103583Y0218195D01*
X0102883Y0218704D01*
X0102111Y0219097D01*
X0101288Y0219365D01*
X0100433Y0219500D01*
X0100200Y0219500D01*
X0100200Y0214200D01*
X0100200Y0214405D02*
X0099800Y0214405D01*
X0099800Y0216003D02*
X0100200Y0216003D01*
X0100200Y0217602D02*
X0099800Y0217602D01*
X0099800Y0219201D02*
X0100200Y0219201D01*
X0101793Y0219201D02*
X0111139Y0219201D01*
X0109908Y0217602D02*
X0104176Y0217602D01*
X0105132Y0216003D02*
X0108978Y0216003D01*
X0107380Y0214405D02*
X0105500Y0214405D01*
X0105380Y0212806D02*
X0105781Y0212806D01*
X0100200Y0209609D02*
X0099800Y0209609D01*
X0105241Y0203215D02*
X0393200Y0203215D01*
X0393200Y0201617D02*
X0103642Y0201617D01*
X0102044Y0200018D02*
X0393200Y0200018D01*
X0393200Y0198420D02*
X0100445Y0198420D01*
X0098847Y0196821D02*
X0393200Y0196821D01*
X0393200Y0195223D02*
X0098200Y0195223D01*
X0098200Y0193624D02*
X0393200Y0193624D01*
X0393200Y0192026D02*
X0098200Y0192026D01*
X0098200Y0190427D02*
X0393200Y0190427D01*
X0393200Y0188829D02*
X0292988Y0188829D01*
X0294640Y0187230D02*
X0393200Y0187230D01*
X0393200Y0185632D02*
X0295195Y0185632D01*
X0295142Y0184033D02*
X0393200Y0184033D01*
X0393200Y0182435D02*
X0294410Y0182435D01*
X0293866Y0208300D02*
X0296134Y0208300D01*
X0298229Y0209168D01*
X0299832Y0210771D01*
X0300223Y0211716D01*
X0301771Y0210168D01*
X0303866Y0209300D01*
X0306134Y0209300D01*
X0308229Y0210168D01*
X0309777Y0211716D01*
X0310168Y0210771D01*
X0311771Y0209168D01*
X0313866Y0208300D01*
X0316134Y0208300D01*
X0318229Y0209168D01*
X0319832Y0210771D01*
X0320223Y0211716D01*
X0321771Y0210168D01*
X0323866Y0209300D01*
X0326134Y0209300D01*
X0328229Y0210168D01*
X0329832Y0211771D01*
X0329893Y0211919D01*
X0329903Y0211889D01*
X0330296Y0211117D01*
X0330805Y0210417D01*
X0331417Y0209805D01*
X0332117Y0209296D01*
X0332889Y0208903D01*
X0333712Y0208635D01*
X0334567Y0208500D01*
X0334800Y0208500D01*
X0334800Y0213800D01*
X0335200Y0213800D01*
X0335200Y0214200D01*
X0340500Y0214200D01*
X0340500Y0214433D01*
X0340365Y0215288D01*
X0340097Y0216111D01*
X0339704Y0216883D01*
X0339195Y0217583D01*
X0338583Y0218195D01*
X0337883Y0218704D01*
X0337111Y0219097D01*
X0336288Y0219365D01*
X0335433Y0219500D01*
X0335200Y0219500D01*
X0335200Y0214200D01*
X0334800Y0214200D01*
X0334800Y0219500D01*
X0334567Y0219500D01*
X0333712Y0219365D01*
X0332889Y0219097D01*
X0332117Y0218704D01*
X0331417Y0218195D01*
X0330805Y0217583D01*
X0330356Y0216965D01*
X0329832Y0218229D01*
X0328229Y0219832D01*
X0326134Y0220700D01*
X0323866Y0220700D01*
X0321771Y0219832D01*
X0320168Y0218229D01*
X0319777Y0217284D01*
X0318229Y0218832D01*
X0316134Y0219700D01*
X0313866Y0219700D01*
X0311771Y0218832D01*
X0310223Y0217284D01*
X0309832Y0218229D01*
X0308229Y0219832D01*
X0306134Y0220700D01*
X0303866Y0220700D01*
X0301771Y0219832D01*
X0300168Y0218229D01*
X0299777Y0217284D01*
X0298229Y0218832D01*
X0296134Y0219700D01*
X0293866Y0219700D01*
X0291771Y0218832D01*
X0290223Y0217284D01*
X0289832Y0218229D01*
X0288229Y0219832D01*
X0286134Y0220700D01*
X0283866Y0220700D01*
X0281771Y0219832D01*
X0280168Y0218229D01*
X0279300Y0216134D01*
X0279300Y0213866D01*
X0280168Y0211771D01*
X0281771Y0210168D01*
X0283866Y0209300D01*
X0286134Y0209300D01*
X0288229Y0210168D01*
X0289777Y0211716D01*
X0290168Y0210771D01*
X0291771Y0209168D01*
X0293866Y0208300D01*
X0291330Y0209609D02*
X0286881Y0209609D01*
X0289269Y0211208D02*
X0289987Y0211208D01*
X0283119Y0209609D02*
X0263314Y0209609D01*
X0263583Y0209805D02*
X0264195Y0210417D01*
X0264704Y0211117D01*
X0265097Y0211889D01*
X0265365Y0212712D01*
X0265500Y0213567D01*
X0265500Y0213800D01*
X0260200Y0213800D01*
X0260200Y0214200D01*
X0265500Y0214200D01*
X0265500Y0214433D01*
X0265365Y0215288D01*
X0265097Y0216111D01*
X0264704Y0216883D01*
X0264195Y0217583D01*
X0263583Y0218195D01*
X0262883Y0218704D01*
X0262111Y0219097D01*
X0261288Y0219365D01*
X0260433Y0219500D01*
X0260200Y0219500D01*
X0260200Y0214200D01*
X0259800Y0214200D01*
X0259800Y0219500D01*
X0259567Y0219500D01*
X0258712Y0219365D01*
X0257889Y0219097D01*
X0257117Y0218704D01*
X0256417Y0218195D01*
X0255805Y0217583D01*
X0255356Y0216965D01*
X0254832Y0218229D01*
X0253229Y0219832D01*
X0251134Y0220700D01*
X0248866Y0220700D01*
X0246771Y0219832D01*
X0245168Y0218229D01*
X0244777Y0217284D01*
X0243229Y0218832D01*
X0241134Y0219700D01*
X0238866Y0219700D01*
X0236771Y0218832D01*
X0235223Y0217284D01*
X0234832Y0218229D01*
X0233229Y0219832D01*
X0231134Y0220700D01*
X0228866Y0220700D01*
X0226771Y0219832D01*
X0225168Y0218229D01*
X0224777Y0217284D01*
X0223229Y0218832D01*
X0221134Y0219700D01*
X0218866Y0219700D01*
X0216771Y0218832D01*
X0215223Y0217284D01*
X0214832Y0218229D01*
X0213229Y0219832D01*
X0211134Y0220700D01*
X0208866Y0220700D01*
X0206771Y0219832D01*
X0205168Y0218229D01*
X0204300Y0216134D01*
X0204300Y0213866D01*
X0205168Y0211771D01*
X0206771Y0210168D01*
X0208866Y0209300D01*
X0211134Y0209300D01*
X0213229Y0210168D01*
X0214777Y0211716D01*
X0215168Y0210771D01*
X0216771Y0209168D01*
X0218866Y0208300D01*
X0221134Y0208300D01*
X0223229Y0209168D01*
X0224832Y0210771D01*
X0225223Y0211716D01*
X0226771Y0210168D01*
X0228866Y0209300D01*
X0231134Y0209300D01*
X0233229Y0210168D01*
X0234777Y0211716D01*
X0235168Y0210771D01*
X0236771Y0209168D01*
X0238866Y0208300D01*
X0241134Y0208300D01*
X0243229Y0209168D01*
X0244832Y0210771D01*
X0245223Y0211716D01*
X0246771Y0210168D01*
X0248866Y0209300D01*
X0251134Y0209300D01*
X0253229Y0210168D01*
X0254832Y0211771D01*
X0254893Y0211919D01*
X0254903Y0211889D01*
X0255296Y0211117D01*
X0255805Y0210417D01*
X0256417Y0209805D01*
X0257117Y0209296D01*
X0257889Y0208903D01*
X0258712Y0208635D01*
X0259567Y0208500D01*
X0259800Y0208500D01*
X0259800Y0213800D01*
X0260200Y0213800D01*
X0260200Y0208500D01*
X0260433Y0208500D01*
X0261288Y0208635D01*
X0262111Y0208903D01*
X0262883Y0209296D01*
X0263583Y0209805D01*
X0264750Y0211208D02*
X0280731Y0211208D01*
X0279739Y0212806D02*
X0265380Y0212806D01*
X0265500Y0214405D02*
X0279300Y0214405D01*
X0279300Y0216003D02*
X0265132Y0216003D01*
X0264176Y0217602D02*
X0279908Y0217602D01*
X0281139Y0219201D02*
X0261793Y0219201D01*
X0260200Y0219201D02*
X0259800Y0219201D01*
X0258207Y0219201D02*
X0253860Y0219201D01*
X0255092Y0217602D02*
X0255824Y0217602D01*
X0259800Y0217602D02*
X0260200Y0217602D01*
X0260200Y0216003D02*
X0259800Y0216003D01*
X0259800Y0214405D02*
X0260200Y0214405D01*
X0260200Y0212806D02*
X0259800Y0212806D01*
X0259800Y0211208D02*
X0260200Y0211208D01*
X0260200Y0209609D02*
X0259800Y0209609D01*
X0256686Y0209609D02*
X0251881Y0209609D01*
X0254269Y0211208D02*
X0255250Y0211208D01*
X0248119Y0209609D02*
X0243670Y0209609D01*
X0245013Y0211208D02*
X0245731Y0211208D01*
X0236330Y0209609D02*
X0231881Y0209609D01*
X0234269Y0211208D02*
X0234987Y0211208D01*
X0228119Y0209609D02*
X0223670Y0209609D01*
X0225013Y0211208D02*
X0225731Y0211208D01*
X0216330Y0209609D02*
X0211881Y0209609D01*
X0214269Y0211208D02*
X0214987Y0211208D01*
X0208119Y0209609D02*
X0168314Y0209609D01*
X0168583Y0209805D02*
X0169195Y0210417D01*
X0169704Y0211117D01*
X0170097Y0211889D01*
X0170365Y0212712D01*
X0170500Y0213567D01*
X0170500Y0213800D01*
X0165200Y0213800D01*
X0165200Y0208500D01*
X0165433Y0208500D01*
X0166288Y0208635D01*
X0167111Y0208903D01*
X0167883Y0209296D01*
X0168583Y0209805D01*
X0169750Y0211208D02*
X0205731Y0211208D01*
X0204739Y0212806D02*
X0170380Y0212806D01*
X0170500Y0214200D02*
X0170500Y0214433D01*
X0170365Y0215288D01*
X0170097Y0216111D01*
X0169704Y0216883D01*
X0169195Y0217583D01*
X0168583Y0218195D01*
X0167883Y0218704D01*
X0167111Y0219097D01*
X0166288Y0219365D01*
X0165433Y0219500D01*
X0165200Y0219500D01*
X0165200Y0214200D01*
X0170500Y0214200D01*
X0170500Y0214405D02*
X0204300Y0214405D01*
X0204300Y0216003D02*
X0170132Y0216003D01*
X0169176Y0217602D02*
X0204908Y0217602D01*
X0206139Y0219201D02*
X0166793Y0219201D01*
X0165200Y0219201D02*
X0164800Y0219201D01*
X0163207Y0219201D02*
X0158860Y0219201D01*
X0160092Y0217602D02*
X0160824Y0217602D01*
X0164800Y0217602D02*
X0165200Y0217602D01*
X0165200Y0216003D02*
X0164800Y0216003D01*
X0164800Y0214405D02*
X0165200Y0214405D01*
X0165200Y0212806D02*
X0164800Y0212806D01*
X0164800Y0211208D02*
X0165200Y0211208D01*
X0165200Y0209609D02*
X0164800Y0209609D01*
X0161686Y0209609D02*
X0156881Y0209609D01*
X0159269Y0211208D02*
X0160250Y0211208D01*
X0153119Y0209609D02*
X0148670Y0209609D01*
X0150013Y0211208D02*
X0150731Y0211208D01*
X0141330Y0209609D02*
X0136881Y0209609D01*
X0139269Y0211208D02*
X0139987Y0211208D01*
X0133119Y0209609D02*
X0128670Y0209609D01*
X0130013Y0211208D02*
X0130731Y0211208D01*
X0121330Y0209609D02*
X0116881Y0209609D01*
X0119269Y0211208D02*
X0119987Y0211208D01*
X0113119Y0209609D02*
X0111635Y0209609D01*
X0110036Y0208011D02*
X0393200Y0208011D01*
X0393200Y0209609D02*
X0338314Y0209609D01*
X0338583Y0209805D02*
X0339195Y0210417D01*
X0339704Y0211117D01*
X0340097Y0211889D01*
X0340365Y0212712D01*
X0340500Y0213567D01*
X0340500Y0213800D01*
X0335200Y0213800D01*
X0335200Y0208500D01*
X0335433Y0208500D01*
X0336288Y0208635D01*
X0337111Y0208903D01*
X0337883Y0209296D01*
X0338583Y0209805D01*
X0339750Y0211208D02*
X0393200Y0211208D01*
X0393200Y0212806D02*
X0340380Y0212806D01*
X0340500Y0214405D02*
X0393200Y0214405D01*
X0393200Y0216003D02*
X0340132Y0216003D01*
X0339176Y0217602D02*
X0393200Y0217602D01*
X0393200Y0219201D02*
X0336793Y0219201D01*
X0335200Y0219201D02*
X0334800Y0219201D01*
X0333207Y0219201D02*
X0328860Y0219201D01*
X0330092Y0217602D02*
X0330824Y0217602D01*
X0334800Y0217602D02*
X0335200Y0217602D01*
X0335200Y0216003D02*
X0334800Y0216003D01*
X0334800Y0214405D02*
X0335200Y0214405D01*
X0335200Y0212806D02*
X0334800Y0212806D01*
X0334800Y0211208D02*
X0335200Y0211208D01*
X0335200Y0209609D02*
X0334800Y0209609D01*
X0331686Y0209609D02*
X0326881Y0209609D01*
X0329269Y0211208D02*
X0330250Y0211208D01*
X0323119Y0209609D02*
X0318670Y0209609D01*
X0320013Y0211208D02*
X0320731Y0211208D01*
X0311330Y0209609D02*
X0306881Y0209609D01*
X0309269Y0211208D02*
X0309987Y0211208D01*
X0303119Y0209609D02*
X0298670Y0209609D01*
X0300013Y0211208D02*
X0300731Y0211208D01*
X0299908Y0217602D02*
X0299459Y0217602D01*
X0301139Y0219201D02*
X0297340Y0219201D01*
X0292660Y0219201D02*
X0288860Y0219201D01*
X0290092Y0217602D02*
X0290541Y0217602D01*
X0301771Y0229668D02*
X0303866Y0228800D01*
X0306134Y0228800D01*
X0308229Y0229668D01*
X0309832Y0231271D01*
X0310223Y0232216D01*
X0311771Y0230668D01*
X0313866Y0229800D01*
X0316134Y0229800D01*
X0318229Y0230668D01*
X0319832Y0232271D01*
X0319893Y0232419D01*
X0319903Y0232389D01*
X0320296Y0231617D01*
X0320805Y0230917D01*
X0321417Y0230305D01*
X0322117Y0229796D01*
X0322889Y0229403D01*
X0323712Y0229135D01*
X0324567Y0229000D01*
X0324800Y0229000D01*
X0324800Y0234300D01*
X0325200Y0234300D01*
X0325200Y0234700D01*
X0324800Y0234700D01*
X0324800Y0240000D01*
X0324567Y0240000D01*
X0323712Y0239865D01*
X0322889Y0239597D01*
X0322117Y0239204D01*
X0321417Y0238695D01*
X0320805Y0238083D01*
X0320356Y0237465D01*
X0319832Y0238729D01*
X0318229Y0240332D01*
X0316134Y0241200D01*
X0313866Y0241200D01*
X0311771Y0240332D01*
X0310168Y0238729D01*
X0309777Y0237784D01*
X0308229Y0239332D01*
X0306134Y0240200D01*
X0303866Y0240200D01*
X0301771Y0239332D01*
X0300700Y0238261D01*
X0300700Y0240028D01*
X0299528Y0241200D01*
X0290472Y0241200D01*
X0289300Y0240028D01*
X0289300Y0230972D01*
X0290472Y0229800D01*
X0299528Y0229800D01*
X0300584Y0230855D01*
X0301771Y0229668D01*
X0301049Y0230390D02*
X0300119Y0230390D01*
X0308951Y0230390D02*
X0312442Y0230390D01*
X0310450Y0231989D02*
X0310129Y0231989D01*
X0317558Y0230390D02*
X0321332Y0230390D01*
X0320107Y0231989D02*
X0319550Y0231989D01*
X0324800Y0231989D02*
X0325200Y0231989D01*
X0325200Y0233587D02*
X0324800Y0233587D01*
X0325200Y0234300D02*
X0325200Y0229000D01*
X0325433Y0229000D01*
X0326288Y0229135D01*
X0327111Y0229403D01*
X0327883Y0229796D01*
X0328583Y0230305D01*
X0329195Y0230917D01*
X0329704Y0231617D01*
X0330097Y0232389D01*
X0330365Y0233212D01*
X0330500Y0234067D01*
X0330500Y0234300D01*
X0325200Y0234300D01*
X0325200Y0234700D02*
X0330500Y0234700D01*
X0330500Y0234933D01*
X0330365Y0235788D01*
X0330097Y0236611D01*
X0329704Y0237383D01*
X0329195Y0238083D01*
X0328583Y0238695D01*
X0327883Y0239204D01*
X0327111Y0239597D01*
X0326288Y0239865D01*
X0325433Y0240000D01*
X0325200Y0240000D01*
X0325200Y0234700D01*
X0325200Y0235186D02*
X0324800Y0235186D01*
X0324800Y0236784D02*
X0325200Y0236784D01*
X0325200Y0238383D02*
X0324800Y0238383D01*
X0324800Y0239981D02*
X0325200Y0239981D01*
X0325552Y0239981D02*
X0344300Y0239981D01*
X0344300Y0240028D02*
X0344300Y0230972D01*
X0345472Y0229800D01*
X0354528Y0229800D01*
X0355584Y0230855D01*
X0356771Y0229668D01*
X0358866Y0228800D01*
X0361134Y0228800D01*
X0363229Y0229668D01*
X0364832Y0231271D01*
X0365223Y0232216D01*
X0366771Y0230668D01*
X0368866Y0229800D01*
X0371134Y0229800D01*
X0373229Y0230668D01*
X0374832Y0232271D01*
X0374893Y0232419D01*
X0374903Y0232389D01*
X0375296Y0231617D01*
X0375805Y0230917D01*
X0376417Y0230305D01*
X0377117Y0229796D01*
X0377889Y0229403D01*
X0378712Y0229135D01*
X0379567Y0229000D01*
X0379800Y0229000D01*
X0379800Y0234300D01*
X0380200Y0234300D01*
X0380200Y0234700D01*
X0379800Y0234700D01*
X0379800Y0240000D01*
X0379567Y0240000D01*
X0378712Y0239865D01*
X0377889Y0239597D01*
X0377117Y0239204D01*
X0376417Y0238695D01*
X0375805Y0238083D01*
X0375356Y0237465D01*
X0374832Y0238729D01*
X0373229Y0240332D01*
X0371134Y0241200D01*
X0368866Y0241200D01*
X0366771Y0240332D01*
X0365168Y0238729D01*
X0364777Y0237784D01*
X0363229Y0239332D01*
X0361134Y0240200D01*
X0358866Y0240200D01*
X0356771Y0239332D01*
X0355700Y0238261D01*
X0355700Y0240028D01*
X0354528Y0241200D01*
X0345472Y0241200D01*
X0344300Y0240028D01*
X0344300Y0238383D02*
X0328895Y0238383D01*
X0330009Y0236784D02*
X0344300Y0236784D01*
X0344300Y0235186D02*
X0330460Y0235186D01*
X0330424Y0233587D02*
X0344300Y0233587D01*
X0344300Y0231989D02*
X0329893Y0231989D01*
X0328668Y0230390D02*
X0344881Y0230390D01*
X0355119Y0230390D02*
X0356049Y0230390D01*
X0363951Y0230390D02*
X0367442Y0230390D01*
X0365450Y0231989D02*
X0365129Y0231989D01*
X0372558Y0230390D02*
X0376332Y0230390D01*
X0375107Y0231989D02*
X0374550Y0231989D01*
X0379800Y0231989D02*
X0380200Y0231989D01*
X0380200Y0233587D02*
X0379800Y0233587D01*
X0380200Y0234300D02*
X0380200Y0229000D01*
X0380433Y0229000D01*
X0381288Y0229135D01*
X0382111Y0229403D01*
X0382883Y0229796D01*
X0383583Y0230305D01*
X0384195Y0230917D01*
X0384704Y0231617D01*
X0385097Y0232389D01*
X0385365Y0233212D01*
X0385500Y0234067D01*
X0385500Y0234300D01*
X0380200Y0234300D01*
X0380200Y0234700D02*
X0385500Y0234700D01*
X0385500Y0234933D01*
X0385365Y0235788D01*
X0385097Y0236611D01*
X0384704Y0237383D01*
X0384195Y0238083D01*
X0383583Y0238695D01*
X0382883Y0239204D01*
X0382111Y0239597D01*
X0381288Y0239865D01*
X0380433Y0240000D01*
X0380200Y0240000D01*
X0380200Y0234700D01*
X0380200Y0235186D02*
X0379800Y0235186D01*
X0379800Y0236784D02*
X0380200Y0236784D01*
X0380200Y0238383D02*
X0379800Y0238383D01*
X0379800Y0239981D02*
X0380200Y0239981D01*
X0380552Y0239981D02*
X0393200Y0239981D01*
X0393200Y0238383D02*
X0383895Y0238383D01*
X0385009Y0236784D02*
X0393200Y0236784D01*
X0393200Y0235186D02*
X0385460Y0235186D01*
X0385424Y0233587D02*
X0393200Y0233587D01*
X0393200Y0231989D02*
X0384893Y0231989D01*
X0383668Y0230390D02*
X0393200Y0230390D01*
X0393200Y0228792D02*
X0009800Y0228792D01*
X0009800Y0230390D02*
X0039881Y0230390D01*
X0039300Y0230972D02*
X0040472Y0229800D01*
X0049528Y0229800D01*
X0050584Y0230855D01*
X0051771Y0229668D01*
X0053866Y0228800D01*
X0056134Y0228800D01*
X0058229Y0229668D01*
X0059832Y0231271D01*
X0060356Y0232535D01*
X0060805Y0231917D01*
X0061417Y0231305D01*
X0062117Y0230796D01*
X0062889Y0230403D01*
X0063712Y0230135D01*
X0064567Y0230000D01*
X0064800Y0230000D01*
X0064800Y0235300D01*
X0065200Y0235300D01*
X0065200Y0235700D01*
X0070500Y0235700D01*
X0070500Y0235933D01*
X0070365Y0236788D01*
X0070097Y0237611D01*
X0069704Y0238383D01*
X0074300Y0238383D01*
X0074300Y0239981D02*
X0068189Y0239981D01*
X0067883Y0240204D02*
X0067111Y0240597D01*
X0066288Y0240865D01*
X0065433Y0241000D01*
X0065200Y0241000D01*
X0065200Y0235700D01*
X0064800Y0235700D01*
X0064800Y0241000D01*
X0064567Y0241000D01*
X0063712Y0240865D01*
X0062889Y0240597D01*
X0062117Y0240204D01*
X0061417Y0239695D01*
X0060805Y0239083D01*
X0060296Y0238383D01*
X0059178Y0238383D01*
X0059832Y0237729D02*
X0058229Y0239332D01*
X0056134Y0240200D01*
X0053866Y0240200D01*
X0051771Y0239332D01*
X0050700Y0238261D01*
X0050700Y0240028D01*
X0049528Y0241200D01*
X0040472Y0241200D01*
X0039300Y0240028D01*
X0039300Y0230972D01*
X0039300Y0231989D02*
X0009800Y0231989D01*
X0009800Y0233587D02*
X0039300Y0233587D01*
X0039300Y0235186D02*
X0009800Y0235186D01*
X0009800Y0236784D02*
X0039300Y0236784D01*
X0039300Y0238383D02*
X0009800Y0238383D01*
X0009800Y0239981D02*
X0039300Y0239981D01*
X0033299Y0246375D02*
X0369701Y0246375D01*
X0370218Y0245858D02*
X0373108Y0244190D01*
X0376331Y0243326D01*
X0379669Y0243326D01*
X0382892Y0244190D01*
X0385782Y0245858D01*
X0388142Y0248218D01*
X0389810Y0251108D01*
X0390674Y0254331D01*
X0390674Y0257669D01*
X0389810Y0260892D01*
X0388142Y0263782D01*
X0385782Y0266142D01*
X0382892Y0267810D01*
X0379669Y0268674D01*
X0376331Y0268674D01*
X0373108Y0267810D01*
X0370218Y0266142D01*
X0367858Y0263782D01*
X0366190Y0260892D01*
X0365326Y0257669D01*
X0365326Y0254331D01*
X0366190Y0251108D01*
X0367858Y0248218D01*
X0370218Y0245858D01*
X0372091Y0244777D02*
X0030909Y0244777D01*
X0029892Y0244190D02*
X0032782Y0245858D01*
X0035142Y0248218D01*
X0036810Y0251108D01*
X0037674Y0254331D01*
X0037674Y0257669D01*
X0036810Y0260892D01*
X0035142Y0263782D01*
X0032782Y0266142D01*
X0029892Y0267810D01*
X0026669Y0268674D01*
X0023331Y0268674D01*
X0020108Y0267810D01*
X0017218Y0266142D01*
X0014858Y0263782D01*
X0013190Y0260892D01*
X0012326Y0257669D01*
X0012326Y0254331D01*
X0013190Y0251108D01*
X0014858Y0248218D01*
X0017218Y0245858D01*
X0020108Y0244190D01*
X0023331Y0243326D01*
X0026669Y0243326D01*
X0029892Y0244190D01*
X0034897Y0247974D02*
X0368102Y0247974D01*
X0367076Y0249572D02*
X0035924Y0249572D01*
X0036827Y0251171D02*
X0366173Y0251171D01*
X0365745Y0252769D02*
X0037255Y0252769D01*
X0037674Y0254368D02*
X0365326Y0254368D01*
X0365326Y0255966D02*
X0037674Y0255966D01*
X0037674Y0257565D02*
X0365326Y0257565D01*
X0365727Y0259163D02*
X0037273Y0259163D01*
X0036845Y0260762D02*
X0366155Y0260762D01*
X0367037Y0262360D02*
X0035963Y0262360D01*
X0034965Y0263959D02*
X0368035Y0263959D01*
X0369634Y0265557D02*
X0033366Y0265557D01*
X0031026Y0267156D02*
X0371974Y0267156D01*
X0384026Y0267156D02*
X0392875Y0267156D01*
X0392816Y0267406D02*
X0393173Y0265906D01*
X0393200Y0265184D01*
X0393200Y0265067D01*
X0393175Y0264180D01*
X0393200Y0264115D01*
X0393200Y0014955D01*
X0393137Y0014281D01*
X0392740Y0012949D01*
X0392012Y0011764D01*
X0391002Y0010809D01*
X0389779Y0010147D01*
X0388427Y0009825D01*
X0387779Y0009800D01*
X0387664Y0009800D01*
X0386776Y0009825D01*
X0386712Y0009800D01*
X0014842Y0009800D01*
X0014184Y0009843D01*
X0012913Y0010184D01*
X0011773Y0010842D01*
X0010842Y0011773D01*
X0010184Y0012913D01*
X0009843Y0014184D01*
X0009800Y0014843D01*
X0009800Y0264183D01*
X0009846Y0264313D01*
X0009800Y0265133D01*
X0009800Y0265955D01*
X0009799Y0265956D01*
X0009800Y0266004D01*
X0010101Y0267444D01*
X0010765Y0268757D01*
X0011747Y0269854D01*
X0012978Y0270659D01*
X0014377Y0271118D01*
X0015048Y0271200D01*
X0387484Y0271200D01*
X0388233Y0271130D01*
X0389710Y0270689D01*
X0391023Y0269882D01*
X0392083Y0268762D01*
X0392816Y0267406D01*
X0392086Y0268754D02*
X0010764Y0268754D01*
X0010041Y0267156D02*
X0018974Y0267156D01*
X0016634Y0265557D02*
X0009800Y0265557D01*
X0009800Y0263959D02*
X0015035Y0263959D01*
X0014037Y0262360D02*
X0009800Y0262360D01*
X0009800Y0260762D02*
X0013155Y0260762D01*
X0012727Y0259163D02*
X0009800Y0259163D01*
X0009800Y0257565D02*
X0012326Y0257565D01*
X0012326Y0255966D02*
X0009800Y0255966D01*
X0009800Y0254368D02*
X0012326Y0254368D01*
X0012745Y0252769D02*
X0009800Y0252769D01*
X0009800Y0251171D02*
X0013173Y0251171D01*
X0014076Y0249572D02*
X0009800Y0249572D01*
X0009800Y0247974D02*
X0015102Y0247974D01*
X0016701Y0246375D02*
X0009800Y0246375D01*
X0009800Y0244777D02*
X0019091Y0244777D01*
X0009800Y0243178D02*
X0393200Y0243178D01*
X0393200Y0241580D02*
X0009800Y0241580D01*
X0009800Y0227193D02*
X0393200Y0227193D01*
X0393200Y0225595D02*
X0009800Y0225595D01*
X0009800Y0223996D02*
X0393200Y0223996D01*
X0393200Y0222398D02*
X0009800Y0222398D01*
X0009800Y0220799D02*
X0393200Y0220799D01*
X0380200Y0230390D02*
X0379800Y0230390D01*
X0376104Y0238383D02*
X0374976Y0238383D01*
X0373580Y0239981D02*
X0379448Y0239981D01*
X0383909Y0244777D02*
X0393200Y0244777D01*
X0393200Y0246375D02*
X0386299Y0246375D01*
X0387897Y0247974D02*
X0393200Y0247974D01*
X0393200Y0249572D02*
X0388924Y0249572D01*
X0389827Y0251171D02*
X0393200Y0251171D01*
X0393200Y0252769D02*
X0390255Y0252769D01*
X0390674Y0254368D02*
X0393200Y0254368D01*
X0393200Y0255966D02*
X0390674Y0255966D01*
X0390674Y0257565D02*
X0393200Y0257565D01*
X0393200Y0259163D02*
X0390273Y0259163D01*
X0389845Y0260762D02*
X0393200Y0260762D01*
X0393200Y0262360D02*
X0388963Y0262360D01*
X0387965Y0263959D02*
X0393200Y0263959D01*
X0393186Y0265557D02*
X0386366Y0265557D01*
X0390257Y0270353D02*
X0012510Y0270353D01*
X0050700Y0239981D02*
X0053338Y0239981D01*
X0050822Y0238383D02*
X0050700Y0238383D01*
X0056662Y0239981D02*
X0061811Y0239981D01*
X0060296Y0238383D02*
X0059903Y0237611D01*
X0059893Y0237581D01*
X0059832Y0237729D01*
X0064800Y0238383D02*
X0065200Y0238383D01*
X0065200Y0239981D02*
X0064800Y0239981D01*
X0067883Y0240204D02*
X0068583Y0239695D01*
X0069195Y0239083D01*
X0069704Y0238383D01*
X0070365Y0236784D02*
X0074300Y0236784D01*
X0074300Y0235186D02*
X0070500Y0235186D01*
X0070500Y0235300D02*
X0065200Y0235300D01*
X0065200Y0230000D01*
X0065433Y0230000D01*
X0066288Y0230135D01*
X0067111Y0230403D01*
X0067883Y0230796D01*
X0068583Y0231305D01*
X0069195Y0231917D01*
X0069704Y0232617D01*
X0070097Y0233389D01*
X0070365Y0234212D01*
X0070500Y0235067D01*
X0070500Y0235300D01*
X0070161Y0233587D02*
X0074300Y0233587D01*
X0074300Y0231989D02*
X0069247Y0231989D01*
X0067072Y0230390D02*
X0074881Y0230390D01*
X0074300Y0230972D02*
X0075472Y0229800D01*
X0084528Y0229800D01*
X0085584Y0230855D01*
X0086771Y0229668D01*
X0088866Y0228800D01*
X0091134Y0228800D01*
X0093229Y0229668D01*
X0094832Y0231271D01*
X0095356Y0232535D01*
X0095805Y0231917D01*
X0096417Y0231305D01*
X0097117Y0230796D01*
X0097889Y0230403D01*
X0098712Y0230135D01*
X0099567Y0230000D01*
X0099800Y0230000D01*
X0099800Y0235300D01*
X0100200Y0235300D01*
X0100200Y0235700D01*
X0105500Y0235700D01*
X0105500Y0235933D01*
X0105365Y0236788D01*
X0105097Y0237611D01*
X0104704Y0238383D01*
X0109300Y0238383D01*
X0109300Y0239981D02*
X0103189Y0239981D01*
X0102883Y0240204D02*
X0102111Y0240597D01*
X0101288Y0240865D01*
X0100433Y0241000D01*
X0100200Y0241000D01*
X0100200Y0235700D01*
X0099800Y0235700D01*
X0099800Y0241000D01*
X0099567Y0241000D01*
X0098712Y0240865D01*
X0097889Y0240597D01*
X0097117Y0240204D01*
X0096417Y0239695D01*
X0095805Y0239083D01*
X0095296Y0238383D01*
X0094178Y0238383D01*
X0094832Y0237729D02*
X0093229Y0239332D01*
X0091134Y0240200D01*
X0088866Y0240200D01*
X0086771Y0239332D01*
X0085700Y0238261D01*
X0085700Y0240028D01*
X0084528Y0241200D01*
X0075472Y0241200D01*
X0074300Y0240028D01*
X0074300Y0230972D01*
X0065200Y0230390D02*
X0064800Y0230390D01*
X0064800Y0231989D02*
X0065200Y0231989D01*
X0065200Y0233587D02*
X0064800Y0233587D01*
X0064800Y0235186D02*
X0065200Y0235186D01*
X0065200Y0236784D02*
X0064800Y0236784D01*
X0060753Y0231989D02*
X0060129Y0231989D01*
X0058951Y0230390D02*
X0062928Y0230390D01*
X0051049Y0230390D02*
X0050119Y0230390D01*
X0054269Y0211208D02*
X0054987Y0211208D01*
X0056330Y0209609D02*
X0051881Y0209609D01*
X0063670Y0209609D02*
X0068119Y0209609D01*
X0065731Y0211208D02*
X0065013Y0211208D01*
X0071881Y0209609D02*
X0076330Y0209609D01*
X0074987Y0211208D02*
X0074269Y0211208D01*
X0093860Y0219201D02*
X0098207Y0219201D01*
X0095824Y0217602D02*
X0095092Y0217602D01*
X0093951Y0230390D02*
X0097928Y0230390D01*
X0099800Y0230390D02*
X0100200Y0230390D01*
X0100200Y0230000D02*
X0100433Y0230000D01*
X0101288Y0230135D01*
X0102111Y0230403D01*
X0102883Y0230796D01*
X0103583Y0231305D01*
X0104195Y0231917D01*
X0104704Y0232617D01*
X0105097Y0233389D01*
X0105365Y0234212D01*
X0105500Y0235067D01*
X0105500Y0235300D01*
X0100200Y0235300D01*
X0100200Y0230000D01*
X0102072Y0230390D02*
X0109881Y0230390D01*
X0109300Y0230972D02*
X0110472Y0229800D01*
X0119528Y0229800D01*
X0120584Y0230855D01*
X0121771Y0229668D01*
X0123866Y0228800D01*
X0126134Y0228800D01*
X0128229Y0229668D01*
X0129832Y0231271D01*
X0130356Y0232535D01*
X0130805Y0231917D01*
X0131417Y0231305D01*
X0132117Y0230796D01*
X0132889Y0230403D01*
X0133712Y0230135D01*
X0134567Y0230000D01*
X0134800Y0230000D01*
X0134800Y0235300D01*
X0135200Y0235300D01*
X0135200Y0235700D01*
X0140500Y0235700D01*
X0140500Y0235933D01*
X0140365Y0236788D01*
X0140097Y0237611D01*
X0139704Y0238383D01*
X0144300Y0238383D01*
X0144300Y0239981D02*
X0138189Y0239981D01*
X0137883Y0240204D02*
X0137111Y0240597D01*
X0136288Y0240865D01*
X0135433Y0241000D01*
X0135200Y0241000D01*
X0135200Y0235700D01*
X0134800Y0235700D01*
X0134800Y0241000D01*
X0134567Y0241000D01*
X0133712Y0240865D01*
X0132889Y0240597D01*
X0132117Y0240204D01*
X0131417Y0239695D01*
X0130805Y0239083D01*
X0130296Y0238383D01*
X0129178Y0238383D01*
X0129832Y0237729D02*
X0128229Y0239332D01*
X0126134Y0240200D01*
X0123866Y0240200D01*
X0121771Y0239332D01*
X0120700Y0238261D01*
X0120700Y0240028D01*
X0119528Y0241200D01*
X0110472Y0241200D01*
X0109300Y0240028D01*
X0109300Y0230972D01*
X0109300Y0231989D02*
X0104247Y0231989D01*
X0105161Y0233587D02*
X0109300Y0233587D01*
X0109300Y0235186D02*
X0105500Y0235186D01*
X0105365Y0236784D02*
X0109300Y0236784D01*
X0104704Y0238383D02*
X0104195Y0239083D01*
X0103583Y0239695D01*
X0102883Y0240204D01*
X0100200Y0239981D02*
X0099800Y0239981D01*
X0099800Y0238383D02*
X0100200Y0238383D01*
X0100200Y0236784D02*
X0099800Y0236784D01*
X0099800Y0235186D02*
X0100200Y0235186D01*
X0100200Y0233587D02*
X0099800Y0233587D01*
X0099800Y0231989D02*
X0100200Y0231989D01*
X0095753Y0231989D02*
X0095129Y0231989D01*
X0094893Y0237581D02*
X0094832Y0237729D01*
X0094903Y0237611D02*
X0094893Y0237581D01*
X0094903Y0237611D02*
X0095296Y0238383D01*
X0096811Y0239981D02*
X0091662Y0239981D01*
X0088338Y0239981D02*
X0085700Y0239981D01*
X0085700Y0238383D02*
X0085822Y0238383D01*
X0086049Y0230390D02*
X0085119Y0230390D01*
X0108438Y0206412D02*
X0393200Y0206412D01*
X0393200Y0204814D02*
X0106839Y0204814D01*
X0108107Y0188829D02*
X0105515Y0188829D01*
X0100233Y0188829D02*
X0099149Y0188829D01*
X0106763Y0182435D02*
X0106859Y0182435D01*
X0108846Y0180836D02*
X0104776Y0180836D01*
X0100972Y0180836D02*
X0098814Y0180836D01*
X0112650Y0180836D02*
X0116720Y0180836D01*
X0114733Y0182435D02*
X0114637Y0182435D01*
X0120524Y0180836D02*
X0124594Y0180836D01*
X0122607Y0182435D02*
X0122511Y0182435D01*
X0128398Y0180836D02*
X0132468Y0180836D01*
X0130481Y0182435D02*
X0130385Y0182435D01*
X0136272Y0180836D02*
X0140342Y0180836D01*
X0138355Y0182435D02*
X0138259Y0182435D01*
X0144146Y0180836D02*
X0148216Y0180836D01*
X0146229Y0182435D02*
X0146133Y0182435D01*
X0152020Y0180836D02*
X0156090Y0180836D01*
X0154103Y0182435D02*
X0154007Y0182435D01*
X0152759Y0188829D02*
X0155351Y0188829D01*
X0147477Y0188829D02*
X0144885Y0188829D01*
X0139603Y0188829D02*
X0137011Y0188829D01*
X0131729Y0188829D02*
X0129137Y0188829D01*
X0123855Y0188829D02*
X0121263Y0188829D01*
X0115981Y0188829D02*
X0113389Y0188829D01*
X0120092Y0217602D02*
X0120541Y0217602D01*
X0118860Y0219201D02*
X0122660Y0219201D01*
X0127340Y0219201D02*
X0131139Y0219201D01*
X0129908Y0217602D02*
X0129459Y0217602D01*
X0138860Y0219201D02*
X0142660Y0219201D01*
X0140541Y0217602D02*
X0140092Y0217602D01*
X0147340Y0219201D02*
X0151139Y0219201D01*
X0149908Y0217602D02*
X0149459Y0217602D01*
X0156771Y0229668D02*
X0158866Y0228800D01*
X0161134Y0228800D01*
X0163229Y0229668D01*
X0164832Y0231271D01*
X0165356Y0232535D01*
X0165805Y0231917D01*
X0166417Y0231305D01*
X0167117Y0230796D01*
X0167889Y0230403D01*
X0168712Y0230135D01*
X0169567Y0230000D01*
X0169800Y0230000D01*
X0169800Y0235300D01*
X0170200Y0235300D01*
X0170200Y0235700D01*
X0175500Y0235700D01*
X0175500Y0235933D01*
X0175365Y0236788D01*
X0175097Y0237611D01*
X0174704Y0238383D01*
X0189300Y0238383D01*
X0189300Y0239981D02*
X0173189Y0239981D01*
X0172883Y0240204D02*
X0172111Y0240597D01*
X0171288Y0240865D01*
X0170433Y0241000D01*
X0170200Y0241000D01*
X0170200Y0235700D01*
X0169800Y0235700D01*
X0169800Y0241000D01*
X0169567Y0241000D01*
X0168712Y0240865D01*
X0167889Y0240597D01*
X0167117Y0240204D01*
X0166417Y0239695D01*
X0165805Y0239083D01*
X0165296Y0238383D01*
X0164178Y0238383D01*
X0164832Y0237729D02*
X0163229Y0239332D01*
X0161134Y0240200D01*
X0158866Y0240200D01*
X0156771Y0239332D01*
X0155700Y0238261D01*
X0155700Y0240028D01*
X0154528Y0241200D01*
X0145472Y0241200D01*
X0144300Y0240028D01*
X0144300Y0230972D01*
X0145472Y0229800D01*
X0154528Y0229800D01*
X0155584Y0230855D01*
X0156771Y0229668D01*
X0156049Y0230390D02*
X0155119Y0230390D01*
X0163951Y0230390D02*
X0167928Y0230390D01*
X0169800Y0230390D02*
X0170200Y0230390D01*
X0170200Y0230000D02*
X0170433Y0230000D01*
X0171288Y0230135D01*
X0172111Y0230403D01*
X0172883Y0230796D01*
X0173583Y0231305D01*
X0174195Y0231917D01*
X0174704Y0232617D01*
X0175097Y0233389D01*
X0175365Y0234212D01*
X0175500Y0235067D01*
X0175500Y0235300D01*
X0170200Y0235300D01*
X0170200Y0230000D01*
X0172072Y0230390D02*
X0189881Y0230390D01*
X0189300Y0230972D02*
X0190472Y0229800D01*
X0199528Y0229800D01*
X0200584Y0230855D01*
X0201771Y0229668D01*
X0203866Y0228800D01*
X0206134Y0228800D01*
X0208229Y0229668D01*
X0209832Y0231271D01*
X0210223Y0232216D01*
X0211771Y0230668D01*
X0213866Y0229800D01*
X0216134Y0229800D01*
X0218229Y0230668D01*
X0219832Y0232271D01*
X0219893Y0232419D01*
X0219903Y0232389D01*
X0220296Y0231617D01*
X0220805Y0230917D01*
X0221417Y0230305D01*
X0222117Y0229796D01*
X0222889Y0229403D01*
X0223712Y0229135D01*
X0224567Y0229000D01*
X0224800Y0229000D01*
X0224800Y0234300D01*
X0225200Y0234300D01*
X0225200Y0234700D01*
X0224800Y0234700D01*
X0224800Y0240000D01*
X0224567Y0240000D01*
X0223712Y0239865D01*
X0222889Y0239597D01*
X0222117Y0239204D01*
X0221417Y0238695D01*
X0220805Y0238083D01*
X0220356Y0237465D01*
X0219832Y0238729D01*
X0218229Y0240332D01*
X0216134Y0241200D01*
X0213866Y0241200D01*
X0211771Y0240332D01*
X0210168Y0238729D01*
X0209777Y0237784D01*
X0208229Y0239332D01*
X0206134Y0240200D01*
X0203866Y0240200D01*
X0201771Y0239332D01*
X0200700Y0238261D01*
X0200700Y0240028D01*
X0199528Y0241200D01*
X0190472Y0241200D01*
X0189300Y0240028D01*
X0189300Y0230972D01*
X0189300Y0231989D02*
X0174247Y0231989D01*
X0175161Y0233587D02*
X0189300Y0233587D01*
X0189300Y0235186D02*
X0175500Y0235186D01*
X0175365Y0236784D02*
X0189300Y0236784D01*
X0200700Y0238383D02*
X0200822Y0238383D01*
X0200700Y0239981D02*
X0203338Y0239981D01*
X0206662Y0239981D02*
X0211420Y0239981D01*
X0210024Y0238383D02*
X0209178Y0238383D01*
X0218580Y0239981D02*
X0224448Y0239981D01*
X0224800Y0239981D02*
X0225200Y0239981D01*
X0225200Y0240000D02*
X0225200Y0234700D01*
X0230500Y0234700D01*
X0230500Y0234933D01*
X0230365Y0235788D01*
X0230097Y0236611D01*
X0229704Y0237383D01*
X0229195Y0238083D01*
X0228583Y0238695D01*
X0227883Y0239204D01*
X0227111Y0239597D01*
X0226288Y0239865D01*
X0225433Y0240000D01*
X0225200Y0240000D01*
X0225552Y0239981D02*
X0239300Y0239981D01*
X0239300Y0240028D02*
X0239300Y0230972D01*
X0240472Y0229800D01*
X0249528Y0229800D01*
X0250584Y0230855D01*
X0251771Y0229668D01*
X0253866Y0228800D01*
X0256134Y0228800D01*
X0258229Y0229668D01*
X0259832Y0231271D01*
X0260223Y0232216D01*
X0261771Y0230668D01*
X0263866Y0229800D01*
X0266134Y0229800D01*
X0268229Y0230668D01*
X0269832Y0232271D01*
X0269893Y0232419D01*
X0269903Y0232389D01*
X0270296Y0231617D01*
X0270805Y0230917D01*
X0271417Y0230305D01*
X0272117Y0229796D01*
X0272889Y0229403D01*
X0273712Y0229135D01*
X0274567Y0229000D01*
X0274800Y0229000D01*
X0274800Y0234300D01*
X0275200Y0234300D01*
X0275200Y0234700D01*
X0274800Y0234700D01*
X0274800Y0240000D01*
X0274567Y0240000D01*
X0273712Y0239865D01*
X0272889Y0239597D01*
X0272117Y0239204D01*
X0271417Y0238695D01*
X0270805Y0238083D01*
X0270356Y0237465D01*
X0269832Y0238729D01*
X0268229Y0240332D01*
X0266134Y0241200D01*
X0263866Y0241200D01*
X0261771Y0240332D01*
X0260168Y0238729D01*
X0259777Y0237784D01*
X0258229Y0239332D01*
X0256134Y0240200D01*
X0253866Y0240200D01*
X0251771Y0239332D01*
X0250700Y0238261D01*
X0250700Y0240028D01*
X0249528Y0241200D01*
X0240472Y0241200D01*
X0239300Y0240028D01*
X0239300Y0238383D02*
X0228895Y0238383D01*
X0230009Y0236784D02*
X0239300Y0236784D01*
X0239300Y0235186D02*
X0230460Y0235186D01*
X0230500Y0234300D02*
X0225200Y0234300D01*
X0225200Y0229000D01*
X0225433Y0229000D01*
X0226288Y0229135D01*
X0227111Y0229403D01*
X0227883Y0229796D01*
X0228583Y0230305D01*
X0229195Y0230917D01*
X0229704Y0231617D01*
X0230097Y0232389D01*
X0230365Y0233212D01*
X0230500Y0234067D01*
X0230500Y0234300D01*
X0230424Y0233587D02*
X0239300Y0233587D01*
X0239300Y0231989D02*
X0229893Y0231989D01*
X0228668Y0230390D02*
X0239881Y0230390D01*
X0250119Y0230390D02*
X0251049Y0230390D01*
X0258951Y0230390D02*
X0262442Y0230390D01*
X0260450Y0231989D02*
X0260129Y0231989D01*
X0267558Y0230390D02*
X0271332Y0230390D01*
X0270107Y0231989D02*
X0269550Y0231989D01*
X0274800Y0231989D02*
X0275200Y0231989D01*
X0275200Y0233587D02*
X0274800Y0233587D01*
X0275200Y0234300D02*
X0275200Y0229000D01*
X0275433Y0229000D01*
X0276288Y0229135D01*
X0277111Y0229403D01*
X0277883Y0229796D01*
X0278583Y0230305D01*
X0279195Y0230917D01*
X0279704Y0231617D01*
X0280097Y0232389D01*
X0280365Y0233212D01*
X0280500Y0234067D01*
X0280500Y0234300D01*
X0275200Y0234300D01*
X0275200Y0234700D02*
X0280500Y0234700D01*
X0280500Y0234933D01*
X0280365Y0235788D01*
X0280097Y0236611D01*
X0279704Y0237383D01*
X0279195Y0238083D01*
X0278583Y0238695D01*
X0277883Y0239204D01*
X0277111Y0239597D01*
X0276288Y0239865D01*
X0275433Y0240000D01*
X0275200Y0240000D01*
X0275200Y0234700D01*
X0275200Y0235186D02*
X0274800Y0235186D01*
X0274800Y0236784D02*
X0275200Y0236784D01*
X0275200Y0238383D02*
X0274800Y0238383D01*
X0274800Y0239981D02*
X0275200Y0239981D01*
X0275552Y0239981D02*
X0289300Y0239981D01*
X0289300Y0238383D02*
X0278895Y0238383D01*
X0280009Y0236784D02*
X0289300Y0236784D01*
X0289300Y0235186D02*
X0280460Y0235186D01*
X0280424Y0233587D02*
X0289300Y0233587D01*
X0289300Y0231989D02*
X0279893Y0231989D01*
X0278668Y0230390D02*
X0289881Y0230390D01*
X0300700Y0238383D02*
X0300822Y0238383D01*
X0300700Y0239981D02*
X0303338Y0239981D01*
X0306662Y0239981D02*
X0311420Y0239981D01*
X0310024Y0238383D02*
X0309178Y0238383D01*
X0318580Y0239981D02*
X0324448Y0239981D01*
X0321104Y0238383D02*
X0319976Y0238383D01*
X0324800Y0230390D02*
X0325200Y0230390D01*
X0321139Y0219201D02*
X0317340Y0219201D01*
X0319459Y0217602D02*
X0319908Y0217602D01*
X0312660Y0219201D02*
X0308860Y0219201D01*
X0310092Y0217602D02*
X0310541Y0217602D01*
X0275200Y0230390D02*
X0274800Y0230390D01*
X0271104Y0238383D02*
X0269976Y0238383D01*
X0268580Y0239981D02*
X0274448Y0239981D01*
X0261420Y0239981D02*
X0256662Y0239981D01*
X0259178Y0238383D02*
X0260024Y0238383D01*
X0253338Y0239981D02*
X0250700Y0239981D01*
X0250700Y0238383D02*
X0250822Y0238383D01*
X0225200Y0238383D02*
X0224800Y0238383D01*
X0224800Y0236784D02*
X0225200Y0236784D01*
X0225200Y0235186D02*
X0224800Y0235186D01*
X0224800Y0233587D02*
X0225200Y0233587D01*
X0225200Y0231989D02*
X0224800Y0231989D01*
X0224800Y0230390D02*
X0225200Y0230390D01*
X0221332Y0230390D02*
X0217558Y0230390D01*
X0219550Y0231989D02*
X0220107Y0231989D01*
X0212442Y0230390D02*
X0208951Y0230390D01*
X0210129Y0231989D02*
X0210450Y0231989D01*
X0201049Y0230390D02*
X0200119Y0230390D01*
X0213860Y0219201D02*
X0217660Y0219201D01*
X0215541Y0217602D02*
X0215092Y0217602D01*
X0222340Y0219201D02*
X0226139Y0219201D01*
X0224908Y0217602D02*
X0224459Y0217602D01*
X0233860Y0219201D02*
X0237660Y0219201D01*
X0235541Y0217602D02*
X0235092Y0217602D01*
X0242340Y0219201D02*
X0246139Y0219201D01*
X0244908Y0217602D02*
X0244459Y0217602D01*
X0221104Y0238383D02*
X0219976Y0238383D01*
X0174704Y0238383D02*
X0174195Y0239083D01*
X0173583Y0239695D01*
X0172883Y0240204D01*
X0170200Y0239981D02*
X0169800Y0239981D01*
X0169800Y0238383D02*
X0170200Y0238383D01*
X0170200Y0236784D02*
X0169800Y0236784D01*
X0169800Y0235186D02*
X0170200Y0235186D01*
X0170200Y0233587D02*
X0169800Y0233587D01*
X0169800Y0231989D02*
X0170200Y0231989D01*
X0165753Y0231989D02*
X0165129Y0231989D01*
X0164893Y0237581D02*
X0164832Y0237729D01*
X0164903Y0237611D02*
X0164893Y0237581D01*
X0164903Y0237611D02*
X0165296Y0238383D01*
X0166811Y0239981D02*
X0161662Y0239981D01*
X0158338Y0239981D02*
X0155700Y0239981D01*
X0155700Y0238383D02*
X0155822Y0238383D01*
X0144300Y0236784D02*
X0140365Y0236784D01*
X0140500Y0235300D02*
X0135200Y0235300D01*
X0135200Y0230000D01*
X0135433Y0230000D01*
X0136288Y0230135D01*
X0137111Y0230403D01*
X0137883Y0230796D01*
X0138583Y0231305D01*
X0139195Y0231917D01*
X0139704Y0232617D01*
X0140097Y0233389D01*
X0140365Y0234212D01*
X0140500Y0235067D01*
X0140500Y0235300D01*
X0140500Y0235186D02*
X0144300Y0235186D01*
X0144300Y0233587D02*
X0140161Y0233587D01*
X0139247Y0231989D02*
X0144300Y0231989D01*
X0144881Y0230390D02*
X0137072Y0230390D01*
X0135200Y0230390D02*
X0134800Y0230390D01*
X0134800Y0231989D02*
X0135200Y0231989D01*
X0135200Y0233587D02*
X0134800Y0233587D01*
X0134800Y0235186D02*
X0135200Y0235186D01*
X0135200Y0236784D02*
X0134800Y0236784D01*
X0134800Y0238383D02*
X0135200Y0238383D01*
X0135200Y0239981D02*
X0134800Y0239981D01*
X0131811Y0239981D02*
X0126662Y0239981D01*
X0123338Y0239981D02*
X0120700Y0239981D01*
X0120700Y0238383D02*
X0120822Y0238383D01*
X0129832Y0237729D02*
X0129893Y0237581D01*
X0129903Y0237611D01*
X0130296Y0238383D01*
X0137883Y0240204D02*
X0138583Y0239695D01*
X0139195Y0239083D01*
X0139704Y0238383D01*
X0132928Y0230390D02*
X0128951Y0230390D01*
X0130129Y0231989D02*
X0130753Y0231989D01*
X0121049Y0230390D02*
X0120119Y0230390D01*
X0020896Y0158457D02*
X0009800Y0158457D01*
X0009800Y0156859D02*
X0020100Y0156859D01*
X0019800Y0155260D02*
X0009800Y0155260D01*
X0009800Y0153662D02*
X0019885Y0153662D01*
X0020547Y0152063D02*
X0009800Y0152063D01*
X0009800Y0150465D02*
X0021974Y0150465D01*
X0020305Y0148866D02*
X0009800Y0148866D01*
X0009800Y0147268D02*
X0019270Y0147268D01*
X0018800Y0145669D02*
X0009800Y0145669D01*
X0009800Y0144070D02*
X0018800Y0144070D01*
X0019377Y0142472D02*
X0009800Y0142472D01*
X0009800Y0140873D02*
X0020566Y0140873D01*
X0021714Y0139275D02*
X0009800Y0139275D01*
X0009800Y0137676D02*
X0020439Y0137676D01*
X0019800Y0136078D02*
X0009800Y0136078D01*
X0009800Y0134479D02*
X0019800Y0134479D01*
X0020208Y0132881D02*
X0009800Y0132881D01*
X0009800Y0131282D02*
X0021157Y0131282D01*
X0021123Y0129684D02*
X0009800Y0129684D01*
X0009800Y0128085D02*
X0019608Y0128085D01*
X0018946Y0126487D02*
X0009800Y0126487D01*
X0009800Y0124888D02*
X0018800Y0124888D01*
X0019039Y0123290D02*
X0009800Y0123290D01*
X0009800Y0121691D02*
X0019748Y0121691D01*
X0021452Y0120093D02*
X0009800Y0120093D01*
X0009800Y0118494D02*
X0021240Y0118494D01*
X0020333Y0116896D02*
X0009800Y0116896D01*
X0009800Y0115297D02*
X0020000Y0115297D01*
X0020140Y0113699D02*
X0009800Y0113699D01*
X0009800Y0112100D02*
X0020808Y0112100D01*
X0022334Y0110502D02*
X0009800Y0110502D01*
X0009800Y0108903D02*
X0020342Y0108903D01*
X0019285Y0107305D02*
X0009800Y0107305D01*
X0009800Y0105706D02*
X0018800Y0105706D01*
X0018800Y0104108D02*
X0009800Y0104108D01*
X0009800Y0102509D02*
X0019362Y0102509D01*
X0020528Y0100911D02*
X0009800Y0100911D01*
X0009800Y0099312D02*
X0023337Y0099312D01*
X0025663Y0099312D02*
X0044900Y0099312D01*
X0044900Y0097714D02*
X0009800Y0097714D01*
X0009800Y0096115D02*
X0044900Y0096115D01*
X0044900Y0094517D02*
X0009800Y0094517D01*
X0009800Y0092918D02*
X0044900Y0092918D01*
X0044900Y0091320D02*
X0009800Y0091320D01*
X0009800Y0089721D02*
X0044900Y0089721D01*
X0044900Y0088123D02*
X0009800Y0088123D01*
X0009800Y0086524D02*
X0044900Y0086524D01*
X0044900Y0084926D02*
X0009800Y0084926D01*
X0009800Y0083327D02*
X0044900Y0083327D01*
X0044900Y0081729D02*
X0009800Y0081729D01*
X0009800Y0080130D02*
X0044900Y0080130D01*
X0044900Y0078532D02*
X0009800Y0078532D01*
X0009800Y0076933D02*
X0044921Y0076933D01*
X0045989Y0075334D02*
X0009800Y0075334D01*
X0009800Y0073736D02*
X0047587Y0073736D01*
X0076723Y0096115D02*
X0339142Y0096115D01*
X0339142Y0096998D02*
X0339142Y0088002D01*
X0345502Y0081642D01*
X0354498Y0081642D01*
X0360858Y0088002D01*
X0360858Y0096998D01*
X0354498Y0103358D01*
X0345502Y0103358D01*
X0339142Y0096998D01*
X0339858Y0097714D02*
X0075100Y0097714D01*
X0075100Y0099312D02*
X0341456Y0099312D01*
X0343055Y0100911D02*
X0075100Y0100911D01*
X0075100Y0102509D02*
X0344653Y0102509D01*
X0339142Y0094517D02*
X0078641Y0094517D01*
X0080560Y0092918D02*
X0339142Y0092918D01*
X0339142Y0091320D02*
X0174857Y0091320D01*
X0176456Y0089721D02*
X0339142Y0089721D01*
X0339142Y0088123D02*
X0178054Y0088123D01*
X0179653Y0086524D02*
X0340620Y0086524D01*
X0342219Y0084926D02*
X0181251Y0084926D01*
X0182850Y0083327D02*
X0343817Y0083327D01*
X0345416Y0081729D02*
X0184448Y0081729D01*
X0186047Y0080130D02*
X0367950Y0080130D01*
X0367950Y0080800D02*
X0367950Y0079200D01*
X0369550Y0079200D01*
X0369550Y0080800D01*
X0379782Y0080800D01*
X0379663Y0081854D01*
X0379387Y0083064D01*
X0378977Y0084236D01*
X0378438Y0085354D01*
X0377778Y0086406D01*
X0377004Y0087376D01*
X0376126Y0088254D01*
X0375156Y0089028D01*
X0374104Y0089688D01*
X0372986Y0090227D01*
X0371814Y0090637D01*
X0370604Y0090913D01*
X0369550Y0091032D01*
X0369550Y0080800D01*
X0367950Y0080800D01*
X0367950Y0091032D01*
X0366896Y0090913D01*
X0365686Y0090637D01*
X0364514Y0090227D01*
X0363396Y0089688D01*
X0362344Y0089028D01*
X0361374Y0088254D01*
X0360496Y0087376D01*
X0359722Y0086406D01*
X0359062Y0085354D01*
X0358523Y0084236D01*
X0358113Y0083064D01*
X0357837Y0081854D01*
X0357718Y0080800D01*
X0367950Y0080800D01*
X0367950Y0081729D02*
X0369550Y0081729D01*
X0369550Y0083327D02*
X0367950Y0083327D01*
X0367950Y0084926D02*
X0369550Y0084926D01*
X0369550Y0086524D02*
X0367950Y0086524D01*
X0367950Y0088123D02*
X0369550Y0088123D01*
X0369550Y0089721D02*
X0367950Y0089721D01*
X0363464Y0089721D02*
X0360858Y0089721D01*
X0360858Y0088123D02*
X0361243Y0088123D01*
X0359817Y0086524D02*
X0359380Y0086524D01*
X0358855Y0084926D02*
X0357781Y0084926D01*
X0358205Y0083327D02*
X0356183Y0083327D01*
X0354584Y0081729D02*
X0357823Y0081729D01*
X0357718Y0079200D02*
X0357837Y0078146D01*
X0358113Y0076936D01*
X0358523Y0075764D01*
X0359062Y0074646D01*
X0359722Y0073594D01*
X0360496Y0072624D01*
X0361374Y0071746D01*
X0362344Y0070972D01*
X0363396Y0070312D01*
X0364514Y0069773D01*
X0365686Y0069363D01*
X0366896Y0069087D01*
X0367950Y0068968D01*
X0367950Y0079200D01*
X0357718Y0079200D01*
X0357794Y0078532D02*
X0350802Y0078532D01*
X0350800Y0078532D02*
X0351854Y0078413D01*
X0353064Y0078137D01*
X0354236Y0077727D01*
X0355354Y0077188D01*
X0356406Y0076528D01*
X0357376Y0075754D01*
X0358254Y0074876D01*
X0359028Y0073906D01*
X0359688Y0072854D01*
X0360227Y0071736D01*
X0360637Y0070564D01*
X0360913Y0069354D01*
X0361032Y0068300D01*
X0350800Y0068300D01*
X0350800Y0066700D01*
X0361032Y0066700D01*
X0360913Y0065646D01*
X0360637Y0064436D01*
X0360227Y0063264D01*
X0359688Y0062146D01*
X0359028Y0061094D01*
X0358254Y0060124D01*
X0357376Y0059246D01*
X0356406Y0058472D01*
X0355354Y0057812D01*
X0354236Y0057273D01*
X0353064Y0056863D01*
X0351854Y0056587D01*
X0350800Y0056468D01*
X0350800Y0066700D01*
X0349200Y0066700D01*
X0349200Y0056468D01*
X0348146Y0056587D01*
X0346936Y0056863D01*
X0345764Y0057273D01*
X0344646Y0057812D01*
X0343594Y0058472D01*
X0342624Y0059246D01*
X0341746Y0060124D01*
X0340972Y0061094D01*
X0340312Y0062146D01*
X0339773Y0063264D01*
X0339363Y0064436D01*
X0339087Y0065646D01*
X0338968Y0066700D01*
X0349200Y0066700D01*
X0349200Y0068300D01*
X0349200Y0078532D01*
X0348146Y0078413D01*
X0346936Y0078137D01*
X0345764Y0077727D01*
X0344646Y0077188D01*
X0343594Y0076528D01*
X0342624Y0075754D01*
X0341746Y0074876D01*
X0340972Y0073906D01*
X0340312Y0072854D01*
X0339773Y0071736D01*
X0339363Y0070564D01*
X0339087Y0069354D01*
X0338968Y0068300D01*
X0349200Y0068300D01*
X0350800Y0068300D01*
X0350800Y0078532D01*
X0349200Y0078532D01*
X0349198Y0078532D02*
X0187645Y0078532D01*
X0189244Y0076933D02*
X0344239Y0076933D01*
X0342205Y0075334D02*
X0190842Y0075334D01*
X0192441Y0073736D02*
X0340866Y0073736D01*
X0339967Y0072137D02*
X0194039Y0072137D01*
X0195638Y0070539D02*
X0339357Y0070539D01*
X0339040Y0068940D02*
X0197236Y0068940D01*
X0198835Y0067342D02*
X0349200Y0067342D01*
X0349200Y0068940D02*
X0350800Y0068940D01*
X0350800Y0067342D02*
X0393200Y0067342D01*
X0393200Y0068940D02*
X0360960Y0068940D01*
X0360643Y0070539D02*
X0363034Y0070539D01*
X0360983Y0072137D02*
X0360033Y0072137D01*
X0359633Y0073736D02*
X0359134Y0073736D01*
X0358730Y0075334D02*
X0357795Y0075334D01*
X0358114Y0076933D02*
X0355761Y0076933D01*
X0350800Y0076933D02*
X0349200Y0076933D01*
X0349200Y0075334D02*
X0350800Y0075334D01*
X0350800Y0073736D02*
X0349200Y0073736D01*
X0349200Y0072137D02*
X0350800Y0072137D01*
X0350800Y0070539D02*
X0349200Y0070539D01*
X0349200Y0065743D02*
X0350800Y0065743D01*
X0350800Y0064145D02*
X0349200Y0064145D01*
X0349200Y0062546D02*
X0350800Y0062546D01*
X0350800Y0060948D02*
X0349200Y0060948D01*
X0349200Y0059349D02*
X0350800Y0059349D01*
X0350800Y0057751D02*
X0349200Y0057751D01*
X0344772Y0057751D02*
X0244575Y0057751D01*
X0244575Y0058485D02*
X0243878Y0060166D01*
X0242591Y0061453D01*
X0240910Y0062150D01*
X0239090Y0062150D01*
X0237409Y0061453D01*
X0236122Y0060166D01*
X0235425Y0058485D01*
X0235425Y0051515D01*
X0236122Y0049834D01*
X0237409Y0048547D01*
X0239090Y0047850D01*
X0240910Y0047850D01*
X0242591Y0048547D01*
X0243878Y0049834D01*
X0244575Y0051515D01*
X0244575Y0058485D01*
X0244217Y0059349D02*
X0342521Y0059349D01*
X0341089Y0060948D02*
X0243097Y0060948D01*
X0244575Y0056152D02*
X0393200Y0056152D01*
X0393200Y0054554D02*
X0311415Y0054554D01*
X0311377Y0054695D02*
X0311140Y0055105D01*
X0310805Y0055440D01*
X0310395Y0055677D01*
X0309937Y0055800D01*
X0306081Y0055800D01*
X0306081Y0050381D01*
X0305319Y0050381D01*
X0305319Y0049619D01*
X0299900Y0049619D01*
X0299900Y0045763D01*
X0300023Y0045305D01*
X0300260Y0044895D01*
X0300595Y0044560D01*
X0301005Y0044323D01*
X0301463Y0044200D01*
X0305319Y0044200D01*
X0305319Y0049619D01*
X0306081Y0049619D01*
X0306081Y0050381D01*
X0311500Y0050381D01*
X0311500Y0054237D01*
X0311377Y0054695D01*
X0311500Y0052955D02*
X0393200Y0052955D01*
X0393200Y0051357D02*
X0311500Y0051357D01*
X0311500Y0049619D02*
X0306081Y0049619D01*
X0306081Y0044200D01*
X0309937Y0044200D01*
X0310395Y0044323D01*
X0310805Y0044560D01*
X0311140Y0044895D01*
X0311377Y0045305D01*
X0311500Y0045763D01*
X0311500Y0049619D01*
X0311500Y0048160D02*
X0393200Y0048160D01*
X0393200Y0049758D02*
X0306081Y0049758D01*
X0305319Y0049758D02*
X0296520Y0049758D01*
X0296520Y0048807D02*
X0295607Y0046601D01*
X0293919Y0044913D01*
X0291714Y0044000D01*
X0289327Y0044000D01*
X0287122Y0044913D01*
X0285434Y0046601D01*
X0284520Y0048807D01*
X0284520Y0051193D01*
X0285434Y0053399D01*
X0287122Y0055087D01*
X0289327Y0056000D01*
X0291714Y0056000D01*
X0293919Y0055087D01*
X0295607Y0053399D01*
X0296520Y0051193D01*
X0296520Y0048807D01*
X0296253Y0048160D02*
X0299900Y0048160D01*
X0299900Y0046561D02*
X0295567Y0046561D01*
X0293969Y0044963D02*
X0300220Y0044963D01*
X0305319Y0044963D02*
X0306081Y0044963D01*
X0306081Y0046561D02*
X0305319Y0046561D01*
X0305319Y0048160D02*
X0306081Y0048160D01*
X0305319Y0050381D02*
X0299900Y0050381D01*
X0299900Y0054237D01*
X0300023Y0054695D01*
X0300260Y0055105D01*
X0300595Y0055440D01*
X0301005Y0055677D01*
X0301463Y0055800D01*
X0305319Y0055800D01*
X0305319Y0050381D01*
X0305319Y0051357D02*
X0306081Y0051357D01*
X0306081Y0052955D02*
X0305319Y0052955D01*
X0305319Y0054554D02*
X0306081Y0054554D01*
X0299985Y0054554D02*
X0294452Y0054554D01*
X0295791Y0052955D02*
X0299900Y0052955D01*
X0299900Y0051357D02*
X0296453Y0051357D01*
X0286589Y0054554D02*
X0281741Y0054554D01*
X0281919Y0054424D02*
X0281181Y0054961D01*
X0280367Y0055375D01*
X0279499Y0055657D01*
X0278597Y0055800D01*
X0278522Y0055800D01*
X0278522Y0050381D01*
X0283941Y0050381D01*
X0283941Y0050456D01*
X0283798Y0051358D01*
X0283516Y0052226D01*
X0283102Y0053040D01*
X0282565Y0053778D01*
X0281919Y0054424D01*
X0283145Y0052955D02*
X0285250Y0052955D01*
X0284588Y0051357D02*
X0283798Y0051357D01*
X0283941Y0049619D02*
X0278522Y0049619D01*
X0278522Y0050381D01*
X0277760Y0050381D01*
X0277760Y0055800D01*
X0277684Y0055800D01*
X0276783Y0055657D01*
X0275915Y0055375D01*
X0275101Y0054961D01*
X0274363Y0054424D01*
X0273717Y0053778D01*
X0273180Y0053040D01*
X0272766Y0052226D01*
X0272484Y0051358D01*
X0272341Y0050456D01*
X0272341Y0050381D01*
X0277760Y0050381D01*
X0277760Y0049619D01*
X0278522Y0049619D01*
X0278522Y0044200D01*
X0278597Y0044200D01*
X0279499Y0044343D01*
X0280367Y0044625D01*
X0281181Y0045039D01*
X0281919Y0045576D01*
X0282565Y0046222D01*
X0283102Y0046960D01*
X0283516Y0047774D01*
X0283798Y0048642D01*
X0283941Y0049544D01*
X0283941Y0049619D01*
X0284520Y0049758D02*
X0278522Y0049758D01*
X0277760Y0049758D02*
X0268961Y0049758D01*
X0268961Y0048807D02*
X0268048Y0046601D01*
X0266360Y0044913D01*
X0264155Y0044000D01*
X0261768Y0044000D01*
X0259563Y0044913D01*
X0257875Y0046601D01*
X0256961Y0048807D01*
X0256961Y0051193D01*
X0257875Y0053399D01*
X0259563Y0055087D01*
X0261768Y0056000D01*
X0264155Y0056000D01*
X0266360Y0055087D01*
X0268048Y0053399D01*
X0268961Y0051193D01*
X0268961Y0048807D01*
X0268694Y0048160D02*
X0272640Y0048160D01*
X0272766Y0047774D02*
X0273180Y0046960D01*
X0273717Y0046222D01*
X0274363Y0045576D01*
X0275101Y0045039D01*
X0275915Y0044625D01*
X0276783Y0044343D01*
X0277684Y0044200D01*
X0277760Y0044200D01*
X0277760Y0049619D01*
X0272341Y0049619D01*
X0272341Y0049544D01*
X0272484Y0048642D01*
X0272766Y0047774D01*
X0273470Y0046561D02*
X0268008Y0046561D01*
X0266409Y0044963D02*
X0275251Y0044963D01*
X0277760Y0044963D02*
X0278522Y0044963D01*
X0278522Y0046561D02*
X0277760Y0046561D01*
X0277760Y0048160D02*
X0278522Y0048160D01*
X0278522Y0051357D02*
X0277760Y0051357D01*
X0277760Y0052955D02*
X0278522Y0052955D01*
X0278522Y0054554D02*
X0277760Y0054554D01*
X0274541Y0054554D02*
X0266893Y0054554D01*
X0268232Y0052955D02*
X0273137Y0052955D01*
X0272484Y0051357D02*
X0268894Y0051357D01*
X0259030Y0054554D02*
X0244575Y0054554D01*
X0244575Y0052955D02*
X0257691Y0052955D01*
X0257029Y0051357D02*
X0244509Y0051357D01*
X0243803Y0049758D02*
X0256961Y0049758D01*
X0257229Y0048160D02*
X0241657Y0048160D01*
X0238343Y0048160D02*
X0231030Y0048160D01*
X0231024Y0048158D02*
X0231679Y0048371D01*
X0232293Y0048684D01*
X0232850Y0049088D01*
X0233337Y0049575D01*
X0233742Y0050132D01*
X0234054Y0050746D01*
X0234267Y0051401D01*
X0234375Y0052081D01*
X0234375Y0055000D01*
X0234375Y0057919D01*
X0234267Y0058599D01*
X0234054Y0059254D01*
X0233742Y0059868D01*
X0233337Y0060425D01*
X0232850Y0060912D01*
X0232293Y0061316D01*
X0231679Y0061629D01*
X0231024Y0061842D01*
X0230344Y0061950D01*
X0230000Y0061950D01*
X0229656Y0061950D01*
X0228976Y0061842D01*
X0228321Y0061629D01*
X0227707Y0061316D01*
X0227150Y0060912D01*
X0226663Y0060425D01*
X0226258Y0059868D01*
X0225946Y0059254D01*
X0225733Y0058599D01*
X0225625Y0057919D01*
X0225625Y0055000D01*
X0230000Y0055000D01*
X0234375Y0055000D01*
X0230000Y0055000D01*
X0230000Y0055000D01*
X0230000Y0055000D01*
X0230000Y0061950D01*
X0230000Y0055000D01*
X0230000Y0048050D01*
X0230000Y0055000D01*
X0230000Y0055000D01*
X0230000Y0055000D01*
X0225625Y0055000D01*
X0225625Y0052081D01*
X0225733Y0051401D01*
X0225946Y0050746D01*
X0226258Y0050132D01*
X0226663Y0049575D01*
X0227150Y0049088D01*
X0227707Y0048684D01*
X0228321Y0048371D01*
X0228976Y0048158D01*
X0229656Y0048050D01*
X0230000Y0048050D01*
X0230344Y0048050D01*
X0231024Y0048158D01*
X0230000Y0048160D02*
X0230000Y0048160D01*
X0228970Y0048160D02*
X0221657Y0048160D01*
X0220910Y0047850D02*
X0222591Y0048547D01*
X0223878Y0049834D01*
X0224575Y0051515D01*
X0224575Y0058485D01*
X0223878Y0060166D01*
X0222591Y0061453D01*
X0220910Y0062150D01*
X0219090Y0062150D01*
X0217409Y0061453D01*
X0216122Y0060166D01*
X0215425Y0058485D01*
X0215425Y0051515D01*
X0216122Y0049834D01*
X0217409Y0048547D01*
X0219090Y0047850D01*
X0220910Y0047850D01*
X0218343Y0048160D02*
X0211657Y0048160D01*
X0210910Y0047850D02*
X0212591Y0048547D01*
X0213878Y0049834D01*
X0214575Y0051515D01*
X0214575Y0058485D01*
X0213878Y0060166D01*
X0212591Y0061453D01*
X0210910Y0062150D01*
X0209090Y0062150D01*
X0207409Y0061453D01*
X0206122Y0060166D01*
X0205425Y0058485D01*
X0205425Y0051515D01*
X0206122Y0049834D01*
X0207409Y0048547D01*
X0209090Y0047850D01*
X0210910Y0047850D01*
X0208343Y0048160D02*
X0201657Y0048160D01*
X0203803Y0049758D02*
X0206197Y0049758D01*
X0205491Y0051357D02*
X0204509Y0051357D01*
X0204575Y0052955D02*
X0205425Y0052955D01*
X0205425Y0054554D02*
X0204575Y0054554D01*
X0204575Y0056152D02*
X0205425Y0056152D01*
X0205425Y0057751D02*
X0204575Y0057751D01*
X0204217Y0059349D02*
X0205783Y0059349D01*
X0206903Y0060948D02*
X0203097Y0060948D01*
X0202600Y0062546D02*
X0340119Y0062546D01*
X0339465Y0064145D02*
X0202032Y0064145D01*
X0200434Y0065743D02*
X0339076Y0065743D01*
X0355228Y0057751D02*
X0393200Y0057751D01*
X0393200Y0059349D02*
X0357479Y0059349D01*
X0358911Y0060948D02*
X0393200Y0060948D01*
X0393200Y0062546D02*
X0359881Y0062546D01*
X0360535Y0064145D02*
X0393200Y0064145D01*
X0393200Y0065743D02*
X0360924Y0065743D01*
X0367950Y0070539D02*
X0369550Y0070539D01*
X0369550Y0068968D02*
X0370604Y0069087D01*
X0371814Y0069363D01*
X0372986Y0069773D01*
X0374104Y0070312D01*
X0375156Y0070972D01*
X0376126Y0071746D01*
X0377004Y0072624D01*
X0377778Y0073594D01*
X0378438Y0074646D01*
X0378977Y0075764D01*
X0379387Y0076936D01*
X0379663Y0078146D01*
X0379782Y0079200D01*
X0369550Y0079200D01*
X0369550Y0068968D01*
X0369550Y0072137D02*
X0367950Y0072137D01*
X0367950Y0073736D02*
X0369550Y0073736D01*
X0369550Y0075334D02*
X0367950Y0075334D01*
X0367950Y0076933D02*
X0369550Y0076933D01*
X0369550Y0078532D02*
X0367950Y0078532D01*
X0369550Y0080130D02*
X0393200Y0080130D01*
X0393200Y0078532D02*
X0379706Y0078532D01*
X0379386Y0076933D02*
X0393200Y0076933D01*
X0393200Y0075334D02*
X0378770Y0075334D01*
X0377867Y0073736D02*
X0393200Y0073736D01*
X0393200Y0072137D02*
X0376517Y0072137D01*
X0374466Y0070539D02*
X0393200Y0070539D01*
X0393200Y0081729D02*
X0379677Y0081729D01*
X0379295Y0083327D02*
X0393200Y0083327D01*
X0393200Y0084926D02*
X0378645Y0084926D01*
X0377683Y0086524D02*
X0393200Y0086524D01*
X0393200Y0088123D02*
X0376257Y0088123D01*
X0374036Y0089721D02*
X0393200Y0089721D01*
X0393200Y0091320D02*
X0360858Y0091320D01*
X0360858Y0092918D02*
X0393200Y0092918D01*
X0393200Y0094517D02*
X0360858Y0094517D01*
X0360858Y0096115D02*
X0393200Y0096115D01*
X0393200Y0097714D02*
X0360142Y0097714D01*
X0358544Y0099312D02*
X0393200Y0099312D01*
X0393200Y0100911D02*
X0356945Y0100911D01*
X0355347Y0102509D02*
X0393200Y0102509D01*
X0393200Y0104108D02*
X0075100Y0104108D01*
X0075100Y0105706D02*
X0393200Y0105706D01*
X0393200Y0107305D02*
X0075100Y0107305D01*
X0075100Y0108903D02*
X0097052Y0108903D01*
X0097409Y0108547D02*
X0096122Y0109834D01*
X0095425Y0111515D01*
X0095425Y0118485D01*
X0096122Y0120166D01*
X0097409Y0121453D01*
X0099090Y0122150D01*
X0100910Y0122150D01*
X0102591Y0121453D01*
X0103878Y0120166D01*
X0104575Y0118485D01*
X0104575Y0111515D01*
X0103878Y0109834D01*
X0102591Y0108547D01*
X0100910Y0107850D01*
X0099090Y0107850D01*
X0097409Y0108547D01*
X0095845Y0110502D02*
X0075100Y0110502D01*
X0075100Y0112100D02*
X0095425Y0112100D01*
X0095425Y0113699D02*
X0075100Y0113699D01*
X0075100Y0115297D02*
X0095425Y0115297D01*
X0095425Y0116896D02*
X0075100Y0116896D01*
X0075100Y0118494D02*
X0095429Y0118494D01*
X0096091Y0120093D02*
X0075100Y0120093D01*
X0074486Y0121691D02*
X0097984Y0121691D01*
X0102016Y0121691D02*
X0107984Y0121691D01*
X0106091Y0120093D02*
X0103909Y0120093D01*
X0104571Y0118494D02*
X0105429Y0118494D01*
X0105425Y0116896D02*
X0104575Y0116896D01*
X0104575Y0115297D02*
X0105425Y0115297D01*
X0105425Y0113699D02*
X0104575Y0113699D01*
X0104575Y0112100D02*
X0105425Y0112100D01*
X0105845Y0110502D02*
X0104155Y0110502D01*
X0102948Y0108903D02*
X0107052Y0108903D01*
X0161744Y0076933D02*
X0161890Y0076933D01*
X0163342Y0075334D02*
X0163489Y0075334D01*
X0164941Y0073736D02*
X0165087Y0073736D01*
X0166539Y0072137D02*
X0166686Y0072137D01*
X0168138Y0070539D02*
X0168284Y0070539D01*
X0169736Y0068940D02*
X0169883Y0068940D01*
X0171335Y0067342D02*
X0171481Y0067342D01*
X0172506Y0065743D02*
X0173080Y0065743D01*
X0172600Y0064145D02*
X0174678Y0064145D01*
X0176277Y0062546D02*
X0172600Y0062546D01*
X0173097Y0060948D02*
X0176903Y0060948D01*
X0175783Y0059349D02*
X0174217Y0059349D01*
X0174575Y0057751D02*
X0175425Y0057751D01*
X0175425Y0056152D02*
X0174575Y0056152D01*
X0174575Y0054554D02*
X0175425Y0054554D01*
X0175425Y0052955D02*
X0174575Y0052955D01*
X0174509Y0051357D02*
X0175491Y0051357D01*
X0176197Y0049758D02*
X0173803Y0049758D01*
X0171657Y0048160D02*
X0178343Y0048160D01*
X0181657Y0048160D02*
X0188343Y0048160D01*
X0186197Y0049758D02*
X0183803Y0049758D01*
X0184509Y0051357D02*
X0185491Y0051357D01*
X0185425Y0052955D02*
X0184575Y0052955D01*
X0184575Y0054554D02*
X0185425Y0054554D01*
X0185425Y0056152D02*
X0184575Y0056152D01*
X0184575Y0057751D02*
X0185425Y0057751D01*
X0185783Y0059349D02*
X0184217Y0059349D01*
X0183097Y0060948D02*
X0186903Y0060948D01*
X0187400Y0062546D02*
X0182600Y0062546D01*
X0182032Y0064145D02*
X0187178Y0064145D01*
X0185580Y0065743D02*
X0180434Y0065743D01*
X0178835Y0067342D02*
X0183981Y0067342D01*
X0182383Y0068940D02*
X0177236Y0068940D01*
X0175638Y0070539D02*
X0180784Y0070539D01*
X0179186Y0072137D02*
X0174039Y0072137D01*
X0172441Y0073736D02*
X0177587Y0073736D01*
X0175989Y0075334D02*
X0170842Y0075334D01*
X0169244Y0076933D02*
X0174390Y0076933D01*
X0172792Y0078532D02*
X0167645Y0078532D01*
X0166047Y0080130D02*
X0171193Y0080130D01*
X0169595Y0081729D02*
X0164448Y0081729D01*
X0172153Y0086524D02*
X0172299Y0086524D01*
X0173751Y0084926D02*
X0173897Y0084926D01*
X0175350Y0083327D02*
X0175496Y0083327D01*
X0176948Y0081729D02*
X0177095Y0081729D01*
X0178547Y0080130D02*
X0178693Y0080130D01*
X0180145Y0078532D02*
X0180292Y0078532D01*
X0181744Y0076933D02*
X0181890Y0076933D01*
X0183342Y0075334D02*
X0183489Y0075334D01*
X0184941Y0073736D02*
X0185087Y0073736D01*
X0186539Y0072137D02*
X0186686Y0072137D01*
X0188138Y0070539D02*
X0188284Y0070539D01*
X0189736Y0068940D02*
X0189883Y0068940D01*
X0191335Y0067342D02*
X0191481Y0067342D01*
X0192506Y0065743D02*
X0193080Y0065743D01*
X0192600Y0064145D02*
X0194678Y0064145D01*
X0196277Y0062546D02*
X0192600Y0062546D01*
X0193097Y0060948D02*
X0196903Y0060948D01*
X0195783Y0059349D02*
X0194217Y0059349D01*
X0194575Y0057751D02*
X0195425Y0057751D01*
X0195425Y0056152D02*
X0194575Y0056152D01*
X0194575Y0054554D02*
X0195425Y0054554D01*
X0195425Y0052955D02*
X0194575Y0052955D01*
X0194509Y0051357D02*
X0195491Y0051357D01*
X0196197Y0049758D02*
X0193803Y0049758D01*
X0191657Y0048160D02*
X0198343Y0048160D01*
X0213803Y0049758D02*
X0216197Y0049758D01*
X0215491Y0051357D02*
X0214509Y0051357D01*
X0214575Y0052955D02*
X0215425Y0052955D01*
X0215425Y0054554D02*
X0214575Y0054554D01*
X0214575Y0056152D02*
X0215425Y0056152D01*
X0215425Y0057751D02*
X0214575Y0057751D01*
X0214217Y0059349D02*
X0215783Y0059349D01*
X0216903Y0060948D02*
X0213097Y0060948D01*
X0223097Y0060948D02*
X0227200Y0060948D01*
X0225994Y0059349D02*
X0224217Y0059349D01*
X0224575Y0057751D02*
X0225625Y0057751D01*
X0225625Y0056152D02*
X0224575Y0056152D01*
X0224575Y0054554D02*
X0225625Y0054554D01*
X0225625Y0052955D02*
X0224575Y0052955D01*
X0224509Y0051357D02*
X0225747Y0051357D01*
X0226530Y0049758D02*
X0223803Y0049758D01*
X0230000Y0049758D02*
X0230000Y0049758D01*
X0230000Y0051357D02*
X0230000Y0051357D01*
X0230000Y0052955D02*
X0230000Y0052955D01*
X0230000Y0054554D02*
X0230000Y0054554D01*
X0230000Y0056152D02*
X0230000Y0056152D01*
X0230000Y0057751D02*
X0230000Y0057751D01*
X0230000Y0059349D02*
X0230000Y0059349D01*
X0230000Y0060948D02*
X0230000Y0060948D01*
X0232800Y0060948D02*
X0236903Y0060948D01*
X0235783Y0059349D02*
X0234006Y0059349D01*
X0234375Y0057751D02*
X0235425Y0057751D01*
X0235425Y0056152D02*
X0234375Y0056152D01*
X0234375Y0054554D02*
X0235425Y0054554D01*
X0235425Y0052955D02*
X0234375Y0052955D01*
X0234253Y0051357D02*
X0235491Y0051357D01*
X0236197Y0049758D02*
X0233470Y0049758D01*
X0257915Y0046561D02*
X0009800Y0046561D01*
X0009800Y0044963D02*
X0259513Y0044963D01*
X0281030Y0044963D02*
X0287072Y0044963D01*
X0285474Y0046561D02*
X0282812Y0046561D01*
X0283641Y0048160D02*
X0284788Y0048160D01*
X0311180Y0044963D02*
X0393200Y0044963D01*
X0393200Y0046561D02*
X0311500Y0046561D01*
X0366190Y0029892D02*
X0365326Y0026669D01*
X0365326Y0023331D01*
X0366190Y0020108D01*
X0367858Y0017218D01*
X0370218Y0014858D01*
X0373108Y0013190D01*
X0376331Y0012326D01*
X0379669Y0012326D01*
X0382892Y0013190D01*
X0385782Y0014858D01*
X0388142Y0017218D01*
X0389810Y0020108D01*
X0390674Y0023331D01*
X0390674Y0026669D01*
X0389810Y0029892D01*
X0388142Y0032782D01*
X0385782Y0035142D01*
X0382892Y0036810D01*
X0379669Y0037674D01*
X0376331Y0037674D01*
X0373108Y0036810D01*
X0370218Y0035142D01*
X0367858Y0032782D01*
X0366190Y0029892D01*
X0366585Y0030576D02*
X0036415Y0030576D01*
X0036810Y0029892D02*
X0035142Y0032782D01*
X0032782Y0035142D01*
X0029892Y0036810D01*
X0026669Y0037674D01*
X0023331Y0037674D01*
X0020108Y0036810D01*
X0017218Y0035142D01*
X0014858Y0032782D01*
X0013190Y0029892D01*
X0012326Y0026669D01*
X0012326Y0023331D01*
X0013190Y0020108D01*
X0014858Y0017218D01*
X0017218Y0014858D01*
X0020108Y0013190D01*
X0023331Y0012326D01*
X0026669Y0012326D01*
X0029892Y0013190D01*
X0032782Y0014858D01*
X0035142Y0017218D01*
X0036810Y0020108D01*
X0037674Y0023331D01*
X0037674Y0026669D01*
X0036810Y0029892D01*
X0037055Y0028978D02*
X0365945Y0028978D01*
X0365516Y0027379D02*
X0037484Y0027379D01*
X0037674Y0025781D02*
X0365326Y0025781D01*
X0365326Y0024182D02*
X0037674Y0024182D01*
X0037474Y0022584D02*
X0365526Y0022584D01*
X0365955Y0020985D02*
X0037045Y0020985D01*
X0036394Y0019387D02*
X0366606Y0019387D01*
X0367529Y0017788D02*
X0035471Y0017788D01*
X0034113Y0016190D02*
X0368887Y0016190D01*
X0370681Y0014591D02*
X0032319Y0014591D01*
X0029156Y0012993D02*
X0373844Y0012993D01*
X0382156Y0012993D02*
X0392753Y0012993D01*
X0393166Y0014591D02*
X0385319Y0014591D01*
X0387113Y0016190D02*
X0393200Y0016190D01*
X0393200Y0017788D02*
X0388471Y0017788D01*
X0389394Y0019387D02*
X0393200Y0019387D01*
X0393200Y0020985D02*
X0390045Y0020985D01*
X0390474Y0022584D02*
X0393200Y0022584D01*
X0393200Y0024182D02*
X0390674Y0024182D01*
X0390674Y0025781D02*
X0393200Y0025781D01*
X0393200Y0027379D02*
X0390484Y0027379D01*
X0390055Y0028978D02*
X0393200Y0028978D01*
X0393200Y0030576D02*
X0389415Y0030576D01*
X0388492Y0032175D02*
X0393200Y0032175D01*
X0393200Y0033773D02*
X0387151Y0033773D01*
X0385384Y0035372D02*
X0393200Y0035372D01*
X0393200Y0036970D02*
X0382295Y0036970D01*
X0373705Y0036970D02*
X0029295Y0036970D01*
X0032384Y0035372D02*
X0370616Y0035372D01*
X0368849Y0033773D02*
X0034151Y0033773D01*
X0035492Y0032175D02*
X0367508Y0032175D01*
X0393200Y0038569D02*
X0009800Y0038569D01*
X0009800Y0040167D02*
X0393200Y0040167D01*
X0393200Y0041766D02*
X0009800Y0041766D01*
X0009800Y0043364D02*
X0393200Y0043364D01*
X0391621Y0011394D02*
X0011221Y0011394D01*
X0010162Y0012993D02*
X0020844Y0012993D01*
X0017681Y0014591D02*
X0009816Y0014591D01*
X0009800Y0016190D02*
X0015887Y0016190D01*
X0014529Y0017788D02*
X0009800Y0017788D01*
X0009800Y0019387D02*
X0013606Y0019387D01*
X0012955Y0020985D02*
X0009800Y0020985D01*
X0009800Y0022584D02*
X0012526Y0022584D01*
X0012326Y0024182D02*
X0009800Y0024182D01*
X0009800Y0025781D02*
X0012326Y0025781D01*
X0012516Y0027379D02*
X0009800Y0027379D01*
X0009800Y0028978D02*
X0012945Y0028978D01*
X0013585Y0030576D02*
X0009800Y0030576D01*
X0009800Y0032175D02*
X0014508Y0032175D01*
X0015849Y0033773D02*
X0009800Y0033773D01*
X0009800Y0035372D02*
X0017616Y0035372D01*
X0020705Y0036970D02*
X0009800Y0036970D01*
X0009800Y0048160D02*
X0098343Y0048160D01*
X0099090Y0047850D02*
X0100910Y0047850D01*
X0102591Y0048547D01*
X0103878Y0049834D01*
X0104575Y0051515D01*
X0104575Y0058485D01*
X0103878Y0060166D01*
X0102591Y0061453D01*
X0100910Y0062150D01*
X0099090Y0062150D01*
X0097409Y0061453D01*
X0096122Y0060166D01*
X0095425Y0058485D01*
X0095425Y0051515D01*
X0096122Y0049834D01*
X0097409Y0048547D01*
X0099090Y0047850D01*
X0101657Y0048160D02*
X0108343Y0048160D01*
X0109090Y0047850D02*
X0110910Y0047850D01*
X0112591Y0048547D01*
X0113878Y0049834D01*
X0114575Y0051515D01*
X0114575Y0058485D01*
X0113878Y0060166D01*
X0112591Y0061453D01*
X0110910Y0062150D01*
X0109090Y0062150D01*
X0107409Y0061453D01*
X0106122Y0060166D01*
X0105425Y0058485D01*
X0105425Y0051515D01*
X0106122Y0049834D01*
X0107409Y0048547D01*
X0109090Y0047850D01*
X0111657Y0048160D02*
X0118343Y0048160D01*
X0119090Y0047850D02*
X0117409Y0048547D01*
X0116122Y0049834D01*
X0115425Y0051515D01*
X0115425Y0058485D01*
X0116122Y0060166D01*
X0117409Y0061453D01*
X0119090Y0062150D01*
X0120910Y0062150D01*
X0122591Y0061453D01*
X0123878Y0060166D01*
X0124575Y0058485D01*
X0124575Y0051515D01*
X0123878Y0049834D01*
X0122591Y0048547D01*
X0120910Y0047850D01*
X0119090Y0047850D01*
X0121657Y0048160D02*
X0128343Y0048160D01*
X0129090Y0047850D02*
X0130910Y0047850D01*
X0132591Y0048547D01*
X0133878Y0049834D01*
X0134575Y0051515D01*
X0134575Y0058485D01*
X0133878Y0060166D01*
X0132591Y0061453D01*
X0130910Y0062150D01*
X0129090Y0062150D01*
X0127409Y0061453D01*
X0126122Y0060166D01*
X0125425Y0058485D01*
X0125425Y0051515D01*
X0126122Y0049834D01*
X0127409Y0048547D01*
X0129090Y0047850D01*
X0131657Y0048160D02*
X0138343Y0048160D01*
X0139090Y0047850D02*
X0140910Y0047850D01*
X0142591Y0048547D01*
X0143878Y0049834D01*
X0144575Y0051515D01*
X0144575Y0058485D01*
X0143878Y0060166D01*
X0142591Y0061453D01*
X0140910Y0062150D01*
X0139090Y0062150D01*
X0137409Y0061453D01*
X0136122Y0060166D01*
X0135425Y0058485D01*
X0135425Y0051515D01*
X0136122Y0049834D01*
X0137409Y0048547D01*
X0139090Y0047850D01*
X0141657Y0048160D02*
X0148343Y0048160D01*
X0149090Y0047850D02*
X0147409Y0048547D01*
X0146122Y0049834D01*
X0145425Y0051515D01*
X0145425Y0058485D01*
X0146122Y0060166D01*
X0147409Y0061453D01*
X0149090Y0062150D01*
X0150910Y0062150D01*
X0152591Y0061453D01*
X0153878Y0060166D01*
X0154575Y0058485D01*
X0154575Y0051515D01*
X0153878Y0049834D01*
X0152591Y0048547D01*
X0150910Y0047850D01*
X0149090Y0047850D01*
X0151657Y0048160D02*
X0158343Y0048160D01*
X0159090Y0047850D02*
X0160910Y0047850D01*
X0162591Y0048547D01*
X0163878Y0049834D01*
X0164575Y0051515D01*
X0164575Y0058485D01*
X0163878Y0060166D01*
X0162591Y0061453D01*
X0160910Y0062150D01*
X0159090Y0062150D01*
X0157409Y0061453D01*
X0156122Y0060166D01*
X0155425Y0058485D01*
X0155425Y0051515D01*
X0156122Y0049834D01*
X0157409Y0048547D01*
X0159090Y0047850D01*
X0161657Y0048160D02*
X0168343Y0048160D01*
X0166197Y0049758D02*
X0163803Y0049758D01*
X0164509Y0051357D02*
X0165491Y0051357D01*
X0165425Y0052955D02*
X0164575Y0052955D01*
X0164575Y0054554D02*
X0165425Y0054554D01*
X0165425Y0056152D02*
X0164575Y0056152D01*
X0164575Y0057751D02*
X0165425Y0057751D01*
X0165783Y0059349D02*
X0164217Y0059349D01*
X0163097Y0060948D02*
X0166903Y0060948D01*
X0167400Y0062546D02*
X0009800Y0062546D01*
X0009800Y0060948D02*
X0096903Y0060948D01*
X0095783Y0059349D02*
X0009800Y0059349D01*
X0009800Y0057751D02*
X0095425Y0057751D01*
X0095425Y0056152D02*
X0009800Y0056152D01*
X0009800Y0054554D02*
X0095425Y0054554D01*
X0095425Y0052955D02*
X0009800Y0052955D01*
X0009800Y0051357D02*
X0095491Y0051357D01*
X0096197Y0049758D02*
X0009800Y0049758D01*
X0009800Y0064145D02*
X0167178Y0064145D01*
X0165580Y0065743D02*
X0009800Y0065743D01*
X0009800Y0067342D02*
X0163981Y0067342D01*
X0162383Y0068940D02*
X0009800Y0068940D01*
X0009800Y0070539D02*
X0160784Y0070539D01*
X0159186Y0072137D02*
X0009800Y0072137D01*
X0028472Y0100911D02*
X0044900Y0100911D01*
X0044900Y0102509D02*
X0029638Y0102509D01*
X0030200Y0104108D02*
X0044900Y0104108D01*
X0044900Y0105706D02*
X0030200Y0105706D01*
X0029715Y0107305D02*
X0044900Y0107305D01*
X0044900Y0108903D02*
X0028658Y0108903D01*
X0028666Y0110502D02*
X0044900Y0110502D01*
X0044900Y0112100D02*
X0030192Y0112100D01*
X0030860Y0113699D02*
X0044900Y0113699D01*
X0043526Y0115297D02*
X0031000Y0115297D01*
X0030667Y0116896D02*
X0041927Y0116896D01*
X0040329Y0118494D02*
X0029760Y0118494D01*
X0027620Y0120093D02*
X0038730Y0120093D01*
X0037132Y0121691D02*
X0029252Y0121691D01*
X0103097Y0060948D02*
X0106903Y0060948D01*
X0105783Y0059349D02*
X0104217Y0059349D01*
X0104575Y0057751D02*
X0105425Y0057751D01*
X0105425Y0056152D02*
X0104575Y0056152D01*
X0104575Y0054554D02*
X0105425Y0054554D01*
X0105425Y0052955D02*
X0104575Y0052955D01*
X0104509Y0051357D02*
X0105491Y0051357D01*
X0106197Y0049758D02*
X0103803Y0049758D01*
X0113803Y0049758D02*
X0116197Y0049758D01*
X0115491Y0051357D02*
X0114509Y0051357D01*
X0114575Y0052955D02*
X0115425Y0052955D01*
X0115425Y0054554D02*
X0114575Y0054554D01*
X0114575Y0056152D02*
X0115425Y0056152D01*
X0115425Y0057751D02*
X0114575Y0057751D01*
X0114217Y0059349D02*
X0115783Y0059349D01*
X0116903Y0060948D02*
X0113097Y0060948D01*
X0123097Y0060948D02*
X0126903Y0060948D01*
X0125783Y0059349D02*
X0124217Y0059349D01*
X0124575Y0057751D02*
X0125425Y0057751D01*
X0125425Y0056152D02*
X0124575Y0056152D01*
X0124575Y0054554D02*
X0125425Y0054554D01*
X0125425Y0052955D02*
X0124575Y0052955D01*
X0124509Y0051357D02*
X0125491Y0051357D01*
X0126197Y0049758D02*
X0123803Y0049758D01*
X0133803Y0049758D02*
X0136197Y0049758D01*
X0135491Y0051357D02*
X0134509Y0051357D01*
X0134575Y0052955D02*
X0135425Y0052955D01*
X0135425Y0054554D02*
X0134575Y0054554D01*
X0134575Y0056152D02*
X0135425Y0056152D01*
X0135425Y0057751D02*
X0134575Y0057751D01*
X0134217Y0059349D02*
X0135783Y0059349D01*
X0136903Y0060948D02*
X0133097Y0060948D01*
X0143097Y0060948D02*
X0146903Y0060948D01*
X0145783Y0059349D02*
X0144217Y0059349D01*
X0144575Y0057751D02*
X0145425Y0057751D01*
X0145425Y0056152D02*
X0144575Y0056152D01*
X0144575Y0054554D02*
X0145425Y0054554D01*
X0145425Y0052955D02*
X0144575Y0052955D01*
X0144509Y0051357D02*
X0145491Y0051357D01*
X0146197Y0049758D02*
X0143803Y0049758D01*
X0153803Y0049758D02*
X0156197Y0049758D01*
X0155491Y0051357D02*
X0154509Y0051357D01*
X0154575Y0052955D02*
X0155425Y0052955D01*
X0155425Y0054554D02*
X0154575Y0054554D01*
X0154575Y0056152D02*
X0155425Y0056152D01*
X0155425Y0057751D02*
X0154575Y0057751D01*
X0154217Y0059349D02*
X0155783Y0059349D01*
X0156903Y0060948D02*
X0153097Y0060948D01*
X0210000Y0108903D02*
X0210000Y0108903D01*
X0210000Y0110502D02*
X0210000Y0110502D01*
X0210000Y0112100D02*
X0210000Y0112100D01*
X0210000Y0113699D02*
X0210000Y0113699D01*
X0210000Y0115297D02*
X0210000Y0115297D01*
X0210000Y0116896D02*
X0210000Y0116896D01*
X0210000Y0118494D02*
X0210000Y0118494D01*
X0210000Y0120093D02*
X0210000Y0120093D01*
X0358707Y0131282D02*
X0361576Y0131282D01*
X0360412Y0132881D02*
X0359805Y0132881D01*
X0359574Y0137676D02*
X0360702Y0137676D01*
X0362292Y0139275D02*
X0358150Y0139275D01*
X0365000Y0139275D02*
X0365000Y0139275D01*
X0365000Y0137676D02*
X0365000Y0137676D01*
X0365000Y0136078D02*
X0365000Y0136078D01*
X0365000Y0134479D02*
X0365000Y0134479D01*
X0365000Y0132881D02*
X0365000Y0132881D01*
X0365000Y0131282D02*
X0365000Y0131282D01*
X0366263Y0168200D02*
X0368880Y0168200D01*
X0372863Y0172183D01*
X0372863Y0174800D01*
X0366263Y0174800D01*
X0366263Y0168200D01*
X0366263Y0169647D02*
X0365863Y0169647D01*
X0365863Y0171245D02*
X0366263Y0171245D01*
X0366263Y0172844D02*
X0365863Y0172844D01*
X0365863Y0174442D02*
X0366263Y0174442D01*
X0366263Y0176041D02*
X0365863Y0176041D01*
X0365863Y0177639D02*
X0366263Y0177639D01*
X0366263Y0179238D02*
X0365863Y0179238D01*
X0365863Y0180836D02*
X0366263Y0180836D01*
X0369843Y0180836D02*
X0393200Y0180836D01*
X0393200Y0179238D02*
X0371442Y0179238D01*
X0372863Y0177639D02*
X0393200Y0177639D01*
X0393200Y0176041D02*
X0372863Y0176041D01*
X0372863Y0174442D02*
X0393200Y0174442D01*
X0393200Y0172844D02*
X0372863Y0172844D01*
X0371925Y0171245D02*
X0393200Y0171245D01*
X0393200Y0169647D02*
X0370326Y0169647D01*
X0361800Y0169647D02*
X0357499Y0169647D01*
X0358974Y0171245D02*
X0360201Y0171245D01*
X0360684Y0179238D02*
X0358614Y0179238D01*
X0357016Y0180836D02*
X0362283Y0180836D01*
X0364178Y0238383D02*
X0365024Y0238383D01*
X0366420Y0239981D02*
X0361662Y0239981D01*
X0358338Y0239981D02*
X0355700Y0239981D01*
X0355700Y0238383D02*
X0355822Y0238383D01*
D24*
X0115000Y0215000D02*
X0112500Y0215000D01*
X0095000Y0197500D01*
X0095000Y0185000D01*
D25*
X0075000Y0175000D02*
X0025500Y0175000D01*
X0024500Y0165000D02*
X0075000Y0165000D01*
X0115000Y0125000D01*
X0220000Y0125000D01*
X0230000Y0115000D01*
X0240000Y0115000D02*
X0225000Y0130000D01*
X0120000Y0130000D01*
X0075000Y0175000D01*
X0037500Y0155000D02*
X0072500Y0120000D01*
X0072500Y0096250D01*
X0080000Y0090000D01*
X0172500Y0090000D01*
X0200000Y0062500D01*
X0200000Y0055000D01*
X0190000Y0055000D02*
X0190000Y0065000D01*
X0170000Y0085000D01*
X0067500Y0085000D01*
X0062500Y0090000D01*
X0062500Y0120000D01*
X0037500Y0145000D01*
X0024500Y0145000D01*
X0025500Y0155000D02*
X0037500Y0155000D01*
X0037500Y0135000D02*
X0025500Y0135000D01*
X0037500Y0135000D02*
X0055000Y0117500D01*
X0055000Y0082500D01*
X0057500Y0080000D01*
X0162500Y0080000D01*
X0180000Y0062500D01*
X0180000Y0055000D01*
X0170000Y0055000D02*
X0170000Y0065000D01*
X0160000Y0075000D01*
X0050000Y0075000D01*
X0047500Y0077500D01*
X0047500Y0115000D01*
X0037500Y0125000D01*
X0024500Y0125000D01*
M02*
