%
M48
M72
T01C0.02756
T02C0.03150
T03C0.04000
T04C0.04724
T05C0.12205
T06C0.15748
%
T01
X355000Y135000
X365000Y135000
T02
X240000Y115000
X230000Y115000
X220000Y115000
X210000Y115000
X200000Y115000
X190000Y115000
X180000Y115000
X170000Y115000
X160000Y115000
X150000Y115000
X140000Y115000
X130000Y115000
X120000Y115000
X110000Y115000
X100000Y115000
X100000Y55000
X110000Y55000
X120000Y55000
X130000Y55000
X140000Y55000
X150000Y55000
X160000Y55000
X170000Y55000
X180000Y55000
X190000Y55000
X200000Y55000
X210000Y55000
X220000Y55000
X230000Y55000
X240000Y55000
T03
X352953Y175000
X366063Y175000
X335000Y214000
X325000Y215000
X315000Y214000
X305000Y215000
X295000Y214000
X285000Y215000
X275000Y234500
X265000Y235500
X255000Y234500
X245000Y235500
X225000Y234500
X215000Y235500
X205000Y234500
X195000Y235500
X170000Y235500
X160000Y234500
X150000Y235500
X135000Y235500
X125000Y234500
X115000Y235500
X100000Y235500
X90000Y234500
X80000Y235500
X65000Y235500
X55000Y234500
X45000Y235500
X45000Y215000
X55000Y214000
X65000Y215000
X75000Y214000
X85000Y215000
X95000Y214000
X115000Y215000
X125000Y214000
X135000Y215000
X145000Y214000
X155000Y215000
X165000Y214000
X155000Y185500
X145000Y184500
X135000Y185500
X125000Y184500
X115000Y185500
X105000Y184500
X95000Y185500
X165000Y184500
X175000Y185500
X185000Y184500
X220000Y185500
X230000Y184500
X240000Y185500
X250000Y184500
X260000Y185500
X270000Y184500
X280000Y185500
X290000Y184500
X300000Y185500
X310000Y184500
X260000Y214000
X250000Y215000
X240000Y214000
X230000Y215000
X220000Y214000
X210000Y215000
X295000Y235500
X305000Y234500
X315000Y235500
X325000Y234500
X350000Y235500
X360000Y234500
X370000Y235500
X380000Y234500
X25500Y175000
X24500Y165000
X25500Y155000
X24500Y145000
X25500Y135000
X24500Y125000
X25500Y115000
X24500Y105000
T04
X262961Y50000
X278141Y50000
X290520Y50000
X305700Y50000
T05
X350000Y67500
X368750Y80000
X350000Y92500
T06
X25000Y25000
X25000Y256000
X378000Y256000
X378000Y25000
M30
