G75*
%MOIN*%
%OFA0B0*%
%FSLAX25Y25*%
%IPPOS*%
%LPD*%
%AMOC8*
5,1,8,0,0,1.08239X$1,22.5*
%
%ADD10OC8,0.17717*%
%ADD11C,0.18504*%
%ADD12C,0.05150*%
%ADD13C,0.00000*%
%ADD14R,0.08000X0.08000*%
%ADD15C,0.08000*%
%ADD16C,0.10000*%
%ADD17OC8,0.10000*%
%ADD18C,0.06500*%
%ADD19R,0.07400X0.07400*%
%ADD20C,0.07400*%
%ADD21C,0.01600*%
%ADD22C,0.01200*%
D10*
X0350000Y0092500D03*
D11*
X0368750Y0080000D03*
X0350000Y0067500D03*
D12*
X0240000Y0057575D02*
X0240000Y0052425D01*
X0230000Y0052425D02*
X0230000Y0057575D01*
X0220000Y0057575D02*
X0220000Y0052425D01*
X0210000Y0052425D02*
X0210000Y0057575D01*
X0200000Y0057575D02*
X0200000Y0052425D01*
X0190000Y0052425D02*
X0190000Y0057575D01*
X0180000Y0057575D02*
X0180000Y0052425D01*
X0170000Y0052425D02*
X0170000Y0057575D01*
X0160000Y0057575D02*
X0160000Y0052425D01*
X0150000Y0052425D02*
X0150000Y0057575D01*
X0140000Y0057575D02*
X0140000Y0052425D01*
X0130000Y0052425D02*
X0130000Y0057575D01*
X0120000Y0057575D02*
X0120000Y0052425D01*
X0110000Y0052425D02*
X0110000Y0057575D01*
X0100000Y0057575D02*
X0100000Y0052425D01*
X0100000Y0112425D02*
X0100000Y0117575D01*
X0110000Y0117575D02*
X0110000Y0112425D01*
X0120000Y0112425D02*
X0120000Y0117575D01*
X0130000Y0117575D02*
X0130000Y0112425D01*
X0140000Y0112425D02*
X0140000Y0117575D01*
X0150000Y0117575D02*
X0150000Y0112425D01*
X0160000Y0112425D02*
X0160000Y0117575D01*
X0170000Y0117575D02*
X0170000Y0112425D01*
X0180000Y0112425D02*
X0180000Y0117575D01*
X0190000Y0117575D02*
X0190000Y0112425D01*
X0200000Y0112425D02*
X0200000Y0117575D01*
X0210000Y0117575D02*
X0210000Y0112425D01*
X0220000Y0112425D02*
X0220000Y0117575D01*
X0230000Y0117575D02*
X0230000Y0112425D01*
X0240000Y0112425D02*
X0240000Y0117575D01*
D13*
X0032559Y0005000D02*
X0014843Y0005000D01*
X0014605Y0005003D01*
X0014367Y0005011D01*
X0014130Y0005026D01*
X0013893Y0005046D01*
X0013657Y0005072D01*
X0013421Y0005103D01*
X0013186Y0005140D01*
X0012952Y0005183D01*
X0012719Y0005232D01*
X0012487Y0005286D01*
X0012257Y0005346D01*
X0012028Y0005411D01*
X0011801Y0005482D01*
X0011576Y0005558D01*
X0011353Y0005640D01*
X0011131Y0005727D01*
X0010912Y0005819D01*
X0010695Y0005917D01*
X0010481Y0006019D01*
X0010269Y0006127D01*
X0010059Y0006241D01*
X0009853Y0006359D01*
X0009649Y0006482D01*
X0009449Y0006610D01*
X0009252Y0006742D01*
X0009057Y0006880D01*
X0008867Y0007022D01*
X0008679Y0007169D01*
X0008496Y0007320D01*
X0008316Y0007475D01*
X0008140Y0007635D01*
X0007968Y0007799D01*
X0007799Y0007968D01*
X0007635Y0008140D01*
X0007475Y0008316D01*
X0007320Y0008496D01*
X0007169Y0008679D01*
X0007022Y0008867D01*
X0006880Y0009057D01*
X0006742Y0009252D01*
X0006610Y0009449D01*
X0006482Y0009649D01*
X0006359Y0009853D01*
X0006241Y0010059D01*
X0006127Y0010269D01*
X0006019Y0010481D01*
X0005917Y0010695D01*
X0005819Y0010912D01*
X0005727Y0011131D01*
X0005640Y0011353D01*
X0005558Y0011576D01*
X0005482Y0011801D01*
X0005411Y0012028D01*
X0005346Y0012257D01*
X0005286Y0012487D01*
X0005232Y0012719D01*
X0005183Y0012952D01*
X0005140Y0013186D01*
X0005103Y0013421D01*
X0005072Y0013657D01*
X0005046Y0013893D01*
X0005026Y0014130D01*
X0005011Y0014367D01*
X0005003Y0014605D01*
X0005000Y0014843D01*
X0005000Y0036500D01*
X0005000Y0265000D01*
X0004989Y0265252D01*
X0004984Y0265504D01*
X0004986Y0265757D01*
X0004993Y0266009D01*
X0005006Y0266261D01*
X0005026Y0266512D01*
X0005051Y0266763D01*
X0005083Y0267013D01*
X0005121Y0267263D01*
X0005164Y0267511D01*
X0005214Y0267758D01*
X0005270Y0268004D01*
X0005331Y0268249D01*
X0005399Y0268492D01*
X0005472Y0268733D01*
X0005551Y0268973D01*
X0005636Y0269210D01*
X0005727Y0269446D01*
X0005823Y0269679D01*
X0005925Y0269909D01*
X0006032Y0270138D01*
X0006145Y0270363D01*
X0006263Y0270586D01*
X0006387Y0270806D01*
X0006516Y0271022D01*
X0006650Y0271236D01*
X0006789Y0271446D01*
X0006934Y0271653D01*
X0007083Y0271857D01*
X0007237Y0272056D01*
X0007396Y0272252D01*
X0007560Y0272444D01*
X0007728Y0272632D01*
X0007900Y0272816D01*
X0008077Y0272995D01*
X0008259Y0273171D01*
X0008444Y0273342D01*
X0008634Y0273508D01*
X0008828Y0273670D01*
X0009025Y0273827D01*
X0009226Y0273979D01*
X0009431Y0274126D01*
X0009639Y0274268D01*
X0009851Y0274405D01*
X0010066Y0274537D01*
X0010284Y0274664D01*
X0010505Y0274786D01*
X0010729Y0274902D01*
X0010955Y0275012D01*
X0011185Y0275118D01*
X0011416Y0275217D01*
X0011650Y0275311D01*
X0011887Y0275399D01*
X0012125Y0275482D01*
X0012365Y0275559D01*
X0012607Y0275630D01*
X0012851Y0275695D01*
X0013096Y0275754D01*
X0013343Y0275807D01*
X0013590Y0275854D01*
X0013839Y0275895D01*
X0014089Y0275931D01*
X0014339Y0275960D01*
X0014591Y0275983D01*
X0014842Y0276000D01*
X0014843Y0276000D02*
X0064055Y0276000D01*
X0387598Y0276000D01*
X0387857Y0275989D01*
X0388115Y0275973D01*
X0388372Y0275950D01*
X0388630Y0275921D01*
X0388886Y0275886D01*
X0389141Y0275844D01*
X0389395Y0275797D01*
X0389648Y0275743D01*
X0389900Y0275683D01*
X0390150Y0275617D01*
X0390399Y0275545D01*
X0390646Y0275467D01*
X0390890Y0275384D01*
X0391133Y0275294D01*
X0391373Y0275198D01*
X0391611Y0275097D01*
X0391847Y0274990D01*
X0392080Y0274877D01*
X0392310Y0274759D01*
X0392537Y0274635D01*
X0392761Y0274506D01*
X0392982Y0274371D01*
X0393199Y0274231D01*
X0393413Y0274086D01*
X0393624Y0273936D01*
X0393831Y0273780D01*
X0394034Y0273620D01*
X0394233Y0273455D01*
X0394428Y0273285D01*
X0394619Y0273110D01*
X0394805Y0272931D01*
X0394988Y0272748D01*
X0395165Y0272560D01*
X0395339Y0272367D01*
X0395507Y0272171D01*
X0395671Y0271971D01*
X0395829Y0271766D01*
X0395983Y0271558D01*
X0396132Y0271347D01*
X0396276Y0271132D01*
X0396414Y0270913D01*
X0396547Y0270691D01*
X0396674Y0270466D01*
X0396797Y0270238D01*
X0396913Y0270007D01*
X0397024Y0269773D01*
X0397129Y0269537D01*
X0397229Y0269298D01*
X0397323Y0269057D01*
X0397411Y0268814D01*
X0397493Y0268568D01*
X0397569Y0268321D01*
X0397639Y0268072D01*
X0397703Y0267822D01*
X0397760Y0267569D01*
X0397812Y0267316D01*
X0397858Y0267061D01*
X0397897Y0266806D01*
X0397931Y0266549D01*
X0397958Y0266292D01*
X0397979Y0266034D01*
X0397993Y0265776D01*
X0398002Y0265517D01*
X0398004Y0265259D01*
X0398000Y0265000D01*
X0398000Y0243000D01*
X0398000Y0014843D01*
X0398000Y0014842D02*
X0397990Y0014598D01*
X0397975Y0014354D01*
X0397953Y0014110D01*
X0397926Y0013867D01*
X0397893Y0013624D01*
X0397854Y0013383D01*
X0397809Y0013142D01*
X0397758Y0012903D01*
X0397701Y0012665D01*
X0397639Y0012428D01*
X0397571Y0012193D01*
X0397498Y0011960D01*
X0397418Y0011728D01*
X0397334Y0011499D01*
X0397243Y0011271D01*
X0397147Y0011046D01*
X0397046Y0010823D01*
X0396940Y0010603D01*
X0396828Y0010385D01*
X0396711Y0010170D01*
X0396589Y0009958D01*
X0396461Y0009749D01*
X0396329Y0009544D01*
X0396192Y0009341D01*
X0396050Y0009142D01*
X0395903Y0008946D01*
X0395751Y0008754D01*
X0395595Y0008566D01*
X0395434Y0008381D01*
X0395269Y0008201D01*
X0395100Y0008024D01*
X0394926Y0007852D01*
X0394748Y0007683D01*
X0394567Y0007519D01*
X0394381Y0007360D01*
X0394191Y0007205D01*
X0393998Y0007055D01*
X0393802Y0006909D01*
X0393601Y0006769D01*
X0393398Y0006633D01*
X0393191Y0006502D01*
X0392981Y0006376D01*
X0392769Y0006255D01*
X0392553Y0006140D01*
X0392334Y0006029D01*
X0392113Y0005924D01*
X0391890Y0005825D01*
X0391664Y0005730D01*
X0391436Y0005642D01*
X0391206Y0005558D01*
X0390974Y0005481D01*
X0390740Y0005409D01*
X0390504Y0005343D01*
X0390267Y0005282D01*
X0390029Y0005227D01*
X0389789Y0005178D01*
X0389548Y0005135D01*
X0389307Y0005097D01*
X0389064Y0005066D01*
X0388821Y0005040D01*
X0388577Y0005020D01*
X0388332Y0005006D01*
X0388088Y0004998D01*
X0387843Y0004996D01*
X0387598Y0005000D01*
X0032559Y0005000D01*
X0017126Y0025000D02*
X0017128Y0025193D01*
X0017135Y0025386D01*
X0017147Y0025579D01*
X0017164Y0025772D01*
X0017185Y0025964D01*
X0017211Y0026155D01*
X0017242Y0026346D01*
X0017277Y0026536D01*
X0017317Y0026725D01*
X0017362Y0026913D01*
X0017411Y0027100D01*
X0017465Y0027286D01*
X0017523Y0027470D01*
X0017586Y0027653D01*
X0017654Y0027834D01*
X0017725Y0028013D01*
X0017802Y0028191D01*
X0017882Y0028367D01*
X0017967Y0028540D01*
X0018056Y0028712D01*
X0018149Y0028881D01*
X0018246Y0029048D01*
X0018348Y0029213D01*
X0018453Y0029375D01*
X0018562Y0029534D01*
X0018676Y0029691D01*
X0018793Y0029844D01*
X0018913Y0029995D01*
X0019038Y0030143D01*
X0019166Y0030288D01*
X0019297Y0030429D01*
X0019432Y0030568D01*
X0019571Y0030703D01*
X0019712Y0030834D01*
X0019857Y0030962D01*
X0020005Y0031087D01*
X0020156Y0031207D01*
X0020309Y0031324D01*
X0020466Y0031438D01*
X0020625Y0031547D01*
X0020787Y0031652D01*
X0020952Y0031754D01*
X0021119Y0031851D01*
X0021288Y0031944D01*
X0021460Y0032033D01*
X0021633Y0032118D01*
X0021809Y0032198D01*
X0021987Y0032275D01*
X0022166Y0032346D01*
X0022347Y0032414D01*
X0022530Y0032477D01*
X0022714Y0032535D01*
X0022900Y0032589D01*
X0023087Y0032638D01*
X0023275Y0032683D01*
X0023464Y0032723D01*
X0023654Y0032758D01*
X0023845Y0032789D01*
X0024036Y0032815D01*
X0024228Y0032836D01*
X0024421Y0032853D01*
X0024614Y0032865D01*
X0024807Y0032872D01*
X0025000Y0032874D01*
X0025193Y0032872D01*
X0025386Y0032865D01*
X0025579Y0032853D01*
X0025772Y0032836D01*
X0025964Y0032815D01*
X0026155Y0032789D01*
X0026346Y0032758D01*
X0026536Y0032723D01*
X0026725Y0032683D01*
X0026913Y0032638D01*
X0027100Y0032589D01*
X0027286Y0032535D01*
X0027470Y0032477D01*
X0027653Y0032414D01*
X0027834Y0032346D01*
X0028013Y0032275D01*
X0028191Y0032198D01*
X0028367Y0032118D01*
X0028540Y0032033D01*
X0028712Y0031944D01*
X0028881Y0031851D01*
X0029048Y0031754D01*
X0029213Y0031652D01*
X0029375Y0031547D01*
X0029534Y0031438D01*
X0029691Y0031324D01*
X0029844Y0031207D01*
X0029995Y0031087D01*
X0030143Y0030962D01*
X0030288Y0030834D01*
X0030429Y0030703D01*
X0030568Y0030568D01*
X0030703Y0030429D01*
X0030834Y0030288D01*
X0030962Y0030143D01*
X0031087Y0029995D01*
X0031207Y0029844D01*
X0031324Y0029691D01*
X0031438Y0029534D01*
X0031547Y0029375D01*
X0031652Y0029213D01*
X0031754Y0029048D01*
X0031851Y0028881D01*
X0031944Y0028712D01*
X0032033Y0028540D01*
X0032118Y0028367D01*
X0032198Y0028191D01*
X0032275Y0028013D01*
X0032346Y0027834D01*
X0032414Y0027653D01*
X0032477Y0027470D01*
X0032535Y0027286D01*
X0032589Y0027100D01*
X0032638Y0026913D01*
X0032683Y0026725D01*
X0032723Y0026536D01*
X0032758Y0026346D01*
X0032789Y0026155D01*
X0032815Y0025964D01*
X0032836Y0025772D01*
X0032853Y0025579D01*
X0032865Y0025386D01*
X0032872Y0025193D01*
X0032874Y0025000D01*
X0032872Y0024807D01*
X0032865Y0024614D01*
X0032853Y0024421D01*
X0032836Y0024228D01*
X0032815Y0024036D01*
X0032789Y0023845D01*
X0032758Y0023654D01*
X0032723Y0023464D01*
X0032683Y0023275D01*
X0032638Y0023087D01*
X0032589Y0022900D01*
X0032535Y0022714D01*
X0032477Y0022530D01*
X0032414Y0022347D01*
X0032346Y0022166D01*
X0032275Y0021987D01*
X0032198Y0021809D01*
X0032118Y0021633D01*
X0032033Y0021460D01*
X0031944Y0021288D01*
X0031851Y0021119D01*
X0031754Y0020952D01*
X0031652Y0020787D01*
X0031547Y0020625D01*
X0031438Y0020466D01*
X0031324Y0020309D01*
X0031207Y0020156D01*
X0031087Y0020005D01*
X0030962Y0019857D01*
X0030834Y0019712D01*
X0030703Y0019571D01*
X0030568Y0019432D01*
X0030429Y0019297D01*
X0030288Y0019166D01*
X0030143Y0019038D01*
X0029995Y0018913D01*
X0029844Y0018793D01*
X0029691Y0018676D01*
X0029534Y0018562D01*
X0029375Y0018453D01*
X0029213Y0018348D01*
X0029048Y0018246D01*
X0028881Y0018149D01*
X0028712Y0018056D01*
X0028540Y0017967D01*
X0028367Y0017882D01*
X0028191Y0017802D01*
X0028013Y0017725D01*
X0027834Y0017654D01*
X0027653Y0017586D01*
X0027470Y0017523D01*
X0027286Y0017465D01*
X0027100Y0017411D01*
X0026913Y0017362D01*
X0026725Y0017317D01*
X0026536Y0017277D01*
X0026346Y0017242D01*
X0026155Y0017211D01*
X0025964Y0017185D01*
X0025772Y0017164D01*
X0025579Y0017147D01*
X0025386Y0017135D01*
X0025193Y0017128D01*
X0025000Y0017126D01*
X0024807Y0017128D01*
X0024614Y0017135D01*
X0024421Y0017147D01*
X0024228Y0017164D01*
X0024036Y0017185D01*
X0023845Y0017211D01*
X0023654Y0017242D01*
X0023464Y0017277D01*
X0023275Y0017317D01*
X0023087Y0017362D01*
X0022900Y0017411D01*
X0022714Y0017465D01*
X0022530Y0017523D01*
X0022347Y0017586D01*
X0022166Y0017654D01*
X0021987Y0017725D01*
X0021809Y0017802D01*
X0021633Y0017882D01*
X0021460Y0017967D01*
X0021288Y0018056D01*
X0021119Y0018149D01*
X0020952Y0018246D01*
X0020787Y0018348D01*
X0020625Y0018453D01*
X0020466Y0018562D01*
X0020309Y0018676D01*
X0020156Y0018793D01*
X0020005Y0018913D01*
X0019857Y0019038D01*
X0019712Y0019166D01*
X0019571Y0019297D01*
X0019432Y0019432D01*
X0019297Y0019571D01*
X0019166Y0019712D01*
X0019038Y0019857D01*
X0018913Y0020005D01*
X0018793Y0020156D01*
X0018676Y0020309D01*
X0018562Y0020466D01*
X0018453Y0020625D01*
X0018348Y0020787D01*
X0018246Y0020952D01*
X0018149Y0021119D01*
X0018056Y0021288D01*
X0017967Y0021460D01*
X0017882Y0021633D01*
X0017802Y0021809D01*
X0017725Y0021987D01*
X0017654Y0022166D01*
X0017586Y0022347D01*
X0017523Y0022530D01*
X0017465Y0022714D01*
X0017411Y0022900D01*
X0017362Y0023087D01*
X0017317Y0023275D01*
X0017277Y0023464D01*
X0017242Y0023654D01*
X0017211Y0023845D01*
X0017185Y0024036D01*
X0017164Y0024228D01*
X0017147Y0024421D01*
X0017135Y0024614D01*
X0017128Y0024807D01*
X0017126Y0025000D01*
X0017126Y0256000D02*
X0017128Y0256193D01*
X0017135Y0256386D01*
X0017147Y0256579D01*
X0017164Y0256772D01*
X0017185Y0256964D01*
X0017211Y0257155D01*
X0017242Y0257346D01*
X0017277Y0257536D01*
X0017317Y0257725D01*
X0017362Y0257913D01*
X0017411Y0258100D01*
X0017465Y0258286D01*
X0017523Y0258470D01*
X0017586Y0258653D01*
X0017654Y0258834D01*
X0017725Y0259013D01*
X0017802Y0259191D01*
X0017882Y0259367D01*
X0017967Y0259540D01*
X0018056Y0259712D01*
X0018149Y0259881D01*
X0018246Y0260048D01*
X0018348Y0260213D01*
X0018453Y0260375D01*
X0018562Y0260534D01*
X0018676Y0260691D01*
X0018793Y0260844D01*
X0018913Y0260995D01*
X0019038Y0261143D01*
X0019166Y0261288D01*
X0019297Y0261429D01*
X0019432Y0261568D01*
X0019571Y0261703D01*
X0019712Y0261834D01*
X0019857Y0261962D01*
X0020005Y0262087D01*
X0020156Y0262207D01*
X0020309Y0262324D01*
X0020466Y0262438D01*
X0020625Y0262547D01*
X0020787Y0262652D01*
X0020952Y0262754D01*
X0021119Y0262851D01*
X0021288Y0262944D01*
X0021460Y0263033D01*
X0021633Y0263118D01*
X0021809Y0263198D01*
X0021987Y0263275D01*
X0022166Y0263346D01*
X0022347Y0263414D01*
X0022530Y0263477D01*
X0022714Y0263535D01*
X0022900Y0263589D01*
X0023087Y0263638D01*
X0023275Y0263683D01*
X0023464Y0263723D01*
X0023654Y0263758D01*
X0023845Y0263789D01*
X0024036Y0263815D01*
X0024228Y0263836D01*
X0024421Y0263853D01*
X0024614Y0263865D01*
X0024807Y0263872D01*
X0025000Y0263874D01*
X0025193Y0263872D01*
X0025386Y0263865D01*
X0025579Y0263853D01*
X0025772Y0263836D01*
X0025964Y0263815D01*
X0026155Y0263789D01*
X0026346Y0263758D01*
X0026536Y0263723D01*
X0026725Y0263683D01*
X0026913Y0263638D01*
X0027100Y0263589D01*
X0027286Y0263535D01*
X0027470Y0263477D01*
X0027653Y0263414D01*
X0027834Y0263346D01*
X0028013Y0263275D01*
X0028191Y0263198D01*
X0028367Y0263118D01*
X0028540Y0263033D01*
X0028712Y0262944D01*
X0028881Y0262851D01*
X0029048Y0262754D01*
X0029213Y0262652D01*
X0029375Y0262547D01*
X0029534Y0262438D01*
X0029691Y0262324D01*
X0029844Y0262207D01*
X0029995Y0262087D01*
X0030143Y0261962D01*
X0030288Y0261834D01*
X0030429Y0261703D01*
X0030568Y0261568D01*
X0030703Y0261429D01*
X0030834Y0261288D01*
X0030962Y0261143D01*
X0031087Y0260995D01*
X0031207Y0260844D01*
X0031324Y0260691D01*
X0031438Y0260534D01*
X0031547Y0260375D01*
X0031652Y0260213D01*
X0031754Y0260048D01*
X0031851Y0259881D01*
X0031944Y0259712D01*
X0032033Y0259540D01*
X0032118Y0259367D01*
X0032198Y0259191D01*
X0032275Y0259013D01*
X0032346Y0258834D01*
X0032414Y0258653D01*
X0032477Y0258470D01*
X0032535Y0258286D01*
X0032589Y0258100D01*
X0032638Y0257913D01*
X0032683Y0257725D01*
X0032723Y0257536D01*
X0032758Y0257346D01*
X0032789Y0257155D01*
X0032815Y0256964D01*
X0032836Y0256772D01*
X0032853Y0256579D01*
X0032865Y0256386D01*
X0032872Y0256193D01*
X0032874Y0256000D01*
X0032872Y0255807D01*
X0032865Y0255614D01*
X0032853Y0255421D01*
X0032836Y0255228D01*
X0032815Y0255036D01*
X0032789Y0254845D01*
X0032758Y0254654D01*
X0032723Y0254464D01*
X0032683Y0254275D01*
X0032638Y0254087D01*
X0032589Y0253900D01*
X0032535Y0253714D01*
X0032477Y0253530D01*
X0032414Y0253347D01*
X0032346Y0253166D01*
X0032275Y0252987D01*
X0032198Y0252809D01*
X0032118Y0252633D01*
X0032033Y0252460D01*
X0031944Y0252288D01*
X0031851Y0252119D01*
X0031754Y0251952D01*
X0031652Y0251787D01*
X0031547Y0251625D01*
X0031438Y0251466D01*
X0031324Y0251309D01*
X0031207Y0251156D01*
X0031087Y0251005D01*
X0030962Y0250857D01*
X0030834Y0250712D01*
X0030703Y0250571D01*
X0030568Y0250432D01*
X0030429Y0250297D01*
X0030288Y0250166D01*
X0030143Y0250038D01*
X0029995Y0249913D01*
X0029844Y0249793D01*
X0029691Y0249676D01*
X0029534Y0249562D01*
X0029375Y0249453D01*
X0029213Y0249348D01*
X0029048Y0249246D01*
X0028881Y0249149D01*
X0028712Y0249056D01*
X0028540Y0248967D01*
X0028367Y0248882D01*
X0028191Y0248802D01*
X0028013Y0248725D01*
X0027834Y0248654D01*
X0027653Y0248586D01*
X0027470Y0248523D01*
X0027286Y0248465D01*
X0027100Y0248411D01*
X0026913Y0248362D01*
X0026725Y0248317D01*
X0026536Y0248277D01*
X0026346Y0248242D01*
X0026155Y0248211D01*
X0025964Y0248185D01*
X0025772Y0248164D01*
X0025579Y0248147D01*
X0025386Y0248135D01*
X0025193Y0248128D01*
X0025000Y0248126D01*
X0024807Y0248128D01*
X0024614Y0248135D01*
X0024421Y0248147D01*
X0024228Y0248164D01*
X0024036Y0248185D01*
X0023845Y0248211D01*
X0023654Y0248242D01*
X0023464Y0248277D01*
X0023275Y0248317D01*
X0023087Y0248362D01*
X0022900Y0248411D01*
X0022714Y0248465D01*
X0022530Y0248523D01*
X0022347Y0248586D01*
X0022166Y0248654D01*
X0021987Y0248725D01*
X0021809Y0248802D01*
X0021633Y0248882D01*
X0021460Y0248967D01*
X0021288Y0249056D01*
X0021119Y0249149D01*
X0020952Y0249246D01*
X0020787Y0249348D01*
X0020625Y0249453D01*
X0020466Y0249562D01*
X0020309Y0249676D01*
X0020156Y0249793D01*
X0020005Y0249913D01*
X0019857Y0250038D01*
X0019712Y0250166D01*
X0019571Y0250297D01*
X0019432Y0250432D01*
X0019297Y0250571D01*
X0019166Y0250712D01*
X0019038Y0250857D01*
X0018913Y0251005D01*
X0018793Y0251156D01*
X0018676Y0251309D01*
X0018562Y0251466D01*
X0018453Y0251625D01*
X0018348Y0251787D01*
X0018246Y0251952D01*
X0018149Y0252119D01*
X0018056Y0252288D01*
X0017967Y0252460D01*
X0017882Y0252633D01*
X0017802Y0252809D01*
X0017725Y0252987D01*
X0017654Y0253166D01*
X0017586Y0253347D01*
X0017523Y0253530D01*
X0017465Y0253714D01*
X0017411Y0253900D01*
X0017362Y0254087D01*
X0017317Y0254275D01*
X0017277Y0254464D01*
X0017242Y0254654D01*
X0017211Y0254845D01*
X0017185Y0255036D01*
X0017164Y0255228D01*
X0017147Y0255421D01*
X0017135Y0255614D01*
X0017128Y0255807D01*
X0017126Y0256000D01*
X0370126Y0256000D02*
X0370128Y0256193D01*
X0370135Y0256386D01*
X0370147Y0256579D01*
X0370164Y0256772D01*
X0370185Y0256964D01*
X0370211Y0257155D01*
X0370242Y0257346D01*
X0370277Y0257536D01*
X0370317Y0257725D01*
X0370362Y0257913D01*
X0370411Y0258100D01*
X0370465Y0258286D01*
X0370523Y0258470D01*
X0370586Y0258653D01*
X0370654Y0258834D01*
X0370725Y0259013D01*
X0370802Y0259191D01*
X0370882Y0259367D01*
X0370967Y0259540D01*
X0371056Y0259712D01*
X0371149Y0259881D01*
X0371246Y0260048D01*
X0371348Y0260213D01*
X0371453Y0260375D01*
X0371562Y0260534D01*
X0371676Y0260691D01*
X0371793Y0260844D01*
X0371913Y0260995D01*
X0372038Y0261143D01*
X0372166Y0261288D01*
X0372297Y0261429D01*
X0372432Y0261568D01*
X0372571Y0261703D01*
X0372712Y0261834D01*
X0372857Y0261962D01*
X0373005Y0262087D01*
X0373156Y0262207D01*
X0373309Y0262324D01*
X0373466Y0262438D01*
X0373625Y0262547D01*
X0373787Y0262652D01*
X0373952Y0262754D01*
X0374119Y0262851D01*
X0374288Y0262944D01*
X0374460Y0263033D01*
X0374633Y0263118D01*
X0374809Y0263198D01*
X0374987Y0263275D01*
X0375166Y0263346D01*
X0375347Y0263414D01*
X0375530Y0263477D01*
X0375714Y0263535D01*
X0375900Y0263589D01*
X0376087Y0263638D01*
X0376275Y0263683D01*
X0376464Y0263723D01*
X0376654Y0263758D01*
X0376845Y0263789D01*
X0377036Y0263815D01*
X0377228Y0263836D01*
X0377421Y0263853D01*
X0377614Y0263865D01*
X0377807Y0263872D01*
X0378000Y0263874D01*
X0378193Y0263872D01*
X0378386Y0263865D01*
X0378579Y0263853D01*
X0378772Y0263836D01*
X0378964Y0263815D01*
X0379155Y0263789D01*
X0379346Y0263758D01*
X0379536Y0263723D01*
X0379725Y0263683D01*
X0379913Y0263638D01*
X0380100Y0263589D01*
X0380286Y0263535D01*
X0380470Y0263477D01*
X0380653Y0263414D01*
X0380834Y0263346D01*
X0381013Y0263275D01*
X0381191Y0263198D01*
X0381367Y0263118D01*
X0381540Y0263033D01*
X0381712Y0262944D01*
X0381881Y0262851D01*
X0382048Y0262754D01*
X0382213Y0262652D01*
X0382375Y0262547D01*
X0382534Y0262438D01*
X0382691Y0262324D01*
X0382844Y0262207D01*
X0382995Y0262087D01*
X0383143Y0261962D01*
X0383288Y0261834D01*
X0383429Y0261703D01*
X0383568Y0261568D01*
X0383703Y0261429D01*
X0383834Y0261288D01*
X0383962Y0261143D01*
X0384087Y0260995D01*
X0384207Y0260844D01*
X0384324Y0260691D01*
X0384438Y0260534D01*
X0384547Y0260375D01*
X0384652Y0260213D01*
X0384754Y0260048D01*
X0384851Y0259881D01*
X0384944Y0259712D01*
X0385033Y0259540D01*
X0385118Y0259367D01*
X0385198Y0259191D01*
X0385275Y0259013D01*
X0385346Y0258834D01*
X0385414Y0258653D01*
X0385477Y0258470D01*
X0385535Y0258286D01*
X0385589Y0258100D01*
X0385638Y0257913D01*
X0385683Y0257725D01*
X0385723Y0257536D01*
X0385758Y0257346D01*
X0385789Y0257155D01*
X0385815Y0256964D01*
X0385836Y0256772D01*
X0385853Y0256579D01*
X0385865Y0256386D01*
X0385872Y0256193D01*
X0385874Y0256000D01*
X0385872Y0255807D01*
X0385865Y0255614D01*
X0385853Y0255421D01*
X0385836Y0255228D01*
X0385815Y0255036D01*
X0385789Y0254845D01*
X0385758Y0254654D01*
X0385723Y0254464D01*
X0385683Y0254275D01*
X0385638Y0254087D01*
X0385589Y0253900D01*
X0385535Y0253714D01*
X0385477Y0253530D01*
X0385414Y0253347D01*
X0385346Y0253166D01*
X0385275Y0252987D01*
X0385198Y0252809D01*
X0385118Y0252633D01*
X0385033Y0252460D01*
X0384944Y0252288D01*
X0384851Y0252119D01*
X0384754Y0251952D01*
X0384652Y0251787D01*
X0384547Y0251625D01*
X0384438Y0251466D01*
X0384324Y0251309D01*
X0384207Y0251156D01*
X0384087Y0251005D01*
X0383962Y0250857D01*
X0383834Y0250712D01*
X0383703Y0250571D01*
X0383568Y0250432D01*
X0383429Y0250297D01*
X0383288Y0250166D01*
X0383143Y0250038D01*
X0382995Y0249913D01*
X0382844Y0249793D01*
X0382691Y0249676D01*
X0382534Y0249562D01*
X0382375Y0249453D01*
X0382213Y0249348D01*
X0382048Y0249246D01*
X0381881Y0249149D01*
X0381712Y0249056D01*
X0381540Y0248967D01*
X0381367Y0248882D01*
X0381191Y0248802D01*
X0381013Y0248725D01*
X0380834Y0248654D01*
X0380653Y0248586D01*
X0380470Y0248523D01*
X0380286Y0248465D01*
X0380100Y0248411D01*
X0379913Y0248362D01*
X0379725Y0248317D01*
X0379536Y0248277D01*
X0379346Y0248242D01*
X0379155Y0248211D01*
X0378964Y0248185D01*
X0378772Y0248164D01*
X0378579Y0248147D01*
X0378386Y0248135D01*
X0378193Y0248128D01*
X0378000Y0248126D01*
X0377807Y0248128D01*
X0377614Y0248135D01*
X0377421Y0248147D01*
X0377228Y0248164D01*
X0377036Y0248185D01*
X0376845Y0248211D01*
X0376654Y0248242D01*
X0376464Y0248277D01*
X0376275Y0248317D01*
X0376087Y0248362D01*
X0375900Y0248411D01*
X0375714Y0248465D01*
X0375530Y0248523D01*
X0375347Y0248586D01*
X0375166Y0248654D01*
X0374987Y0248725D01*
X0374809Y0248802D01*
X0374633Y0248882D01*
X0374460Y0248967D01*
X0374288Y0249056D01*
X0374119Y0249149D01*
X0373952Y0249246D01*
X0373787Y0249348D01*
X0373625Y0249453D01*
X0373466Y0249562D01*
X0373309Y0249676D01*
X0373156Y0249793D01*
X0373005Y0249913D01*
X0372857Y0250038D01*
X0372712Y0250166D01*
X0372571Y0250297D01*
X0372432Y0250432D01*
X0372297Y0250571D01*
X0372166Y0250712D01*
X0372038Y0250857D01*
X0371913Y0251005D01*
X0371793Y0251156D01*
X0371676Y0251309D01*
X0371562Y0251466D01*
X0371453Y0251625D01*
X0371348Y0251787D01*
X0371246Y0251952D01*
X0371149Y0252119D01*
X0371056Y0252288D01*
X0370967Y0252460D01*
X0370882Y0252633D01*
X0370802Y0252809D01*
X0370725Y0252987D01*
X0370654Y0253166D01*
X0370586Y0253347D01*
X0370523Y0253530D01*
X0370465Y0253714D01*
X0370411Y0253900D01*
X0370362Y0254087D01*
X0370317Y0254275D01*
X0370277Y0254464D01*
X0370242Y0254654D01*
X0370211Y0254845D01*
X0370185Y0255036D01*
X0370164Y0255228D01*
X0370147Y0255421D01*
X0370135Y0255614D01*
X0370128Y0255807D01*
X0370126Y0256000D01*
X0370126Y0025000D02*
X0370128Y0025193D01*
X0370135Y0025386D01*
X0370147Y0025579D01*
X0370164Y0025772D01*
X0370185Y0025964D01*
X0370211Y0026155D01*
X0370242Y0026346D01*
X0370277Y0026536D01*
X0370317Y0026725D01*
X0370362Y0026913D01*
X0370411Y0027100D01*
X0370465Y0027286D01*
X0370523Y0027470D01*
X0370586Y0027653D01*
X0370654Y0027834D01*
X0370725Y0028013D01*
X0370802Y0028191D01*
X0370882Y0028367D01*
X0370967Y0028540D01*
X0371056Y0028712D01*
X0371149Y0028881D01*
X0371246Y0029048D01*
X0371348Y0029213D01*
X0371453Y0029375D01*
X0371562Y0029534D01*
X0371676Y0029691D01*
X0371793Y0029844D01*
X0371913Y0029995D01*
X0372038Y0030143D01*
X0372166Y0030288D01*
X0372297Y0030429D01*
X0372432Y0030568D01*
X0372571Y0030703D01*
X0372712Y0030834D01*
X0372857Y0030962D01*
X0373005Y0031087D01*
X0373156Y0031207D01*
X0373309Y0031324D01*
X0373466Y0031438D01*
X0373625Y0031547D01*
X0373787Y0031652D01*
X0373952Y0031754D01*
X0374119Y0031851D01*
X0374288Y0031944D01*
X0374460Y0032033D01*
X0374633Y0032118D01*
X0374809Y0032198D01*
X0374987Y0032275D01*
X0375166Y0032346D01*
X0375347Y0032414D01*
X0375530Y0032477D01*
X0375714Y0032535D01*
X0375900Y0032589D01*
X0376087Y0032638D01*
X0376275Y0032683D01*
X0376464Y0032723D01*
X0376654Y0032758D01*
X0376845Y0032789D01*
X0377036Y0032815D01*
X0377228Y0032836D01*
X0377421Y0032853D01*
X0377614Y0032865D01*
X0377807Y0032872D01*
X0378000Y0032874D01*
X0378193Y0032872D01*
X0378386Y0032865D01*
X0378579Y0032853D01*
X0378772Y0032836D01*
X0378964Y0032815D01*
X0379155Y0032789D01*
X0379346Y0032758D01*
X0379536Y0032723D01*
X0379725Y0032683D01*
X0379913Y0032638D01*
X0380100Y0032589D01*
X0380286Y0032535D01*
X0380470Y0032477D01*
X0380653Y0032414D01*
X0380834Y0032346D01*
X0381013Y0032275D01*
X0381191Y0032198D01*
X0381367Y0032118D01*
X0381540Y0032033D01*
X0381712Y0031944D01*
X0381881Y0031851D01*
X0382048Y0031754D01*
X0382213Y0031652D01*
X0382375Y0031547D01*
X0382534Y0031438D01*
X0382691Y0031324D01*
X0382844Y0031207D01*
X0382995Y0031087D01*
X0383143Y0030962D01*
X0383288Y0030834D01*
X0383429Y0030703D01*
X0383568Y0030568D01*
X0383703Y0030429D01*
X0383834Y0030288D01*
X0383962Y0030143D01*
X0384087Y0029995D01*
X0384207Y0029844D01*
X0384324Y0029691D01*
X0384438Y0029534D01*
X0384547Y0029375D01*
X0384652Y0029213D01*
X0384754Y0029048D01*
X0384851Y0028881D01*
X0384944Y0028712D01*
X0385033Y0028540D01*
X0385118Y0028367D01*
X0385198Y0028191D01*
X0385275Y0028013D01*
X0385346Y0027834D01*
X0385414Y0027653D01*
X0385477Y0027470D01*
X0385535Y0027286D01*
X0385589Y0027100D01*
X0385638Y0026913D01*
X0385683Y0026725D01*
X0385723Y0026536D01*
X0385758Y0026346D01*
X0385789Y0026155D01*
X0385815Y0025964D01*
X0385836Y0025772D01*
X0385853Y0025579D01*
X0385865Y0025386D01*
X0385872Y0025193D01*
X0385874Y0025000D01*
X0385872Y0024807D01*
X0385865Y0024614D01*
X0385853Y0024421D01*
X0385836Y0024228D01*
X0385815Y0024036D01*
X0385789Y0023845D01*
X0385758Y0023654D01*
X0385723Y0023464D01*
X0385683Y0023275D01*
X0385638Y0023087D01*
X0385589Y0022900D01*
X0385535Y0022714D01*
X0385477Y0022530D01*
X0385414Y0022347D01*
X0385346Y0022166D01*
X0385275Y0021987D01*
X0385198Y0021809D01*
X0385118Y0021633D01*
X0385033Y0021460D01*
X0384944Y0021288D01*
X0384851Y0021119D01*
X0384754Y0020952D01*
X0384652Y0020787D01*
X0384547Y0020625D01*
X0384438Y0020466D01*
X0384324Y0020309D01*
X0384207Y0020156D01*
X0384087Y0020005D01*
X0383962Y0019857D01*
X0383834Y0019712D01*
X0383703Y0019571D01*
X0383568Y0019432D01*
X0383429Y0019297D01*
X0383288Y0019166D01*
X0383143Y0019038D01*
X0382995Y0018913D01*
X0382844Y0018793D01*
X0382691Y0018676D01*
X0382534Y0018562D01*
X0382375Y0018453D01*
X0382213Y0018348D01*
X0382048Y0018246D01*
X0381881Y0018149D01*
X0381712Y0018056D01*
X0381540Y0017967D01*
X0381367Y0017882D01*
X0381191Y0017802D01*
X0381013Y0017725D01*
X0380834Y0017654D01*
X0380653Y0017586D01*
X0380470Y0017523D01*
X0380286Y0017465D01*
X0380100Y0017411D01*
X0379913Y0017362D01*
X0379725Y0017317D01*
X0379536Y0017277D01*
X0379346Y0017242D01*
X0379155Y0017211D01*
X0378964Y0017185D01*
X0378772Y0017164D01*
X0378579Y0017147D01*
X0378386Y0017135D01*
X0378193Y0017128D01*
X0378000Y0017126D01*
X0377807Y0017128D01*
X0377614Y0017135D01*
X0377421Y0017147D01*
X0377228Y0017164D01*
X0377036Y0017185D01*
X0376845Y0017211D01*
X0376654Y0017242D01*
X0376464Y0017277D01*
X0376275Y0017317D01*
X0376087Y0017362D01*
X0375900Y0017411D01*
X0375714Y0017465D01*
X0375530Y0017523D01*
X0375347Y0017586D01*
X0375166Y0017654D01*
X0374987Y0017725D01*
X0374809Y0017802D01*
X0374633Y0017882D01*
X0374460Y0017967D01*
X0374288Y0018056D01*
X0374119Y0018149D01*
X0373952Y0018246D01*
X0373787Y0018348D01*
X0373625Y0018453D01*
X0373466Y0018562D01*
X0373309Y0018676D01*
X0373156Y0018793D01*
X0373005Y0018913D01*
X0372857Y0019038D01*
X0372712Y0019166D01*
X0372571Y0019297D01*
X0372432Y0019432D01*
X0372297Y0019571D01*
X0372166Y0019712D01*
X0372038Y0019857D01*
X0371913Y0020005D01*
X0371793Y0020156D01*
X0371676Y0020309D01*
X0371562Y0020466D01*
X0371453Y0020625D01*
X0371348Y0020787D01*
X0371246Y0020952D01*
X0371149Y0021119D01*
X0371056Y0021288D01*
X0370967Y0021460D01*
X0370882Y0021633D01*
X0370802Y0021809D01*
X0370725Y0021987D01*
X0370654Y0022166D01*
X0370586Y0022347D01*
X0370523Y0022530D01*
X0370465Y0022714D01*
X0370411Y0022900D01*
X0370362Y0023087D01*
X0370317Y0023275D01*
X0370277Y0023464D01*
X0370242Y0023654D01*
X0370211Y0023845D01*
X0370185Y0024036D01*
X0370164Y0024228D01*
X0370147Y0024421D01*
X0370135Y0024614D01*
X0370128Y0024807D01*
X0370126Y0025000D01*
D14*
X0305700Y0050000D03*
D15*
X0290520Y0050000D03*
X0278141Y0050000D03*
X0262961Y0050000D03*
D16*
X0352953Y0175000D03*
D17*
X0366063Y0175000D03*
D18*
X0365000Y0135000D03*
X0355000Y0135000D03*
D19*
X0350000Y0235500D03*
X0295000Y0235500D03*
X0245000Y0235500D03*
X0195000Y0235500D03*
X0150000Y0235500D03*
X0115000Y0235500D03*
X0080000Y0235500D03*
X0045000Y0235500D03*
X0025500Y0175000D03*
D20*
X0024500Y0165000D03*
X0025500Y0155000D03*
X0024500Y0145000D03*
X0025500Y0135000D03*
X0024500Y0125000D03*
X0025500Y0115000D03*
X0024500Y0105000D03*
X0105000Y0184500D03*
X0095000Y0185500D03*
X0115000Y0185500D03*
X0125000Y0184500D03*
X0135000Y0185500D03*
X0145000Y0184500D03*
X0155000Y0185500D03*
X0165000Y0184500D03*
X0175000Y0185500D03*
X0185000Y0184500D03*
X0220000Y0185500D03*
X0230000Y0184500D03*
X0240000Y0185500D03*
X0250000Y0184500D03*
X0260000Y0185500D03*
X0270000Y0184500D03*
X0280000Y0185500D03*
X0290000Y0184500D03*
X0300000Y0185500D03*
X0310000Y0184500D03*
X0315000Y0214000D03*
X0325000Y0215000D03*
X0335000Y0214000D03*
X0325000Y0234500D03*
X0315000Y0235500D03*
X0305000Y0234500D03*
X0305000Y0215000D03*
X0295000Y0214000D03*
X0285000Y0215000D03*
X0275000Y0234500D03*
X0265000Y0235500D03*
X0255000Y0234500D03*
X0250000Y0215000D03*
X0240000Y0214000D03*
X0230000Y0215000D03*
X0220000Y0214000D03*
X0210000Y0215000D03*
X0205000Y0234500D03*
X0215000Y0235500D03*
X0225000Y0234500D03*
X0260000Y0214000D03*
X0170000Y0235500D03*
X0160000Y0234500D03*
X0155000Y0215000D03*
X0145000Y0214000D03*
X0135000Y0215000D03*
X0125000Y0214000D03*
X0115000Y0215000D03*
X0095000Y0214000D03*
X0085000Y0215000D03*
X0075000Y0214000D03*
X0065000Y0215000D03*
X0055000Y0214000D03*
X0045000Y0215000D03*
X0055000Y0234500D03*
X0065000Y0235500D03*
X0090000Y0234500D03*
X0100000Y0235500D03*
X0125000Y0234500D03*
X0135000Y0235500D03*
X0165000Y0214000D03*
X0360000Y0234500D03*
X0370000Y0235500D03*
X0380000Y0234500D03*
D21*
X0375207Y0236778D02*
X0374493Y0238502D01*
X0373002Y0239993D01*
X0371054Y0240800D01*
X0368946Y0240800D01*
X0366998Y0239993D01*
X0365507Y0238502D01*
X0364793Y0236778D01*
X0364493Y0237502D01*
X0363002Y0238993D01*
X0361054Y0239800D01*
X0358946Y0239800D01*
X0356998Y0238993D01*
X0355507Y0237502D01*
X0355500Y0237486D01*
X0355500Y0239437D01*
X0355377Y0239895D01*
X0355140Y0240305D01*
X0354805Y0240640D01*
X0354395Y0240877D01*
X0353937Y0241000D01*
X0350200Y0241000D01*
X0350200Y0235700D01*
X0349800Y0235700D01*
X0349800Y0241000D01*
X0346063Y0241000D01*
X0345605Y0240877D01*
X0345195Y0240640D01*
X0344860Y0240305D01*
X0344623Y0239895D01*
X0344500Y0239437D01*
X0344500Y0235700D01*
X0349800Y0235700D01*
X0349800Y0235300D01*
X0350200Y0235300D01*
X0350200Y0230000D01*
X0353937Y0230000D01*
X0354395Y0230123D01*
X0354805Y0230360D01*
X0355140Y0230695D01*
X0355377Y0231105D01*
X0355492Y0231534D01*
X0355507Y0231498D01*
X0356947Y0230058D01*
X0354089Y0227200D01*
X0319089Y0227200D01*
X0314089Y0222200D01*
X0312800Y0220911D01*
X0312800Y0218825D01*
X0311998Y0218493D01*
X0310507Y0217002D01*
X0310207Y0216278D01*
X0309493Y0218002D01*
X0308002Y0219493D01*
X0307721Y0219610D01*
X0317200Y0229089D01*
X0317200Y0230675D01*
X0318002Y0231007D01*
X0319493Y0232498D01*
X0319793Y0233222D01*
X0320507Y0231498D01*
X0321998Y0230007D01*
X0323946Y0229200D01*
X0326054Y0229200D01*
X0328002Y0230007D01*
X0329493Y0231498D01*
X0330300Y0233446D01*
X0330300Y0235554D01*
X0329493Y0237502D01*
X0328002Y0238993D01*
X0326054Y0239800D01*
X0323946Y0239800D01*
X0321998Y0238993D01*
X0320507Y0237502D01*
X0320207Y0236778D01*
X0319493Y0238502D01*
X0318002Y0239993D01*
X0316054Y0240800D01*
X0313946Y0240800D01*
X0311998Y0239993D01*
X0310507Y0238502D01*
X0309793Y0236778D01*
X0309493Y0237502D01*
X0308002Y0238993D01*
X0306054Y0239800D01*
X0303946Y0239800D01*
X0301998Y0238993D01*
X0300507Y0237502D01*
X0300500Y0237486D01*
X0300500Y0239437D01*
X0300377Y0239895D01*
X0300140Y0240305D01*
X0299805Y0240640D01*
X0299395Y0240877D01*
X0298937Y0241000D01*
X0295200Y0241000D01*
X0295200Y0235700D01*
X0294800Y0235700D01*
X0294800Y0241000D01*
X0291063Y0241000D01*
X0290605Y0240877D01*
X0290195Y0240640D01*
X0289860Y0240305D01*
X0289623Y0239895D01*
X0289500Y0239437D01*
X0289500Y0235700D01*
X0294800Y0235700D01*
X0294800Y0235300D01*
X0295200Y0235300D01*
X0295200Y0230000D01*
X0296889Y0230000D01*
X0294089Y0227200D01*
X0292800Y0225911D01*
X0292800Y0218825D01*
X0291998Y0218493D01*
X0290507Y0217002D01*
X0290297Y0216496D01*
X0290097Y0217111D01*
X0289704Y0217883D01*
X0289195Y0218583D01*
X0288583Y0219195D01*
X0287883Y0219704D01*
X0287111Y0220097D01*
X0286288Y0220365D01*
X0285433Y0220500D01*
X0285200Y0220500D01*
X0285200Y0215200D01*
X0284800Y0215200D01*
X0284800Y0220500D01*
X0284567Y0220500D01*
X0283712Y0220365D01*
X0282889Y0220097D01*
X0282117Y0219704D01*
X0281417Y0219195D01*
X0280805Y0218583D01*
X0280296Y0217883D01*
X0279903Y0217111D01*
X0279635Y0216288D01*
X0279500Y0215433D01*
X0279500Y0215200D01*
X0284800Y0215200D01*
X0284800Y0214800D01*
X0285200Y0214800D01*
X0285200Y0209500D01*
X0285433Y0209500D01*
X0286288Y0209635D01*
X0286638Y0209749D01*
X0269089Y0192200D01*
X0267800Y0190911D01*
X0267800Y0189325D01*
X0266998Y0188993D01*
X0265507Y0187502D01*
X0265207Y0186778D01*
X0264493Y0188502D01*
X0263002Y0189993D01*
X0262200Y0190325D01*
X0262200Y0195911D01*
X0260911Y0197200D01*
X0252424Y0205687D01*
X0252315Y0210222D01*
X0253002Y0210507D01*
X0254493Y0211998D01*
X0254793Y0212722D01*
X0255507Y0210998D01*
X0256998Y0209507D01*
X0258946Y0208700D01*
X0261054Y0208700D01*
X0263002Y0209507D01*
X0264493Y0210998D01*
X0265300Y0212946D01*
X0265300Y0215054D01*
X0264493Y0217002D01*
X0263002Y0218493D01*
X0261054Y0219300D01*
X0258946Y0219300D01*
X0256998Y0218493D01*
X0255507Y0217002D01*
X0255207Y0216278D01*
X0254493Y0218002D01*
X0253002Y0219493D01*
X0252721Y0219610D01*
X0253411Y0220300D01*
X0263411Y0220300D01*
X0267200Y0224089D01*
X0267200Y0230675D01*
X0268002Y0231007D01*
X0269493Y0232498D01*
X0269793Y0233222D01*
X0270507Y0231498D01*
X0271998Y0230007D01*
X0273946Y0229200D01*
X0276054Y0229200D01*
X0278002Y0230007D01*
X0279493Y0231498D01*
X0280300Y0233446D01*
X0280300Y0235554D01*
X0279493Y0237502D01*
X0278002Y0238993D01*
X0276054Y0239800D01*
X0273946Y0239800D01*
X0271998Y0238993D01*
X0270507Y0237502D01*
X0270207Y0236778D01*
X0269493Y0238502D01*
X0268002Y0239993D01*
X0266054Y0240800D01*
X0263946Y0240800D01*
X0261998Y0239993D01*
X0260507Y0238502D01*
X0259793Y0236778D01*
X0259493Y0237502D01*
X0258002Y0238993D01*
X0256054Y0239800D01*
X0253946Y0239800D01*
X0251998Y0238993D01*
X0250507Y0237502D01*
X0250500Y0237486D01*
X0250500Y0239437D01*
X0250377Y0239895D01*
X0250140Y0240305D01*
X0249805Y0240640D01*
X0249395Y0240877D01*
X0248937Y0241000D01*
X0245200Y0241000D01*
X0245200Y0235700D01*
X0244800Y0235700D01*
X0244800Y0241000D01*
X0241063Y0241000D01*
X0240605Y0240877D01*
X0240195Y0240640D01*
X0239860Y0240305D01*
X0239623Y0239895D01*
X0239500Y0239437D01*
X0239500Y0235700D01*
X0244800Y0235700D01*
X0244800Y0235300D01*
X0245200Y0235300D01*
X0245200Y0230000D01*
X0248937Y0230000D01*
X0249395Y0230123D01*
X0249805Y0230360D01*
X0250140Y0230695D01*
X0250377Y0231105D01*
X0250492Y0231534D01*
X0250507Y0231498D01*
X0251947Y0230058D01*
X0249089Y0227200D01*
X0244089Y0227200D01*
X0242800Y0225911D01*
X0237800Y0220911D01*
X0237800Y0218825D01*
X0236998Y0218493D01*
X0235507Y0217002D01*
X0235207Y0216278D01*
X0234493Y0218002D01*
X0233002Y0219493D01*
X0232200Y0219825D01*
X0232200Y0220911D01*
X0230911Y0222200D01*
X0223887Y0229224D01*
X0223946Y0229200D01*
X0226054Y0229200D01*
X0228002Y0230007D01*
X0229493Y0231498D01*
X0230300Y0233446D01*
X0230300Y0235554D01*
X0229493Y0237502D01*
X0228002Y0238993D01*
X0226054Y0239800D01*
X0223946Y0239800D01*
X0221998Y0238993D01*
X0220507Y0237502D01*
X0220207Y0236778D01*
X0219493Y0238502D01*
X0218002Y0239993D01*
X0216054Y0240800D01*
X0213946Y0240800D01*
X0211998Y0239993D01*
X0210507Y0238502D01*
X0209793Y0236778D01*
X0209493Y0237502D01*
X0208002Y0238993D01*
X0206054Y0239800D01*
X0203946Y0239800D01*
X0201998Y0238993D01*
X0200507Y0237502D01*
X0200500Y0237486D01*
X0200500Y0239437D01*
X0200377Y0239895D01*
X0200140Y0240305D01*
X0199805Y0240640D01*
X0199395Y0240877D01*
X0198937Y0241000D01*
X0195200Y0241000D01*
X0195200Y0235700D01*
X0194800Y0235700D01*
X0194800Y0241000D01*
X0191063Y0241000D01*
X0190605Y0240877D01*
X0190195Y0240640D01*
X0189860Y0240305D01*
X0189623Y0239895D01*
X0189500Y0239437D01*
X0189500Y0235700D01*
X0194800Y0235700D01*
X0194800Y0235300D01*
X0195200Y0235300D01*
X0195200Y0230000D01*
X0198937Y0230000D01*
X0199395Y0230123D01*
X0199805Y0230360D01*
X0200140Y0230695D01*
X0200377Y0231105D01*
X0200492Y0231534D01*
X0200507Y0231498D01*
X0201998Y0230007D01*
X0203946Y0229200D01*
X0206054Y0229200D01*
X0207210Y0229679D01*
X0217800Y0219089D01*
X0217800Y0218825D01*
X0216998Y0218493D01*
X0215507Y0217002D01*
X0215297Y0216496D01*
X0215097Y0217111D01*
X0214704Y0217883D01*
X0214195Y0218583D01*
X0213583Y0219195D01*
X0212883Y0219704D01*
X0212111Y0220097D01*
X0211288Y0220365D01*
X0210433Y0220500D01*
X0210200Y0220500D01*
X0210200Y0215200D01*
X0209800Y0215200D01*
X0209800Y0220500D01*
X0209567Y0220500D01*
X0208712Y0220365D01*
X0207889Y0220097D01*
X0207117Y0219704D01*
X0206417Y0219195D01*
X0205805Y0218583D01*
X0205296Y0217883D01*
X0204903Y0217111D01*
X0204635Y0216288D01*
X0204500Y0215433D01*
X0204500Y0215200D01*
X0209800Y0215200D01*
X0209800Y0214800D01*
X0210200Y0214800D01*
X0210200Y0209500D01*
X0210433Y0209500D01*
X0211288Y0209635D01*
X0212111Y0209903D01*
X0212883Y0210296D01*
X0213583Y0210805D01*
X0214195Y0211417D01*
X0214704Y0212117D01*
X0214891Y0212484D01*
X0215507Y0210998D01*
X0216998Y0209507D01*
X0217800Y0209175D01*
X0217800Y0201589D01*
X0227800Y0191589D01*
X0227800Y0189325D01*
X0226998Y0188993D01*
X0225507Y0187502D01*
X0225297Y0186996D01*
X0225097Y0187611D01*
X0224704Y0188383D01*
X0224195Y0189083D01*
X0223583Y0189695D01*
X0222883Y0190204D01*
X0222111Y0190597D01*
X0221288Y0190865D01*
X0220433Y0191000D01*
X0220200Y0191000D01*
X0220200Y0185700D01*
X0219800Y0185700D01*
X0219800Y0191000D01*
X0219567Y0191000D01*
X0218712Y0190865D01*
X0217889Y0190597D01*
X0217117Y0190204D01*
X0216417Y0189695D01*
X0215805Y0189083D01*
X0215296Y0188383D01*
X0214903Y0187611D01*
X0214635Y0186788D01*
X0214500Y0185933D01*
X0214500Y0185700D01*
X0219800Y0185700D01*
X0219800Y0185300D01*
X0220200Y0185300D01*
X0220200Y0180000D01*
X0220433Y0180000D01*
X0221288Y0180135D01*
X0222111Y0180403D01*
X0222883Y0180796D01*
X0223583Y0181305D01*
X0224195Y0181917D01*
X0224704Y0182617D01*
X0224891Y0182984D01*
X0225507Y0181498D01*
X0226998Y0180007D01*
X0227800Y0179675D01*
X0227800Y0170911D01*
X0219089Y0162200D01*
X0159089Y0162200D01*
X0157800Y0160911D01*
X0127800Y0130911D01*
X0127800Y0121182D01*
X0127635Y0121114D01*
X0126461Y0119940D01*
X0125825Y0118405D01*
X0125825Y0111595D01*
X0126461Y0110060D01*
X0127635Y0108886D01*
X0129170Y0108250D01*
X0130830Y0108250D01*
X0132365Y0108886D01*
X0133539Y0110060D01*
X0134175Y0111595D01*
X0134175Y0118405D01*
X0133539Y0119940D01*
X0132365Y0121114D01*
X0132200Y0121182D01*
X0132200Y0129089D01*
X0160911Y0157800D01*
X0220911Y0157800D01*
X0230911Y0167800D01*
X0232200Y0169089D01*
X0232200Y0179675D01*
X0233002Y0180007D01*
X0234493Y0181498D01*
X0235207Y0183222D01*
X0235507Y0182498D01*
X0236998Y0181007D01*
X0237800Y0180675D01*
X0237800Y0170911D01*
X0224089Y0157200D01*
X0164089Y0157200D01*
X0162800Y0155911D01*
X0137800Y0130911D01*
X0137800Y0121182D01*
X0137635Y0121114D01*
X0136461Y0119940D01*
X0135825Y0118405D01*
X0135825Y0111595D01*
X0136461Y0110060D01*
X0137635Y0108886D01*
X0139170Y0108250D01*
X0140830Y0108250D01*
X0142365Y0108886D01*
X0143539Y0110060D01*
X0144175Y0111595D01*
X0144175Y0118405D01*
X0143539Y0119940D01*
X0142365Y0121114D01*
X0142200Y0121182D01*
X0142200Y0129089D01*
X0165911Y0152800D01*
X0225911Y0152800D01*
X0240911Y0167800D01*
X0242200Y0169089D01*
X0242200Y0180675D01*
X0243002Y0181007D01*
X0244493Y0182498D01*
X0244793Y0183222D01*
X0245507Y0181498D01*
X0246998Y0180007D01*
X0247800Y0179675D01*
X0247800Y0172303D01*
X0247721Y0170832D01*
X0229089Y0152200D01*
X0169089Y0152200D01*
X0149089Y0132200D01*
X0147800Y0130911D01*
X0147800Y0121182D01*
X0147635Y0121114D01*
X0146461Y0119940D01*
X0145825Y0118405D01*
X0145825Y0111595D01*
X0146461Y0110060D01*
X0147635Y0108886D01*
X0149170Y0108250D01*
X0150830Y0108250D01*
X0152365Y0108886D01*
X0153539Y0110060D01*
X0154175Y0111595D01*
X0154175Y0118405D01*
X0153539Y0119940D01*
X0152365Y0121114D01*
X0152200Y0121182D01*
X0152200Y0129089D01*
X0170911Y0147800D01*
X0230911Y0147800D01*
X0232200Y0149089D01*
X0251386Y0168275D01*
X0252020Y0168844D01*
X0252023Y0168912D01*
X0252072Y0168961D01*
X0252072Y0169813D01*
X0252151Y0171284D01*
X0252200Y0171333D01*
X0252200Y0172185D01*
X0252246Y0173036D01*
X0252200Y0173087D01*
X0252200Y0179675D01*
X0253002Y0180007D01*
X0254493Y0181498D01*
X0255207Y0183222D01*
X0255507Y0182498D01*
X0256998Y0181007D01*
X0257800Y0180675D01*
X0257800Y0170911D01*
X0234089Y0147200D01*
X0174089Y0147200D01*
X0172800Y0145911D01*
X0157800Y0130911D01*
X0157800Y0121182D01*
X0157635Y0121114D01*
X0156461Y0119940D01*
X0155825Y0118405D01*
X0155825Y0111595D01*
X0156461Y0110060D01*
X0157635Y0108886D01*
X0159170Y0108250D01*
X0160830Y0108250D01*
X0162365Y0108886D01*
X0163539Y0110060D01*
X0164175Y0111595D01*
X0164175Y0118405D01*
X0163539Y0119940D01*
X0162365Y0121114D01*
X0162200Y0121182D01*
X0162200Y0129089D01*
X0175911Y0142800D01*
X0235911Y0142800D01*
X0260911Y0167800D01*
X0262200Y0169089D01*
X0262200Y0180675D01*
X0263002Y0181007D01*
X0264493Y0182498D01*
X0264793Y0183222D01*
X0265507Y0181498D01*
X0266998Y0180007D01*
X0267800Y0179675D01*
X0267800Y0168411D01*
X0239089Y0139700D01*
X0176589Y0139700D01*
X0175300Y0138411D01*
X0167800Y0130911D01*
X0167800Y0121182D01*
X0167635Y0121114D01*
X0166461Y0119940D01*
X0165825Y0118405D01*
X0165825Y0111595D01*
X0166461Y0110060D01*
X0167635Y0108886D01*
X0169170Y0108250D01*
X0170830Y0108250D01*
X0172365Y0108886D01*
X0173539Y0110060D01*
X0174175Y0111595D01*
X0174175Y0118405D01*
X0173539Y0119940D01*
X0172365Y0121114D01*
X0172200Y0121182D01*
X0172200Y0129089D01*
X0178411Y0135300D01*
X0240911Y0135300D01*
X0270911Y0165300D01*
X0272200Y0166589D01*
X0272200Y0179675D01*
X0273002Y0180007D01*
X0274493Y0181498D01*
X0275207Y0183222D01*
X0275507Y0182498D01*
X0276998Y0181007D01*
X0277800Y0180675D01*
X0277800Y0168411D01*
X0244089Y0134700D01*
X0181589Y0134700D01*
X0180300Y0133411D01*
X0177800Y0130911D01*
X0177800Y0121182D01*
X0177635Y0121114D01*
X0176461Y0119940D01*
X0175825Y0118405D01*
X0175825Y0111595D01*
X0176461Y0110060D01*
X0177635Y0108886D01*
X0179170Y0108250D01*
X0180830Y0108250D01*
X0182365Y0108886D01*
X0183539Y0110060D01*
X0184175Y0111595D01*
X0184175Y0118405D01*
X0183539Y0119940D01*
X0182365Y0121114D01*
X0182200Y0121182D01*
X0182200Y0129089D01*
X0183411Y0130300D01*
X0245911Y0130300D01*
X0280911Y0165300D01*
X0282200Y0166589D01*
X0282200Y0180675D01*
X0283002Y0181007D01*
X0284493Y0182498D01*
X0284793Y0183222D01*
X0285507Y0181498D01*
X0286998Y0180007D01*
X0287800Y0179675D01*
X0287800Y0168411D01*
X0249089Y0129700D01*
X0191589Y0129700D01*
X0190300Y0128411D01*
X0187800Y0125911D01*
X0187800Y0121182D01*
X0187635Y0121114D01*
X0186461Y0119940D01*
X0185825Y0118405D01*
X0185825Y0111595D01*
X0186461Y0110060D01*
X0187635Y0108886D01*
X0189170Y0108250D01*
X0190830Y0108250D01*
X0192365Y0108886D01*
X0193539Y0110060D01*
X0194175Y0111595D01*
X0194175Y0118405D01*
X0193539Y0119940D01*
X0192365Y0121114D01*
X0192200Y0121182D01*
X0192200Y0124089D01*
X0193411Y0125300D01*
X0250911Y0125300D01*
X0290911Y0165300D01*
X0292200Y0166589D01*
X0292200Y0179675D01*
X0293002Y0180007D01*
X0294493Y0181498D01*
X0295207Y0183222D01*
X0295507Y0182498D01*
X0296998Y0181007D01*
X0297800Y0180675D01*
X0297800Y0170911D01*
X0251589Y0124700D01*
X0250300Y0123411D01*
X0250300Y0103411D01*
X0249089Y0102200D01*
X0203411Y0102200D01*
X0202200Y0103411D01*
X0202200Y0108818D01*
X0202365Y0108886D01*
X0203539Y0110060D01*
X0204175Y0111595D01*
X0204175Y0118405D01*
X0203539Y0119940D01*
X0202365Y0121114D01*
X0200830Y0121750D01*
X0199170Y0121750D01*
X0197635Y0121114D01*
X0196461Y0119940D01*
X0195825Y0118405D01*
X0195825Y0111595D01*
X0196461Y0110060D01*
X0197635Y0108886D01*
X0197800Y0108818D01*
X0197800Y0101589D01*
X0199089Y0100300D01*
X0201589Y0097800D01*
X0250911Y0097800D01*
X0252200Y0099089D01*
X0254700Y0101589D01*
X0254700Y0121589D01*
X0300911Y0167800D01*
X0302200Y0169089D01*
X0302200Y0180675D01*
X0303002Y0181007D01*
X0304493Y0182498D01*
X0304793Y0183222D01*
X0305507Y0181498D01*
X0306998Y0180007D01*
X0308946Y0179200D01*
X0311054Y0179200D01*
X0313002Y0180007D01*
X0314493Y0181498D01*
X0315300Y0183446D01*
X0315300Y0185554D01*
X0314493Y0187502D01*
X0313002Y0188993D01*
X0311054Y0189800D01*
X0308946Y0189800D01*
X0306998Y0188993D01*
X0305507Y0187502D01*
X0305207Y0186778D01*
X0304493Y0188502D01*
X0303002Y0189993D01*
X0302200Y0190325D01*
X0302200Y0191589D01*
X0303411Y0192800D01*
X0320911Y0192800D01*
X0322200Y0194089D01*
X0325000Y0196889D01*
X0327800Y0194089D01*
X0329089Y0192800D01*
X0344203Y0192800D01*
X0344292Y0192727D01*
X0345100Y0192800D01*
X0345911Y0192800D01*
X0345992Y0192881D01*
X0346107Y0192892D01*
X0346626Y0193515D01*
X0347200Y0194089D01*
X0347200Y0194203D01*
X0371626Y0223515D01*
X0372200Y0224089D01*
X0372200Y0224203D01*
X0372273Y0224292D01*
X0372200Y0225100D01*
X0372200Y0230675D01*
X0373002Y0231007D01*
X0374493Y0232498D01*
X0374793Y0233222D01*
X0375507Y0231498D01*
X0376998Y0230007D01*
X0378946Y0229200D01*
X0381054Y0229200D01*
X0383002Y0230007D01*
X0384493Y0231498D01*
X0385300Y0233446D01*
X0385300Y0235554D01*
X0384493Y0237502D01*
X0383002Y0238993D01*
X0381054Y0239800D01*
X0378946Y0239800D01*
X0376998Y0238993D01*
X0375507Y0237502D01*
X0375207Y0236778D01*
X0375205Y0236784D02*
X0375209Y0236784D01*
X0374543Y0238383D02*
X0376387Y0238383D01*
X0373014Y0239981D02*
X0393200Y0239981D01*
X0393200Y0238383D02*
X0383613Y0238383D01*
X0384791Y0236784D02*
X0393200Y0236784D01*
X0393200Y0235186D02*
X0385300Y0235186D01*
X0385300Y0233587D02*
X0393200Y0233587D01*
X0393200Y0231989D02*
X0384696Y0231989D01*
X0383385Y0230390D02*
X0393200Y0230390D01*
X0393200Y0228792D02*
X0372200Y0228792D01*
X0372200Y0230390D02*
X0376615Y0230390D01*
X0375304Y0231989D02*
X0373984Y0231989D01*
X0372200Y0227193D02*
X0393200Y0227193D01*
X0393200Y0225595D02*
X0372200Y0225595D01*
X0372107Y0223996D02*
X0393200Y0223996D01*
X0393200Y0222398D02*
X0370695Y0222398D01*
X0369363Y0220799D02*
X0393200Y0220799D01*
X0393200Y0219201D02*
X0368031Y0219201D01*
X0366699Y0217602D02*
X0393200Y0217602D01*
X0393200Y0216003D02*
X0365367Y0216003D01*
X0364035Y0214405D02*
X0393200Y0214405D01*
X0393200Y0212806D02*
X0362702Y0212806D01*
X0361370Y0211208D02*
X0393200Y0211208D01*
X0393200Y0209609D02*
X0360038Y0209609D01*
X0358706Y0208011D02*
X0393200Y0208011D01*
X0393200Y0206412D02*
X0357374Y0206412D01*
X0356042Y0204814D02*
X0393200Y0204814D01*
X0393200Y0203215D02*
X0354710Y0203215D01*
X0353378Y0201617D02*
X0393200Y0201617D01*
X0393200Y0200018D02*
X0352046Y0200018D01*
X0350714Y0198420D02*
X0393200Y0198420D01*
X0393200Y0196821D02*
X0349382Y0196821D01*
X0348049Y0195223D02*
X0393200Y0195223D01*
X0393200Y0193624D02*
X0346736Y0193624D01*
X0350762Y0181453D02*
X0349939Y0181112D01*
X0349167Y0180666D01*
X0348460Y0180123D01*
X0347829Y0179493D01*
X0347287Y0178786D01*
X0346841Y0178014D01*
X0346500Y0177190D01*
X0346269Y0176329D01*
X0346153Y0175446D01*
X0346153Y0175200D01*
X0352753Y0175200D01*
X0352753Y0181800D01*
X0352507Y0181800D01*
X0351623Y0181684D01*
X0350762Y0181453D01*
X0349461Y0180836D02*
X0313832Y0180836D01*
X0314881Y0182435D02*
X0393200Y0182435D01*
X0393200Y0184033D02*
X0315300Y0184033D01*
X0315268Y0185632D02*
X0393200Y0185632D01*
X0393200Y0187230D02*
X0314606Y0187230D01*
X0313167Y0188829D02*
X0393200Y0188829D01*
X0393200Y0190427D02*
X0302200Y0190427D01*
X0302637Y0192026D02*
X0393200Y0192026D01*
X0393200Y0180836D02*
X0369561Y0180836D01*
X0368797Y0181600D02*
X0372663Y0177734D01*
X0372663Y0172266D01*
X0368797Y0168400D01*
X0363329Y0168400D01*
X0359463Y0172266D01*
X0359463Y0173023D01*
X0359406Y0172810D01*
X0359065Y0171986D01*
X0358619Y0171214D01*
X0358076Y0170507D01*
X0357446Y0169877D01*
X0356739Y0169334D01*
X0355967Y0168888D01*
X0355143Y0168547D01*
X0354282Y0168316D01*
X0353398Y0168200D01*
X0353153Y0168200D01*
X0353153Y0174800D01*
X0352753Y0174800D01*
X0352753Y0168200D01*
X0352507Y0168200D01*
X0351623Y0168316D01*
X0350762Y0168547D01*
X0349939Y0168888D01*
X0349167Y0169334D01*
X0348460Y0169877D01*
X0347829Y0170507D01*
X0347287Y0171214D01*
X0346841Y0171986D01*
X0346500Y0172810D01*
X0346269Y0173671D01*
X0346153Y0174554D01*
X0346153Y0174800D01*
X0352753Y0174800D01*
X0352753Y0175200D01*
X0353153Y0175200D01*
X0353153Y0181800D01*
X0353398Y0181800D01*
X0354282Y0181684D01*
X0355143Y0181453D01*
X0355967Y0181112D01*
X0356739Y0180666D01*
X0357446Y0180123D01*
X0358076Y0179493D01*
X0358619Y0178786D01*
X0359065Y0178014D01*
X0359406Y0177190D01*
X0359463Y0176977D01*
X0359463Y0177734D01*
X0363329Y0181600D01*
X0368797Y0181600D01*
X0371159Y0179238D02*
X0393200Y0179238D01*
X0393200Y0177639D02*
X0372663Y0177639D01*
X0372663Y0176041D02*
X0393200Y0176041D01*
X0393200Y0174442D02*
X0372663Y0174442D01*
X0372663Y0172844D02*
X0393200Y0172844D01*
X0393200Y0171245D02*
X0371642Y0171245D01*
X0370043Y0169647D02*
X0393200Y0169647D01*
X0393200Y0168048D02*
X0301159Y0168048D01*
X0302200Y0169647D02*
X0348759Y0169647D01*
X0347269Y0171245D02*
X0302200Y0171245D01*
X0302200Y0172844D02*
X0346491Y0172844D01*
X0346168Y0174442D02*
X0302200Y0174442D01*
X0302200Y0176041D02*
X0346231Y0176041D01*
X0346686Y0177639D02*
X0302200Y0177639D01*
X0302200Y0179238D02*
X0308855Y0179238D01*
X0311145Y0179238D02*
X0347633Y0179238D01*
X0352753Y0179238D02*
X0353153Y0179238D01*
X0353153Y0180836D02*
X0352753Y0180836D01*
X0352753Y0177639D02*
X0353153Y0177639D01*
X0353153Y0176041D02*
X0352753Y0176041D01*
X0352753Y0174442D02*
X0353153Y0174442D01*
X0353153Y0172844D02*
X0352753Y0172844D01*
X0352753Y0171245D02*
X0353153Y0171245D01*
X0353153Y0169647D02*
X0352753Y0169647D01*
X0357146Y0169647D02*
X0362083Y0169647D01*
X0360484Y0171245D02*
X0358637Y0171245D01*
X0359415Y0172844D02*
X0359463Y0172844D01*
X0359463Y0177639D02*
X0359220Y0177639D01*
X0358272Y0179238D02*
X0360967Y0179238D01*
X0362565Y0180836D02*
X0356444Y0180836D01*
X0328264Y0193624D02*
X0321736Y0193624D01*
X0322200Y0194089D02*
X0322200Y0194089D01*
X0323334Y0195223D02*
X0326666Y0195223D01*
X0325067Y0196821D02*
X0324933Y0196821D01*
X0306833Y0188829D02*
X0304167Y0188829D01*
X0305020Y0187230D02*
X0305394Y0187230D01*
X0305119Y0182435D02*
X0304430Y0182435D01*
X0306168Y0180836D02*
X0302590Y0180836D01*
X0297800Y0179238D02*
X0292200Y0179238D01*
X0292200Y0177639D02*
X0297800Y0177639D01*
X0297800Y0176041D02*
X0292200Y0176041D01*
X0292200Y0174442D02*
X0297800Y0174442D01*
X0297800Y0172844D02*
X0292200Y0172844D01*
X0292200Y0171245D02*
X0297800Y0171245D01*
X0296535Y0169647D02*
X0292200Y0169647D01*
X0292200Y0168048D02*
X0294937Y0168048D01*
X0293338Y0166450D02*
X0292061Y0166450D01*
X0291740Y0164851D02*
X0290462Y0164851D01*
X0290141Y0163253D02*
X0288864Y0163253D01*
X0288543Y0161654D02*
X0287265Y0161654D01*
X0286944Y0160056D02*
X0285667Y0160056D01*
X0285346Y0158457D02*
X0284068Y0158457D01*
X0283747Y0156859D02*
X0282470Y0156859D01*
X0282149Y0155260D02*
X0280871Y0155260D01*
X0280550Y0153662D02*
X0279273Y0153662D01*
X0278952Y0152063D02*
X0277674Y0152063D01*
X0277353Y0150465D02*
X0276076Y0150465D01*
X0275755Y0148866D02*
X0274477Y0148866D01*
X0274156Y0147268D02*
X0272879Y0147268D01*
X0272558Y0145669D02*
X0271280Y0145669D01*
X0270959Y0144070D02*
X0269682Y0144070D01*
X0269361Y0142472D02*
X0268083Y0142472D01*
X0267762Y0140873D02*
X0266485Y0140873D01*
X0266164Y0139275D02*
X0264886Y0139275D01*
X0264565Y0137676D02*
X0263288Y0137676D01*
X0262967Y0136078D02*
X0261689Y0136078D01*
X0261368Y0134479D02*
X0260091Y0134479D01*
X0259770Y0132881D02*
X0258492Y0132881D01*
X0258171Y0131282D02*
X0256894Y0131282D01*
X0256573Y0129684D02*
X0255295Y0129684D01*
X0254974Y0128085D02*
X0253697Y0128085D01*
X0253376Y0126487D02*
X0252098Y0126487D01*
X0251777Y0124888D02*
X0193000Y0124888D01*
X0192200Y0123290D02*
X0250300Y0123290D01*
X0250300Y0121691D02*
X0240971Y0121691D01*
X0240830Y0121750D02*
X0239170Y0121750D01*
X0237635Y0121114D01*
X0236461Y0119940D01*
X0235825Y0118405D01*
X0235825Y0111595D01*
X0236461Y0110060D01*
X0237635Y0108886D01*
X0239170Y0108250D01*
X0240830Y0108250D01*
X0242365Y0108886D01*
X0243539Y0110060D01*
X0244175Y0111595D01*
X0244175Y0118405D01*
X0243539Y0119940D01*
X0242365Y0121114D01*
X0240830Y0121750D01*
X0239029Y0121691D02*
X0230971Y0121691D01*
X0230830Y0121750D02*
X0229170Y0121750D01*
X0227635Y0121114D01*
X0226461Y0119940D01*
X0225825Y0118405D01*
X0225825Y0111595D01*
X0226461Y0110060D01*
X0227635Y0108886D01*
X0229170Y0108250D01*
X0230830Y0108250D01*
X0232365Y0108886D01*
X0233539Y0110060D01*
X0234175Y0111595D01*
X0234175Y0118405D01*
X0233539Y0119940D01*
X0232365Y0121114D01*
X0230830Y0121750D01*
X0229029Y0121691D02*
X0220971Y0121691D01*
X0220830Y0121750D02*
X0219170Y0121750D01*
X0217635Y0121114D01*
X0216461Y0119940D01*
X0215825Y0118405D01*
X0215825Y0111595D01*
X0216461Y0110060D01*
X0217635Y0108886D01*
X0219170Y0108250D01*
X0220830Y0108250D01*
X0222365Y0108886D01*
X0223539Y0110060D01*
X0224175Y0111595D01*
X0224175Y0118405D01*
X0223539Y0119940D01*
X0222365Y0121114D01*
X0220830Y0121750D01*
X0219029Y0121691D02*
X0210971Y0121691D01*
X0210830Y0121750D02*
X0209170Y0121750D01*
X0207635Y0121114D01*
X0206461Y0119940D01*
X0205825Y0118405D01*
X0205825Y0111595D01*
X0206461Y0110060D01*
X0207635Y0108886D01*
X0209170Y0108250D01*
X0210830Y0108250D01*
X0212365Y0108886D01*
X0213539Y0110060D01*
X0214175Y0111595D01*
X0214175Y0118405D01*
X0213539Y0119940D01*
X0212365Y0121114D01*
X0210830Y0121750D01*
X0209029Y0121691D02*
X0200971Y0121691D01*
X0199029Y0121691D02*
X0192200Y0121691D01*
X0193386Y0120093D02*
X0196614Y0120093D01*
X0195862Y0118494D02*
X0194138Y0118494D01*
X0194175Y0116896D02*
X0195825Y0116896D01*
X0195825Y0115297D02*
X0194175Y0115297D01*
X0194175Y0113699D02*
X0195825Y0113699D01*
X0195825Y0112100D02*
X0194175Y0112100D01*
X0193722Y0110502D02*
X0196278Y0110502D01*
X0197618Y0108903D02*
X0192382Y0108903D01*
X0187618Y0108903D02*
X0182382Y0108903D01*
X0183722Y0110502D02*
X0186278Y0110502D01*
X0185825Y0112100D02*
X0184175Y0112100D01*
X0184175Y0113699D02*
X0185825Y0113699D01*
X0185825Y0115297D02*
X0184175Y0115297D01*
X0184175Y0116896D02*
X0185825Y0116896D01*
X0185862Y0118494D02*
X0184138Y0118494D01*
X0183386Y0120093D02*
X0186614Y0120093D01*
X0187800Y0121691D02*
X0182200Y0121691D01*
X0182200Y0123290D02*
X0187800Y0123290D01*
X0187800Y0124888D02*
X0182200Y0124888D01*
X0182200Y0126487D02*
X0188376Y0126487D01*
X0189974Y0128085D02*
X0182200Y0128085D01*
X0182795Y0129684D02*
X0191573Y0129684D01*
X0181368Y0134479D02*
X0177591Y0134479D01*
X0175992Y0132881D02*
X0179770Y0132881D01*
X0180300Y0133411D02*
X0180300Y0133411D01*
X0178171Y0131282D02*
X0174394Y0131282D01*
X0172795Y0129684D02*
X0177800Y0129684D01*
X0177800Y0128085D02*
X0172200Y0128085D01*
X0172200Y0126487D02*
X0177800Y0126487D01*
X0177800Y0124888D02*
X0172200Y0124888D01*
X0172200Y0123290D02*
X0177800Y0123290D01*
X0177800Y0121691D02*
X0172200Y0121691D01*
X0173386Y0120093D02*
X0176614Y0120093D01*
X0175862Y0118494D02*
X0174138Y0118494D01*
X0174175Y0116896D02*
X0175825Y0116896D01*
X0175825Y0115297D02*
X0174175Y0115297D01*
X0174175Y0113699D02*
X0175825Y0113699D01*
X0175825Y0112100D02*
X0174175Y0112100D01*
X0173722Y0110502D02*
X0176278Y0110502D01*
X0177618Y0108903D02*
X0172382Y0108903D01*
X0167618Y0108903D02*
X0162382Y0108903D01*
X0163722Y0110502D02*
X0166278Y0110502D01*
X0165825Y0112100D02*
X0164175Y0112100D01*
X0164175Y0113699D02*
X0165825Y0113699D01*
X0165825Y0115297D02*
X0164175Y0115297D01*
X0164175Y0116896D02*
X0165825Y0116896D01*
X0165862Y0118494D02*
X0164138Y0118494D01*
X0163386Y0120093D02*
X0166614Y0120093D01*
X0167800Y0121691D02*
X0162200Y0121691D01*
X0162200Y0123290D02*
X0167800Y0123290D01*
X0167800Y0124888D02*
X0162200Y0124888D01*
X0162200Y0126487D02*
X0167800Y0126487D01*
X0167800Y0128085D02*
X0162200Y0128085D01*
X0162795Y0129684D02*
X0167800Y0129684D01*
X0168171Y0131282D02*
X0164394Y0131282D01*
X0165992Y0132881D02*
X0169770Y0132881D01*
X0171368Y0134479D02*
X0167591Y0134479D01*
X0169189Y0136078D02*
X0172967Y0136078D01*
X0174565Y0137676D02*
X0170788Y0137676D01*
X0172386Y0139275D02*
X0176164Y0139275D01*
X0173985Y0140873D02*
X0240262Y0140873D01*
X0241861Y0142472D02*
X0175583Y0142472D01*
X0172558Y0145669D02*
X0168780Y0145669D01*
X0167182Y0144070D02*
X0170959Y0144070D01*
X0169361Y0142472D02*
X0165583Y0142472D01*
X0163985Y0140873D02*
X0167762Y0140873D01*
X0166164Y0139275D02*
X0162386Y0139275D01*
X0160788Y0137676D02*
X0164565Y0137676D01*
X0162967Y0136078D02*
X0159189Y0136078D01*
X0157591Y0134479D02*
X0161368Y0134479D01*
X0159770Y0132881D02*
X0155992Y0132881D01*
X0154394Y0131282D02*
X0158171Y0131282D01*
X0157800Y0129684D02*
X0152795Y0129684D01*
X0152200Y0128085D02*
X0157800Y0128085D01*
X0157800Y0126487D02*
X0152200Y0126487D01*
X0152200Y0124888D02*
X0157800Y0124888D01*
X0157800Y0123290D02*
X0152200Y0123290D01*
X0152200Y0121691D02*
X0157800Y0121691D01*
X0156614Y0120093D02*
X0153386Y0120093D01*
X0154138Y0118494D02*
X0155862Y0118494D01*
X0155825Y0116896D02*
X0154175Y0116896D01*
X0154175Y0115297D02*
X0155825Y0115297D01*
X0155825Y0113699D02*
X0154175Y0113699D01*
X0154175Y0112100D02*
X0155825Y0112100D01*
X0156278Y0110502D02*
X0153722Y0110502D01*
X0152382Y0108903D02*
X0157618Y0108903D01*
X0147618Y0108903D02*
X0142382Y0108903D01*
X0143722Y0110502D02*
X0146278Y0110502D01*
X0145825Y0112100D02*
X0144175Y0112100D01*
X0144175Y0113699D02*
X0145825Y0113699D01*
X0145825Y0115297D02*
X0144175Y0115297D01*
X0144175Y0116896D02*
X0145825Y0116896D01*
X0145862Y0118494D02*
X0144138Y0118494D01*
X0143386Y0120093D02*
X0146614Y0120093D01*
X0147800Y0121691D02*
X0142200Y0121691D01*
X0142200Y0123290D02*
X0147800Y0123290D01*
X0147800Y0124888D02*
X0142200Y0124888D01*
X0142200Y0126487D02*
X0147800Y0126487D01*
X0147800Y0128085D02*
X0142200Y0128085D01*
X0142795Y0129684D02*
X0147800Y0129684D01*
X0148171Y0131282D02*
X0144394Y0131282D01*
X0145992Y0132881D02*
X0149770Y0132881D01*
X0151368Y0134479D02*
X0147591Y0134479D01*
X0149189Y0136078D02*
X0152967Y0136078D01*
X0154565Y0137676D02*
X0150788Y0137676D01*
X0152386Y0139275D02*
X0156164Y0139275D01*
X0157762Y0140873D02*
X0153985Y0140873D01*
X0155583Y0142472D02*
X0159361Y0142472D01*
X0160959Y0144070D02*
X0157182Y0144070D01*
X0158780Y0145669D02*
X0162558Y0145669D01*
X0164156Y0147268D02*
X0160379Y0147268D01*
X0161977Y0148866D02*
X0165755Y0148866D01*
X0167353Y0150465D02*
X0163576Y0150465D01*
X0165174Y0152063D02*
X0168952Y0152063D01*
X0170379Y0147268D02*
X0234156Y0147268D01*
X0235755Y0148866D02*
X0231977Y0148866D01*
X0233576Y0150465D02*
X0237353Y0150465D01*
X0238952Y0152063D02*
X0235174Y0152063D01*
X0236773Y0153662D02*
X0240550Y0153662D01*
X0242149Y0155260D02*
X0238371Y0155260D01*
X0239970Y0156859D02*
X0243747Y0156859D01*
X0245346Y0158457D02*
X0241568Y0158457D01*
X0243167Y0160056D02*
X0246944Y0160056D01*
X0248543Y0161654D02*
X0244765Y0161654D01*
X0246364Y0163253D02*
X0250141Y0163253D01*
X0251740Y0164851D02*
X0247962Y0164851D01*
X0249561Y0166450D02*
X0253338Y0166450D01*
X0254937Y0168048D02*
X0251159Y0168048D01*
X0252072Y0169647D02*
X0256535Y0169647D01*
X0257800Y0171245D02*
X0252149Y0171245D01*
X0252236Y0172844D02*
X0257800Y0172844D01*
X0257800Y0174442D02*
X0252200Y0174442D01*
X0252200Y0176041D02*
X0257800Y0176041D01*
X0257800Y0177639D02*
X0252200Y0177639D01*
X0252200Y0179238D02*
X0257800Y0179238D01*
X0257410Y0180836D02*
X0253832Y0180836D01*
X0254881Y0182435D02*
X0255570Y0182435D01*
X0262590Y0180836D02*
X0266168Y0180836D01*
X0265119Y0182435D02*
X0264430Y0182435D01*
X0262200Y0179238D02*
X0267800Y0179238D01*
X0267800Y0177639D02*
X0262200Y0177639D01*
X0262200Y0176041D02*
X0267800Y0176041D01*
X0267800Y0174442D02*
X0262200Y0174442D01*
X0262200Y0172844D02*
X0267800Y0172844D01*
X0267800Y0171245D02*
X0262200Y0171245D01*
X0262200Y0169647D02*
X0267800Y0169647D01*
X0267437Y0168048D02*
X0261159Y0168048D01*
X0259561Y0166450D02*
X0265838Y0166450D01*
X0264240Y0164851D02*
X0257962Y0164851D01*
X0256364Y0163253D02*
X0262641Y0163253D01*
X0261043Y0161654D02*
X0254765Y0161654D01*
X0253167Y0160056D02*
X0259444Y0160056D01*
X0257846Y0158457D02*
X0251568Y0158457D01*
X0249970Y0156859D02*
X0256247Y0156859D01*
X0254649Y0155260D02*
X0248371Y0155260D01*
X0246773Y0153662D02*
X0253050Y0153662D01*
X0251452Y0152063D02*
X0245174Y0152063D01*
X0243576Y0150465D02*
X0249853Y0150465D01*
X0248255Y0148866D02*
X0241977Y0148866D01*
X0240379Y0147268D02*
X0246656Y0147268D01*
X0245058Y0145669D02*
X0238780Y0145669D01*
X0237182Y0144070D02*
X0243459Y0144070D01*
X0248083Y0142472D02*
X0251861Y0142472D01*
X0253459Y0144070D02*
X0249682Y0144070D01*
X0251280Y0145669D02*
X0255058Y0145669D01*
X0256656Y0147268D02*
X0252879Y0147268D01*
X0254477Y0148866D02*
X0258255Y0148866D01*
X0259853Y0150465D02*
X0256076Y0150465D01*
X0257674Y0152063D02*
X0261452Y0152063D01*
X0263050Y0153662D02*
X0259273Y0153662D01*
X0260871Y0155260D02*
X0264649Y0155260D01*
X0266247Y0156859D02*
X0262470Y0156859D01*
X0264068Y0158457D02*
X0267846Y0158457D01*
X0269444Y0160056D02*
X0265667Y0160056D01*
X0267265Y0161654D02*
X0271043Y0161654D01*
X0272641Y0163253D02*
X0268864Y0163253D01*
X0270462Y0164851D02*
X0274240Y0164851D01*
X0275838Y0166450D02*
X0272061Y0166450D01*
X0272200Y0168048D02*
X0277437Y0168048D01*
X0277800Y0169647D02*
X0272200Y0169647D01*
X0272200Y0171245D02*
X0277800Y0171245D01*
X0277800Y0172844D02*
X0272200Y0172844D01*
X0272200Y0174442D02*
X0277800Y0174442D01*
X0277800Y0176041D02*
X0272200Y0176041D01*
X0272200Y0177639D02*
X0277800Y0177639D01*
X0277800Y0179238D02*
X0272200Y0179238D01*
X0273832Y0180836D02*
X0277410Y0180836D01*
X0275570Y0182435D02*
X0274881Y0182435D01*
X0282590Y0180836D02*
X0286168Y0180836D01*
X0285119Y0182435D02*
X0284430Y0182435D01*
X0282200Y0179238D02*
X0287800Y0179238D01*
X0287800Y0177639D02*
X0282200Y0177639D01*
X0282200Y0176041D02*
X0287800Y0176041D01*
X0287800Y0174442D02*
X0282200Y0174442D01*
X0282200Y0172844D02*
X0287800Y0172844D01*
X0287800Y0171245D02*
X0282200Y0171245D01*
X0282200Y0169647D02*
X0287800Y0169647D01*
X0287437Y0168048D02*
X0282200Y0168048D01*
X0282061Y0166450D02*
X0285838Y0166450D01*
X0284240Y0164851D02*
X0280462Y0164851D01*
X0278864Y0163253D02*
X0282641Y0163253D01*
X0281043Y0161654D02*
X0277265Y0161654D01*
X0275667Y0160056D02*
X0279444Y0160056D01*
X0277846Y0158457D02*
X0274068Y0158457D01*
X0272470Y0156859D02*
X0276247Y0156859D01*
X0274649Y0155260D02*
X0270871Y0155260D01*
X0269273Y0153662D02*
X0273050Y0153662D01*
X0271452Y0152063D02*
X0267674Y0152063D01*
X0266076Y0150465D02*
X0269853Y0150465D01*
X0268255Y0148866D02*
X0264477Y0148866D01*
X0262879Y0147268D02*
X0266656Y0147268D01*
X0265058Y0145669D02*
X0261280Y0145669D01*
X0259682Y0144070D02*
X0263459Y0144070D01*
X0261861Y0142472D02*
X0258083Y0142472D01*
X0256485Y0140873D02*
X0260262Y0140873D01*
X0258664Y0139275D02*
X0254886Y0139275D01*
X0253288Y0137676D02*
X0257065Y0137676D01*
X0255467Y0136078D02*
X0251689Y0136078D01*
X0250091Y0134479D02*
X0253868Y0134479D01*
X0252270Y0132881D02*
X0248492Y0132881D01*
X0246894Y0131282D02*
X0250671Y0131282D01*
X0245467Y0136078D02*
X0241689Y0136078D01*
X0243288Y0137676D02*
X0247065Y0137676D01*
X0248664Y0139275D02*
X0244886Y0139275D01*
X0246485Y0140873D02*
X0250262Y0140873D01*
X0262795Y0129684D02*
X0393200Y0129684D01*
X0393200Y0131282D02*
X0368141Y0131282D01*
X0367747Y0130888D02*
X0369112Y0132253D01*
X0369850Y0134035D01*
X0369850Y0135965D01*
X0369112Y0137747D01*
X0367747Y0139112D01*
X0365965Y0139850D01*
X0364035Y0139850D01*
X0362253Y0139112D01*
X0360888Y0137747D01*
X0360150Y0135965D01*
X0360150Y0134035D01*
X0360888Y0132253D01*
X0362253Y0130888D01*
X0364035Y0130150D01*
X0365965Y0130150D01*
X0367747Y0130888D01*
X0369372Y0132881D02*
X0393200Y0132881D01*
X0393200Y0134479D02*
X0369850Y0134479D01*
X0369803Y0136078D02*
X0393200Y0136078D01*
X0393200Y0137676D02*
X0369141Y0137676D01*
X0367353Y0139275D02*
X0393200Y0139275D01*
X0393200Y0140873D02*
X0273985Y0140873D01*
X0272386Y0139275D02*
X0352292Y0139275D01*
X0352353Y0139319D02*
X0351710Y0138852D01*
X0351148Y0138290D01*
X0350681Y0137647D01*
X0350320Y0136939D01*
X0350074Y0136183D01*
X0349950Y0135397D01*
X0349950Y0135000D01*
X0355000Y0135000D01*
X0360050Y0135000D01*
X0360050Y0135397D01*
X0359926Y0136183D01*
X0359680Y0136939D01*
X0359319Y0137647D01*
X0358852Y0138290D01*
X0358290Y0138852D01*
X0357647Y0139319D01*
X0356939Y0139680D01*
X0356183Y0139926D01*
X0355397Y0140050D01*
X0355000Y0140050D01*
X0355000Y0135000D01*
X0355000Y0135000D01*
X0355000Y0135000D01*
X0360050Y0135000D01*
X0360050Y0134603D01*
X0359926Y0133817D01*
X0359680Y0133061D01*
X0359319Y0132353D01*
X0358852Y0131710D01*
X0358290Y0131148D01*
X0357647Y0130681D01*
X0356939Y0130320D01*
X0356183Y0130074D01*
X0355397Y0129950D01*
X0355000Y0129950D01*
X0355000Y0135000D01*
X0355000Y0135000D01*
X0355000Y0135000D01*
X0355000Y0140050D01*
X0354603Y0140050D01*
X0353817Y0139926D01*
X0353061Y0139680D01*
X0352353Y0139319D01*
X0350702Y0137676D02*
X0270788Y0137676D01*
X0269189Y0136078D02*
X0350058Y0136078D01*
X0349950Y0135000D02*
X0349950Y0134603D01*
X0350074Y0133817D01*
X0350320Y0133061D01*
X0350681Y0132353D01*
X0351148Y0131710D01*
X0351710Y0131148D01*
X0352353Y0130681D01*
X0353061Y0130320D01*
X0353817Y0130074D01*
X0354603Y0129950D01*
X0355000Y0129950D01*
X0355000Y0135000D01*
X0349950Y0135000D01*
X0349970Y0134479D02*
X0267591Y0134479D01*
X0265992Y0132881D02*
X0350412Y0132881D01*
X0351576Y0131282D02*
X0264394Y0131282D01*
X0261197Y0128085D02*
X0393200Y0128085D01*
X0393200Y0126487D02*
X0259598Y0126487D01*
X0258000Y0124888D02*
X0393200Y0124888D01*
X0393200Y0123290D02*
X0256401Y0123290D01*
X0254803Y0121691D02*
X0393200Y0121691D01*
X0393200Y0120093D02*
X0254700Y0120093D01*
X0254700Y0118494D02*
X0393200Y0118494D01*
X0393200Y0116896D02*
X0254700Y0116896D01*
X0254700Y0115297D02*
X0393200Y0115297D01*
X0393200Y0113699D02*
X0254700Y0113699D01*
X0254700Y0112100D02*
X0393200Y0112100D01*
X0393200Y0110502D02*
X0254700Y0110502D01*
X0254700Y0108903D02*
X0393200Y0108903D01*
X0393200Y0107305D02*
X0254700Y0107305D01*
X0254700Y0105706D02*
X0393200Y0105706D01*
X0393200Y0104108D02*
X0254700Y0104108D01*
X0254700Y0102509D02*
X0344936Y0102509D01*
X0345585Y0103158D02*
X0339342Y0096915D01*
X0339342Y0093300D01*
X0349200Y0093300D01*
X0349200Y0103158D01*
X0345585Y0103158D01*
X0343338Y0100911D02*
X0254022Y0100911D01*
X0252423Y0099312D02*
X0341739Y0099312D01*
X0340141Y0097714D02*
X0092200Y0097714D01*
X0092200Y0099312D02*
X0200077Y0099312D01*
X0198478Y0100911D02*
X0092200Y0100911D01*
X0092200Y0102509D02*
X0197800Y0102509D01*
X0197800Y0104108D02*
X0092200Y0104108D01*
X0092200Y0105706D02*
X0197800Y0105706D01*
X0197800Y0107305D02*
X0092200Y0107305D01*
X0092200Y0108903D02*
X0097618Y0108903D01*
X0097635Y0108886D02*
X0099170Y0108250D01*
X0100830Y0108250D01*
X0102365Y0108886D01*
X0103539Y0110060D01*
X0104175Y0111595D01*
X0104175Y0118405D01*
X0103539Y0119940D01*
X0102365Y0121114D01*
X0102200Y0121182D01*
X0102200Y0129589D01*
X0153144Y0180532D01*
X0153946Y0180200D01*
X0156054Y0180200D01*
X0158002Y0181007D01*
X0159493Y0182498D01*
X0159793Y0183222D01*
X0160032Y0182644D01*
X0109589Y0132200D01*
X0109089Y0132200D01*
X0107800Y0130911D01*
X0107800Y0121182D01*
X0107635Y0121114D01*
X0106461Y0119940D01*
X0105825Y0118405D01*
X0105825Y0111595D01*
X0106461Y0110060D01*
X0107635Y0108886D01*
X0109170Y0108250D01*
X0110830Y0108250D01*
X0112365Y0108886D01*
X0113539Y0110060D01*
X0114175Y0111595D01*
X0114175Y0118405D01*
X0113539Y0119940D01*
X0112365Y0121114D01*
X0112200Y0121182D01*
X0112200Y0128589D01*
X0163144Y0179532D01*
X0163946Y0179200D01*
X0166054Y0179200D01*
X0168002Y0180007D01*
X0169493Y0181498D01*
X0170207Y0183222D01*
X0170507Y0182498D01*
X0171998Y0181007D01*
X0172800Y0180675D01*
X0172800Y0175911D01*
X0169089Y0172200D01*
X0159089Y0172200D01*
X0157800Y0170911D01*
X0117800Y0130911D01*
X0117800Y0121182D01*
X0117635Y0121114D01*
X0116461Y0119940D01*
X0115825Y0118405D01*
X0115825Y0111595D01*
X0116461Y0110060D01*
X0117635Y0108886D01*
X0119170Y0108250D01*
X0120830Y0108250D01*
X0122365Y0108886D01*
X0123539Y0110060D01*
X0124175Y0111595D01*
X0124175Y0118405D01*
X0123539Y0119940D01*
X0122365Y0121114D01*
X0122200Y0121182D01*
X0122200Y0129089D01*
X0160911Y0167800D01*
X0170911Y0167800D01*
X0175911Y0172800D01*
X0177200Y0174089D01*
X0177200Y0180675D01*
X0178002Y0181007D01*
X0179493Y0182498D01*
X0179793Y0183222D01*
X0180507Y0181498D01*
X0181998Y0180007D01*
X0183946Y0179200D01*
X0186054Y0179200D01*
X0188002Y0180007D01*
X0189493Y0181498D01*
X0190300Y0183446D01*
X0190300Y0185554D01*
X0189493Y0187502D01*
X0188002Y0188993D01*
X0186054Y0189800D01*
X0183946Y0189800D01*
X0181998Y0188993D01*
X0180507Y0187502D01*
X0180207Y0186778D01*
X0179493Y0188502D01*
X0178002Y0189993D01*
X0177200Y0190325D01*
X0177200Y0195911D01*
X0175911Y0197200D01*
X0170911Y0202200D01*
X0160911Y0202200D01*
X0157200Y0205911D01*
X0157200Y0210175D01*
X0158002Y0210507D01*
X0159493Y0211998D01*
X0159793Y0212722D01*
X0160507Y0210998D01*
X0161998Y0209507D01*
X0163946Y0208700D01*
X0166054Y0208700D01*
X0168002Y0209507D01*
X0169493Y0210998D01*
X0170300Y0212946D01*
X0170300Y0215054D01*
X0169493Y0217002D01*
X0168002Y0218493D01*
X0166054Y0219300D01*
X0163946Y0219300D01*
X0161998Y0218493D01*
X0160507Y0217002D01*
X0160207Y0216278D01*
X0159493Y0218002D01*
X0158002Y0219493D01*
X0157721Y0219610D01*
X0160911Y0222800D01*
X0165911Y0222800D01*
X0170911Y0227800D01*
X0172200Y0229089D01*
X0172200Y0230675D01*
X0173002Y0231007D01*
X0174493Y0232498D01*
X0175300Y0234446D01*
X0175300Y0236554D01*
X0174493Y0238502D01*
X0173002Y0239993D01*
X0171054Y0240800D01*
X0168946Y0240800D01*
X0166998Y0239993D01*
X0165507Y0238502D01*
X0164793Y0236778D01*
X0164493Y0237502D01*
X0163002Y0238993D01*
X0161054Y0239800D01*
X0158946Y0239800D01*
X0156998Y0238993D01*
X0155507Y0237502D01*
X0155500Y0237486D01*
X0155500Y0239437D01*
X0155377Y0239895D01*
X0155140Y0240305D01*
X0154805Y0240640D01*
X0154395Y0240877D01*
X0153937Y0241000D01*
X0150200Y0241000D01*
X0150200Y0235700D01*
X0149800Y0235700D01*
X0149800Y0241000D01*
X0146063Y0241000D01*
X0145605Y0240877D01*
X0145195Y0240640D01*
X0144860Y0240305D01*
X0144623Y0239895D01*
X0144500Y0239437D01*
X0144500Y0235700D01*
X0149800Y0235700D01*
X0149800Y0235300D01*
X0150200Y0235300D01*
X0150200Y0230000D01*
X0153937Y0230000D01*
X0154395Y0230123D01*
X0154805Y0230360D01*
X0155140Y0230695D01*
X0155377Y0231105D01*
X0155492Y0231534D01*
X0155507Y0231498D01*
X0156998Y0230007D01*
X0158946Y0229200D01*
X0161054Y0229200D01*
X0163002Y0230007D01*
X0164493Y0231498D01*
X0165207Y0233222D01*
X0165507Y0232498D01*
X0166998Y0231007D01*
X0167633Y0230744D01*
X0164089Y0227200D01*
X0159089Y0227200D01*
X0157800Y0225911D01*
X0152800Y0220911D01*
X0152800Y0219825D01*
X0151998Y0219493D01*
X0150507Y0218002D01*
X0149793Y0216278D01*
X0149493Y0217002D01*
X0148002Y0218493D01*
X0147200Y0218825D01*
X0147200Y0220911D01*
X0137367Y0230744D01*
X0138002Y0231007D01*
X0139493Y0232498D01*
X0140300Y0234446D01*
X0140300Y0236554D01*
X0139493Y0238502D01*
X0138002Y0239993D01*
X0136054Y0240800D01*
X0133946Y0240800D01*
X0131998Y0239993D01*
X0130507Y0238502D01*
X0129793Y0236778D01*
X0129493Y0237502D01*
X0128002Y0238993D01*
X0126054Y0239800D01*
X0123946Y0239800D01*
X0121998Y0238993D01*
X0120507Y0237502D01*
X0120500Y0237486D01*
X0120500Y0239437D01*
X0120377Y0239895D01*
X0120140Y0240305D01*
X0119805Y0240640D01*
X0119395Y0240877D01*
X0118937Y0241000D01*
X0115200Y0241000D01*
X0115200Y0235700D01*
X0114800Y0235700D01*
X0114800Y0241000D01*
X0111063Y0241000D01*
X0110605Y0240877D01*
X0110195Y0240640D01*
X0109860Y0240305D01*
X0109623Y0239895D01*
X0109500Y0239437D01*
X0109500Y0235700D01*
X0114800Y0235700D01*
X0114800Y0235300D01*
X0115200Y0235300D01*
X0115200Y0230000D01*
X0118937Y0230000D01*
X0119395Y0230123D01*
X0119805Y0230360D01*
X0120140Y0230695D01*
X0120377Y0231105D01*
X0120492Y0231534D01*
X0120507Y0231498D01*
X0121998Y0230007D01*
X0123946Y0229200D01*
X0126054Y0229200D01*
X0128002Y0230007D01*
X0129493Y0231498D01*
X0130207Y0233222D01*
X0130507Y0232498D01*
X0131998Y0231007D01*
X0132800Y0230675D01*
X0132800Y0229089D01*
X0142800Y0219089D01*
X0142800Y0218825D01*
X0141998Y0218493D01*
X0140507Y0217002D01*
X0140207Y0216278D01*
X0139493Y0218002D01*
X0138002Y0219493D01*
X0136054Y0220300D01*
X0133946Y0220300D01*
X0133144Y0219968D01*
X0125911Y0227200D01*
X0103411Y0227200D01*
X0102200Y0228411D01*
X0102200Y0230675D01*
X0103002Y0231007D01*
X0104493Y0232498D01*
X0105300Y0234446D01*
X0105300Y0236554D01*
X0104493Y0238502D01*
X0103002Y0239993D01*
X0101054Y0240800D01*
X0098946Y0240800D01*
X0096998Y0239993D01*
X0095507Y0238502D01*
X0094793Y0236778D01*
X0094493Y0237502D01*
X0093002Y0238993D01*
X0091054Y0239800D01*
X0088946Y0239800D01*
X0086998Y0238993D01*
X0085507Y0237502D01*
X0085500Y0237486D01*
X0085500Y0239437D01*
X0085377Y0239895D01*
X0085140Y0240305D01*
X0084805Y0240640D01*
X0084395Y0240877D01*
X0083937Y0241000D01*
X0080200Y0241000D01*
X0080200Y0235700D01*
X0079800Y0235700D01*
X0079800Y0241000D01*
X0076063Y0241000D01*
X0075605Y0240877D01*
X0075195Y0240640D01*
X0074860Y0240305D01*
X0074623Y0239895D01*
X0074500Y0239437D01*
X0074500Y0235700D01*
X0079800Y0235700D01*
X0079800Y0235300D01*
X0080200Y0235300D01*
X0080200Y0230000D01*
X0083937Y0230000D01*
X0084395Y0230123D01*
X0084805Y0230360D01*
X0085140Y0230695D01*
X0085377Y0231105D01*
X0085492Y0231534D01*
X0085507Y0231498D01*
X0086998Y0230007D01*
X0088946Y0229200D01*
X0091054Y0229200D01*
X0093002Y0230007D01*
X0094493Y0231498D01*
X0095207Y0233222D01*
X0095507Y0232498D01*
X0096998Y0231007D01*
X0097800Y0230675D01*
X0097800Y0226589D01*
X0099689Y0224700D01*
X0068272Y0224700D01*
X0067200Y0225557D01*
X0067200Y0230675D01*
X0068002Y0231007D01*
X0069493Y0232498D01*
X0070300Y0234446D01*
X0070300Y0236554D01*
X0069493Y0238502D01*
X0068002Y0239993D01*
X0066054Y0240800D01*
X0063946Y0240800D01*
X0061998Y0239993D01*
X0060507Y0238502D01*
X0059793Y0236778D01*
X0059493Y0237502D01*
X0058002Y0238993D01*
X0056054Y0239800D01*
X0053946Y0239800D01*
X0051998Y0238993D01*
X0050507Y0237502D01*
X0050500Y0237486D01*
X0050500Y0239437D01*
X0050377Y0239895D01*
X0050140Y0240305D01*
X0049805Y0240640D01*
X0049395Y0240877D01*
X0048937Y0241000D01*
X0045200Y0241000D01*
X0045200Y0235700D01*
X0044800Y0235700D01*
X0044800Y0241000D01*
X0041063Y0241000D01*
X0040605Y0240877D01*
X0040195Y0240640D01*
X0039860Y0240305D01*
X0039623Y0239895D01*
X0039500Y0239437D01*
X0039500Y0235700D01*
X0044800Y0235700D01*
X0044800Y0235300D01*
X0045200Y0235300D01*
X0045200Y0230000D01*
X0048937Y0230000D01*
X0049395Y0230123D01*
X0049805Y0230360D01*
X0050140Y0230695D01*
X0050377Y0231105D01*
X0050492Y0231534D01*
X0050507Y0231498D01*
X0051998Y0230007D01*
X0053946Y0229200D01*
X0056054Y0229200D01*
X0058002Y0230007D01*
X0059493Y0231498D01*
X0060207Y0233222D01*
X0060507Y0232498D01*
X0061998Y0231007D01*
X0062800Y0230675D01*
X0062800Y0225272D01*
X0062713Y0225163D01*
X0062800Y0224378D01*
X0062800Y0223589D01*
X0062899Y0223490D01*
X0062914Y0223351D01*
X0063530Y0222858D01*
X0064089Y0222300D01*
X0064228Y0222300D01*
X0066031Y0220858D01*
X0066589Y0220300D01*
X0066728Y0220300D01*
X0066837Y0220213D01*
X0067622Y0220300D01*
X0113513Y0220300D01*
X0112889Y0220097D01*
X0112117Y0219704D01*
X0111417Y0219195D01*
X0110805Y0218583D01*
X0110296Y0217883D01*
X0109903Y0217111D01*
X0109635Y0216288D01*
X0109500Y0215433D01*
X0109500Y0215200D01*
X0114800Y0215200D01*
X0114800Y0214800D01*
X0115200Y0214800D01*
X0115200Y0209500D01*
X0115433Y0209500D01*
X0116288Y0209635D01*
X0117111Y0209903D01*
X0117883Y0210296D01*
X0118583Y0210805D01*
X0119195Y0211417D01*
X0119704Y0212117D01*
X0119891Y0212484D01*
X0120507Y0210998D01*
X0121998Y0209507D01*
X0122800Y0209175D01*
X0122800Y0204089D01*
X0127800Y0199089D01*
X0129089Y0197800D01*
X0139089Y0197800D01*
X0142800Y0194089D01*
X0142800Y0189325D01*
X0141998Y0188993D01*
X0140507Y0187502D01*
X0140207Y0186778D01*
X0139493Y0188502D01*
X0138002Y0189993D01*
X0136054Y0190800D01*
X0133946Y0190800D01*
X0133144Y0190468D01*
X0116411Y0207200D01*
X0088411Y0207200D01*
X0087200Y0208411D01*
X0087200Y0210175D01*
X0088002Y0210507D01*
X0089493Y0211998D01*
X0089793Y0212722D01*
X0090507Y0210998D01*
X0091998Y0209507D01*
X0093946Y0208700D01*
X0096054Y0208700D01*
X0098002Y0209507D01*
X0099493Y0210998D01*
X0100300Y0212946D01*
X0100300Y0215054D01*
X0099493Y0217002D01*
X0098002Y0218493D01*
X0096054Y0219300D01*
X0093946Y0219300D01*
X0091998Y0218493D01*
X0090507Y0217002D01*
X0090207Y0216278D01*
X0089493Y0218002D01*
X0088002Y0219493D01*
X0086054Y0220300D01*
X0083946Y0220300D01*
X0081998Y0219493D01*
X0080507Y0218002D01*
X0079793Y0216278D01*
X0079493Y0217002D01*
X0078002Y0218493D01*
X0076054Y0219300D01*
X0073946Y0219300D01*
X0071998Y0218493D01*
X0070507Y0217002D01*
X0070207Y0216278D01*
X0069493Y0218002D01*
X0068002Y0219493D01*
X0066054Y0220300D01*
X0063946Y0220300D01*
X0061998Y0219493D01*
X0060507Y0218002D01*
X0059793Y0216278D01*
X0059493Y0217002D01*
X0058002Y0218493D01*
X0056054Y0219300D01*
X0053946Y0219300D01*
X0051998Y0218493D01*
X0050507Y0217002D01*
X0050297Y0216496D01*
X0050097Y0217111D01*
X0049704Y0217883D01*
X0049195Y0218583D01*
X0048583Y0219195D01*
X0047883Y0219704D01*
X0047111Y0220097D01*
X0046288Y0220365D01*
X0045433Y0220500D01*
X0045200Y0220500D01*
X0045200Y0215200D01*
X0044800Y0215200D01*
X0044800Y0220500D01*
X0044567Y0220500D01*
X0043712Y0220365D01*
X0042889Y0220097D01*
X0042117Y0219704D01*
X0041417Y0219195D01*
X0040805Y0218583D01*
X0040296Y0217883D01*
X0039903Y0217111D01*
X0039635Y0216288D01*
X0039500Y0215433D01*
X0039500Y0215200D01*
X0044800Y0215200D01*
X0044800Y0214800D01*
X0045200Y0214800D01*
X0045200Y0209500D01*
X0045433Y0209500D01*
X0046288Y0209635D01*
X0047111Y0209903D01*
X0047883Y0210296D01*
X0048583Y0210805D01*
X0049195Y0211417D01*
X0049704Y0212117D01*
X0049891Y0212484D01*
X0050507Y0210998D01*
X0051998Y0209507D01*
X0052800Y0209175D01*
X0052800Y0204089D01*
X0086889Y0170000D01*
X0054089Y0137200D01*
X0052800Y0135911D01*
X0052800Y0059089D01*
X0100300Y0011589D01*
X0101589Y0010300D01*
X0155911Y0010300D01*
X0160911Y0015300D01*
X0162200Y0016589D01*
X0162200Y0048818D01*
X0162365Y0048886D01*
X0163539Y0050060D01*
X0164175Y0051595D01*
X0164175Y0058405D01*
X0163539Y0059940D01*
X0162365Y0061114D01*
X0160830Y0061750D01*
X0159170Y0061750D01*
X0157635Y0061114D01*
X0156461Y0059940D01*
X0155825Y0058405D01*
X0155825Y0051595D01*
X0156461Y0050060D01*
X0157635Y0048886D01*
X0157800Y0048818D01*
X0157800Y0018411D01*
X0154089Y0014700D01*
X0103411Y0014700D01*
X0057200Y0060911D01*
X0057200Y0134089D01*
X0090911Y0167800D01*
X0092200Y0169089D01*
X0102790Y0179679D01*
X0103946Y0179200D01*
X0105589Y0179200D01*
X0063490Y0137101D01*
X0063351Y0137086D01*
X0062858Y0136470D01*
X0062300Y0135911D01*
X0062300Y0135772D01*
X0060858Y0133969D01*
X0060300Y0133411D01*
X0060300Y0133272D01*
X0060213Y0133163D01*
X0060300Y0132378D01*
X0060300Y0061589D01*
X0102800Y0019089D01*
X0104089Y0017800D01*
X0137378Y0017800D01*
X0138163Y0017713D01*
X0138272Y0017800D01*
X0138411Y0017800D01*
X0138969Y0018358D01*
X0150772Y0027800D01*
X0150911Y0027800D01*
X0151470Y0028358D01*
X0152086Y0028851D01*
X0152101Y0028990D01*
X0152200Y0029089D01*
X0152200Y0029878D01*
X0152287Y0030663D01*
X0152200Y0030772D01*
X0152200Y0048818D01*
X0152365Y0048886D01*
X0153539Y0050060D01*
X0154175Y0051595D01*
X0154175Y0058405D01*
X0153539Y0059940D01*
X0152365Y0061114D01*
X0150830Y0061750D01*
X0149170Y0061750D01*
X0147635Y0061114D01*
X0146461Y0059940D01*
X0145825Y0058405D01*
X0145825Y0051595D01*
X0146461Y0050060D01*
X0147635Y0048886D01*
X0147800Y0048818D01*
X0147800Y0031057D01*
X0136728Y0022200D01*
X0105911Y0022200D01*
X0064700Y0063411D01*
X0064700Y0131728D01*
X0066142Y0133531D01*
X0113144Y0180532D01*
X0113946Y0180200D01*
X0116054Y0180200D01*
X0118002Y0181007D01*
X0119493Y0182498D01*
X0119793Y0183222D01*
X0120032Y0182644D01*
X0074015Y0136626D01*
X0071703Y0134700D01*
X0071589Y0134700D01*
X0071015Y0134126D01*
X0070392Y0133607D01*
X0070381Y0133492D01*
X0070300Y0133411D01*
X0070300Y0132600D01*
X0070227Y0131792D01*
X0070300Y0131704D01*
X0070300Y0061589D01*
X0071589Y0060300D01*
X0102800Y0029089D01*
X0102800Y0029089D01*
X0104089Y0027800D01*
X0133411Y0027800D01*
X0140911Y0035300D01*
X0142200Y0036589D01*
X0142200Y0048818D01*
X0142365Y0048886D01*
X0143539Y0050060D01*
X0144175Y0051595D01*
X0144175Y0058405D01*
X0143539Y0059940D01*
X0142365Y0061114D01*
X0140830Y0061750D01*
X0139170Y0061750D01*
X0137635Y0061114D01*
X0136461Y0059940D01*
X0135825Y0058405D01*
X0135825Y0051595D01*
X0136461Y0050060D01*
X0137635Y0048886D01*
X0137800Y0048818D01*
X0137800Y0038411D01*
X0131589Y0032200D01*
X0105911Y0032200D01*
X0074700Y0063411D01*
X0074700Y0131470D01*
X0076297Y0132800D01*
X0076411Y0132800D01*
X0076985Y0133374D01*
X0077608Y0133893D01*
X0077619Y0134008D01*
X0123144Y0179532D01*
X0123946Y0179200D01*
X0125520Y0179200D01*
X0085616Y0141196D01*
X0085585Y0141196D01*
X0084959Y0140571D01*
X0084319Y0139961D01*
X0084318Y0139929D01*
X0081589Y0137200D01*
X0080300Y0135911D01*
X0080300Y0061589D01*
X0105300Y0036589D01*
X0106589Y0035300D01*
X0123411Y0035300D01*
X0130911Y0042800D01*
X0132200Y0044089D01*
X0132200Y0048818D01*
X0132365Y0048886D01*
X0133539Y0050060D01*
X0134175Y0051595D01*
X0134175Y0058405D01*
X0133539Y0059940D01*
X0132365Y0061114D01*
X0130830Y0061750D01*
X0129170Y0061750D01*
X0127635Y0061114D01*
X0126461Y0059940D01*
X0125825Y0058405D01*
X0125825Y0051595D01*
X0126461Y0050060D01*
X0127635Y0048886D01*
X0127800Y0048818D01*
X0127800Y0045911D01*
X0121589Y0039700D01*
X0108411Y0039700D01*
X0099861Y0048250D01*
X0100830Y0048250D01*
X0102365Y0048886D01*
X0103539Y0050060D01*
X0104175Y0051595D01*
X0104175Y0058405D01*
X0103539Y0059940D01*
X0102365Y0061114D01*
X0100830Y0061750D01*
X0099170Y0061750D01*
X0097635Y0061114D01*
X0097316Y0060795D01*
X0092200Y0065911D01*
X0092200Y0129027D01*
X0096351Y0132800D01*
X0096411Y0132800D01*
X0097019Y0133407D01*
X0097654Y0133985D01*
X0097657Y0134046D01*
X0143144Y0179532D01*
X0143946Y0179200D01*
X0145589Y0179200D01*
X0097800Y0131411D01*
X0097800Y0121182D01*
X0097635Y0121114D01*
X0096461Y0119940D01*
X0095825Y0118405D01*
X0095825Y0111595D01*
X0096461Y0110060D01*
X0097635Y0108886D01*
X0096278Y0110502D02*
X0092200Y0110502D01*
X0092200Y0112100D02*
X0095825Y0112100D01*
X0095825Y0113699D02*
X0092200Y0113699D01*
X0092200Y0115297D02*
X0095825Y0115297D01*
X0095825Y0116896D02*
X0092200Y0116896D01*
X0092200Y0118494D02*
X0095862Y0118494D01*
X0096614Y0120093D02*
X0092200Y0120093D01*
X0092200Y0121691D02*
X0097800Y0121691D01*
X0097800Y0123290D02*
X0092200Y0123290D01*
X0092200Y0124888D02*
X0097800Y0124888D01*
X0097800Y0126487D02*
X0092200Y0126487D01*
X0092200Y0128085D02*
X0097800Y0128085D01*
X0097800Y0129684D02*
X0092923Y0129684D01*
X0094681Y0131282D02*
X0097800Y0131282D01*
X0096492Y0132881D02*
X0099270Y0132881D01*
X0098091Y0134479D02*
X0100868Y0134479D01*
X0099689Y0136078D02*
X0102467Y0136078D01*
X0101288Y0137676D02*
X0104065Y0137676D01*
X0102886Y0139275D02*
X0105664Y0139275D01*
X0104485Y0140873D02*
X0107262Y0140873D01*
X0106083Y0142472D02*
X0108861Y0142472D01*
X0107682Y0144070D02*
X0110459Y0144070D01*
X0109280Y0145669D02*
X0112058Y0145669D01*
X0110879Y0147268D02*
X0113656Y0147268D01*
X0112477Y0148866D02*
X0115255Y0148866D01*
X0114076Y0150465D02*
X0116853Y0150465D01*
X0115674Y0152063D02*
X0118452Y0152063D01*
X0117273Y0153662D02*
X0120050Y0153662D01*
X0118871Y0155260D02*
X0121649Y0155260D01*
X0120470Y0156859D02*
X0123247Y0156859D01*
X0122068Y0158457D02*
X0124846Y0158457D01*
X0123667Y0160056D02*
X0126444Y0160056D01*
X0125265Y0161654D02*
X0128043Y0161654D01*
X0126864Y0163253D02*
X0129641Y0163253D01*
X0128462Y0164851D02*
X0131240Y0164851D01*
X0130061Y0166450D02*
X0132838Y0166450D01*
X0131659Y0168048D02*
X0134437Y0168048D01*
X0133258Y0169647D02*
X0136035Y0169647D01*
X0134856Y0171245D02*
X0137634Y0171245D01*
X0136455Y0172844D02*
X0139232Y0172844D01*
X0138053Y0174442D02*
X0140831Y0174442D01*
X0139652Y0176041D02*
X0142429Y0176041D01*
X0141250Y0177639D02*
X0144028Y0177639D01*
X0143855Y0179238D02*
X0142849Y0179238D01*
X0147053Y0174442D02*
X0151831Y0174442D01*
X0150232Y0172844D02*
X0145455Y0172844D01*
X0143856Y0171245D02*
X0148634Y0171245D01*
X0147035Y0169647D02*
X0142258Y0169647D01*
X0140659Y0168048D02*
X0145437Y0168048D01*
X0143838Y0166450D02*
X0139061Y0166450D01*
X0137462Y0164851D02*
X0142240Y0164851D01*
X0140641Y0163253D02*
X0135864Y0163253D01*
X0134265Y0161654D02*
X0139043Y0161654D01*
X0137444Y0160056D02*
X0132667Y0160056D01*
X0131068Y0158457D02*
X0135846Y0158457D01*
X0134247Y0156859D02*
X0129470Y0156859D01*
X0127871Y0155260D02*
X0132649Y0155260D01*
X0131050Y0153662D02*
X0126273Y0153662D01*
X0124674Y0152063D02*
X0129452Y0152063D01*
X0127853Y0150465D02*
X0123076Y0150465D01*
X0121477Y0148866D02*
X0126255Y0148866D01*
X0124656Y0147268D02*
X0119879Y0147268D01*
X0118280Y0145669D02*
X0123058Y0145669D01*
X0121459Y0144070D02*
X0116682Y0144070D01*
X0115083Y0142472D02*
X0119861Y0142472D01*
X0118262Y0140873D02*
X0113485Y0140873D01*
X0111886Y0139275D02*
X0116664Y0139275D01*
X0115065Y0137676D02*
X0110288Y0137676D01*
X0108689Y0136078D02*
X0113467Y0136078D01*
X0111868Y0134479D02*
X0107091Y0134479D01*
X0105492Y0132881D02*
X0110270Y0132881D01*
X0108171Y0131282D02*
X0103894Y0131282D01*
X0102295Y0129684D02*
X0107800Y0129684D01*
X0107800Y0128085D02*
X0102200Y0128085D01*
X0102200Y0126487D02*
X0107800Y0126487D01*
X0107800Y0124888D02*
X0102200Y0124888D01*
X0102200Y0123290D02*
X0107800Y0123290D01*
X0107800Y0121691D02*
X0102200Y0121691D01*
X0103386Y0120093D02*
X0106614Y0120093D01*
X0105862Y0118494D02*
X0104138Y0118494D01*
X0104175Y0116896D02*
X0105825Y0116896D01*
X0105825Y0115297D02*
X0104175Y0115297D01*
X0104175Y0113699D02*
X0105825Y0113699D01*
X0105825Y0112100D02*
X0104175Y0112100D01*
X0103722Y0110502D02*
X0106278Y0110502D01*
X0107618Y0108903D02*
X0102382Y0108903D01*
X0112382Y0108903D02*
X0117618Y0108903D01*
X0116278Y0110502D02*
X0113722Y0110502D01*
X0114175Y0112100D02*
X0115825Y0112100D01*
X0115825Y0113699D02*
X0114175Y0113699D01*
X0114175Y0115297D02*
X0115825Y0115297D01*
X0115825Y0116896D02*
X0114175Y0116896D01*
X0114138Y0118494D02*
X0115862Y0118494D01*
X0116614Y0120093D02*
X0113386Y0120093D01*
X0112200Y0121691D02*
X0117800Y0121691D01*
X0117800Y0123290D02*
X0112200Y0123290D01*
X0112200Y0124888D02*
X0117800Y0124888D01*
X0117800Y0126487D02*
X0112200Y0126487D01*
X0112200Y0128085D02*
X0117800Y0128085D01*
X0117800Y0129684D02*
X0113295Y0129684D01*
X0114894Y0131282D02*
X0118171Y0131282D01*
X0119770Y0132881D02*
X0116492Y0132881D01*
X0118091Y0134479D02*
X0121368Y0134479D01*
X0122967Y0136078D02*
X0119689Y0136078D01*
X0121288Y0137676D02*
X0124565Y0137676D01*
X0126164Y0139275D02*
X0122886Y0139275D01*
X0124485Y0140873D02*
X0127762Y0140873D01*
X0129361Y0142472D02*
X0126083Y0142472D01*
X0127682Y0144070D02*
X0130959Y0144070D01*
X0132558Y0145669D02*
X0129280Y0145669D01*
X0130879Y0147268D02*
X0134156Y0147268D01*
X0135755Y0148866D02*
X0132477Y0148866D01*
X0134076Y0150465D02*
X0137353Y0150465D01*
X0138952Y0152063D02*
X0135674Y0152063D01*
X0137273Y0153662D02*
X0140550Y0153662D01*
X0142149Y0155260D02*
X0138871Y0155260D01*
X0140470Y0156859D02*
X0143747Y0156859D01*
X0145346Y0158457D02*
X0142068Y0158457D01*
X0143667Y0160056D02*
X0146944Y0160056D01*
X0148543Y0161654D02*
X0145265Y0161654D01*
X0146864Y0163253D02*
X0150141Y0163253D01*
X0151740Y0164851D02*
X0148462Y0164851D01*
X0150061Y0166450D02*
X0153338Y0166450D01*
X0154937Y0168048D02*
X0151659Y0168048D01*
X0153258Y0169647D02*
X0156535Y0169647D01*
X0158134Y0171245D02*
X0154856Y0171245D01*
X0156455Y0172844D02*
X0169732Y0172844D01*
X0171331Y0174442D02*
X0158053Y0174442D01*
X0159652Y0176041D02*
X0172800Y0176041D01*
X0172800Y0177639D02*
X0161250Y0177639D01*
X0162849Y0179238D02*
X0163855Y0179238D01*
X0166145Y0179238D02*
X0172800Y0179238D01*
X0172410Y0180836D02*
X0168832Y0180836D01*
X0169881Y0182435D02*
X0170570Y0182435D01*
X0177590Y0180836D02*
X0181168Y0180836D01*
X0180119Y0182435D02*
X0179430Y0182435D01*
X0177200Y0179238D02*
X0183855Y0179238D01*
X0186145Y0179238D02*
X0227800Y0179238D01*
X0227800Y0177639D02*
X0177200Y0177639D01*
X0177200Y0176041D02*
X0227800Y0176041D01*
X0227800Y0174442D02*
X0177200Y0174442D01*
X0175955Y0172844D02*
X0227800Y0172844D01*
X0227800Y0171245D02*
X0174356Y0171245D01*
X0172758Y0169647D02*
X0226535Y0169647D01*
X0224937Y0168048D02*
X0171159Y0168048D01*
X0159561Y0166450D02*
X0223338Y0166450D01*
X0221740Y0164851D02*
X0157962Y0164851D01*
X0156364Y0163253D02*
X0220141Y0163253D01*
X0223167Y0160056D02*
X0226944Y0160056D01*
X0228543Y0161654D02*
X0224765Y0161654D01*
X0226364Y0163253D02*
X0230141Y0163253D01*
X0231740Y0164851D02*
X0227962Y0164851D01*
X0229561Y0166450D02*
X0233338Y0166450D01*
X0234937Y0168048D02*
X0231159Y0168048D01*
X0232200Y0169647D02*
X0236535Y0169647D01*
X0237800Y0171245D02*
X0232200Y0171245D01*
X0232200Y0172844D02*
X0237800Y0172844D01*
X0237800Y0174442D02*
X0232200Y0174442D01*
X0232200Y0176041D02*
X0237800Y0176041D01*
X0237800Y0177639D02*
X0232200Y0177639D01*
X0232200Y0179238D02*
X0237800Y0179238D01*
X0237410Y0180836D02*
X0233832Y0180836D01*
X0234881Y0182435D02*
X0235570Y0182435D01*
X0242590Y0180836D02*
X0246168Y0180836D01*
X0245119Y0182435D02*
X0244430Y0182435D01*
X0242200Y0179238D02*
X0247800Y0179238D01*
X0247800Y0177639D02*
X0242200Y0177639D01*
X0242200Y0176041D02*
X0247800Y0176041D01*
X0247800Y0174442D02*
X0242200Y0174442D01*
X0242200Y0172844D02*
X0247800Y0172844D01*
X0247743Y0171245D02*
X0242200Y0171245D01*
X0242200Y0169647D02*
X0246535Y0169647D01*
X0244937Y0168048D02*
X0241159Y0168048D01*
X0239561Y0166450D02*
X0243338Y0166450D01*
X0241740Y0164851D02*
X0237962Y0164851D01*
X0236364Y0163253D02*
X0240141Y0163253D01*
X0238543Y0161654D02*
X0234765Y0161654D01*
X0233167Y0160056D02*
X0236944Y0160056D01*
X0235346Y0158457D02*
X0231568Y0158457D01*
X0229970Y0156859D02*
X0233747Y0156859D01*
X0232149Y0155260D02*
X0228371Y0155260D01*
X0226773Y0153662D02*
X0230550Y0153662D01*
X0225346Y0158457D02*
X0221568Y0158457D01*
X0219800Y0180000D02*
X0219800Y0185300D01*
X0214500Y0185300D01*
X0214500Y0185067D01*
X0214635Y0184212D01*
X0214903Y0183389D01*
X0215296Y0182617D01*
X0215805Y0181917D01*
X0216417Y0181305D01*
X0217117Y0180796D01*
X0217889Y0180403D01*
X0218712Y0180135D01*
X0219567Y0180000D01*
X0219800Y0180000D01*
X0219800Y0180836D02*
X0220200Y0180836D01*
X0220200Y0182435D02*
X0219800Y0182435D01*
X0219800Y0184033D02*
X0220200Y0184033D01*
X0219800Y0185632D02*
X0190268Y0185632D01*
X0190300Y0184033D02*
X0214694Y0184033D01*
X0215429Y0182435D02*
X0189881Y0182435D01*
X0188832Y0180836D02*
X0217062Y0180836D01*
X0222938Y0180836D02*
X0226168Y0180836D01*
X0225119Y0182435D02*
X0224571Y0182435D01*
X0225221Y0187230D02*
X0225394Y0187230D01*
X0224380Y0188829D02*
X0226833Y0188829D01*
X0227800Y0190427D02*
X0222444Y0190427D01*
X0220200Y0190427D02*
X0219800Y0190427D01*
X0219800Y0188829D02*
X0220200Y0188829D01*
X0220200Y0187230D02*
X0219800Y0187230D01*
X0217556Y0190427D02*
X0177200Y0190427D01*
X0177200Y0192026D02*
X0227363Y0192026D01*
X0225764Y0193624D02*
X0177200Y0193624D01*
X0177200Y0195223D02*
X0224166Y0195223D01*
X0222567Y0196821D02*
X0176290Y0196821D01*
X0174691Y0198420D02*
X0220969Y0198420D01*
X0219370Y0200018D02*
X0173093Y0200018D01*
X0171494Y0201617D02*
X0217800Y0201617D01*
X0217800Y0203215D02*
X0159896Y0203215D01*
X0158297Y0204814D02*
X0217800Y0204814D01*
X0217800Y0206412D02*
X0157200Y0206412D01*
X0157200Y0208011D02*
X0217800Y0208011D01*
X0216895Y0209609D02*
X0211124Y0209609D01*
X0210200Y0209609D02*
X0209800Y0209609D01*
X0209800Y0209500D02*
X0209800Y0214800D01*
X0204500Y0214800D01*
X0204500Y0214567D01*
X0204635Y0213712D01*
X0204903Y0212889D01*
X0205296Y0212117D01*
X0205805Y0211417D01*
X0206417Y0210805D01*
X0207117Y0210296D01*
X0207889Y0209903D01*
X0208712Y0209635D01*
X0209567Y0209500D01*
X0209800Y0209500D01*
X0208876Y0209609D02*
X0168105Y0209609D01*
X0169580Y0211208D02*
X0206014Y0211208D01*
X0204945Y0212806D02*
X0170242Y0212806D01*
X0170300Y0214405D02*
X0204526Y0214405D01*
X0204590Y0216003D02*
X0169907Y0216003D01*
X0168893Y0217602D02*
X0205153Y0217602D01*
X0206424Y0219201D02*
X0166294Y0219201D01*
X0163706Y0219201D02*
X0158295Y0219201D01*
X0158910Y0220799D02*
X0216090Y0220799D01*
X0217688Y0219201D02*
X0213576Y0219201D01*
X0214847Y0217602D02*
X0216107Y0217602D01*
X0214491Y0222398D02*
X0160509Y0222398D01*
X0157483Y0225595D02*
X0142517Y0225595D01*
X0140918Y0227193D02*
X0159082Y0227193D01*
X0157800Y0225911D02*
X0157800Y0225911D01*
X0155885Y0223996D02*
X0144115Y0223996D01*
X0145714Y0222398D02*
X0154286Y0222398D01*
X0152800Y0220799D02*
X0147200Y0220799D01*
X0147200Y0219201D02*
X0151705Y0219201D01*
X0150341Y0217602D02*
X0148893Y0217602D01*
X0142688Y0219201D02*
X0138295Y0219201D01*
X0139659Y0217602D02*
X0141107Y0217602D01*
X0141090Y0220799D02*
X0132312Y0220799D01*
X0130714Y0222398D02*
X0139491Y0222398D01*
X0137893Y0223996D02*
X0129115Y0223996D01*
X0127517Y0225595D02*
X0136294Y0225595D01*
X0134696Y0227193D02*
X0125918Y0227193D01*
X0128385Y0230390D02*
X0132800Y0230390D01*
X0133097Y0228792D02*
X0102200Y0228792D01*
X0102200Y0230390D02*
X0110164Y0230390D01*
X0110195Y0230360D02*
X0110605Y0230123D01*
X0111063Y0230000D01*
X0114800Y0230000D01*
X0114800Y0235300D01*
X0109500Y0235300D01*
X0109500Y0231563D01*
X0109623Y0231105D01*
X0109860Y0230695D01*
X0110195Y0230360D01*
X0109500Y0231989D02*
X0103984Y0231989D01*
X0104944Y0233587D02*
X0109500Y0233587D01*
X0109500Y0235186D02*
X0105300Y0235186D01*
X0105205Y0236784D02*
X0109500Y0236784D01*
X0109500Y0238383D02*
X0104543Y0238383D01*
X0103014Y0239981D02*
X0109673Y0239981D01*
X0114800Y0239981D02*
X0115200Y0239981D01*
X0115200Y0238383D02*
X0114800Y0238383D01*
X0114800Y0236784D02*
X0115200Y0236784D01*
X0115200Y0235186D02*
X0114800Y0235186D01*
X0114800Y0233587D02*
X0115200Y0233587D01*
X0115200Y0231989D02*
X0114800Y0231989D01*
X0114800Y0230390D02*
X0115200Y0230390D01*
X0119836Y0230390D02*
X0121615Y0230390D01*
X0129696Y0231989D02*
X0131016Y0231989D01*
X0129795Y0236784D02*
X0129791Y0236784D01*
X0130457Y0238383D02*
X0128613Y0238383D01*
X0131986Y0239981D02*
X0120327Y0239981D01*
X0120500Y0238383D02*
X0121387Y0238383D01*
X0138014Y0239981D02*
X0144673Y0239981D01*
X0144500Y0238383D02*
X0139543Y0238383D01*
X0140205Y0236784D02*
X0144500Y0236784D01*
X0144500Y0235300D02*
X0144500Y0231563D01*
X0144623Y0231105D01*
X0144860Y0230695D01*
X0145195Y0230360D01*
X0145605Y0230123D01*
X0146063Y0230000D01*
X0149800Y0230000D01*
X0149800Y0235300D01*
X0144500Y0235300D01*
X0144500Y0235186D02*
X0140300Y0235186D01*
X0139944Y0233587D02*
X0144500Y0233587D01*
X0144500Y0231989D02*
X0138984Y0231989D01*
X0137721Y0230390D02*
X0145164Y0230390D01*
X0149800Y0230390D02*
X0150200Y0230390D01*
X0150200Y0231989D02*
X0149800Y0231989D01*
X0149800Y0233587D02*
X0150200Y0233587D01*
X0150200Y0235186D02*
X0149800Y0235186D01*
X0149800Y0236784D02*
X0150200Y0236784D01*
X0150200Y0238383D02*
X0149800Y0238383D01*
X0149800Y0239981D02*
X0150200Y0239981D01*
X0155327Y0239981D02*
X0166986Y0239981D01*
X0165457Y0238383D02*
X0163613Y0238383D01*
X0164791Y0236784D02*
X0164795Y0236784D01*
X0164696Y0231989D02*
X0166016Y0231989D01*
X0167279Y0230390D02*
X0163385Y0230390D01*
X0165680Y0228792D02*
X0139320Y0228792D01*
X0154836Y0230390D02*
X0156615Y0230390D01*
X0156387Y0238383D02*
X0155500Y0238383D01*
X0173014Y0239981D02*
X0189673Y0239981D01*
X0189500Y0238383D02*
X0174543Y0238383D01*
X0175205Y0236784D02*
X0189500Y0236784D01*
X0189500Y0235300D02*
X0189500Y0231563D01*
X0189623Y0231105D01*
X0189860Y0230695D01*
X0190195Y0230360D01*
X0190605Y0230123D01*
X0191063Y0230000D01*
X0194800Y0230000D01*
X0194800Y0235300D01*
X0189500Y0235300D01*
X0189500Y0235186D02*
X0175300Y0235186D01*
X0174944Y0233587D02*
X0189500Y0233587D01*
X0189500Y0231989D02*
X0173984Y0231989D01*
X0172200Y0230390D02*
X0190164Y0230390D01*
X0194800Y0230390D02*
X0195200Y0230390D01*
X0195200Y0231989D02*
X0194800Y0231989D01*
X0194800Y0233587D02*
X0195200Y0233587D01*
X0195200Y0235186D02*
X0194800Y0235186D01*
X0194800Y0236784D02*
X0195200Y0236784D01*
X0195200Y0238383D02*
X0194800Y0238383D01*
X0194800Y0239981D02*
X0195200Y0239981D01*
X0200327Y0239981D02*
X0211986Y0239981D01*
X0210457Y0238383D02*
X0208613Y0238383D01*
X0209791Y0236784D02*
X0209795Y0236784D01*
X0201387Y0238383D02*
X0200500Y0238383D01*
X0199836Y0230390D02*
X0201615Y0230390D01*
X0208097Y0228792D02*
X0171903Y0228792D01*
X0170304Y0227193D02*
X0209696Y0227193D01*
X0211294Y0225595D02*
X0168706Y0225595D01*
X0167107Y0223996D02*
X0212893Y0223996D01*
X0210200Y0219201D02*
X0209800Y0219201D01*
X0209800Y0217602D02*
X0210200Y0217602D01*
X0210200Y0216003D02*
X0209800Y0216003D01*
X0209800Y0214405D02*
X0210200Y0214405D01*
X0210200Y0212806D02*
X0209800Y0212806D01*
X0209800Y0211208D02*
X0210200Y0211208D01*
X0213986Y0211208D02*
X0215420Y0211208D01*
X0230714Y0222398D02*
X0239286Y0222398D01*
X0237800Y0220799D02*
X0232200Y0220799D01*
X0233295Y0219201D02*
X0237800Y0219201D01*
X0236107Y0217602D02*
X0234659Y0217602D01*
X0229115Y0223996D02*
X0240885Y0223996D01*
X0242483Y0225595D02*
X0227517Y0225595D01*
X0225918Y0227193D02*
X0244082Y0227193D01*
X0244800Y0230000D02*
X0241063Y0230000D01*
X0240605Y0230123D01*
X0240195Y0230360D01*
X0239860Y0230695D01*
X0239623Y0231105D01*
X0239500Y0231563D01*
X0239500Y0235300D01*
X0244800Y0235300D01*
X0244800Y0230000D01*
X0244800Y0230390D02*
X0245200Y0230390D01*
X0245200Y0231989D02*
X0244800Y0231989D01*
X0244800Y0233587D02*
X0245200Y0233587D01*
X0245200Y0235186D02*
X0244800Y0235186D01*
X0244800Y0236784D02*
X0245200Y0236784D01*
X0245200Y0238383D02*
X0244800Y0238383D01*
X0244800Y0239981D02*
X0245200Y0239981D01*
X0239673Y0239981D02*
X0218014Y0239981D01*
X0219543Y0238383D02*
X0221387Y0238383D01*
X0220209Y0236784D02*
X0220205Y0236784D01*
X0228613Y0238383D02*
X0239500Y0238383D01*
X0239500Y0236784D02*
X0229791Y0236784D01*
X0230300Y0235186D02*
X0239500Y0235186D01*
X0239500Y0233587D02*
X0230300Y0233587D01*
X0229696Y0231989D02*
X0239500Y0231989D01*
X0240164Y0230390D02*
X0228385Y0230390D01*
X0224320Y0228792D02*
X0250680Y0228792D01*
X0249836Y0230390D02*
X0251615Y0230390D01*
X0259791Y0236784D02*
X0259795Y0236784D01*
X0260457Y0238383D02*
X0258613Y0238383D01*
X0261986Y0239981D02*
X0250327Y0239981D01*
X0250500Y0238383D02*
X0251387Y0238383D01*
X0268014Y0239981D02*
X0289673Y0239981D01*
X0289500Y0238383D02*
X0278613Y0238383D01*
X0279791Y0236784D02*
X0289500Y0236784D01*
X0289500Y0235300D02*
X0289500Y0231563D01*
X0289623Y0231105D01*
X0289860Y0230695D01*
X0290195Y0230360D01*
X0290605Y0230123D01*
X0291063Y0230000D01*
X0294800Y0230000D01*
X0294800Y0235300D01*
X0289500Y0235300D01*
X0289500Y0235186D02*
X0280300Y0235186D01*
X0280300Y0233587D02*
X0289500Y0233587D01*
X0289500Y0231989D02*
X0279696Y0231989D01*
X0278385Y0230390D02*
X0290164Y0230390D01*
X0294800Y0230390D02*
X0295200Y0230390D01*
X0295200Y0231989D02*
X0294800Y0231989D01*
X0294800Y0233587D02*
X0295200Y0233587D01*
X0295200Y0235186D02*
X0294800Y0235186D01*
X0294800Y0236784D02*
X0295200Y0236784D01*
X0295200Y0238383D02*
X0294800Y0238383D01*
X0294800Y0239981D02*
X0295200Y0239981D01*
X0300327Y0239981D02*
X0311986Y0239981D01*
X0310457Y0238383D02*
X0308613Y0238383D01*
X0309791Y0236784D02*
X0309795Y0236784D01*
X0301387Y0238383D02*
X0300500Y0238383D01*
X0295680Y0228792D02*
X0267200Y0228792D01*
X0267200Y0230390D02*
X0271615Y0230390D01*
X0270304Y0231989D02*
X0268984Y0231989D01*
X0267200Y0227193D02*
X0294082Y0227193D01*
X0292800Y0225595D02*
X0267200Y0225595D01*
X0267107Y0223996D02*
X0292800Y0223996D01*
X0292800Y0222398D02*
X0265509Y0222398D01*
X0263910Y0220799D02*
X0292800Y0220799D01*
X0292800Y0219201D02*
X0288576Y0219201D01*
X0289847Y0217602D02*
X0291107Y0217602D01*
X0285200Y0217602D02*
X0284800Y0217602D01*
X0284800Y0219201D02*
X0285200Y0219201D01*
X0285200Y0216003D02*
X0284800Y0216003D01*
X0284800Y0214800D02*
X0279500Y0214800D01*
X0279500Y0214567D01*
X0279635Y0213712D01*
X0279903Y0212889D01*
X0280296Y0212117D01*
X0280805Y0211417D01*
X0281417Y0210805D01*
X0282117Y0210296D01*
X0282889Y0209903D01*
X0283712Y0209635D01*
X0284567Y0209500D01*
X0284800Y0209500D01*
X0284800Y0214800D01*
X0284800Y0214405D02*
X0285200Y0214405D01*
X0285200Y0212806D02*
X0284800Y0212806D01*
X0284800Y0211208D02*
X0285200Y0211208D01*
X0285200Y0209609D02*
X0284800Y0209609D01*
X0283876Y0209609D02*
X0263105Y0209609D01*
X0264580Y0211208D02*
X0281014Y0211208D01*
X0279945Y0212806D02*
X0265242Y0212806D01*
X0265300Y0214405D02*
X0279526Y0214405D01*
X0279590Y0216003D02*
X0264907Y0216003D01*
X0263893Y0217602D02*
X0280153Y0217602D01*
X0281424Y0219201D02*
X0261294Y0219201D01*
X0258706Y0219201D02*
X0253295Y0219201D01*
X0254659Y0217602D02*
X0256107Y0217602D01*
X0255420Y0211208D02*
X0253703Y0211208D01*
X0252330Y0209609D02*
X0256895Y0209609D01*
X0252368Y0208011D02*
X0284900Y0208011D01*
X0286124Y0209609D02*
X0286498Y0209609D01*
X0283301Y0206412D02*
X0252407Y0206412D01*
X0253297Y0204814D02*
X0281703Y0204814D01*
X0280104Y0203215D02*
X0254896Y0203215D01*
X0256494Y0201617D02*
X0278506Y0201617D01*
X0276907Y0200018D02*
X0258093Y0200018D01*
X0259691Y0198420D02*
X0275309Y0198420D01*
X0273710Y0196821D02*
X0261290Y0196821D01*
X0260911Y0197200D02*
X0260911Y0197200D01*
X0262200Y0195223D02*
X0272112Y0195223D01*
X0270513Y0193624D02*
X0262200Y0193624D01*
X0262200Y0192026D02*
X0268915Y0192026D01*
X0267800Y0190427D02*
X0262200Y0190427D01*
X0264167Y0188829D02*
X0266833Y0188829D01*
X0265394Y0187230D02*
X0265020Y0187230D01*
X0293832Y0180836D02*
X0297410Y0180836D01*
X0295570Y0182435D02*
X0294881Y0182435D01*
X0299561Y0166450D02*
X0393200Y0166450D01*
X0393200Y0164851D02*
X0297962Y0164851D01*
X0296364Y0163253D02*
X0393200Y0163253D01*
X0393200Y0161654D02*
X0294765Y0161654D01*
X0293167Y0160056D02*
X0393200Y0160056D01*
X0393200Y0158457D02*
X0291568Y0158457D01*
X0289970Y0156859D02*
X0393200Y0156859D01*
X0393200Y0155260D02*
X0288371Y0155260D01*
X0286773Y0153662D02*
X0393200Y0153662D01*
X0393200Y0152063D02*
X0285174Y0152063D01*
X0283576Y0150465D02*
X0393200Y0150465D01*
X0393200Y0148866D02*
X0281977Y0148866D01*
X0280379Y0147268D02*
X0393200Y0147268D01*
X0393200Y0145669D02*
X0278780Y0145669D01*
X0277182Y0144070D02*
X0393200Y0144070D01*
X0393200Y0142472D02*
X0275583Y0142472D01*
X0250300Y0120093D02*
X0243386Y0120093D01*
X0244138Y0118494D02*
X0250300Y0118494D01*
X0250300Y0116896D02*
X0244175Y0116896D01*
X0244175Y0115297D02*
X0250300Y0115297D01*
X0250300Y0113699D02*
X0244175Y0113699D01*
X0244175Y0112100D02*
X0250300Y0112100D01*
X0250300Y0110502D02*
X0243722Y0110502D01*
X0242382Y0108903D02*
X0250300Y0108903D01*
X0250300Y0107305D02*
X0202200Y0107305D01*
X0202200Y0105706D02*
X0250300Y0105706D01*
X0250300Y0104108D02*
X0202200Y0104108D01*
X0203102Y0102509D02*
X0249398Y0102509D01*
X0237618Y0108903D02*
X0232382Y0108903D01*
X0233722Y0110502D02*
X0236278Y0110502D01*
X0235825Y0112100D02*
X0234175Y0112100D01*
X0234175Y0113699D02*
X0235825Y0113699D01*
X0235825Y0115297D02*
X0234175Y0115297D01*
X0234175Y0116896D02*
X0235825Y0116896D01*
X0235862Y0118494D02*
X0234138Y0118494D01*
X0233386Y0120093D02*
X0236614Y0120093D01*
X0226614Y0120093D02*
X0223386Y0120093D01*
X0224138Y0118494D02*
X0225862Y0118494D01*
X0225825Y0116896D02*
X0224175Y0116896D01*
X0224175Y0115297D02*
X0225825Y0115297D01*
X0225825Y0113699D02*
X0224175Y0113699D01*
X0224175Y0112100D02*
X0225825Y0112100D01*
X0226278Y0110502D02*
X0223722Y0110502D01*
X0222382Y0108903D02*
X0227618Y0108903D01*
X0217618Y0108903D02*
X0212382Y0108903D01*
X0213722Y0110502D02*
X0216278Y0110502D01*
X0215825Y0112100D02*
X0214175Y0112100D01*
X0214175Y0113699D02*
X0215825Y0113699D01*
X0215825Y0115297D02*
X0214175Y0115297D01*
X0214175Y0116896D02*
X0215825Y0116896D01*
X0215862Y0118494D02*
X0214138Y0118494D01*
X0213386Y0120093D02*
X0216614Y0120093D01*
X0206614Y0120093D02*
X0203386Y0120093D01*
X0204138Y0118494D02*
X0205862Y0118494D01*
X0205825Y0116896D02*
X0204175Y0116896D01*
X0204175Y0115297D02*
X0205825Y0115297D01*
X0205825Y0113699D02*
X0204175Y0113699D01*
X0204175Y0112100D02*
X0205825Y0112100D01*
X0206278Y0110502D02*
X0203722Y0110502D01*
X0202382Y0108903D02*
X0207618Y0108903D01*
X0155755Y0148866D02*
X0151977Y0148866D01*
X0150379Y0147268D02*
X0154156Y0147268D01*
X0152558Y0145669D02*
X0148780Y0145669D01*
X0147182Y0144070D02*
X0150959Y0144070D01*
X0149361Y0142472D02*
X0145583Y0142472D01*
X0143985Y0140873D02*
X0147762Y0140873D01*
X0146164Y0139275D02*
X0142386Y0139275D01*
X0140788Y0137676D02*
X0144565Y0137676D01*
X0142967Y0136078D02*
X0139189Y0136078D01*
X0137591Y0134479D02*
X0141368Y0134479D01*
X0139770Y0132881D02*
X0135992Y0132881D01*
X0134394Y0131282D02*
X0138171Y0131282D01*
X0137800Y0129684D02*
X0132795Y0129684D01*
X0132200Y0128085D02*
X0137800Y0128085D01*
X0137800Y0126487D02*
X0132200Y0126487D01*
X0132200Y0124888D02*
X0137800Y0124888D01*
X0137800Y0123290D02*
X0132200Y0123290D01*
X0132200Y0121691D02*
X0137800Y0121691D01*
X0136614Y0120093D02*
X0133386Y0120093D01*
X0134138Y0118494D02*
X0135862Y0118494D01*
X0135825Y0116896D02*
X0134175Y0116896D01*
X0134175Y0115297D02*
X0135825Y0115297D01*
X0135825Y0113699D02*
X0134175Y0113699D01*
X0134175Y0112100D02*
X0135825Y0112100D01*
X0136278Y0110502D02*
X0133722Y0110502D01*
X0132382Y0108903D02*
X0137618Y0108903D01*
X0127618Y0108903D02*
X0122382Y0108903D01*
X0123722Y0110502D02*
X0126278Y0110502D01*
X0125825Y0112100D02*
X0124175Y0112100D01*
X0124175Y0113699D02*
X0125825Y0113699D01*
X0125825Y0115297D02*
X0124175Y0115297D01*
X0124175Y0116896D02*
X0125825Y0116896D01*
X0125862Y0118494D02*
X0124138Y0118494D01*
X0123386Y0120093D02*
X0126614Y0120093D01*
X0127800Y0121691D02*
X0122200Y0121691D01*
X0122200Y0123290D02*
X0127800Y0123290D01*
X0127800Y0124888D02*
X0122200Y0124888D01*
X0122200Y0126487D02*
X0127800Y0126487D01*
X0127800Y0128085D02*
X0122200Y0128085D01*
X0122795Y0129684D02*
X0127800Y0129684D01*
X0128171Y0131282D02*
X0124394Y0131282D01*
X0125992Y0132881D02*
X0129770Y0132881D01*
X0131368Y0134479D02*
X0127591Y0134479D01*
X0129189Y0136078D02*
X0132967Y0136078D01*
X0134565Y0137676D02*
X0130788Y0137676D01*
X0132386Y0139275D02*
X0136164Y0139275D01*
X0137762Y0140873D02*
X0133985Y0140873D01*
X0135583Y0142472D02*
X0139361Y0142472D01*
X0140959Y0144070D02*
X0137182Y0144070D01*
X0138780Y0145669D02*
X0142558Y0145669D01*
X0144156Y0147268D02*
X0140379Y0147268D01*
X0141977Y0148866D02*
X0145755Y0148866D01*
X0147353Y0150465D02*
X0143576Y0150465D01*
X0145174Y0152063D02*
X0148952Y0152063D01*
X0150550Y0153662D02*
X0146773Y0153662D01*
X0148371Y0155260D02*
X0152149Y0155260D01*
X0153747Y0156859D02*
X0149970Y0156859D01*
X0151568Y0158457D02*
X0155346Y0158457D01*
X0156944Y0160056D02*
X0153167Y0160056D01*
X0154765Y0161654D02*
X0158543Y0161654D01*
X0159970Y0156859D02*
X0163747Y0156859D01*
X0162149Y0155260D02*
X0158371Y0155260D01*
X0156773Y0153662D02*
X0160550Y0153662D01*
X0158952Y0152063D02*
X0155174Y0152063D01*
X0153576Y0150465D02*
X0157353Y0150465D01*
X0153429Y0176041D02*
X0148652Y0176041D01*
X0150250Y0177639D02*
X0155028Y0177639D01*
X0156626Y0179238D02*
X0151849Y0179238D01*
X0157590Y0180836D02*
X0158225Y0180836D01*
X0159430Y0182435D02*
X0159823Y0182435D01*
X0142800Y0190427D02*
X0136954Y0190427D01*
X0139167Y0188829D02*
X0141833Y0188829D01*
X0140394Y0187230D02*
X0140020Y0187230D01*
X0142800Y0192026D02*
X0131585Y0192026D01*
X0129987Y0193624D02*
X0142800Y0193624D01*
X0141666Y0195223D02*
X0128388Y0195223D01*
X0126790Y0196821D02*
X0140067Y0196821D01*
X0128469Y0198420D02*
X0125191Y0198420D01*
X0123593Y0200018D02*
X0126870Y0200018D01*
X0125272Y0201617D02*
X0121994Y0201617D01*
X0120396Y0203215D02*
X0123673Y0203215D01*
X0122800Y0204814D02*
X0118797Y0204814D01*
X0117199Y0206412D02*
X0122800Y0206412D01*
X0122800Y0208011D02*
X0087600Y0208011D01*
X0087200Y0209609D02*
X0091895Y0209609D01*
X0090420Y0211208D02*
X0088703Y0211208D01*
X0089659Y0217602D02*
X0091107Y0217602D01*
X0093706Y0219201D02*
X0088295Y0219201D01*
X0081705Y0219201D02*
X0076294Y0219201D01*
X0073706Y0219201D02*
X0068295Y0219201D01*
X0069659Y0217602D02*
X0071107Y0217602D01*
X0066090Y0220799D02*
X0009800Y0220799D01*
X0009800Y0219201D02*
X0041424Y0219201D01*
X0040153Y0217602D02*
X0009800Y0217602D01*
X0009800Y0216003D02*
X0039590Y0216003D01*
X0039500Y0214800D02*
X0039500Y0214567D01*
X0039635Y0213712D01*
X0039903Y0212889D01*
X0040296Y0212117D01*
X0040805Y0211417D01*
X0041417Y0210805D01*
X0042117Y0210296D01*
X0042889Y0209903D01*
X0043712Y0209635D01*
X0044567Y0209500D01*
X0044800Y0209500D01*
X0044800Y0214800D01*
X0039500Y0214800D01*
X0039526Y0214405D02*
X0009800Y0214405D01*
X0009800Y0212806D02*
X0039945Y0212806D01*
X0041014Y0211208D02*
X0009800Y0211208D01*
X0009800Y0209609D02*
X0043876Y0209609D01*
X0044800Y0209609D02*
X0045200Y0209609D01*
X0046124Y0209609D02*
X0051895Y0209609D01*
X0052800Y0208011D02*
X0009800Y0208011D01*
X0009800Y0206412D02*
X0052800Y0206412D01*
X0052800Y0204814D02*
X0009800Y0204814D01*
X0009800Y0203215D02*
X0053673Y0203215D01*
X0055272Y0201617D02*
X0009800Y0201617D01*
X0009800Y0200018D02*
X0056870Y0200018D01*
X0058469Y0198420D02*
X0009800Y0198420D01*
X0009800Y0196821D02*
X0060067Y0196821D01*
X0061666Y0195223D02*
X0009800Y0195223D01*
X0009800Y0193624D02*
X0063264Y0193624D01*
X0064863Y0192026D02*
X0009800Y0192026D01*
X0009800Y0190427D02*
X0066461Y0190427D01*
X0068060Y0188829D02*
X0009800Y0188829D01*
X0009800Y0187230D02*
X0069658Y0187230D01*
X0071257Y0185632D02*
X0009800Y0185632D01*
X0009800Y0184033D02*
X0072855Y0184033D01*
X0074454Y0182435D02*
X0009800Y0182435D01*
X0009800Y0180836D02*
X0076052Y0180836D01*
X0077651Y0179238D02*
X0030800Y0179238D01*
X0030800Y0179363D02*
X0029863Y0180300D01*
X0021137Y0180300D01*
X0020200Y0179363D01*
X0020200Y0170637D01*
X0021137Y0169700D01*
X0021997Y0169700D01*
X0021498Y0169493D01*
X0020007Y0168002D01*
X0019200Y0166054D01*
X0019200Y0163946D01*
X0020007Y0161998D01*
X0021498Y0160507D01*
X0023222Y0159793D01*
X0022498Y0159493D01*
X0021007Y0158002D01*
X0020200Y0156054D01*
X0020200Y0153946D01*
X0021007Y0151998D01*
X0022498Y0150507D01*
X0023222Y0150207D01*
X0021498Y0149493D01*
X0020007Y0148002D01*
X0019200Y0146054D01*
X0019200Y0143946D01*
X0020007Y0141998D01*
X0021498Y0140507D01*
X0023222Y0139793D01*
X0022498Y0139493D01*
X0021007Y0138002D01*
X0020200Y0136054D01*
X0020200Y0133946D01*
X0021007Y0131998D01*
X0022498Y0130507D01*
X0023222Y0130207D01*
X0021498Y0129493D01*
X0020007Y0128002D01*
X0019200Y0126054D01*
X0019200Y0123946D01*
X0020007Y0121998D01*
X0021498Y0120507D01*
X0023222Y0119793D01*
X0022498Y0119493D01*
X0021007Y0118002D01*
X0020200Y0116054D01*
X0020200Y0113946D01*
X0021007Y0111998D01*
X0022498Y0110507D01*
X0023004Y0110297D01*
X0022389Y0110097D01*
X0021617Y0109704D01*
X0020917Y0109195D01*
X0020305Y0108583D01*
X0019796Y0107883D01*
X0019403Y0107111D01*
X0019135Y0106288D01*
X0019000Y0105433D01*
X0019000Y0105200D01*
X0024300Y0105200D01*
X0024300Y0104800D01*
X0019000Y0104800D01*
X0019000Y0104567D01*
X0019135Y0103712D01*
X0019403Y0102889D01*
X0019796Y0102117D01*
X0020305Y0101417D01*
X0020917Y0100805D01*
X0021617Y0100296D01*
X0022389Y0099903D01*
X0023212Y0099635D01*
X0024067Y0099500D01*
X0024300Y0099500D01*
X0024300Y0104800D01*
X0024700Y0104800D01*
X0024700Y0105200D01*
X0030000Y0105200D01*
X0030000Y0105433D01*
X0029865Y0106288D01*
X0029597Y0107111D01*
X0029204Y0107883D01*
X0028695Y0108583D01*
X0028083Y0109195D01*
X0027383Y0109704D01*
X0027015Y0109891D01*
X0028502Y0110507D01*
X0029993Y0111998D01*
X0030800Y0113946D01*
X0030800Y0116054D01*
X0029993Y0118002D01*
X0028502Y0119493D01*
X0026778Y0120207D01*
X0027502Y0120507D01*
X0028993Y0121998D01*
X0029800Y0123946D01*
X0029800Y0126054D01*
X0028993Y0128002D01*
X0027502Y0129493D01*
X0026778Y0129793D01*
X0028502Y0130507D01*
X0029993Y0131998D01*
X0030800Y0133946D01*
X0030800Y0136054D01*
X0029993Y0138002D01*
X0028502Y0139493D01*
X0026778Y0140207D01*
X0027502Y0140507D01*
X0028993Y0141998D01*
X0029800Y0143946D01*
X0029800Y0146054D01*
X0028993Y0148002D01*
X0027502Y0149493D01*
X0026778Y0149793D01*
X0028502Y0150507D01*
X0029993Y0151998D01*
X0030800Y0153946D01*
X0030800Y0156054D01*
X0029993Y0158002D01*
X0028502Y0159493D01*
X0026778Y0160207D01*
X0027502Y0160507D01*
X0028993Y0161998D01*
X0029800Y0163946D01*
X0029800Y0166054D01*
X0028993Y0168002D01*
X0027502Y0169493D01*
X0027003Y0169700D01*
X0029863Y0169700D01*
X0030800Y0170637D01*
X0030800Y0179363D01*
X0030800Y0177639D02*
X0079249Y0177639D01*
X0080848Y0176041D02*
X0030800Y0176041D01*
X0030800Y0174442D02*
X0082447Y0174442D01*
X0084045Y0172844D02*
X0030800Y0172844D01*
X0030800Y0171245D02*
X0085644Y0171245D01*
X0086535Y0169647D02*
X0027131Y0169647D01*
X0028947Y0168048D02*
X0084937Y0168048D01*
X0083338Y0166450D02*
X0029636Y0166450D01*
X0029800Y0164851D02*
X0081740Y0164851D01*
X0080141Y0163253D02*
X0029513Y0163253D01*
X0028649Y0161654D02*
X0078543Y0161654D01*
X0076944Y0160056D02*
X0027144Y0160056D01*
X0029538Y0158457D02*
X0075346Y0158457D01*
X0073747Y0156859D02*
X0030467Y0156859D01*
X0030800Y0155260D02*
X0072149Y0155260D01*
X0070550Y0153662D02*
X0030682Y0153662D01*
X0030020Y0152063D02*
X0068952Y0152063D01*
X0067353Y0150465D02*
X0028400Y0150465D01*
X0028129Y0148866D02*
X0065755Y0148866D01*
X0064156Y0147268D02*
X0029297Y0147268D01*
X0029800Y0145669D02*
X0062558Y0145669D01*
X0060959Y0144070D02*
X0029800Y0144070D01*
X0029190Y0142472D02*
X0059361Y0142472D01*
X0057762Y0140873D02*
X0027869Y0140873D01*
X0028720Y0139275D02*
X0056164Y0139275D01*
X0054565Y0137676D02*
X0030128Y0137676D01*
X0030790Y0136078D02*
X0052967Y0136078D01*
X0052800Y0134479D02*
X0030800Y0134479D01*
X0030359Y0132881D02*
X0052800Y0132881D01*
X0052800Y0131282D02*
X0029278Y0131282D01*
X0027042Y0129684D02*
X0052800Y0129684D01*
X0052800Y0128085D02*
X0028910Y0128085D01*
X0029621Y0126487D02*
X0052800Y0126487D01*
X0052800Y0124888D02*
X0029800Y0124888D01*
X0029528Y0123290D02*
X0052800Y0123290D01*
X0052800Y0121691D02*
X0028687Y0121691D01*
X0027054Y0120093D02*
X0052800Y0120093D01*
X0052800Y0118494D02*
X0029501Y0118494D01*
X0030451Y0116896D02*
X0052800Y0116896D01*
X0052800Y0115297D02*
X0030800Y0115297D01*
X0030698Y0113699D02*
X0052800Y0113699D01*
X0052800Y0112100D02*
X0030036Y0112100D01*
X0028490Y0110502D02*
X0052800Y0110502D01*
X0052800Y0108903D02*
X0028375Y0108903D01*
X0029498Y0107305D02*
X0052800Y0107305D01*
X0052800Y0105706D02*
X0029957Y0105706D01*
X0030000Y0104800D02*
X0024700Y0104800D01*
X0024700Y0099500D01*
X0024933Y0099500D01*
X0025788Y0099635D01*
X0026611Y0099903D01*
X0027383Y0100296D01*
X0028083Y0100805D01*
X0028695Y0101417D01*
X0029204Y0102117D01*
X0029597Y0102889D01*
X0029865Y0103712D01*
X0030000Y0104567D01*
X0030000Y0104800D01*
X0029927Y0104108D02*
X0052800Y0104108D01*
X0052800Y0102509D02*
X0029404Y0102509D01*
X0028189Y0100911D02*
X0052800Y0100911D01*
X0052800Y0099312D02*
X0009800Y0099312D01*
X0009800Y0097714D02*
X0052800Y0097714D01*
X0052800Y0096115D02*
X0009800Y0096115D01*
X0009800Y0094517D02*
X0052800Y0094517D01*
X0052800Y0092918D02*
X0009800Y0092918D01*
X0009800Y0091320D02*
X0052800Y0091320D01*
X0052800Y0089721D02*
X0009800Y0089721D01*
X0009800Y0088123D02*
X0052800Y0088123D01*
X0052800Y0086524D02*
X0009800Y0086524D01*
X0009800Y0084926D02*
X0052800Y0084926D01*
X0052800Y0083327D02*
X0009800Y0083327D01*
X0009800Y0081729D02*
X0052800Y0081729D01*
X0052800Y0080130D02*
X0009800Y0080130D01*
X0009800Y0078532D02*
X0052800Y0078532D01*
X0052800Y0076933D02*
X0009800Y0076933D01*
X0009800Y0075334D02*
X0052800Y0075334D01*
X0052800Y0073736D02*
X0009800Y0073736D01*
X0009800Y0072137D02*
X0052800Y0072137D01*
X0052800Y0070539D02*
X0009800Y0070539D01*
X0009800Y0068940D02*
X0052800Y0068940D01*
X0052800Y0067342D02*
X0009800Y0067342D01*
X0009800Y0065743D02*
X0052800Y0065743D01*
X0052800Y0064145D02*
X0009800Y0064145D01*
X0009800Y0062546D02*
X0052800Y0062546D01*
X0052800Y0060948D02*
X0009800Y0060948D01*
X0009800Y0059349D02*
X0052800Y0059349D01*
X0054138Y0057751D02*
X0009800Y0057751D01*
X0009800Y0056152D02*
X0055736Y0056152D01*
X0057335Y0054554D02*
X0009800Y0054554D01*
X0009800Y0052955D02*
X0058933Y0052955D01*
X0060532Y0051357D02*
X0009800Y0051357D01*
X0009800Y0049758D02*
X0062130Y0049758D01*
X0063729Y0048160D02*
X0009800Y0048160D01*
X0009800Y0046561D02*
X0065327Y0046561D01*
X0066926Y0044963D02*
X0009800Y0044963D01*
X0009800Y0043364D02*
X0068524Y0043364D01*
X0070123Y0041766D02*
X0009800Y0041766D01*
X0009800Y0040167D02*
X0071721Y0040167D01*
X0073320Y0038569D02*
X0009800Y0038569D01*
X0009800Y0036970D02*
X0020705Y0036970D01*
X0020108Y0036810D02*
X0017218Y0035142D01*
X0014858Y0032782D01*
X0013190Y0029892D01*
X0012326Y0026669D01*
X0012326Y0023331D01*
X0013190Y0020108D01*
X0014858Y0017218D01*
X0017218Y0014858D01*
X0020108Y0013190D01*
X0023331Y0012326D01*
X0026669Y0012326D01*
X0029892Y0013190D01*
X0032782Y0014858D01*
X0035142Y0017218D01*
X0036810Y0020108D01*
X0037674Y0023331D01*
X0037674Y0026669D01*
X0036810Y0029892D01*
X0035142Y0032782D01*
X0032782Y0035142D01*
X0029892Y0036810D01*
X0026669Y0037674D01*
X0023331Y0037674D01*
X0020108Y0036810D01*
X0017616Y0035372D02*
X0009800Y0035372D01*
X0009800Y0033773D02*
X0015849Y0033773D01*
X0014508Y0032175D02*
X0009800Y0032175D01*
X0009800Y0030576D02*
X0013585Y0030576D01*
X0012945Y0028978D02*
X0009800Y0028978D01*
X0009800Y0027379D02*
X0012516Y0027379D01*
X0012326Y0025781D02*
X0009800Y0025781D01*
X0009800Y0024182D02*
X0012326Y0024182D01*
X0012526Y0022584D02*
X0009800Y0022584D01*
X0009800Y0020985D02*
X0012955Y0020985D01*
X0013606Y0019387D02*
X0009800Y0019387D01*
X0009800Y0017788D02*
X0014529Y0017788D01*
X0015887Y0016190D02*
X0009800Y0016190D01*
X0009800Y0014843D02*
X0009800Y0264183D01*
X0009846Y0264313D01*
X0009800Y0265133D01*
X0009800Y0265955D01*
X0009799Y0265956D01*
X0009800Y0266004D01*
X0010101Y0267444D01*
X0010765Y0268757D01*
X0011747Y0269854D01*
X0012978Y0270659D01*
X0014377Y0271118D01*
X0015048Y0271200D01*
X0387484Y0271200D01*
X0388233Y0271130D01*
X0389710Y0270689D01*
X0391023Y0269882D01*
X0392083Y0268762D01*
X0392816Y0267406D01*
X0393173Y0265906D01*
X0393200Y0265184D01*
X0393200Y0265067D01*
X0393175Y0264180D01*
X0393200Y0264115D01*
X0393200Y0014955D01*
X0393137Y0014281D01*
X0392740Y0012949D01*
X0392012Y0011764D01*
X0391002Y0010809D01*
X0389779Y0010147D01*
X0388427Y0009825D01*
X0387779Y0009800D01*
X0387664Y0009800D01*
X0386776Y0009825D01*
X0386712Y0009800D01*
X0014843Y0009800D01*
X0014184Y0009843D01*
X0012913Y0010184D01*
X0011773Y0010842D01*
X0010842Y0011773D01*
X0010184Y0012913D01*
X0009843Y0014184D01*
X0009800Y0014843D01*
X0009816Y0014591D02*
X0017681Y0014591D01*
X0020844Y0012993D02*
X0010162Y0012993D01*
X0011221Y0011394D02*
X0100495Y0011394D01*
X0098896Y0012993D02*
X0029156Y0012993D01*
X0032319Y0014591D02*
X0097298Y0014591D01*
X0095699Y0016190D02*
X0034113Y0016190D01*
X0035471Y0017788D02*
X0094101Y0017788D01*
X0092502Y0019387D02*
X0036394Y0019387D01*
X0037045Y0020985D02*
X0090904Y0020985D01*
X0089305Y0022584D02*
X0037474Y0022584D01*
X0037674Y0024182D02*
X0087707Y0024182D01*
X0086108Y0025781D02*
X0037674Y0025781D01*
X0037484Y0027379D02*
X0084510Y0027379D01*
X0082911Y0028978D02*
X0037055Y0028978D01*
X0036415Y0030576D02*
X0081313Y0030576D01*
X0079714Y0032175D02*
X0035492Y0032175D01*
X0034151Y0033773D02*
X0078116Y0033773D01*
X0076517Y0035372D02*
X0032384Y0035372D01*
X0029295Y0036970D02*
X0074918Y0036970D01*
X0077944Y0040167D02*
X0081721Y0040167D01*
X0080123Y0041766D02*
X0076345Y0041766D01*
X0074747Y0043364D02*
X0078524Y0043364D01*
X0076926Y0044963D02*
X0073148Y0044963D01*
X0071550Y0046561D02*
X0075327Y0046561D01*
X0073729Y0048160D02*
X0069951Y0048160D01*
X0068353Y0049758D02*
X0072130Y0049758D01*
X0070532Y0051357D02*
X0066754Y0051357D01*
X0065156Y0052955D02*
X0068933Y0052955D01*
X0067335Y0054554D02*
X0063557Y0054554D01*
X0061959Y0056152D02*
X0065736Y0056152D01*
X0064138Y0057751D02*
X0060360Y0057751D01*
X0058762Y0059349D02*
X0062539Y0059349D01*
X0060941Y0060948D02*
X0057200Y0060948D01*
X0057200Y0062546D02*
X0060300Y0062546D01*
X0060300Y0064145D02*
X0057200Y0064145D01*
X0057200Y0065743D02*
X0060300Y0065743D01*
X0060300Y0067342D02*
X0057200Y0067342D01*
X0057200Y0068940D02*
X0060300Y0068940D01*
X0060300Y0070539D02*
X0057200Y0070539D01*
X0057200Y0072137D02*
X0060300Y0072137D01*
X0060300Y0073736D02*
X0057200Y0073736D01*
X0057200Y0075334D02*
X0060300Y0075334D01*
X0060300Y0076933D02*
X0057200Y0076933D01*
X0057200Y0078532D02*
X0060300Y0078532D01*
X0060300Y0080130D02*
X0057200Y0080130D01*
X0057200Y0081729D02*
X0060300Y0081729D01*
X0060300Y0083327D02*
X0057200Y0083327D01*
X0057200Y0084926D02*
X0060300Y0084926D01*
X0060300Y0086524D02*
X0057200Y0086524D01*
X0057200Y0088123D02*
X0060300Y0088123D01*
X0060300Y0089721D02*
X0057200Y0089721D01*
X0057200Y0091320D02*
X0060300Y0091320D01*
X0060300Y0092918D02*
X0057200Y0092918D01*
X0057200Y0094517D02*
X0060300Y0094517D01*
X0060300Y0096115D02*
X0057200Y0096115D01*
X0057200Y0097714D02*
X0060300Y0097714D01*
X0060300Y0099312D02*
X0057200Y0099312D01*
X0057200Y0100911D02*
X0060300Y0100911D01*
X0060300Y0102509D02*
X0057200Y0102509D01*
X0057200Y0104108D02*
X0060300Y0104108D01*
X0060300Y0105706D02*
X0057200Y0105706D01*
X0057200Y0107305D02*
X0060300Y0107305D01*
X0060300Y0108903D02*
X0057200Y0108903D01*
X0057200Y0110502D02*
X0060300Y0110502D01*
X0060300Y0112100D02*
X0057200Y0112100D01*
X0057200Y0113699D02*
X0060300Y0113699D01*
X0060300Y0115297D02*
X0057200Y0115297D01*
X0057200Y0116896D02*
X0060300Y0116896D01*
X0060300Y0118494D02*
X0057200Y0118494D01*
X0057200Y0120093D02*
X0060300Y0120093D01*
X0060300Y0121691D02*
X0057200Y0121691D01*
X0057200Y0123290D02*
X0060300Y0123290D01*
X0060300Y0124888D02*
X0057200Y0124888D01*
X0057200Y0126487D02*
X0060300Y0126487D01*
X0060300Y0128085D02*
X0057200Y0128085D01*
X0057200Y0129684D02*
X0060300Y0129684D01*
X0060300Y0131282D02*
X0057200Y0131282D01*
X0057200Y0132881D02*
X0060244Y0132881D01*
X0061266Y0134479D02*
X0057591Y0134479D01*
X0059189Y0136078D02*
X0062467Y0136078D01*
X0064065Y0137676D02*
X0060788Y0137676D01*
X0062386Y0139275D02*
X0065664Y0139275D01*
X0067262Y0140873D02*
X0063985Y0140873D01*
X0065583Y0142472D02*
X0068861Y0142472D01*
X0070459Y0144070D02*
X0067182Y0144070D01*
X0068780Y0145669D02*
X0072058Y0145669D01*
X0073656Y0147268D02*
X0070379Y0147268D01*
X0071977Y0148866D02*
X0075255Y0148866D01*
X0076853Y0150465D02*
X0073576Y0150465D01*
X0075174Y0152063D02*
X0078452Y0152063D01*
X0080050Y0153662D02*
X0076773Y0153662D01*
X0078371Y0155260D02*
X0081649Y0155260D01*
X0083247Y0156859D02*
X0079970Y0156859D01*
X0081568Y0158457D02*
X0084846Y0158457D01*
X0086444Y0160056D02*
X0083167Y0160056D01*
X0084765Y0161654D02*
X0088043Y0161654D01*
X0089641Y0163253D02*
X0086364Y0163253D01*
X0087962Y0164851D02*
X0091240Y0164851D01*
X0092838Y0166450D02*
X0089561Y0166450D01*
X0091159Y0168048D02*
X0094437Y0168048D01*
X0096035Y0169647D02*
X0092758Y0169647D01*
X0094356Y0171245D02*
X0097634Y0171245D01*
X0099232Y0172844D02*
X0095955Y0172844D01*
X0097553Y0174442D02*
X0100831Y0174442D01*
X0102429Y0176041D02*
X0099152Y0176041D01*
X0100750Y0177639D02*
X0104028Y0177639D01*
X0103855Y0179238D02*
X0102349Y0179238D01*
X0097479Y0180590D02*
X0090000Y0173111D01*
X0057200Y0205911D01*
X0057200Y0209175D01*
X0058002Y0209507D01*
X0059493Y0210998D01*
X0060207Y0212722D01*
X0060507Y0211998D01*
X0061998Y0210507D01*
X0062800Y0210175D01*
X0062800Y0206589D01*
X0064089Y0205300D01*
X0075300Y0194089D01*
X0076589Y0192800D01*
X0109089Y0192800D01*
X0111947Y0189942D01*
X0110507Y0188502D01*
X0109793Y0186778D01*
X0109493Y0187502D01*
X0108002Y0188993D01*
X0106054Y0189800D01*
X0103946Y0189800D01*
X0101998Y0188993D01*
X0100507Y0187502D01*
X0100297Y0186996D01*
X0100097Y0187611D01*
X0099704Y0188383D01*
X0099195Y0189083D01*
X0098583Y0189695D01*
X0097883Y0190204D01*
X0097111Y0190597D01*
X0096288Y0190865D01*
X0095433Y0191000D01*
X0095200Y0191000D01*
X0095200Y0185700D01*
X0094800Y0185700D01*
X0094800Y0191000D01*
X0094567Y0191000D01*
X0093712Y0190865D01*
X0092889Y0190597D01*
X0092117Y0190204D01*
X0091417Y0189695D01*
X0090805Y0189083D01*
X0090296Y0188383D01*
X0089903Y0187611D01*
X0089635Y0186788D01*
X0089500Y0185933D01*
X0089500Y0185700D01*
X0094800Y0185700D01*
X0094800Y0185300D01*
X0095200Y0185300D01*
X0095200Y0180000D01*
X0095433Y0180000D01*
X0096288Y0180135D01*
X0097111Y0180403D01*
X0097479Y0180590D01*
X0096126Y0179238D02*
X0083874Y0179238D01*
X0085472Y0177639D02*
X0094528Y0177639D01*
X0092929Y0176041D02*
X0087071Y0176041D01*
X0088669Y0174442D02*
X0091331Y0174442D01*
X0092889Y0180403D02*
X0093712Y0180135D01*
X0094567Y0180000D01*
X0094800Y0180000D01*
X0094800Y0185300D01*
X0089500Y0185300D01*
X0089500Y0185067D01*
X0089635Y0184212D01*
X0089903Y0183389D01*
X0090296Y0182617D01*
X0090805Y0181917D01*
X0091417Y0181305D01*
X0092117Y0180796D01*
X0092889Y0180403D01*
X0092062Y0180836D02*
X0082275Y0180836D01*
X0080677Y0182435D02*
X0090429Y0182435D01*
X0089694Y0184033D02*
X0079078Y0184033D01*
X0077479Y0185632D02*
X0094800Y0185632D01*
X0094800Y0187230D02*
X0095200Y0187230D01*
X0095200Y0188829D02*
X0094800Y0188829D01*
X0094800Y0190427D02*
X0095200Y0190427D01*
X0097444Y0190427D02*
X0111461Y0190427D01*
X0110833Y0188829D02*
X0108167Y0188829D01*
X0109606Y0187230D02*
X0109980Y0187230D01*
X0101833Y0188829D02*
X0099380Y0188829D01*
X0100221Y0187230D02*
X0100394Y0187230D01*
X0095200Y0184033D02*
X0094800Y0184033D01*
X0094800Y0182435D02*
X0095200Y0182435D01*
X0095200Y0180836D02*
X0094800Y0180836D01*
X0089779Y0187230D02*
X0075881Y0187230D01*
X0074282Y0188829D02*
X0090620Y0188829D01*
X0092556Y0190427D02*
X0072684Y0190427D01*
X0071085Y0192026D02*
X0109863Y0192026D01*
X0119430Y0182435D02*
X0119823Y0182435D01*
X0118225Y0180836D02*
X0117590Y0180836D01*
X0116626Y0179238D02*
X0111849Y0179238D01*
X0110250Y0177639D02*
X0115028Y0177639D01*
X0113429Y0176041D02*
X0108652Y0176041D01*
X0107053Y0174442D02*
X0111831Y0174442D01*
X0110232Y0172844D02*
X0105455Y0172844D01*
X0103856Y0171245D02*
X0108634Y0171245D01*
X0107035Y0169647D02*
X0102258Y0169647D01*
X0100659Y0168048D02*
X0105437Y0168048D01*
X0103838Y0166450D02*
X0099061Y0166450D01*
X0097462Y0164851D02*
X0102240Y0164851D01*
X0100641Y0163253D02*
X0095864Y0163253D01*
X0094265Y0161654D02*
X0099043Y0161654D01*
X0097444Y0160056D02*
X0092667Y0160056D01*
X0091068Y0158457D02*
X0095846Y0158457D01*
X0094247Y0156859D02*
X0089470Y0156859D01*
X0087871Y0155260D02*
X0092649Y0155260D01*
X0091050Y0153662D02*
X0086273Y0153662D01*
X0084674Y0152063D02*
X0089452Y0152063D01*
X0087853Y0150465D02*
X0083076Y0150465D01*
X0081477Y0148866D02*
X0086255Y0148866D01*
X0084656Y0147268D02*
X0079879Y0147268D01*
X0078280Y0145669D02*
X0083058Y0145669D01*
X0081459Y0144070D02*
X0076682Y0144070D01*
X0075083Y0142472D02*
X0079861Y0142472D01*
X0078262Y0140873D02*
X0073485Y0140873D01*
X0071886Y0139275D02*
X0076664Y0139275D01*
X0075065Y0137676D02*
X0070288Y0137676D01*
X0068689Y0136078D02*
X0073357Y0136078D01*
X0071368Y0134479D02*
X0067091Y0134479D01*
X0065622Y0132881D02*
X0070300Y0132881D01*
X0070300Y0131282D02*
X0064700Y0131282D01*
X0064700Y0129684D02*
X0070300Y0129684D01*
X0070300Y0128085D02*
X0064700Y0128085D01*
X0064700Y0126487D02*
X0070300Y0126487D01*
X0070300Y0124888D02*
X0064700Y0124888D01*
X0064700Y0123290D02*
X0070300Y0123290D01*
X0070300Y0121691D02*
X0064700Y0121691D01*
X0064700Y0120093D02*
X0070300Y0120093D01*
X0070300Y0118494D02*
X0064700Y0118494D01*
X0064700Y0116896D02*
X0070300Y0116896D01*
X0070300Y0115297D02*
X0064700Y0115297D01*
X0064700Y0113699D02*
X0070300Y0113699D01*
X0070300Y0112100D02*
X0064700Y0112100D01*
X0064700Y0110502D02*
X0070300Y0110502D01*
X0070300Y0108903D02*
X0064700Y0108903D01*
X0064700Y0107305D02*
X0070300Y0107305D01*
X0070300Y0105706D02*
X0064700Y0105706D01*
X0064700Y0104108D02*
X0070300Y0104108D01*
X0070300Y0102509D02*
X0064700Y0102509D01*
X0064700Y0100911D02*
X0070300Y0100911D01*
X0070300Y0099312D02*
X0064700Y0099312D01*
X0064700Y0097714D02*
X0070300Y0097714D01*
X0070300Y0096115D02*
X0064700Y0096115D01*
X0064700Y0094517D02*
X0070300Y0094517D01*
X0070300Y0092918D02*
X0064700Y0092918D01*
X0064700Y0091320D02*
X0070300Y0091320D01*
X0070300Y0089721D02*
X0064700Y0089721D01*
X0064700Y0088123D02*
X0070300Y0088123D01*
X0070300Y0086524D02*
X0064700Y0086524D01*
X0064700Y0084926D02*
X0070300Y0084926D01*
X0070300Y0083327D02*
X0064700Y0083327D01*
X0064700Y0081729D02*
X0070300Y0081729D01*
X0070300Y0080130D02*
X0064700Y0080130D01*
X0064700Y0078532D02*
X0070300Y0078532D01*
X0070300Y0076933D02*
X0064700Y0076933D01*
X0064700Y0075334D02*
X0070300Y0075334D01*
X0070300Y0073736D02*
X0064700Y0073736D01*
X0064700Y0072137D02*
X0070300Y0072137D01*
X0070300Y0070539D02*
X0064700Y0070539D01*
X0064700Y0068940D02*
X0070300Y0068940D01*
X0070300Y0067342D02*
X0064700Y0067342D01*
X0064700Y0065743D02*
X0070300Y0065743D01*
X0070300Y0064145D02*
X0064700Y0064145D01*
X0065565Y0062546D02*
X0070300Y0062546D01*
X0070941Y0060948D02*
X0067163Y0060948D01*
X0068762Y0059349D02*
X0072539Y0059349D01*
X0071589Y0060300D02*
X0071589Y0060300D01*
X0070360Y0057751D02*
X0074138Y0057751D01*
X0075736Y0056152D02*
X0071959Y0056152D01*
X0073557Y0054554D02*
X0077335Y0054554D01*
X0078933Y0052955D02*
X0075156Y0052955D01*
X0076754Y0051357D02*
X0080532Y0051357D01*
X0082130Y0049758D02*
X0078353Y0049758D01*
X0079951Y0048160D02*
X0083729Y0048160D01*
X0085327Y0046561D02*
X0081550Y0046561D01*
X0083148Y0044963D02*
X0086926Y0044963D01*
X0088524Y0043364D02*
X0084747Y0043364D01*
X0086345Y0041766D02*
X0090123Y0041766D01*
X0091721Y0040167D02*
X0087944Y0040167D01*
X0089543Y0038569D02*
X0093320Y0038569D01*
X0094919Y0036970D02*
X0091141Y0036970D01*
X0092740Y0035372D02*
X0096517Y0035372D01*
X0098116Y0033773D02*
X0094338Y0033773D01*
X0095937Y0032175D02*
X0099714Y0032175D01*
X0101313Y0030576D02*
X0097535Y0030576D01*
X0099134Y0028978D02*
X0102911Y0028978D01*
X0100732Y0027379D02*
X0143202Y0027379D01*
X0141204Y0025781D02*
X0102331Y0025781D01*
X0103929Y0024182D02*
X0139206Y0024182D01*
X0137208Y0022584D02*
X0105528Y0022584D01*
X0102502Y0019387D02*
X0098725Y0019387D01*
X0097126Y0020985D02*
X0100904Y0020985D01*
X0099305Y0022584D02*
X0095528Y0022584D01*
X0093929Y0024182D02*
X0097707Y0024182D01*
X0096108Y0025781D02*
X0092331Y0025781D01*
X0090732Y0027379D02*
X0094510Y0027379D01*
X0092911Y0028978D02*
X0089134Y0028978D01*
X0087535Y0030576D02*
X0091313Y0030576D01*
X0089714Y0032175D02*
X0085937Y0032175D01*
X0084338Y0033773D02*
X0088116Y0033773D01*
X0086517Y0035372D02*
X0082740Y0035372D01*
X0081141Y0036970D02*
X0084918Y0036970D01*
X0083320Y0038569D02*
X0079543Y0038569D01*
X0089951Y0048160D02*
X0093729Y0048160D01*
X0092130Y0049758D02*
X0088353Y0049758D01*
X0086754Y0051357D02*
X0090532Y0051357D01*
X0088933Y0052955D02*
X0085156Y0052955D01*
X0083557Y0054554D02*
X0087335Y0054554D01*
X0085736Y0056152D02*
X0081959Y0056152D01*
X0080360Y0057751D02*
X0084138Y0057751D01*
X0082539Y0059349D02*
X0078762Y0059349D01*
X0077163Y0060948D02*
X0080941Y0060948D01*
X0080300Y0062546D02*
X0075565Y0062546D01*
X0074700Y0064145D02*
X0080300Y0064145D01*
X0080300Y0065743D02*
X0074700Y0065743D01*
X0074700Y0067342D02*
X0080300Y0067342D01*
X0080300Y0068940D02*
X0074700Y0068940D01*
X0074700Y0070539D02*
X0080300Y0070539D01*
X0080300Y0072137D02*
X0074700Y0072137D01*
X0074700Y0073736D02*
X0080300Y0073736D01*
X0080300Y0075334D02*
X0074700Y0075334D01*
X0074700Y0076933D02*
X0080300Y0076933D01*
X0080300Y0078532D02*
X0074700Y0078532D01*
X0074700Y0080130D02*
X0080300Y0080130D01*
X0080300Y0081729D02*
X0074700Y0081729D01*
X0074700Y0083327D02*
X0080300Y0083327D01*
X0080300Y0084926D02*
X0074700Y0084926D01*
X0074700Y0086524D02*
X0080300Y0086524D01*
X0080300Y0088123D02*
X0074700Y0088123D01*
X0074700Y0089721D02*
X0080300Y0089721D01*
X0080300Y0091320D02*
X0074700Y0091320D01*
X0074700Y0092918D02*
X0080300Y0092918D01*
X0080300Y0094517D02*
X0074700Y0094517D01*
X0074700Y0096115D02*
X0080300Y0096115D01*
X0080300Y0097714D02*
X0074700Y0097714D01*
X0074700Y0099312D02*
X0080300Y0099312D01*
X0080300Y0100911D02*
X0074700Y0100911D01*
X0074700Y0102509D02*
X0080300Y0102509D01*
X0080300Y0104108D02*
X0074700Y0104108D01*
X0074700Y0105706D02*
X0080300Y0105706D01*
X0080300Y0107305D02*
X0074700Y0107305D01*
X0074700Y0108903D02*
X0080300Y0108903D01*
X0080300Y0110502D02*
X0074700Y0110502D01*
X0074700Y0112100D02*
X0080300Y0112100D01*
X0080300Y0113699D02*
X0074700Y0113699D01*
X0074700Y0115297D02*
X0080300Y0115297D01*
X0080300Y0116896D02*
X0074700Y0116896D01*
X0074700Y0118494D02*
X0080300Y0118494D01*
X0080300Y0120093D02*
X0074700Y0120093D01*
X0074700Y0121691D02*
X0080300Y0121691D01*
X0080300Y0123290D02*
X0074700Y0123290D01*
X0074700Y0124888D02*
X0080300Y0124888D01*
X0080300Y0126487D02*
X0074700Y0126487D01*
X0074700Y0128085D02*
X0080300Y0128085D01*
X0080300Y0129684D02*
X0074700Y0129684D01*
X0074700Y0131282D02*
X0080300Y0131282D01*
X0080300Y0132881D02*
X0076492Y0132881D01*
X0078091Y0134479D02*
X0080300Y0134479D01*
X0080467Y0136078D02*
X0079689Y0136078D01*
X0081288Y0137676D02*
X0082065Y0137676D01*
X0082886Y0139275D02*
X0083664Y0139275D01*
X0084485Y0140873D02*
X0085262Y0140873D01*
X0086083Y0142472D02*
X0086956Y0142472D01*
X0087682Y0144070D02*
X0088634Y0144070D01*
X0089280Y0145669D02*
X0090313Y0145669D01*
X0090879Y0147268D02*
X0091991Y0147268D01*
X0092477Y0148866D02*
X0093670Y0148866D01*
X0094076Y0150465D02*
X0095348Y0150465D01*
X0095674Y0152063D02*
X0097026Y0152063D01*
X0097273Y0153662D02*
X0098705Y0153662D01*
X0098871Y0155260D02*
X0100383Y0155260D01*
X0100470Y0156859D02*
X0102062Y0156859D01*
X0102068Y0158457D02*
X0103740Y0158457D01*
X0103667Y0160056D02*
X0105419Y0160056D01*
X0105265Y0161654D02*
X0107097Y0161654D01*
X0106864Y0163253D02*
X0108775Y0163253D01*
X0108462Y0164851D02*
X0110454Y0164851D01*
X0110061Y0166450D02*
X0112132Y0166450D01*
X0111659Y0168048D02*
X0113811Y0168048D01*
X0113258Y0169647D02*
X0115489Y0169647D01*
X0114856Y0171245D02*
X0117168Y0171245D01*
X0116455Y0172844D02*
X0118846Y0172844D01*
X0118053Y0174442D02*
X0120525Y0174442D01*
X0119652Y0176041D02*
X0122203Y0176041D01*
X0121250Y0177639D02*
X0123881Y0177639D01*
X0123855Y0179238D02*
X0122849Y0179238D01*
X0121895Y0209609D02*
X0116124Y0209609D01*
X0115200Y0209609D02*
X0114800Y0209609D01*
X0114800Y0209500D02*
X0114800Y0214800D01*
X0109500Y0214800D01*
X0109500Y0214567D01*
X0109635Y0213712D01*
X0109903Y0212889D01*
X0110296Y0212117D01*
X0110805Y0211417D01*
X0111417Y0210805D01*
X0112117Y0210296D01*
X0112889Y0209903D01*
X0113712Y0209635D01*
X0114567Y0209500D01*
X0114800Y0209500D01*
X0113876Y0209609D02*
X0098105Y0209609D01*
X0099580Y0211208D02*
X0111014Y0211208D01*
X0109945Y0212806D02*
X0100242Y0212806D01*
X0100300Y0214405D02*
X0109526Y0214405D01*
X0109590Y0216003D02*
X0099907Y0216003D01*
X0098893Y0217602D02*
X0110153Y0217602D01*
X0111424Y0219201D02*
X0096294Y0219201D01*
X0098794Y0225595D02*
X0067200Y0225595D01*
X0067200Y0227193D02*
X0097800Y0227193D01*
X0097800Y0228792D02*
X0067200Y0228792D01*
X0067200Y0230390D02*
X0075164Y0230390D01*
X0075195Y0230360D02*
X0075605Y0230123D01*
X0076063Y0230000D01*
X0079800Y0230000D01*
X0079800Y0235300D01*
X0074500Y0235300D01*
X0074500Y0231563D01*
X0074623Y0231105D01*
X0074860Y0230695D01*
X0075195Y0230360D01*
X0074500Y0231989D02*
X0068984Y0231989D01*
X0069944Y0233587D02*
X0074500Y0233587D01*
X0074500Y0235186D02*
X0070300Y0235186D01*
X0070205Y0236784D02*
X0074500Y0236784D01*
X0074500Y0238383D02*
X0069543Y0238383D01*
X0068014Y0239981D02*
X0074673Y0239981D01*
X0079800Y0239981D02*
X0080200Y0239981D01*
X0080200Y0238383D02*
X0079800Y0238383D01*
X0079800Y0236784D02*
X0080200Y0236784D01*
X0080200Y0235186D02*
X0079800Y0235186D01*
X0079800Y0233587D02*
X0080200Y0233587D01*
X0080200Y0231989D02*
X0079800Y0231989D01*
X0079800Y0230390D02*
X0080200Y0230390D01*
X0084836Y0230390D02*
X0086615Y0230390D01*
X0093385Y0230390D02*
X0097800Y0230390D01*
X0096016Y0231989D02*
X0094696Y0231989D01*
X0094791Y0236784D02*
X0094795Y0236784D01*
X0095457Y0238383D02*
X0093613Y0238383D01*
X0096986Y0239981D02*
X0085327Y0239981D01*
X0085500Y0238383D02*
X0086387Y0238383D01*
X0061986Y0239981D02*
X0050327Y0239981D01*
X0050500Y0238383D02*
X0051387Y0238383D01*
X0058613Y0238383D02*
X0060457Y0238383D01*
X0059795Y0236784D02*
X0059791Y0236784D01*
X0059696Y0231989D02*
X0061016Y0231989D01*
X0062800Y0230390D02*
X0058385Y0230390D01*
X0062800Y0228792D02*
X0009800Y0228792D01*
X0009800Y0230390D02*
X0040164Y0230390D01*
X0040195Y0230360D02*
X0040605Y0230123D01*
X0041063Y0230000D01*
X0044800Y0230000D01*
X0044800Y0235300D01*
X0039500Y0235300D01*
X0039500Y0231563D01*
X0039623Y0231105D01*
X0039860Y0230695D01*
X0040195Y0230360D01*
X0039500Y0231989D02*
X0009800Y0231989D01*
X0009800Y0233587D02*
X0039500Y0233587D01*
X0039500Y0235186D02*
X0009800Y0235186D01*
X0009800Y0236784D02*
X0039500Y0236784D01*
X0039500Y0238383D02*
X0009800Y0238383D01*
X0009800Y0239981D02*
X0039673Y0239981D01*
X0044800Y0239981D02*
X0045200Y0239981D01*
X0045200Y0238383D02*
X0044800Y0238383D01*
X0044800Y0236784D02*
X0045200Y0236784D01*
X0045200Y0235186D02*
X0044800Y0235186D01*
X0044800Y0233587D02*
X0045200Y0233587D01*
X0045200Y0231989D02*
X0044800Y0231989D01*
X0044800Y0230390D02*
X0045200Y0230390D01*
X0049836Y0230390D02*
X0051615Y0230390D01*
X0062800Y0227193D02*
X0009800Y0227193D01*
X0009800Y0225595D02*
X0062800Y0225595D01*
X0062800Y0223996D02*
X0009800Y0223996D01*
X0009800Y0222398D02*
X0063991Y0222398D01*
X0061705Y0219201D02*
X0056294Y0219201D01*
X0053706Y0219201D02*
X0048576Y0219201D01*
X0049847Y0217602D02*
X0051107Y0217602D01*
X0058893Y0217602D02*
X0060341Y0217602D01*
X0059580Y0211208D02*
X0061297Y0211208D01*
X0062800Y0209609D02*
X0058105Y0209609D01*
X0057200Y0208011D02*
X0062800Y0208011D01*
X0062976Y0206412D02*
X0057200Y0206412D01*
X0058297Y0204814D02*
X0064575Y0204814D01*
X0066173Y0203215D02*
X0059896Y0203215D01*
X0061494Y0201617D02*
X0067772Y0201617D01*
X0069370Y0200018D02*
X0063093Y0200018D01*
X0064691Y0198420D02*
X0070969Y0198420D01*
X0072567Y0196821D02*
X0066290Y0196821D01*
X0067888Y0195223D02*
X0074166Y0195223D01*
X0075764Y0193624D02*
X0069487Y0193624D01*
X0050420Y0211208D02*
X0048986Y0211208D01*
X0045200Y0211208D02*
X0044800Y0211208D01*
X0044800Y0212806D02*
X0045200Y0212806D01*
X0045200Y0214405D02*
X0044800Y0214405D01*
X0044800Y0216003D02*
X0045200Y0216003D01*
X0045200Y0217602D02*
X0044800Y0217602D01*
X0044800Y0219201D02*
X0045200Y0219201D01*
X0029892Y0244190D02*
X0026669Y0243326D01*
X0023331Y0243326D01*
X0020108Y0244190D01*
X0017218Y0245858D01*
X0014858Y0248218D01*
X0013190Y0251108D01*
X0012326Y0254331D01*
X0012326Y0257669D01*
X0013190Y0260892D01*
X0014858Y0263782D01*
X0017218Y0266142D01*
X0020108Y0267810D01*
X0023331Y0268674D01*
X0026669Y0268674D01*
X0029892Y0267810D01*
X0032782Y0266142D01*
X0035142Y0263782D01*
X0036810Y0260892D01*
X0037674Y0257669D01*
X0037674Y0254331D01*
X0036810Y0251108D01*
X0035142Y0248218D01*
X0032782Y0245858D01*
X0029892Y0244190D01*
X0030909Y0244777D02*
X0372091Y0244777D01*
X0373108Y0244190D02*
X0370218Y0245858D01*
X0367858Y0248218D01*
X0366190Y0251108D01*
X0365326Y0254331D01*
X0365326Y0257669D01*
X0366190Y0260892D01*
X0367858Y0263782D01*
X0370218Y0266142D01*
X0373108Y0267810D01*
X0376331Y0268674D01*
X0379669Y0268674D01*
X0382892Y0267810D01*
X0385782Y0266142D01*
X0388142Y0263782D01*
X0389810Y0260892D01*
X0390674Y0257669D01*
X0390674Y0254331D01*
X0389810Y0251108D01*
X0388142Y0248218D01*
X0385782Y0245858D01*
X0382892Y0244190D01*
X0379669Y0243326D01*
X0376331Y0243326D01*
X0373108Y0244190D01*
X0369701Y0246375D02*
X0033299Y0246375D01*
X0034897Y0247974D02*
X0368102Y0247974D01*
X0367076Y0249572D02*
X0035924Y0249572D01*
X0036827Y0251171D02*
X0366173Y0251171D01*
X0365745Y0252769D02*
X0037255Y0252769D01*
X0037674Y0254368D02*
X0365326Y0254368D01*
X0365326Y0255966D02*
X0037674Y0255966D01*
X0037674Y0257565D02*
X0365326Y0257565D01*
X0365727Y0259163D02*
X0037273Y0259163D01*
X0036845Y0260762D02*
X0366155Y0260762D01*
X0367037Y0262360D02*
X0035963Y0262360D01*
X0034965Y0263959D02*
X0368035Y0263959D01*
X0369634Y0265557D02*
X0033366Y0265557D01*
X0031026Y0267156D02*
X0371974Y0267156D01*
X0384026Y0267156D02*
X0392875Y0267156D01*
X0393186Y0265557D02*
X0386366Y0265557D01*
X0387965Y0263959D02*
X0393200Y0263959D01*
X0393200Y0262360D02*
X0388963Y0262360D01*
X0389845Y0260762D02*
X0393200Y0260762D01*
X0393200Y0259163D02*
X0390273Y0259163D01*
X0390674Y0257565D02*
X0393200Y0257565D01*
X0393200Y0255966D02*
X0390674Y0255966D01*
X0390674Y0254368D02*
X0393200Y0254368D01*
X0393200Y0252769D02*
X0390255Y0252769D01*
X0389827Y0251171D02*
X0393200Y0251171D01*
X0393200Y0249572D02*
X0388924Y0249572D01*
X0387897Y0247974D02*
X0393200Y0247974D01*
X0393200Y0246375D02*
X0386299Y0246375D01*
X0383909Y0244777D02*
X0393200Y0244777D01*
X0393200Y0243178D02*
X0009800Y0243178D01*
X0009800Y0241580D02*
X0393200Y0241580D01*
X0366986Y0239981D02*
X0355327Y0239981D01*
X0355500Y0238383D02*
X0356387Y0238383D01*
X0363613Y0238383D02*
X0365457Y0238383D01*
X0364795Y0236784D02*
X0364791Y0236784D01*
X0356615Y0230390D02*
X0354836Y0230390D01*
X0355680Y0228792D02*
X0316903Y0228792D01*
X0317200Y0230390D02*
X0321615Y0230390D01*
X0320304Y0231989D02*
X0318984Y0231989D01*
X0319082Y0227193D02*
X0315304Y0227193D01*
X0313706Y0225595D02*
X0317483Y0225595D01*
X0315885Y0223996D02*
X0312107Y0223996D01*
X0310509Y0222398D02*
X0314286Y0222398D01*
X0312800Y0220799D02*
X0308910Y0220799D01*
X0308295Y0219201D02*
X0312800Y0219201D01*
X0311107Y0217602D02*
X0309659Y0217602D01*
X0328385Y0230390D02*
X0345164Y0230390D01*
X0345195Y0230360D02*
X0345605Y0230123D01*
X0346063Y0230000D01*
X0349800Y0230000D01*
X0349800Y0235300D01*
X0344500Y0235300D01*
X0344500Y0231563D01*
X0344623Y0231105D01*
X0344860Y0230695D01*
X0345195Y0230360D01*
X0344500Y0231989D02*
X0329696Y0231989D01*
X0330300Y0233587D02*
X0344500Y0233587D01*
X0344500Y0235186D02*
X0330300Y0235186D01*
X0329791Y0236784D02*
X0344500Y0236784D01*
X0344500Y0238383D02*
X0328613Y0238383D01*
X0321387Y0238383D02*
X0319543Y0238383D01*
X0320205Y0236784D02*
X0320209Y0236784D01*
X0318014Y0239981D02*
X0344673Y0239981D01*
X0349800Y0239981D02*
X0350200Y0239981D01*
X0350200Y0238383D02*
X0349800Y0238383D01*
X0349800Y0236784D02*
X0350200Y0236784D01*
X0350200Y0235186D02*
X0349800Y0235186D01*
X0349800Y0233587D02*
X0350200Y0233587D01*
X0350200Y0231989D02*
X0349800Y0231989D01*
X0349800Y0230390D02*
X0350200Y0230390D01*
X0392086Y0268754D02*
X0010764Y0268754D01*
X0010041Y0267156D02*
X0018974Y0267156D01*
X0016634Y0265557D02*
X0009800Y0265557D01*
X0009800Y0263959D02*
X0015035Y0263959D01*
X0014037Y0262360D02*
X0009800Y0262360D01*
X0009800Y0260762D02*
X0013155Y0260762D01*
X0012727Y0259163D02*
X0009800Y0259163D01*
X0009800Y0257565D02*
X0012326Y0257565D01*
X0012326Y0255966D02*
X0009800Y0255966D01*
X0009800Y0254368D02*
X0012326Y0254368D01*
X0012745Y0252769D02*
X0009800Y0252769D01*
X0009800Y0251171D02*
X0013173Y0251171D01*
X0014076Y0249572D02*
X0009800Y0249572D01*
X0009800Y0247974D02*
X0015102Y0247974D01*
X0016701Y0246375D02*
X0009800Y0246375D01*
X0009800Y0244777D02*
X0019091Y0244777D01*
X0012510Y0270353D02*
X0390257Y0270353D01*
X0271387Y0238383D02*
X0269543Y0238383D01*
X0270205Y0236784D02*
X0270209Y0236784D01*
X0215620Y0188829D02*
X0188167Y0188829D01*
X0189606Y0187230D02*
X0214779Y0187230D01*
X0181833Y0188829D02*
X0179167Y0188829D01*
X0180020Y0187230D02*
X0180394Y0187230D01*
X0161895Y0209609D02*
X0157200Y0209609D01*
X0158703Y0211208D02*
X0160420Y0211208D01*
X0161107Y0217602D02*
X0159659Y0217602D01*
X0120420Y0211208D02*
X0118986Y0211208D01*
X0115200Y0211208D02*
X0114800Y0211208D01*
X0114800Y0212806D02*
X0115200Y0212806D01*
X0115200Y0214405D02*
X0114800Y0214405D01*
X0080341Y0217602D02*
X0078893Y0217602D01*
X0020200Y0179238D02*
X0009800Y0179238D01*
X0009800Y0177639D02*
X0020200Y0177639D01*
X0020200Y0176041D02*
X0009800Y0176041D01*
X0009800Y0174442D02*
X0020200Y0174442D01*
X0020200Y0172844D02*
X0009800Y0172844D01*
X0009800Y0171245D02*
X0020200Y0171245D01*
X0021869Y0169647D02*
X0009800Y0169647D01*
X0009800Y0168048D02*
X0020053Y0168048D01*
X0019364Y0166450D02*
X0009800Y0166450D01*
X0009800Y0164851D02*
X0019200Y0164851D01*
X0019487Y0163253D02*
X0009800Y0163253D01*
X0009800Y0161654D02*
X0020351Y0161654D01*
X0022587Y0160056D02*
X0009800Y0160056D01*
X0009800Y0158457D02*
X0021462Y0158457D01*
X0020533Y0156859D02*
X0009800Y0156859D01*
X0009800Y0155260D02*
X0020200Y0155260D01*
X0020318Y0153662D02*
X0009800Y0153662D01*
X0009800Y0152063D02*
X0020980Y0152063D01*
X0022600Y0150465D02*
X0009800Y0150465D01*
X0009800Y0148866D02*
X0020871Y0148866D01*
X0019703Y0147268D02*
X0009800Y0147268D01*
X0009800Y0145669D02*
X0019200Y0145669D01*
X0019200Y0144070D02*
X0009800Y0144070D01*
X0009800Y0142472D02*
X0019810Y0142472D01*
X0021131Y0140873D02*
X0009800Y0140873D01*
X0009800Y0139275D02*
X0022280Y0139275D01*
X0020872Y0137676D02*
X0009800Y0137676D01*
X0009800Y0136078D02*
X0020210Y0136078D01*
X0020200Y0134479D02*
X0009800Y0134479D01*
X0009800Y0132881D02*
X0020641Y0132881D01*
X0021722Y0131282D02*
X0009800Y0131282D01*
X0009800Y0129684D02*
X0021958Y0129684D01*
X0020090Y0128085D02*
X0009800Y0128085D01*
X0009800Y0126487D02*
X0019379Y0126487D01*
X0019200Y0124888D02*
X0009800Y0124888D01*
X0009800Y0123290D02*
X0019472Y0123290D01*
X0020313Y0121691D02*
X0009800Y0121691D01*
X0009800Y0120093D02*
X0022497Y0120093D01*
X0021499Y0118494D02*
X0009800Y0118494D01*
X0009800Y0116896D02*
X0020549Y0116896D01*
X0020200Y0115297D02*
X0009800Y0115297D01*
X0009800Y0113699D02*
X0020302Y0113699D01*
X0020964Y0112100D02*
X0009800Y0112100D01*
X0009800Y0110502D02*
X0022510Y0110502D01*
X0020625Y0108903D02*
X0009800Y0108903D01*
X0009800Y0107305D02*
X0019502Y0107305D01*
X0019043Y0105706D02*
X0009800Y0105706D01*
X0009800Y0104108D02*
X0019073Y0104108D01*
X0019596Y0102509D02*
X0009800Y0102509D01*
X0009800Y0100911D02*
X0020811Y0100911D01*
X0024300Y0100911D02*
X0024700Y0100911D01*
X0024700Y0102509D02*
X0024300Y0102509D01*
X0024300Y0104108D02*
X0024700Y0104108D01*
X0092200Y0096115D02*
X0339342Y0096115D01*
X0339342Y0094517D02*
X0092200Y0094517D01*
X0092200Y0092918D02*
X0349200Y0092918D01*
X0349200Y0093300D02*
X0349200Y0091700D01*
X0350800Y0091700D01*
X0350800Y0093300D01*
X0360658Y0093300D01*
X0360658Y0096915D01*
X0354415Y0103158D01*
X0350800Y0103158D01*
X0350800Y0093300D01*
X0349200Y0093300D01*
X0349200Y0094517D02*
X0350800Y0094517D01*
X0350800Y0096115D02*
X0349200Y0096115D01*
X0349200Y0097714D02*
X0350800Y0097714D01*
X0350800Y0099312D02*
X0349200Y0099312D01*
X0349200Y0100911D02*
X0350800Y0100911D01*
X0350800Y0102509D02*
X0349200Y0102509D01*
X0355064Y0102509D02*
X0393200Y0102509D01*
X0393200Y0100911D02*
X0356662Y0100911D01*
X0358261Y0099312D02*
X0393200Y0099312D01*
X0393200Y0097714D02*
X0359859Y0097714D01*
X0360658Y0096115D02*
X0393200Y0096115D01*
X0393200Y0094517D02*
X0360658Y0094517D01*
X0360658Y0091700D02*
X0350800Y0091700D01*
X0350800Y0081842D01*
X0354415Y0081842D01*
X0360658Y0088085D01*
X0360658Y0091700D01*
X0360658Y0091320D02*
X0393200Y0091320D01*
X0393200Y0092918D02*
X0350800Y0092918D01*
X0350800Y0091320D02*
X0349200Y0091320D01*
X0349200Y0091700D02*
X0349200Y0081842D01*
X0345585Y0081842D01*
X0339342Y0088085D01*
X0339342Y0091700D01*
X0349200Y0091700D01*
X0349200Y0089721D02*
X0350800Y0089721D01*
X0350800Y0088123D02*
X0349200Y0088123D01*
X0349200Y0086524D02*
X0350800Y0086524D01*
X0350800Y0084926D02*
X0349200Y0084926D01*
X0349200Y0083327D02*
X0350800Y0083327D01*
X0355900Y0083327D02*
X0358407Y0083327D01*
X0358638Y0084189D02*
X0357898Y0081429D01*
X0357898Y0078571D01*
X0358638Y0075811D01*
X0360066Y0073337D01*
X0362087Y0071316D01*
X0364561Y0069888D01*
X0367321Y0069148D01*
X0370179Y0069148D01*
X0372939Y0069888D01*
X0375413Y0071316D01*
X0377434Y0073337D01*
X0378862Y0075811D01*
X0379602Y0078571D01*
X0379602Y0081429D01*
X0378862Y0084189D01*
X0377434Y0086663D01*
X0375413Y0088684D01*
X0372939Y0090112D01*
X0370179Y0090852D01*
X0367321Y0090852D01*
X0364561Y0090112D01*
X0362087Y0088684D01*
X0360066Y0086663D01*
X0358638Y0084189D01*
X0359063Y0084926D02*
X0357499Y0084926D01*
X0359097Y0086524D02*
X0359986Y0086524D01*
X0360658Y0088123D02*
X0361526Y0088123D01*
X0360658Y0089721D02*
X0363884Y0089721D01*
X0373616Y0089721D02*
X0393200Y0089721D01*
X0393200Y0088123D02*
X0375974Y0088123D01*
X0377514Y0086524D02*
X0393200Y0086524D01*
X0393200Y0084926D02*
X0378437Y0084926D01*
X0379093Y0083327D02*
X0393200Y0083327D01*
X0393200Y0081729D02*
X0379522Y0081729D01*
X0379602Y0080130D02*
X0393200Y0080130D01*
X0393200Y0078532D02*
X0379591Y0078532D01*
X0379163Y0076933D02*
X0393200Y0076933D01*
X0393200Y0075334D02*
X0378587Y0075334D01*
X0377664Y0073736D02*
X0393200Y0073736D01*
X0393200Y0072137D02*
X0376234Y0072137D01*
X0374067Y0070539D02*
X0393200Y0070539D01*
X0393200Y0068940D02*
X0360849Y0068940D01*
X0360852Y0068929D02*
X0360112Y0071689D01*
X0358684Y0074163D01*
X0356663Y0076184D01*
X0354189Y0077612D01*
X0351429Y0078352D01*
X0348571Y0078352D01*
X0345811Y0077612D01*
X0343337Y0076184D01*
X0341316Y0074163D01*
X0339888Y0071689D01*
X0339148Y0068929D01*
X0339148Y0066071D01*
X0339888Y0063311D01*
X0341316Y0060837D01*
X0343337Y0058816D01*
X0345811Y0057388D01*
X0348571Y0056648D01*
X0351429Y0056648D01*
X0354189Y0057388D01*
X0356663Y0058816D01*
X0358684Y0060837D01*
X0360112Y0063311D01*
X0360852Y0066071D01*
X0360852Y0068929D01*
X0360852Y0067342D02*
X0393200Y0067342D01*
X0393200Y0065743D02*
X0360764Y0065743D01*
X0360336Y0064145D02*
X0393200Y0064145D01*
X0393200Y0062546D02*
X0359671Y0062546D01*
X0358748Y0060948D02*
X0393200Y0060948D01*
X0393200Y0059349D02*
X0357196Y0059349D01*
X0354818Y0057751D02*
X0393200Y0057751D01*
X0393200Y0056152D02*
X0244175Y0056152D01*
X0244175Y0054554D02*
X0259362Y0054554D01*
X0259183Y0054424D02*
X0258537Y0053778D01*
X0258001Y0053040D01*
X0257586Y0052226D01*
X0257304Y0051358D01*
X0257161Y0050456D01*
X0257161Y0050381D01*
X0262580Y0050381D01*
X0262580Y0049619D01*
X0257161Y0049619D01*
X0257161Y0049544D01*
X0257304Y0048642D01*
X0257586Y0047774D01*
X0258001Y0046960D01*
X0258537Y0046222D01*
X0259183Y0045576D01*
X0259922Y0045039D01*
X0260735Y0044625D01*
X0261603Y0044343D01*
X0262505Y0044200D01*
X0262580Y0044200D01*
X0262580Y0049619D01*
X0263343Y0049619D01*
X0263343Y0050381D01*
X0268761Y0050381D01*
X0268761Y0050456D01*
X0268619Y0051358D01*
X0268336Y0052226D01*
X0267922Y0053040D01*
X0267385Y0053778D01*
X0266740Y0054424D01*
X0266001Y0054961D01*
X0265188Y0055375D01*
X0264320Y0055657D01*
X0263418Y0055800D01*
X0263343Y0055800D01*
X0263343Y0050381D01*
X0262580Y0050381D01*
X0262580Y0055800D01*
X0262505Y0055800D01*
X0261603Y0055657D01*
X0260735Y0055375D01*
X0259922Y0054961D01*
X0259183Y0054424D01*
X0257958Y0052955D02*
X0244175Y0052955D01*
X0244175Y0051595D02*
X0244175Y0058405D01*
X0243539Y0059940D01*
X0242365Y0061114D01*
X0240830Y0061750D01*
X0239170Y0061750D01*
X0237635Y0061114D01*
X0236461Y0059940D01*
X0235825Y0058405D01*
X0235825Y0051595D01*
X0236461Y0050060D01*
X0237635Y0048886D01*
X0239170Y0048250D01*
X0240830Y0048250D01*
X0242365Y0048886D01*
X0243539Y0050060D01*
X0244175Y0051595D01*
X0244076Y0051357D02*
X0257304Y0051357D01*
X0257461Y0048160D02*
X0211030Y0048160D01*
X0211024Y0048158D02*
X0211679Y0048371D01*
X0212293Y0048684D01*
X0212850Y0049088D01*
X0213337Y0049575D01*
X0213742Y0050132D01*
X0214054Y0050746D01*
X0214267Y0051401D01*
X0214375Y0052081D01*
X0214375Y0055000D01*
X0214375Y0057919D01*
X0214267Y0058599D01*
X0214054Y0059254D01*
X0213742Y0059868D01*
X0213337Y0060425D01*
X0212850Y0060912D01*
X0212293Y0061316D01*
X0211679Y0061629D01*
X0211024Y0061842D01*
X0210344Y0061950D01*
X0210000Y0061950D01*
X0209656Y0061950D01*
X0208976Y0061842D01*
X0208321Y0061629D01*
X0207707Y0061316D01*
X0207150Y0060912D01*
X0206663Y0060425D01*
X0206258Y0059868D01*
X0205946Y0059254D01*
X0205733Y0058599D01*
X0205625Y0057919D01*
X0205625Y0055000D01*
X0210000Y0055000D01*
X0214375Y0055000D01*
X0210000Y0055000D01*
X0210000Y0055000D01*
X0210000Y0055000D01*
X0210000Y0061950D01*
X0210000Y0055000D01*
X0210000Y0048050D01*
X0210000Y0055000D01*
X0210000Y0055000D01*
X0210000Y0055000D01*
X0205625Y0055000D01*
X0205625Y0052081D01*
X0205733Y0051401D01*
X0205946Y0050746D01*
X0206258Y0050132D01*
X0206663Y0049575D01*
X0207150Y0049088D01*
X0207707Y0048684D01*
X0208321Y0048371D01*
X0208976Y0048158D01*
X0209656Y0048050D01*
X0210000Y0048050D01*
X0210344Y0048050D01*
X0211024Y0048158D01*
X0210000Y0048160D02*
X0210000Y0048160D01*
X0208970Y0048160D02*
X0162200Y0048160D01*
X0162200Y0046561D02*
X0258291Y0046561D01*
X0260072Y0044963D02*
X0162200Y0044963D01*
X0162200Y0043364D02*
X0393200Y0043364D01*
X0393200Y0041766D02*
X0162200Y0041766D01*
X0162200Y0040167D02*
X0393200Y0040167D01*
X0393200Y0038569D02*
X0162200Y0038569D01*
X0162200Y0036970D02*
X0373705Y0036970D01*
X0373108Y0036810D02*
X0370218Y0035142D01*
X0367858Y0032782D01*
X0366190Y0029892D01*
X0365326Y0026669D01*
X0365326Y0023331D01*
X0366190Y0020108D01*
X0367858Y0017218D01*
X0370218Y0014858D01*
X0373108Y0013190D01*
X0376331Y0012326D01*
X0379669Y0012326D01*
X0382892Y0013190D01*
X0385782Y0014858D01*
X0388142Y0017218D01*
X0389810Y0020108D01*
X0390674Y0023331D01*
X0390674Y0026669D01*
X0389810Y0029892D01*
X0388142Y0032782D01*
X0385782Y0035142D01*
X0382892Y0036810D01*
X0379669Y0037674D01*
X0376331Y0037674D01*
X0373108Y0036810D01*
X0370616Y0035372D02*
X0162200Y0035372D01*
X0162200Y0033773D02*
X0368849Y0033773D01*
X0367508Y0032175D02*
X0162200Y0032175D01*
X0162200Y0030576D02*
X0366585Y0030576D01*
X0365945Y0028978D02*
X0162200Y0028978D01*
X0162200Y0027379D02*
X0365516Y0027379D01*
X0365326Y0025781D02*
X0162200Y0025781D01*
X0162200Y0024182D02*
X0365326Y0024182D01*
X0365526Y0022584D02*
X0162200Y0022584D01*
X0162200Y0020985D02*
X0365955Y0020985D01*
X0366606Y0019387D02*
X0162200Y0019387D01*
X0162200Y0017788D02*
X0367529Y0017788D01*
X0368887Y0016190D02*
X0161801Y0016190D01*
X0160202Y0014591D02*
X0370681Y0014591D01*
X0373844Y0012993D02*
X0158604Y0012993D01*
X0157005Y0011394D02*
X0391621Y0011394D01*
X0392753Y0012993D02*
X0382156Y0012993D01*
X0385319Y0014591D02*
X0393166Y0014591D01*
X0393200Y0016190D02*
X0387113Y0016190D01*
X0388471Y0017788D02*
X0393200Y0017788D01*
X0393200Y0019387D02*
X0389394Y0019387D01*
X0390045Y0020985D02*
X0393200Y0020985D01*
X0393200Y0022584D02*
X0390474Y0022584D01*
X0390674Y0024182D02*
X0393200Y0024182D01*
X0393200Y0025781D02*
X0390674Y0025781D01*
X0390484Y0027379D02*
X0393200Y0027379D01*
X0393200Y0028978D02*
X0390055Y0028978D01*
X0389415Y0030576D02*
X0393200Y0030576D01*
X0393200Y0032175D02*
X0388492Y0032175D01*
X0387151Y0033773D02*
X0393200Y0033773D01*
X0393200Y0035372D02*
X0385384Y0035372D01*
X0382295Y0036970D02*
X0393200Y0036970D01*
X0393200Y0044963D02*
X0310926Y0044963D01*
X0311300Y0045337D02*
X0311300Y0054663D01*
X0310363Y0055600D01*
X0301037Y0055600D01*
X0300100Y0054663D01*
X0300100Y0045337D01*
X0301037Y0044400D01*
X0310363Y0044400D01*
X0311300Y0045337D01*
X0311300Y0046561D02*
X0393200Y0046561D01*
X0393200Y0048160D02*
X0311300Y0048160D01*
X0311300Y0049758D02*
X0393200Y0049758D01*
X0393200Y0051357D02*
X0311300Y0051357D01*
X0311300Y0052955D02*
X0393200Y0052955D01*
X0393200Y0054554D02*
X0311300Y0054554D01*
X0300100Y0054554D02*
X0294120Y0054554D01*
X0294299Y0054424D02*
X0293560Y0054961D01*
X0292747Y0055375D01*
X0291879Y0055657D01*
X0290977Y0055800D01*
X0290902Y0055800D01*
X0290902Y0050381D01*
X0296320Y0050381D01*
X0296320Y0050456D01*
X0296178Y0051358D01*
X0295896Y0052226D01*
X0295481Y0053040D01*
X0294944Y0053778D01*
X0294299Y0054424D01*
X0295524Y0052955D02*
X0300100Y0052955D01*
X0300100Y0051357D02*
X0296178Y0051357D01*
X0296320Y0049619D02*
X0290902Y0049619D01*
X0290902Y0050381D01*
X0290139Y0050381D01*
X0290139Y0049619D01*
X0284720Y0049619D01*
X0284720Y0049544D01*
X0284863Y0048642D01*
X0285145Y0047774D01*
X0285560Y0046960D01*
X0286096Y0046222D01*
X0286742Y0045576D01*
X0287481Y0045039D01*
X0288294Y0044625D01*
X0289162Y0044343D01*
X0290064Y0044200D01*
X0290139Y0044200D01*
X0290139Y0049619D01*
X0290902Y0049619D01*
X0290902Y0044200D01*
X0290977Y0044200D01*
X0291879Y0044343D01*
X0292747Y0044625D01*
X0293560Y0045039D01*
X0294299Y0045576D01*
X0294944Y0046222D01*
X0295481Y0046960D01*
X0295896Y0047774D01*
X0296178Y0048642D01*
X0296320Y0049544D01*
X0296320Y0049619D01*
X0296021Y0048160D02*
X0300100Y0048160D01*
X0300100Y0049758D02*
X0290902Y0049758D01*
X0290139Y0049758D02*
X0283741Y0049758D01*
X0283741Y0048886D02*
X0282888Y0046828D01*
X0281313Y0045253D01*
X0279255Y0044400D01*
X0277027Y0044400D01*
X0274969Y0045253D01*
X0273393Y0046828D01*
X0272541Y0048886D01*
X0272541Y0051114D01*
X0273393Y0053172D01*
X0274969Y0054747D01*
X0277027Y0055600D01*
X0279255Y0055600D01*
X0281313Y0054747D01*
X0282888Y0053172D01*
X0283741Y0051114D01*
X0283741Y0048886D01*
X0283440Y0048160D02*
X0285020Y0048160D01*
X0285850Y0046561D02*
X0282622Y0046561D01*
X0280614Y0044963D02*
X0287631Y0044963D01*
X0290139Y0044963D02*
X0290902Y0044963D01*
X0290902Y0046561D02*
X0290139Y0046561D01*
X0290139Y0048160D02*
X0290902Y0048160D01*
X0290139Y0050381D02*
X0284720Y0050381D01*
X0284720Y0050456D01*
X0284863Y0051358D01*
X0285145Y0052226D01*
X0285560Y0053040D01*
X0286096Y0053778D01*
X0286742Y0054424D01*
X0287481Y0054961D01*
X0288294Y0055375D01*
X0289162Y0055657D01*
X0290064Y0055800D01*
X0290139Y0055800D01*
X0290139Y0050381D01*
X0290139Y0051357D02*
X0290902Y0051357D01*
X0290902Y0052955D02*
X0290139Y0052955D01*
X0290139Y0054554D02*
X0290902Y0054554D01*
X0286921Y0054554D02*
X0281507Y0054554D01*
X0282978Y0052955D02*
X0285517Y0052955D01*
X0284863Y0051357D02*
X0283640Y0051357D01*
X0274775Y0054554D02*
X0266561Y0054554D01*
X0267965Y0052955D02*
X0273304Y0052955D01*
X0272642Y0051357D02*
X0268619Y0051357D01*
X0268761Y0049619D02*
X0263343Y0049619D01*
X0263343Y0044200D01*
X0263418Y0044200D01*
X0264320Y0044343D01*
X0265188Y0044625D01*
X0266001Y0045039D01*
X0266740Y0045576D01*
X0267385Y0046222D01*
X0267922Y0046960D01*
X0268336Y0047774D01*
X0268619Y0048642D01*
X0268761Y0049544D01*
X0268761Y0049619D01*
X0268462Y0048160D02*
X0272842Y0048160D01*
X0272541Y0049758D02*
X0263343Y0049758D01*
X0262580Y0049758D02*
X0243237Y0049758D01*
X0236763Y0049758D02*
X0233237Y0049758D01*
X0233539Y0050060D02*
X0234175Y0051595D01*
X0234175Y0058405D01*
X0233539Y0059940D01*
X0232365Y0061114D01*
X0230830Y0061750D01*
X0229170Y0061750D01*
X0227635Y0061114D01*
X0226461Y0059940D01*
X0225825Y0058405D01*
X0225825Y0051595D01*
X0226461Y0050060D01*
X0227635Y0048886D01*
X0229170Y0048250D01*
X0230830Y0048250D01*
X0232365Y0048886D01*
X0233539Y0050060D01*
X0234076Y0051357D02*
X0235924Y0051357D01*
X0235825Y0052955D02*
X0234175Y0052955D01*
X0234175Y0054554D02*
X0235825Y0054554D01*
X0235825Y0056152D02*
X0234175Y0056152D01*
X0234175Y0057751D02*
X0235825Y0057751D01*
X0236216Y0059349D02*
X0233784Y0059349D01*
X0232531Y0060948D02*
X0237469Y0060948D01*
X0242531Y0060948D02*
X0341252Y0060948D01*
X0340329Y0062546D02*
X0095565Y0062546D01*
X0097163Y0060948D02*
X0097469Y0060948D01*
X0093966Y0064145D02*
X0339664Y0064145D01*
X0339236Y0065743D02*
X0092368Y0065743D01*
X0092200Y0067342D02*
X0339148Y0067342D01*
X0339151Y0068940D02*
X0092200Y0068940D01*
X0092200Y0070539D02*
X0339580Y0070539D01*
X0340147Y0072137D02*
X0092200Y0072137D01*
X0092200Y0073736D02*
X0341070Y0073736D01*
X0342488Y0075334D02*
X0092200Y0075334D01*
X0092200Y0076933D02*
X0344635Y0076933D01*
X0344100Y0083327D02*
X0092200Y0083327D01*
X0092200Y0081729D02*
X0357978Y0081729D01*
X0357898Y0080130D02*
X0092200Y0080130D01*
X0092200Y0078532D02*
X0357909Y0078532D01*
X0358337Y0076933D02*
X0355365Y0076933D01*
X0357512Y0075334D02*
X0358913Y0075334D01*
X0358930Y0073736D02*
X0359836Y0073736D01*
X0359853Y0072137D02*
X0361266Y0072137D01*
X0360420Y0070539D02*
X0363433Y0070539D01*
X0345182Y0057751D02*
X0244175Y0057751D01*
X0243784Y0059349D02*
X0342804Y0059349D01*
X0342501Y0084926D02*
X0092200Y0084926D01*
X0092200Y0086524D02*
X0340903Y0086524D01*
X0339342Y0088123D02*
X0092200Y0088123D01*
X0092200Y0089721D02*
X0339342Y0089721D01*
X0339342Y0091320D02*
X0092200Y0091320D01*
X0107635Y0061114D02*
X0109170Y0061750D01*
X0110830Y0061750D01*
X0112365Y0061114D01*
X0113539Y0059940D01*
X0114175Y0058405D01*
X0114175Y0051595D01*
X0113539Y0050060D01*
X0112365Y0048886D01*
X0110830Y0048250D01*
X0109170Y0048250D01*
X0107635Y0048886D01*
X0106461Y0050060D01*
X0105825Y0051595D01*
X0105825Y0058405D01*
X0106461Y0059940D01*
X0107635Y0061114D01*
X0107469Y0060948D02*
X0102531Y0060948D01*
X0103784Y0059349D02*
X0106216Y0059349D01*
X0105825Y0057751D02*
X0104175Y0057751D01*
X0104175Y0056152D02*
X0105825Y0056152D01*
X0105825Y0054554D02*
X0104175Y0054554D01*
X0104175Y0052955D02*
X0105825Y0052955D01*
X0105924Y0051357D02*
X0104076Y0051357D01*
X0103237Y0049758D02*
X0106763Y0049758D01*
X0103148Y0044963D02*
X0126852Y0044963D01*
X0127800Y0046561D02*
X0101550Y0046561D01*
X0099951Y0048160D02*
X0127800Y0048160D01*
X0126763Y0049758D02*
X0123237Y0049758D01*
X0123539Y0050060D02*
X0124175Y0051595D01*
X0124175Y0058405D01*
X0123539Y0059940D01*
X0122365Y0061114D01*
X0120830Y0061750D01*
X0119170Y0061750D01*
X0117635Y0061114D01*
X0116461Y0059940D01*
X0115825Y0058405D01*
X0115825Y0051595D01*
X0116461Y0050060D01*
X0117635Y0048886D01*
X0119170Y0048250D01*
X0120830Y0048250D01*
X0122365Y0048886D01*
X0123539Y0050060D01*
X0124076Y0051357D02*
X0125924Y0051357D01*
X0125825Y0052955D02*
X0124175Y0052955D01*
X0124175Y0054554D02*
X0125825Y0054554D01*
X0125825Y0056152D02*
X0124175Y0056152D01*
X0124175Y0057751D02*
X0125825Y0057751D01*
X0126216Y0059349D02*
X0123784Y0059349D01*
X0122531Y0060948D02*
X0127469Y0060948D01*
X0132531Y0060948D02*
X0137469Y0060948D01*
X0136216Y0059349D02*
X0133784Y0059349D01*
X0134175Y0057751D02*
X0135825Y0057751D01*
X0135825Y0056152D02*
X0134175Y0056152D01*
X0134175Y0054554D02*
X0135825Y0054554D01*
X0135825Y0052955D02*
X0134175Y0052955D01*
X0134076Y0051357D02*
X0135924Y0051357D01*
X0136763Y0049758D02*
X0133237Y0049758D01*
X0132200Y0048160D02*
X0137800Y0048160D01*
X0137800Y0046561D02*
X0132200Y0046561D01*
X0132200Y0044963D02*
X0137800Y0044963D01*
X0137800Y0043364D02*
X0131476Y0043364D01*
X0129877Y0041766D02*
X0137800Y0041766D01*
X0137800Y0040167D02*
X0128279Y0040167D01*
X0126680Y0038569D02*
X0137800Y0038569D01*
X0136359Y0036970D02*
X0125081Y0036970D01*
X0123483Y0035372D02*
X0134760Y0035372D01*
X0133162Y0033773D02*
X0104338Y0033773D01*
X0102740Y0035372D02*
X0106517Y0035372D01*
X0104918Y0036970D02*
X0101141Y0036970D01*
X0099543Y0038569D02*
X0103320Y0038569D01*
X0101721Y0040167D02*
X0097944Y0040167D01*
X0096345Y0041766D02*
X0100123Y0041766D01*
X0098524Y0043364D02*
X0094747Y0043364D01*
X0093148Y0044963D02*
X0096926Y0044963D01*
X0095327Y0046561D02*
X0091550Y0046561D01*
X0104747Y0043364D02*
X0125253Y0043364D01*
X0123654Y0041766D02*
X0106345Y0041766D01*
X0107944Y0040167D02*
X0122056Y0040167D01*
X0116763Y0049758D02*
X0113237Y0049758D01*
X0114076Y0051357D02*
X0115924Y0051357D01*
X0115825Y0052955D02*
X0114175Y0052955D01*
X0114175Y0054554D02*
X0115825Y0054554D01*
X0115825Y0056152D02*
X0114175Y0056152D01*
X0114175Y0057751D02*
X0115825Y0057751D01*
X0116216Y0059349D02*
X0113784Y0059349D01*
X0112531Y0060948D02*
X0117469Y0060948D01*
X0142531Y0060948D02*
X0147469Y0060948D01*
X0146216Y0059349D02*
X0143784Y0059349D01*
X0144175Y0057751D02*
X0145825Y0057751D01*
X0145825Y0056152D02*
X0144175Y0056152D01*
X0144175Y0054554D02*
X0145825Y0054554D01*
X0145825Y0052955D02*
X0144175Y0052955D01*
X0144076Y0051357D02*
X0145924Y0051357D01*
X0146763Y0049758D02*
X0143237Y0049758D01*
X0142200Y0048160D02*
X0147800Y0048160D01*
X0147800Y0046561D02*
X0142200Y0046561D01*
X0142200Y0044963D02*
X0147800Y0044963D01*
X0147800Y0043364D02*
X0142200Y0043364D01*
X0142200Y0041766D02*
X0147800Y0041766D01*
X0147800Y0040167D02*
X0142200Y0040167D01*
X0142200Y0038569D02*
X0147800Y0038569D01*
X0147800Y0036970D02*
X0142200Y0036970D01*
X0140983Y0035372D02*
X0147800Y0035372D01*
X0147800Y0033773D02*
X0139384Y0033773D01*
X0137786Y0032175D02*
X0147800Y0032175D01*
X0147199Y0030576D02*
X0136187Y0030576D01*
X0134589Y0028978D02*
X0145200Y0028978D01*
X0148248Y0025781D02*
X0157800Y0025781D01*
X0157800Y0027379D02*
X0150246Y0027379D01*
X0152100Y0028978D02*
X0157800Y0028978D01*
X0157800Y0030576D02*
X0152278Y0030576D01*
X0152200Y0032175D02*
X0157800Y0032175D01*
X0157800Y0033773D02*
X0152200Y0033773D01*
X0152200Y0035372D02*
X0157800Y0035372D01*
X0157800Y0036970D02*
X0152200Y0036970D01*
X0152200Y0038569D02*
X0157800Y0038569D01*
X0157800Y0040167D02*
X0152200Y0040167D01*
X0152200Y0041766D02*
X0157800Y0041766D01*
X0157800Y0043364D02*
X0152200Y0043364D01*
X0152200Y0044963D02*
X0157800Y0044963D01*
X0157800Y0046561D02*
X0152200Y0046561D01*
X0152200Y0048160D02*
X0157800Y0048160D01*
X0156763Y0049758D02*
X0153237Y0049758D01*
X0154076Y0051357D02*
X0155924Y0051357D01*
X0155825Y0052955D02*
X0154175Y0052955D01*
X0154175Y0054554D02*
X0155825Y0054554D01*
X0155825Y0056152D02*
X0154175Y0056152D01*
X0154175Y0057751D02*
X0155825Y0057751D01*
X0156216Y0059349D02*
X0153784Y0059349D01*
X0152531Y0060948D02*
X0157469Y0060948D01*
X0162531Y0060948D02*
X0167469Y0060948D01*
X0167635Y0061114D02*
X0166461Y0059940D01*
X0165825Y0058405D01*
X0165825Y0051595D01*
X0166461Y0050060D01*
X0167635Y0048886D01*
X0169170Y0048250D01*
X0170830Y0048250D01*
X0172365Y0048886D01*
X0173539Y0050060D01*
X0174175Y0051595D01*
X0174175Y0058405D01*
X0173539Y0059940D01*
X0172365Y0061114D01*
X0170830Y0061750D01*
X0169170Y0061750D01*
X0167635Y0061114D01*
X0166216Y0059349D02*
X0163784Y0059349D01*
X0164175Y0057751D02*
X0165825Y0057751D01*
X0165825Y0056152D02*
X0164175Y0056152D01*
X0164175Y0054554D02*
X0165825Y0054554D01*
X0165825Y0052955D02*
X0164175Y0052955D01*
X0164076Y0051357D02*
X0165924Y0051357D01*
X0166763Y0049758D02*
X0163237Y0049758D01*
X0173237Y0049758D02*
X0176763Y0049758D01*
X0176461Y0050060D02*
X0177635Y0048886D01*
X0179170Y0048250D01*
X0180830Y0048250D01*
X0182365Y0048886D01*
X0183539Y0050060D01*
X0184175Y0051595D01*
X0184175Y0058405D01*
X0183539Y0059940D01*
X0182365Y0061114D01*
X0180830Y0061750D01*
X0179170Y0061750D01*
X0177635Y0061114D01*
X0176461Y0059940D01*
X0175825Y0058405D01*
X0175825Y0051595D01*
X0176461Y0050060D01*
X0175924Y0051357D02*
X0174076Y0051357D01*
X0174175Y0052955D02*
X0175825Y0052955D01*
X0175825Y0054554D02*
X0174175Y0054554D01*
X0174175Y0056152D02*
X0175825Y0056152D01*
X0175825Y0057751D02*
X0174175Y0057751D01*
X0173784Y0059349D02*
X0176216Y0059349D01*
X0177469Y0060948D02*
X0172531Y0060948D01*
X0182531Y0060948D02*
X0187469Y0060948D01*
X0187635Y0061114D02*
X0186461Y0059940D01*
X0185825Y0058405D01*
X0185825Y0051595D01*
X0186461Y0050060D01*
X0187635Y0048886D01*
X0189170Y0048250D01*
X0190830Y0048250D01*
X0192365Y0048886D01*
X0193539Y0050060D01*
X0194175Y0051595D01*
X0194175Y0058405D01*
X0193539Y0059940D01*
X0192365Y0061114D01*
X0190830Y0061750D01*
X0189170Y0061750D01*
X0187635Y0061114D01*
X0186216Y0059349D02*
X0183784Y0059349D01*
X0184175Y0057751D02*
X0185825Y0057751D01*
X0185825Y0056152D02*
X0184175Y0056152D01*
X0184175Y0054554D02*
X0185825Y0054554D01*
X0185825Y0052955D02*
X0184175Y0052955D01*
X0184076Y0051357D02*
X0185924Y0051357D01*
X0186763Y0049758D02*
X0183237Y0049758D01*
X0193237Y0049758D02*
X0196763Y0049758D01*
X0196461Y0050060D02*
X0197635Y0048886D01*
X0199170Y0048250D01*
X0200830Y0048250D01*
X0202365Y0048886D01*
X0203539Y0050060D01*
X0204175Y0051595D01*
X0204175Y0058405D01*
X0203539Y0059940D01*
X0202365Y0061114D01*
X0200830Y0061750D01*
X0199170Y0061750D01*
X0197635Y0061114D01*
X0196461Y0059940D01*
X0195825Y0058405D01*
X0195825Y0051595D01*
X0196461Y0050060D01*
X0195924Y0051357D02*
X0194076Y0051357D01*
X0194175Y0052955D02*
X0195825Y0052955D01*
X0195825Y0054554D02*
X0194175Y0054554D01*
X0194175Y0056152D02*
X0195825Y0056152D01*
X0195825Y0057751D02*
X0194175Y0057751D01*
X0193784Y0059349D02*
X0196216Y0059349D01*
X0197469Y0060948D02*
X0192531Y0060948D01*
X0202531Y0060948D02*
X0207200Y0060948D01*
X0205994Y0059349D02*
X0203784Y0059349D01*
X0204175Y0057751D02*
X0205625Y0057751D01*
X0205625Y0056152D02*
X0204175Y0056152D01*
X0204175Y0054554D02*
X0205625Y0054554D01*
X0205625Y0052955D02*
X0204175Y0052955D01*
X0204076Y0051357D02*
X0205747Y0051357D01*
X0206530Y0049758D02*
X0203237Y0049758D01*
X0210000Y0049758D02*
X0210000Y0049758D01*
X0210000Y0051357D02*
X0210000Y0051357D01*
X0210000Y0052955D02*
X0210000Y0052955D01*
X0210000Y0054554D02*
X0210000Y0054554D01*
X0210000Y0056152D02*
X0210000Y0056152D01*
X0210000Y0057751D02*
X0210000Y0057751D01*
X0210000Y0059349D02*
X0210000Y0059349D01*
X0210000Y0060948D02*
X0210000Y0060948D01*
X0212800Y0060948D02*
X0217469Y0060948D01*
X0217635Y0061114D02*
X0216461Y0059940D01*
X0215825Y0058405D01*
X0215825Y0051595D01*
X0216461Y0050060D01*
X0217635Y0048886D01*
X0219170Y0048250D01*
X0220830Y0048250D01*
X0222365Y0048886D01*
X0223539Y0050060D01*
X0224175Y0051595D01*
X0224175Y0058405D01*
X0223539Y0059940D01*
X0222365Y0061114D01*
X0220830Y0061750D01*
X0219170Y0061750D01*
X0217635Y0061114D01*
X0216216Y0059349D02*
X0214006Y0059349D01*
X0214375Y0057751D02*
X0215825Y0057751D01*
X0215825Y0056152D02*
X0214375Y0056152D01*
X0214375Y0054554D02*
X0215825Y0054554D01*
X0215825Y0052955D02*
X0214375Y0052955D01*
X0214253Y0051357D02*
X0215924Y0051357D01*
X0216763Y0049758D02*
X0213470Y0049758D01*
X0223237Y0049758D02*
X0226763Y0049758D01*
X0225924Y0051357D02*
X0224076Y0051357D01*
X0224175Y0052955D02*
X0225825Y0052955D01*
X0225825Y0054554D02*
X0224175Y0054554D01*
X0224175Y0056152D02*
X0225825Y0056152D01*
X0225825Y0057751D02*
X0224175Y0057751D01*
X0223784Y0059349D02*
X0226216Y0059349D01*
X0227469Y0060948D02*
X0222531Y0060948D01*
X0262580Y0054554D02*
X0263343Y0054554D01*
X0263343Y0052955D02*
X0262580Y0052955D01*
X0262580Y0051357D02*
X0263343Y0051357D01*
X0263343Y0048160D02*
X0262580Y0048160D01*
X0262580Y0046561D02*
X0263343Y0046561D01*
X0263343Y0044963D02*
X0262580Y0044963D01*
X0265851Y0044963D02*
X0275668Y0044963D01*
X0273660Y0046561D02*
X0267632Y0046561D01*
X0293410Y0044963D02*
X0300474Y0044963D01*
X0300100Y0046561D02*
X0295191Y0046561D01*
X0355000Y0131282D02*
X0355000Y0131282D01*
X0355000Y0132881D02*
X0355000Y0132881D01*
X0355000Y0134479D02*
X0355000Y0134479D01*
X0355000Y0136078D02*
X0355000Y0136078D01*
X0355000Y0137676D02*
X0355000Y0137676D01*
X0355000Y0139275D02*
X0355000Y0139275D01*
X0357708Y0139275D02*
X0362647Y0139275D01*
X0360859Y0137676D02*
X0359298Y0137676D01*
X0359942Y0136078D02*
X0360197Y0136078D01*
X0360150Y0134479D02*
X0360030Y0134479D01*
X0359588Y0132881D02*
X0360628Y0132881D01*
X0361859Y0131282D02*
X0358424Y0131282D01*
X0157800Y0024182D02*
X0146249Y0024182D01*
X0144251Y0022584D02*
X0157800Y0022584D01*
X0157800Y0020985D02*
X0142253Y0020985D01*
X0140255Y0019387D02*
X0157800Y0019387D01*
X0157177Y0017788D02*
X0138257Y0017788D01*
X0137485Y0017788D02*
X0100323Y0017788D01*
X0101922Y0016190D02*
X0155578Y0016190D01*
D22*
X0155000Y0012500D02*
X0160000Y0017500D01*
X0160000Y0055000D01*
X0150000Y0055000D02*
X0150000Y0030000D01*
X0137500Y0020000D01*
X0105000Y0020000D01*
X0062500Y0062500D01*
X0062500Y0132500D01*
X0064500Y0135000D01*
X0115000Y0185500D01*
X0115000Y0190000D01*
X0110000Y0195000D01*
X0077500Y0195000D01*
X0065000Y0207500D01*
X0065000Y0215000D01*
X0067500Y0222500D02*
X0065000Y0224500D01*
X0065000Y0235500D01*
X0067500Y0222500D02*
X0122500Y0222500D01*
X0125000Y0220000D01*
X0125000Y0214000D01*
X0125000Y0205000D01*
X0130000Y0200000D01*
X0140000Y0200000D01*
X0145000Y0195000D01*
X0145000Y0184500D01*
X0095500Y0135000D01*
X0090000Y0130000D01*
X0090000Y0065000D01*
X0100000Y0055000D01*
X0082500Y0062500D02*
X0107500Y0037500D01*
X0122500Y0037500D01*
X0130000Y0045000D01*
X0130000Y0055000D01*
X0140000Y0055000D02*
X0140000Y0037500D01*
X0132500Y0030000D01*
X0105000Y0030000D01*
X0072500Y0062500D01*
X0072500Y0132500D01*
X0075500Y0135000D01*
X0125000Y0184500D01*
X0125000Y0187500D01*
X0112500Y0200000D01*
X0081250Y0200000D01*
X0076250Y0205250D01*
X0075000Y0214000D01*
X0085000Y0215000D02*
X0085000Y0207500D01*
X0087500Y0205000D01*
X0115500Y0205000D01*
X0135000Y0185500D01*
X0128496Y0178996D01*
X0086496Y0138996D01*
X0082500Y0135000D01*
X0082500Y0062500D01*
X0055000Y0060000D02*
X0102500Y0012500D01*
X0155000Y0012500D01*
X0055000Y0060000D02*
X0055000Y0135000D01*
X0090000Y0170000D01*
X0055000Y0205000D01*
X0055000Y0214000D01*
X0100000Y0227500D02*
X0102500Y0225000D01*
X0125000Y0225000D01*
X0135000Y0215000D01*
X0135000Y0210000D01*
X0155000Y0190000D01*
X0155000Y0185500D01*
X0100000Y0130500D01*
X0100000Y0115000D01*
X0110000Y0115000D02*
X0110000Y0130000D01*
X0110500Y0130000D01*
X0165000Y0184500D01*
X0165000Y0190000D01*
X0160000Y0195000D01*
X0155000Y0195000D01*
X0145000Y0205000D01*
X0145000Y0214000D01*
X0145000Y0220000D01*
X0135000Y0230000D01*
X0135000Y0235500D01*
X0155000Y0220000D02*
X0160000Y0225000D01*
X0165000Y0225000D01*
X0170000Y0230000D01*
X0170000Y0235500D01*
X0155000Y0220000D02*
X0155000Y0215000D01*
X0155000Y0205000D01*
X0160000Y0200000D01*
X0170000Y0200000D01*
X0175000Y0195000D01*
X0175000Y0185500D01*
X0175000Y0175000D01*
X0170000Y0170000D01*
X0160000Y0170000D01*
X0120000Y0130000D01*
X0120000Y0115000D01*
X0130000Y0115000D02*
X0130000Y0130000D01*
X0160000Y0160000D01*
X0220000Y0160000D01*
X0230000Y0170000D01*
X0230000Y0184500D01*
X0230000Y0192500D01*
X0220000Y0202500D01*
X0220000Y0214000D01*
X0220000Y0220000D01*
X0205500Y0234500D01*
X0205000Y0234500D01*
X0215000Y0235000D02*
X0230000Y0220000D01*
X0230000Y0215000D01*
X0230000Y0205000D01*
X0240000Y0195000D01*
X0240000Y0185500D01*
X0240000Y0170000D01*
X0225000Y0155000D01*
X0165000Y0155000D01*
X0140000Y0130000D01*
X0140000Y0115000D01*
X0150000Y0115000D02*
X0150000Y0130000D01*
X0170000Y0150000D01*
X0230000Y0150000D01*
X0249872Y0169872D01*
X0250000Y0172244D01*
X0250000Y0184500D01*
X0250000Y0192500D01*
X0240000Y0202500D01*
X0240000Y0214000D01*
X0240000Y0220000D01*
X0245000Y0225000D01*
X0250000Y0225000D01*
X0255000Y0230000D01*
X0255000Y0234500D01*
X0254500Y0234500D01*
X0265000Y0235500D02*
X0265000Y0225000D01*
X0262500Y0222500D01*
X0252500Y0222500D01*
X0250000Y0220000D01*
X0250000Y0215000D01*
X0250246Y0204754D01*
X0260000Y0195000D01*
X0260000Y0185500D01*
X0260000Y0170000D01*
X0235000Y0145000D01*
X0175000Y0145000D01*
X0160000Y0130000D01*
X0160000Y0115000D01*
X0170000Y0115000D02*
X0170000Y0130000D01*
X0177500Y0137500D01*
X0240000Y0137500D01*
X0270000Y0167500D01*
X0270000Y0184500D01*
X0270000Y0190000D01*
X0294000Y0214000D01*
X0295000Y0214000D01*
X0295000Y0225000D01*
X0304500Y0234500D01*
X0305000Y0234500D01*
X0315000Y0235500D02*
X0315000Y0230000D01*
X0305000Y0220000D01*
X0305000Y0215000D01*
X0305000Y0207500D01*
X0302500Y0205000D01*
X0295000Y0205000D01*
X0280000Y0190000D01*
X0280000Y0187500D01*
X0280000Y0185500D02*
X0280000Y0167500D01*
X0245000Y0132500D01*
X0182500Y0132500D01*
X0180000Y0130000D01*
X0180000Y0115000D01*
X0190000Y0115000D02*
X0190000Y0125000D01*
X0192500Y0127500D01*
X0250000Y0127500D01*
X0290000Y0167500D01*
X0290000Y0184500D01*
X0290000Y0192500D01*
X0297500Y0200000D01*
X0312500Y0200000D01*
X0315000Y0202500D01*
X0315000Y0214000D01*
X0315000Y0220000D01*
X0320000Y0225000D01*
X0355000Y0225000D01*
X0360000Y0230000D01*
X0360000Y0234500D01*
X0370000Y0235500D02*
X0370000Y0225000D01*
X0345000Y0195000D01*
X0330000Y0195000D01*
X0325000Y0200000D01*
X0325000Y0215000D01*
X0325000Y0200000D02*
X0320000Y0195000D01*
X0302500Y0195000D01*
X0300000Y0192500D01*
X0300000Y0185500D01*
X0300000Y0170000D01*
X0252500Y0122500D01*
X0252500Y0102500D01*
X0250000Y0100000D01*
X0202500Y0100000D01*
X0200000Y0102500D01*
X0200000Y0115000D01*
X0105000Y0184500D02*
X0102874Y0182874D01*
X0090000Y0170000D01*
X0145000Y0214000D02*
X0145000Y0215000D01*
X0100000Y0227500D02*
X0100000Y0235500D01*
X0215000Y0235500D02*
X0215000Y0235000D01*
M02*
