G75*
%MOIN*%
%OFA0B0*%
%FSLAX25Y25*%
%IPPOS*%
%LPD*%
%AMOC8*
5,1,8,0,0,1.08239X$1,22.5*
%
%ADD10C,0.00000*%
%ADD11C,0.00200*%
%ADD12C,0.01200*%
%ADD13C,0.00500*%
%ADD14C,0.00300*%
D10*
X0014843Y0005000D02*
X0032559Y0005000D01*
X0387598Y0005000D01*
X0387843Y0004996D01*
X0388088Y0004998D01*
X0388332Y0005006D01*
X0388577Y0005020D01*
X0388821Y0005040D01*
X0389064Y0005066D01*
X0389307Y0005097D01*
X0389548Y0005135D01*
X0389789Y0005178D01*
X0390029Y0005227D01*
X0390267Y0005282D01*
X0390504Y0005343D01*
X0390740Y0005409D01*
X0390974Y0005481D01*
X0391206Y0005558D01*
X0391436Y0005642D01*
X0391664Y0005730D01*
X0391890Y0005825D01*
X0392113Y0005924D01*
X0392334Y0006029D01*
X0392553Y0006140D01*
X0392769Y0006255D01*
X0392981Y0006376D01*
X0393191Y0006502D01*
X0393398Y0006633D01*
X0393601Y0006769D01*
X0393802Y0006909D01*
X0393998Y0007055D01*
X0394191Y0007205D01*
X0394381Y0007360D01*
X0394567Y0007519D01*
X0394748Y0007683D01*
X0394926Y0007852D01*
X0395100Y0008024D01*
X0395269Y0008201D01*
X0395434Y0008381D01*
X0395595Y0008566D01*
X0395751Y0008754D01*
X0395903Y0008946D01*
X0396050Y0009142D01*
X0396192Y0009341D01*
X0396329Y0009544D01*
X0396461Y0009749D01*
X0396589Y0009958D01*
X0396711Y0010170D01*
X0396828Y0010385D01*
X0396940Y0010603D01*
X0397046Y0010823D01*
X0397147Y0011046D01*
X0397243Y0011271D01*
X0397334Y0011499D01*
X0397418Y0011728D01*
X0397498Y0011960D01*
X0397571Y0012193D01*
X0397639Y0012428D01*
X0397701Y0012665D01*
X0397758Y0012903D01*
X0397809Y0013142D01*
X0397854Y0013383D01*
X0397893Y0013624D01*
X0397926Y0013867D01*
X0397953Y0014110D01*
X0397975Y0014354D01*
X0397990Y0014598D01*
X0398000Y0014842D01*
X0398000Y0014843D02*
X0398000Y0243000D01*
X0398000Y0265000D01*
X0398004Y0265259D01*
X0398002Y0265517D01*
X0397993Y0265776D01*
X0397979Y0266034D01*
X0397958Y0266292D01*
X0397931Y0266549D01*
X0397897Y0266806D01*
X0397858Y0267061D01*
X0397812Y0267316D01*
X0397760Y0267569D01*
X0397703Y0267822D01*
X0397639Y0268072D01*
X0397569Y0268321D01*
X0397493Y0268568D01*
X0397411Y0268814D01*
X0397323Y0269057D01*
X0397229Y0269298D01*
X0397129Y0269537D01*
X0397024Y0269773D01*
X0396913Y0270007D01*
X0396797Y0270238D01*
X0396674Y0270466D01*
X0396547Y0270691D01*
X0396414Y0270913D01*
X0396276Y0271132D01*
X0396132Y0271347D01*
X0395983Y0271558D01*
X0395829Y0271766D01*
X0395671Y0271971D01*
X0395507Y0272171D01*
X0395339Y0272367D01*
X0395165Y0272560D01*
X0394988Y0272748D01*
X0394805Y0272931D01*
X0394619Y0273110D01*
X0394428Y0273285D01*
X0394233Y0273455D01*
X0394034Y0273620D01*
X0393831Y0273780D01*
X0393624Y0273936D01*
X0393413Y0274086D01*
X0393199Y0274231D01*
X0392982Y0274371D01*
X0392761Y0274506D01*
X0392537Y0274635D01*
X0392310Y0274759D01*
X0392080Y0274877D01*
X0391847Y0274990D01*
X0391611Y0275097D01*
X0391373Y0275198D01*
X0391133Y0275294D01*
X0390890Y0275384D01*
X0390646Y0275467D01*
X0390399Y0275545D01*
X0390150Y0275617D01*
X0389900Y0275683D01*
X0389648Y0275743D01*
X0389395Y0275797D01*
X0389141Y0275844D01*
X0388886Y0275886D01*
X0388630Y0275921D01*
X0388372Y0275950D01*
X0388115Y0275973D01*
X0387857Y0275989D01*
X0387598Y0276000D01*
X0064055Y0276000D01*
X0014843Y0276000D01*
X0014842Y0276000D02*
X0014591Y0275983D01*
X0014339Y0275960D01*
X0014089Y0275931D01*
X0013839Y0275895D01*
X0013590Y0275854D01*
X0013343Y0275807D01*
X0013096Y0275754D01*
X0012851Y0275695D01*
X0012607Y0275630D01*
X0012365Y0275559D01*
X0012125Y0275482D01*
X0011887Y0275399D01*
X0011650Y0275311D01*
X0011416Y0275217D01*
X0011185Y0275118D01*
X0010955Y0275012D01*
X0010729Y0274902D01*
X0010505Y0274786D01*
X0010284Y0274664D01*
X0010066Y0274537D01*
X0009851Y0274405D01*
X0009639Y0274268D01*
X0009431Y0274126D01*
X0009226Y0273979D01*
X0009025Y0273827D01*
X0008828Y0273670D01*
X0008634Y0273508D01*
X0008444Y0273342D01*
X0008259Y0273171D01*
X0008077Y0272995D01*
X0007900Y0272816D01*
X0007728Y0272632D01*
X0007560Y0272444D01*
X0007396Y0272252D01*
X0007237Y0272056D01*
X0007083Y0271857D01*
X0006934Y0271653D01*
X0006789Y0271446D01*
X0006650Y0271236D01*
X0006516Y0271022D01*
X0006387Y0270806D01*
X0006263Y0270586D01*
X0006145Y0270363D01*
X0006032Y0270138D01*
X0005925Y0269909D01*
X0005823Y0269679D01*
X0005727Y0269446D01*
X0005636Y0269210D01*
X0005551Y0268973D01*
X0005472Y0268733D01*
X0005399Y0268492D01*
X0005331Y0268249D01*
X0005270Y0268004D01*
X0005214Y0267758D01*
X0005164Y0267511D01*
X0005121Y0267263D01*
X0005083Y0267013D01*
X0005051Y0266763D01*
X0005026Y0266512D01*
X0005006Y0266261D01*
X0004993Y0266009D01*
X0004986Y0265757D01*
X0004984Y0265504D01*
X0004989Y0265252D01*
X0005000Y0265000D01*
X0005000Y0036500D01*
X0005000Y0014843D01*
X0005003Y0014605D01*
X0005011Y0014367D01*
X0005026Y0014130D01*
X0005046Y0013893D01*
X0005072Y0013657D01*
X0005103Y0013421D01*
X0005140Y0013186D01*
X0005183Y0012952D01*
X0005232Y0012719D01*
X0005286Y0012487D01*
X0005346Y0012257D01*
X0005411Y0012028D01*
X0005482Y0011801D01*
X0005558Y0011576D01*
X0005640Y0011353D01*
X0005727Y0011131D01*
X0005819Y0010912D01*
X0005917Y0010695D01*
X0006019Y0010481D01*
X0006127Y0010269D01*
X0006241Y0010059D01*
X0006359Y0009853D01*
X0006482Y0009649D01*
X0006610Y0009449D01*
X0006742Y0009252D01*
X0006880Y0009057D01*
X0007022Y0008867D01*
X0007169Y0008679D01*
X0007320Y0008496D01*
X0007475Y0008316D01*
X0007635Y0008140D01*
X0007799Y0007968D01*
X0007968Y0007799D01*
X0008140Y0007635D01*
X0008316Y0007475D01*
X0008496Y0007320D01*
X0008679Y0007169D01*
X0008867Y0007022D01*
X0009057Y0006880D01*
X0009252Y0006742D01*
X0009449Y0006610D01*
X0009649Y0006482D01*
X0009853Y0006359D01*
X0010059Y0006241D01*
X0010269Y0006127D01*
X0010481Y0006019D01*
X0010695Y0005917D01*
X0010912Y0005819D01*
X0011131Y0005727D01*
X0011353Y0005640D01*
X0011576Y0005558D01*
X0011801Y0005482D01*
X0012028Y0005411D01*
X0012257Y0005346D01*
X0012487Y0005286D01*
X0012719Y0005232D01*
X0012952Y0005183D01*
X0013186Y0005140D01*
X0013421Y0005103D01*
X0013657Y0005072D01*
X0013893Y0005046D01*
X0014130Y0005026D01*
X0014367Y0005011D01*
X0014605Y0005003D01*
X0014843Y0005000D01*
X0017126Y0025000D02*
X0017128Y0025193D01*
X0017135Y0025386D01*
X0017147Y0025579D01*
X0017164Y0025772D01*
X0017185Y0025964D01*
X0017211Y0026155D01*
X0017242Y0026346D01*
X0017277Y0026536D01*
X0017317Y0026725D01*
X0017362Y0026913D01*
X0017411Y0027100D01*
X0017465Y0027286D01*
X0017523Y0027470D01*
X0017586Y0027653D01*
X0017654Y0027834D01*
X0017725Y0028013D01*
X0017802Y0028191D01*
X0017882Y0028367D01*
X0017967Y0028540D01*
X0018056Y0028712D01*
X0018149Y0028881D01*
X0018246Y0029048D01*
X0018348Y0029213D01*
X0018453Y0029375D01*
X0018562Y0029534D01*
X0018676Y0029691D01*
X0018793Y0029844D01*
X0018913Y0029995D01*
X0019038Y0030143D01*
X0019166Y0030288D01*
X0019297Y0030429D01*
X0019432Y0030568D01*
X0019571Y0030703D01*
X0019712Y0030834D01*
X0019857Y0030962D01*
X0020005Y0031087D01*
X0020156Y0031207D01*
X0020309Y0031324D01*
X0020466Y0031438D01*
X0020625Y0031547D01*
X0020787Y0031652D01*
X0020952Y0031754D01*
X0021119Y0031851D01*
X0021288Y0031944D01*
X0021460Y0032033D01*
X0021633Y0032118D01*
X0021809Y0032198D01*
X0021987Y0032275D01*
X0022166Y0032346D01*
X0022347Y0032414D01*
X0022530Y0032477D01*
X0022714Y0032535D01*
X0022900Y0032589D01*
X0023087Y0032638D01*
X0023275Y0032683D01*
X0023464Y0032723D01*
X0023654Y0032758D01*
X0023845Y0032789D01*
X0024036Y0032815D01*
X0024228Y0032836D01*
X0024421Y0032853D01*
X0024614Y0032865D01*
X0024807Y0032872D01*
X0025000Y0032874D01*
X0025193Y0032872D01*
X0025386Y0032865D01*
X0025579Y0032853D01*
X0025772Y0032836D01*
X0025964Y0032815D01*
X0026155Y0032789D01*
X0026346Y0032758D01*
X0026536Y0032723D01*
X0026725Y0032683D01*
X0026913Y0032638D01*
X0027100Y0032589D01*
X0027286Y0032535D01*
X0027470Y0032477D01*
X0027653Y0032414D01*
X0027834Y0032346D01*
X0028013Y0032275D01*
X0028191Y0032198D01*
X0028367Y0032118D01*
X0028540Y0032033D01*
X0028712Y0031944D01*
X0028881Y0031851D01*
X0029048Y0031754D01*
X0029213Y0031652D01*
X0029375Y0031547D01*
X0029534Y0031438D01*
X0029691Y0031324D01*
X0029844Y0031207D01*
X0029995Y0031087D01*
X0030143Y0030962D01*
X0030288Y0030834D01*
X0030429Y0030703D01*
X0030568Y0030568D01*
X0030703Y0030429D01*
X0030834Y0030288D01*
X0030962Y0030143D01*
X0031087Y0029995D01*
X0031207Y0029844D01*
X0031324Y0029691D01*
X0031438Y0029534D01*
X0031547Y0029375D01*
X0031652Y0029213D01*
X0031754Y0029048D01*
X0031851Y0028881D01*
X0031944Y0028712D01*
X0032033Y0028540D01*
X0032118Y0028367D01*
X0032198Y0028191D01*
X0032275Y0028013D01*
X0032346Y0027834D01*
X0032414Y0027653D01*
X0032477Y0027470D01*
X0032535Y0027286D01*
X0032589Y0027100D01*
X0032638Y0026913D01*
X0032683Y0026725D01*
X0032723Y0026536D01*
X0032758Y0026346D01*
X0032789Y0026155D01*
X0032815Y0025964D01*
X0032836Y0025772D01*
X0032853Y0025579D01*
X0032865Y0025386D01*
X0032872Y0025193D01*
X0032874Y0025000D01*
X0032872Y0024807D01*
X0032865Y0024614D01*
X0032853Y0024421D01*
X0032836Y0024228D01*
X0032815Y0024036D01*
X0032789Y0023845D01*
X0032758Y0023654D01*
X0032723Y0023464D01*
X0032683Y0023275D01*
X0032638Y0023087D01*
X0032589Y0022900D01*
X0032535Y0022714D01*
X0032477Y0022530D01*
X0032414Y0022347D01*
X0032346Y0022166D01*
X0032275Y0021987D01*
X0032198Y0021809D01*
X0032118Y0021633D01*
X0032033Y0021460D01*
X0031944Y0021288D01*
X0031851Y0021119D01*
X0031754Y0020952D01*
X0031652Y0020787D01*
X0031547Y0020625D01*
X0031438Y0020466D01*
X0031324Y0020309D01*
X0031207Y0020156D01*
X0031087Y0020005D01*
X0030962Y0019857D01*
X0030834Y0019712D01*
X0030703Y0019571D01*
X0030568Y0019432D01*
X0030429Y0019297D01*
X0030288Y0019166D01*
X0030143Y0019038D01*
X0029995Y0018913D01*
X0029844Y0018793D01*
X0029691Y0018676D01*
X0029534Y0018562D01*
X0029375Y0018453D01*
X0029213Y0018348D01*
X0029048Y0018246D01*
X0028881Y0018149D01*
X0028712Y0018056D01*
X0028540Y0017967D01*
X0028367Y0017882D01*
X0028191Y0017802D01*
X0028013Y0017725D01*
X0027834Y0017654D01*
X0027653Y0017586D01*
X0027470Y0017523D01*
X0027286Y0017465D01*
X0027100Y0017411D01*
X0026913Y0017362D01*
X0026725Y0017317D01*
X0026536Y0017277D01*
X0026346Y0017242D01*
X0026155Y0017211D01*
X0025964Y0017185D01*
X0025772Y0017164D01*
X0025579Y0017147D01*
X0025386Y0017135D01*
X0025193Y0017128D01*
X0025000Y0017126D01*
X0024807Y0017128D01*
X0024614Y0017135D01*
X0024421Y0017147D01*
X0024228Y0017164D01*
X0024036Y0017185D01*
X0023845Y0017211D01*
X0023654Y0017242D01*
X0023464Y0017277D01*
X0023275Y0017317D01*
X0023087Y0017362D01*
X0022900Y0017411D01*
X0022714Y0017465D01*
X0022530Y0017523D01*
X0022347Y0017586D01*
X0022166Y0017654D01*
X0021987Y0017725D01*
X0021809Y0017802D01*
X0021633Y0017882D01*
X0021460Y0017967D01*
X0021288Y0018056D01*
X0021119Y0018149D01*
X0020952Y0018246D01*
X0020787Y0018348D01*
X0020625Y0018453D01*
X0020466Y0018562D01*
X0020309Y0018676D01*
X0020156Y0018793D01*
X0020005Y0018913D01*
X0019857Y0019038D01*
X0019712Y0019166D01*
X0019571Y0019297D01*
X0019432Y0019432D01*
X0019297Y0019571D01*
X0019166Y0019712D01*
X0019038Y0019857D01*
X0018913Y0020005D01*
X0018793Y0020156D01*
X0018676Y0020309D01*
X0018562Y0020466D01*
X0018453Y0020625D01*
X0018348Y0020787D01*
X0018246Y0020952D01*
X0018149Y0021119D01*
X0018056Y0021288D01*
X0017967Y0021460D01*
X0017882Y0021633D01*
X0017802Y0021809D01*
X0017725Y0021987D01*
X0017654Y0022166D01*
X0017586Y0022347D01*
X0017523Y0022530D01*
X0017465Y0022714D01*
X0017411Y0022900D01*
X0017362Y0023087D01*
X0017317Y0023275D01*
X0017277Y0023464D01*
X0017242Y0023654D01*
X0017211Y0023845D01*
X0017185Y0024036D01*
X0017164Y0024228D01*
X0017147Y0024421D01*
X0017135Y0024614D01*
X0017128Y0024807D01*
X0017126Y0025000D01*
X0017126Y0256000D02*
X0017128Y0256193D01*
X0017135Y0256386D01*
X0017147Y0256579D01*
X0017164Y0256772D01*
X0017185Y0256964D01*
X0017211Y0257155D01*
X0017242Y0257346D01*
X0017277Y0257536D01*
X0017317Y0257725D01*
X0017362Y0257913D01*
X0017411Y0258100D01*
X0017465Y0258286D01*
X0017523Y0258470D01*
X0017586Y0258653D01*
X0017654Y0258834D01*
X0017725Y0259013D01*
X0017802Y0259191D01*
X0017882Y0259367D01*
X0017967Y0259540D01*
X0018056Y0259712D01*
X0018149Y0259881D01*
X0018246Y0260048D01*
X0018348Y0260213D01*
X0018453Y0260375D01*
X0018562Y0260534D01*
X0018676Y0260691D01*
X0018793Y0260844D01*
X0018913Y0260995D01*
X0019038Y0261143D01*
X0019166Y0261288D01*
X0019297Y0261429D01*
X0019432Y0261568D01*
X0019571Y0261703D01*
X0019712Y0261834D01*
X0019857Y0261962D01*
X0020005Y0262087D01*
X0020156Y0262207D01*
X0020309Y0262324D01*
X0020466Y0262438D01*
X0020625Y0262547D01*
X0020787Y0262652D01*
X0020952Y0262754D01*
X0021119Y0262851D01*
X0021288Y0262944D01*
X0021460Y0263033D01*
X0021633Y0263118D01*
X0021809Y0263198D01*
X0021987Y0263275D01*
X0022166Y0263346D01*
X0022347Y0263414D01*
X0022530Y0263477D01*
X0022714Y0263535D01*
X0022900Y0263589D01*
X0023087Y0263638D01*
X0023275Y0263683D01*
X0023464Y0263723D01*
X0023654Y0263758D01*
X0023845Y0263789D01*
X0024036Y0263815D01*
X0024228Y0263836D01*
X0024421Y0263853D01*
X0024614Y0263865D01*
X0024807Y0263872D01*
X0025000Y0263874D01*
X0025193Y0263872D01*
X0025386Y0263865D01*
X0025579Y0263853D01*
X0025772Y0263836D01*
X0025964Y0263815D01*
X0026155Y0263789D01*
X0026346Y0263758D01*
X0026536Y0263723D01*
X0026725Y0263683D01*
X0026913Y0263638D01*
X0027100Y0263589D01*
X0027286Y0263535D01*
X0027470Y0263477D01*
X0027653Y0263414D01*
X0027834Y0263346D01*
X0028013Y0263275D01*
X0028191Y0263198D01*
X0028367Y0263118D01*
X0028540Y0263033D01*
X0028712Y0262944D01*
X0028881Y0262851D01*
X0029048Y0262754D01*
X0029213Y0262652D01*
X0029375Y0262547D01*
X0029534Y0262438D01*
X0029691Y0262324D01*
X0029844Y0262207D01*
X0029995Y0262087D01*
X0030143Y0261962D01*
X0030288Y0261834D01*
X0030429Y0261703D01*
X0030568Y0261568D01*
X0030703Y0261429D01*
X0030834Y0261288D01*
X0030962Y0261143D01*
X0031087Y0260995D01*
X0031207Y0260844D01*
X0031324Y0260691D01*
X0031438Y0260534D01*
X0031547Y0260375D01*
X0031652Y0260213D01*
X0031754Y0260048D01*
X0031851Y0259881D01*
X0031944Y0259712D01*
X0032033Y0259540D01*
X0032118Y0259367D01*
X0032198Y0259191D01*
X0032275Y0259013D01*
X0032346Y0258834D01*
X0032414Y0258653D01*
X0032477Y0258470D01*
X0032535Y0258286D01*
X0032589Y0258100D01*
X0032638Y0257913D01*
X0032683Y0257725D01*
X0032723Y0257536D01*
X0032758Y0257346D01*
X0032789Y0257155D01*
X0032815Y0256964D01*
X0032836Y0256772D01*
X0032853Y0256579D01*
X0032865Y0256386D01*
X0032872Y0256193D01*
X0032874Y0256000D01*
X0032872Y0255807D01*
X0032865Y0255614D01*
X0032853Y0255421D01*
X0032836Y0255228D01*
X0032815Y0255036D01*
X0032789Y0254845D01*
X0032758Y0254654D01*
X0032723Y0254464D01*
X0032683Y0254275D01*
X0032638Y0254087D01*
X0032589Y0253900D01*
X0032535Y0253714D01*
X0032477Y0253530D01*
X0032414Y0253347D01*
X0032346Y0253166D01*
X0032275Y0252987D01*
X0032198Y0252809D01*
X0032118Y0252633D01*
X0032033Y0252460D01*
X0031944Y0252288D01*
X0031851Y0252119D01*
X0031754Y0251952D01*
X0031652Y0251787D01*
X0031547Y0251625D01*
X0031438Y0251466D01*
X0031324Y0251309D01*
X0031207Y0251156D01*
X0031087Y0251005D01*
X0030962Y0250857D01*
X0030834Y0250712D01*
X0030703Y0250571D01*
X0030568Y0250432D01*
X0030429Y0250297D01*
X0030288Y0250166D01*
X0030143Y0250038D01*
X0029995Y0249913D01*
X0029844Y0249793D01*
X0029691Y0249676D01*
X0029534Y0249562D01*
X0029375Y0249453D01*
X0029213Y0249348D01*
X0029048Y0249246D01*
X0028881Y0249149D01*
X0028712Y0249056D01*
X0028540Y0248967D01*
X0028367Y0248882D01*
X0028191Y0248802D01*
X0028013Y0248725D01*
X0027834Y0248654D01*
X0027653Y0248586D01*
X0027470Y0248523D01*
X0027286Y0248465D01*
X0027100Y0248411D01*
X0026913Y0248362D01*
X0026725Y0248317D01*
X0026536Y0248277D01*
X0026346Y0248242D01*
X0026155Y0248211D01*
X0025964Y0248185D01*
X0025772Y0248164D01*
X0025579Y0248147D01*
X0025386Y0248135D01*
X0025193Y0248128D01*
X0025000Y0248126D01*
X0024807Y0248128D01*
X0024614Y0248135D01*
X0024421Y0248147D01*
X0024228Y0248164D01*
X0024036Y0248185D01*
X0023845Y0248211D01*
X0023654Y0248242D01*
X0023464Y0248277D01*
X0023275Y0248317D01*
X0023087Y0248362D01*
X0022900Y0248411D01*
X0022714Y0248465D01*
X0022530Y0248523D01*
X0022347Y0248586D01*
X0022166Y0248654D01*
X0021987Y0248725D01*
X0021809Y0248802D01*
X0021633Y0248882D01*
X0021460Y0248967D01*
X0021288Y0249056D01*
X0021119Y0249149D01*
X0020952Y0249246D01*
X0020787Y0249348D01*
X0020625Y0249453D01*
X0020466Y0249562D01*
X0020309Y0249676D01*
X0020156Y0249793D01*
X0020005Y0249913D01*
X0019857Y0250038D01*
X0019712Y0250166D01*
X0019571Y0250297D01*
X0019432Y0250432D01*
X0019297Y0250571D01*
X0019166Y0250712D01*
X0019038Y0250857D01*
X0018913Y0251005D01*
X0018793Y0251156D01*
X0018676Y0251309D01*
X0018562Y0251466D01*
X0018453Y0251625D01*
X0018348Y0251787D01*
X0018246Y0251952D01*
X0018149Y0252119D01*
X0018056Y0252288D01*
X0017967Y0252460D01*
X0017882Y0252633D01*
X0017802Y0252809D01*
X0017725Y0252987D01*
X0017654Y0253166D01*
X0017586Y0253347D01*
X0017523Y0253530D01*
X0017465Y0253714D01*
X0017411Y0253900D01*
X0017362Y0254087D01*
X0017317Y0254275D01*
X0017277Y0254464D01*
X0017242Y0254654D01*
X0017211Y0254845D01*
X0017185Y0255036D01*
X0017164Y0255228D01*
X0017147Y0255421D01*
X0017135Y0255614D01*
X0017128Y0255807D01*
X0017126Y0256000D01*
X0370126Y0256000D02*
X0370128Y0256193D01*
X0370135Y0256386D01*
X0370147Y0256579D01*
X0370164Y0256772D01*
X0370185Y0256964D01*
X0370211Y0257155D01*
X0370242Y0257346D01*
X0370277Y0257536D01*
X0370317Y0257725D01*
X0370362Y0257913D01*
X0370411Y0258100D01*
X0370465Y0258286D01*
X0370523Y0258470D01*
X0370586Y0258653D01*
X0370654Y0258834D01*
X0370725Y0259013D01*
X0370802Y0259191D01*
X0370882Y0259367D01*
X0370967Y0259540D01*
X0371056Y0259712D01*
X0371149Y0259881D01*
X0371246Y0260048D01*
X0371348Y0260213D01*
X0371453Y0260375D01*
X0371562Y0260534D01*
X0371676Y0260691D01*
X0371793Y0260844D01*
X0371913Y0260995D01*
X0372038Y0261143D01*
X0372166Y0261288D01*
X0372297Y0261429D01*
X0372432Y0261568D01*
X0372571Y0261703D01*
X0372712Y0261834D01*
X0372857Y0261962D01*
X0373005Y0262087D01*
X0373156Y0262207D01*
X0373309Y0262324D01*
X0373466Y0262438D01*
X0373625Y0262547D01*
X0373787Y0262652D01*
X0373952Y0262754D01*
X0374119Y0262851D01*
X0374288Y0262944D01*
X0374460Y0263033D01*
X0374633Y0263118D01*
X0374809Y0263198D01*
X0374987Y0263275D01*
X0375166Y0263346D01*
X0375347Y0263414D01*
X0375530Y0263477D01*
X0375714Y0263535D01*
X0375900Y0263589D01*
X0376087Y0263638D01*
X0376275Y0263683D01*
X0376464Y0263723D01*
X0376654Y0263758D01*
X0376845Y0263789D01*
X0377036Y0263815D01*
X0377228Y0263836D01*
X0377421Y0263853D01*
X0377614Y0263865D01*
X0377807Y0263872D01*
X0378000Y0263874D01*
X0378193Y0263872D01*
X0378386Y0263865D01*
X0378579Y0263853D01*
X0378772Y0263836D01*
X0378964Y0263815D01*
X0379155Y0263789D01*
X0379346Y0263758D01*
X0379536Y0263723D01*
X0379725Y0263683D01*
X0379913Y0263638D01*
X0380100Y0263589D01*
X0380286Y0263535D01*
X0380470Y0263477D01*
X0380653Y0263414D01*
X0380834Y0263346D01*
X0381013Y0263275D01*
X0381191Y0263198D01*
X0381367Y0263118D01*
X0381540Y0263033D01*
X0381712Y0262944D01*
X0381881Y0262851D01*
X0382048Y0262754D01*
X0382213Y0262652D01*
X0382375Y0262547D01*
X0382534Y0262438D01*
X0382691Y0262324D01*
X0382844Y0262207D01*
X0382995Y0262087D01*
X0383143Y0261962D01*
X0383288Y0261834D01*
X0383429Y0261703D01*
X0383568Y0261568D01*
X0383703Y0261429D01*
X0383834Y0261288D01*
X0383962Y0261143D01*
X0384087Y0260995D01*
X0384207Y0260844D01*
X0384324Y0260691D01*
X0384438Y0260534D01*
X0384547Y0260375D01*
X0384652Y0260213D01*
X0384754Y0260048D01*
X0384851Y0259881D01*
X0384944Y0259712D01*
X0385033Y0259540D01*
X0385118Y0259367D01*
X0385198Y0259191D01*
X0385275Y0259013D01*
X0385346Y0258834D01*
X0385414Y0258653D01*
X0385477Y0258470D01*
X0385535Y0258286D01*
X0385589Y0258100D01*
X0385638Y0257913D01*
X0385683Y0257725D01*
X0385723Y0257536D01*
X0385758Y0257346D01*
X0385789Y0257155D01*
X0385815Y0256964D01*
X0385836Y0256772D01*
X0385853Y0256579D01*
X0385865Y0256386D01*
X0385872Y0256193D01*
X0385874Y0256000D01*
X0385872Y0255807D01*
X0385865Y0255614D01*
X0385853Y0255421D01*
X0385836Y0255228D01*
X0385815Y0255036D01*
X0385789Y0254845D01*
X0385758Y0254654D01*
X0385723Y0254464D01*
X0385683Y0254275D01*
X0385638Y0254087D01*
X0385589Y0253900D01*
X0385535Y0253714D01*
X0385477Y0253530D01*
X0385414Y0253347D01*
X0385346Y0253166D01*
X0385275Y0252987D01*
X0385198Y0252809D01*
X0385118Y0252633D01*
X0385033Y0252460D01*
X0384944Y0252288D01*
X0384851Y0252119D01*
X0384754Y0251952D01*
X0384652Y0251787D01*
X0384547Y0251625D01*
X0384438Y0251466D01*
X0384324Y0251309D01*
X0384207Y0251156D01*
X0384087Y0251005D01*
X0383962Y0250857D01*
X0383834Y0250712D01*
X0383703Y0250571D01*
X0383568Y0250432D01*
X0383429Y0250297D01*
X0383288Y0250166D01*
X0383143Y0250038D01*
X0382995Y0249913D01*
X0382844Y0249793D01*
X0382691Y0249676D01*
X0382534Y0249562D01*
X0382375Y0249453D01*
X0382213Y0249348D01*
X0382048Y0249246D01*
X0381881Y0249149D01*
X0381712Y0249056D01*
X0381540Y0248967D01*
X0381367Y0248882D01*
X0381191Y0248802D01*
X0381013Y0248725D01*
X0380834Y0248654D01*
X0380653Y0248586D01*
X0380470Y0248523D01*
X0380286Y0248465D01*
X0380100Y0248411D01*
X0379913Y0248362D01*
X0379725Y0248317D01*
X0379536Y0248277D01*
X0379346Y0248242D01*
X0379155Y0248211D01*
X0378964Y0248185D01*
X0378772Y0248164D01*
X0378579Y0248147D01*
X0378386Y0248135D01*
X0378193Y0248128D01*
X0378000Y0248126D01*
X0377807Y0248128D01*
X0377614Y0248135D01*
X0377421Y0248147D01*
X0377228Y0248164D01*
X0377036Y0248185D01*
X0376845Y0248211D01*
X0376654Y0248242D01*
X0376464Y0248277D01*
X0376275Y0248317D01*
X0376087Y0248362D01*
X0375900Y0248411D01*
X0375714Y0248465D01*
X0375530Y0248523D01*
X0375347Y0248586D01*
X0375166Y0248654D01*
X0374987Y0248725D01*
X0374809Y0248802D01*
X0374633Y0248882D01*
X0374460Y0248967D01*
X0374288Y0249056D01*
X0374119Y0249149D01*
X0373952Y0249246D01*
X0373787Y0249348D01*
X0373625Y0249453D01*
X0373466Y0249562D01*
X0373309Y0249676D01*
X0373156Y0249793D01*
X0373005Y0249913D01*
X0372857Y0250038D01*
X0372712Y0250166D01*
X0372571Y0250297D01*
X0372432Y0250432D01*
X0372297Y0250571D01*
X0372166Y0250712D01*
X0372038Y0250857D01*
X0371913Y0251005D01*
X0371793Y0251156D01*
X0371676Y0251309D01*
X0371562Y0251466D01*
X0371453Y0251625D01*
X0371348Y0251787D01*
X0371246Y0251952D01*
X0371149Y0252119D01*
X0371056Y0252288D01*
X0370967Y0252460D01*
X0370882Y0252633D01*
X0370802Y0252809D01*
X0370725Y0252987D01*
X0370654Y0253166D01*
X0370586Y0253347D01*
X0370523Y0253530D01*
X0370465Y0253714D01*
X0370411Y0253900D01*
X0370362Y0254087D01*
X0370317Y0254275D01*
X0370277Y0254464D01*
X0370242Y0254654D01*
X0370211Y0254845D01*
X0370185Y0255036D01*
X0370164Y0255228D01*
X0370147Y0255421D01*
X0370135Y0255614D01*
X0370128Y0255807D01*
X0370126Y0256000D01*
X0370126Y0025000D02*
X0370128Y0025193D01*
X0370135Y0025386D01*
X0370147Y0025579D01*
X0370164Y0025772D01*
X0370185Y0025964D01*
X0370211Y0026155D01*
X0370242Y0026346D01*
X0370277Y0026536D01*
X0370317Y0026725D01*
X0370362Y0026913D01*
X0370411Y0027100D01*
X0370465Y0027286D01*
X0370523Y0027470D01*
X0370586Y0027653D01*
X0370654Y0027834D01*
X0370725Y0028013D01*
X0370802Y0028191D01*
X0370882Y0028367D01*
X0370967Y0028540D01*
X0371056Y0028712D01*
X0371149Y0028881D01*
X0371246Y0029048D01*
X0371348Y0029213D01*
X0371453Y0029375D01*
X0371562Y0029534D01*
X0371676Y0029691D01*
X0371793Y0029844D01*
X0371913Y0029995D01*
X0372038Y0030143D01*
X0372166Y0030288D01*
X0372297Y0030429D01*
X0372432Y0030568D01*
X0372571Y0030703D01*
X0372712Y0030834D01*
X0372857Y0030962D01*
X0373005Y0031087D01*
X0373156Y0031207D01*
X0373309Y0031324D01*
X0373466Y0031438D01*
X0373625Y0031547D01*
X0373787Y0031652D01*
X0373952Y0031754D01*
X0374119Y0031851D01*
X0374288Y0031944D01*
X0374460Y0032033D01*
X0374633Y0032118D01*
X0374809Y0032198D01*
X0374987Y0032275D01*
X0375166Y0032346D01*
X0375347Y0032414D01*
X0375530Y0032477D01*
X0375714Y0032535D01*
X0375900Y0032589D01*
X0376087Y0032638D01*
X0376275Y0032683D01*
X0376464Y0032723D01*
X0376654Y0032758D01*
X0376845Y0032789D01*
X0377036Y0032815D01*
X0377228Y0032836D01*
X0377421Y0032853D01*
X0377614Y0032865D01*
X0377807Y0032872D01*
X0378000Y0032874D01*
X0378193Y0032872D01*
X0378386Y0032865D01*
X0378579Y0032853D01*
X0378772Y0032836D01*
X0378964Y0032815D01*
X0379155Y0032789D01*
X0379346Y0032758D01*
X0379536Y0032723D01*
X0379725Y0032683D01*
X0379913Y0032638D01*
X0380100Y0032589D01*
X0380286Y0032535D01*
X0380470Y0032477D01*
X0380653Y0032414D01*
X0380834Y0032346D01*
X0381013Y0032275D01*
X0381191Y0032198D01*
X0381367Y0032118D01*
X0381540Y0032033D01*
X0381712Y0031944D01*
X0381881Y0031851D01*
X0382048Y0031754D01*
X0382213Y0031652D01*
X0382375Y0031547D01*
X0382534Y0031438D01*
X0382691Y0031324D01*
X0382844Y0031207D01*
X0382995Y0031087D01*
X0383143Y0030962D01*
X0383288Y0030834D01*
X0383429Y0030703D01*
X0383568Y0030568D01*
X0383703Y0030429D01*
X0383834Y0030288D01*
X0383962Y0030143D01*
X0384087Y0029995D01*
X0384207Y0029844D01*
X0384324Y0029691D01*
X0384438Y0029534D01*
X0384547Y0029375D01*
X0384652Y0029213D01*
X0384754Y0029048D01*
X0384851Y0028881D01*
X0384944Y0028712D01*
X0385033Y0028540D01*
X0385118Y0028367D01*
X0385198Y0028191D01*
X0385275Y0028013D01*
X0385346Y0027834D01*
X0385414Y0027653D01*
X0385477Y0027470D01*
X0385535Y0027286D01*
X0385589Y0027100D01*
X0385638Y0026913D01*
X0385683Y0026725D01*
X0385723Y0026536D01*
X0385758Y0026346D01*
X0385789Y0026155D01*
X0385815Y0025964D01*
X0385836Y0025772D01*
X0385853Y0025579D01*
X0385865Y0025386D01*
X0385872Y0025193D01*
X0385874Y0025000D01*
X0385872Y0024807D01*
X0385865Y0024614D01*
X0385853Y0024421D01*
X0385836Y0024228D01*
X0385815Y0024036D01*
X0385789Y0023845D01*
X0385758Y0023654D01*
X0385723Y0023464D01*
X0385683Y0023275D01*
X0385638Y0023087D01*
X0385589Y0022900D01*
X0385535Y0022714D01*
X0385477Y0022530D01*
X0385414Y0022347D01*
X0385346Y0022166D01*
X0385275Y0021987D01*
X0385198Y0021809D01*
X0385118Y0021633D01*
X0385033Y0021460D01*
X0384944Y0021288D01*
X0384851Y0021119D01*
X0384754Y0020952D01*
X0384652Y0020787D01*
X0384547Y0020625D01*
X0384438Y0020466D01*
X0384324Y0020309D01*
X0384207Y0020156D01*
X0384087Y0020005D01*
X0383962Y0019857D01*
X0383834Y0019712D01*
X0383703Y0019571D01*
X0383568Y0019432D01*
X0383429Y0019297D01*
X0383288Y0019166D01*
X0383143Y0019038D01*
X0382995Y0018913D01*
X0382844Y0018793D01*
X0382691Y0018676D01*
X0382534Y0018562D01*
X0382375Y0018453D01*
X0382213Y0018348D01*
X0382048Y0018246D01*
X0381881Y0018149D01*
X0381712Y0018056D01*
X0381540Y0017967D01*
X0381367Y0017882D01*
X0381191Y0017802D01*
X0381013Y0017725D01*
X0380834Y0017654D01*
X0380653Y0017586D01*
X0380470Y0017523D01*
X0380286Y0017465D01*
X0380100Y0017411D01*
X0379913Y0017362D01*
X0379725Y0017317D01*
X0379536Y0017277D01*
X0379346Y0017242D01*
X0379155Y0017211D01*
X0378964Y0017185D01*
X0378772Y0017164D01*
X0378579Y0017147D01*
X0378386Y0017135D01*
X0378193Y0017128D01*
X0378000Y0017126D01*
X0377807Y0017128D01*
X0377614Y0017135D01*
X0377421Y0017147D01*
X0377228Y0017164D01*
X0377036Y0017185D01*
X0376845Y0017211D01*
X0376654Y0017242D01*
X0376464Y0017277D01*
X0376275Y0017317D01*
X0376087Y0017362D01*
X0375900Y0017411D01*
X0375714Y0017465D01*
X0375530Y0017523D01*
X0375347Y0017586D01*
X0375166Y0017654D01*
X0374987Y0017725D01*
X0374809Y0017802D01*
X0374633Y0017882D01*
X0374460Y0017967D01*
X0374288Y0018056D01*
X0374119Y0018149D01*
X0373952Y0018246D01*
X0373787Y0018348D01*
X0373625Y0018453D01*
X0373466Y0018562D01*
X0373309Y0018676D01*
X0373156Y0018793D01*
X0373005Y0018913D01*
X0372857Y0019038D01*
X0372712Y0019166D01*
X0372571Y0019297D01*
X0372432Y0019432D01*
X0372297Y0019571D01*
X0372166Y0019712D01*
X0372038Y0019857D01*
X0371913Y0020005D01*
X0371793Y0020156D01*
X0371676Y0020309D01*
X0371562Y0020466D01*
X0371453Y0020625D01*
X0371348Y0020787D01*
X0371246Y0020952D01*
X0371149Y0021119D01*
X0371056Y0021288D01*
X0370967Y0021460D01*
X0370882Y0021633D01*
X0370802Y0021809D01*
X0370725Y0021987D01*
X0370654Y0022166D01*
X0370586Y0022347D01*
X0370523Y0022530D01*
X0370465Y0022714D01*
X0370411Y0022900D01*
X0370362Y0023087D01*
X0370317Y0023275D01*
X0370277Y0023464D01*
X0370242Y0023654D01*
X0370211Y0023845D01*
X0370185Y0024036D01*
X0370164Y0024228D01*
X0370147Y0024421D01*
X0370135Y0024614D01*
X0370128Y0024807D01*
X0370126Y0025000D01*
D11*
X0308166Y0144366D02*
X0307799Y0144366D01*
X0307432Y0144733D01*
X0307432Y0146568D01*
X0306690Y0146201D02*
X0306323Y0146568D01*
X0305222Y0146568D01*
X0304480Y0146568D02*
X0303746Y0146568D01*
X0304113Y0146935D02*
X0304113Y0145467D01*
X0303746Y0145100D01*
X0303007Y0145467D02*
X0303007Y0146201D01*
X0302640Y0146568D01*
X0301906Y0146568D01*
X0301539Y0146201D01*
X0301539Y0145834D01*
X0303007Y0145834D01*
X0303007Y0145467D02*
X0302640Y0145100D01*
X0301906Y0145100D01*
X0300797Y0145100D02*
X0300797Y0146568D01*
X0300430Y0146568D01*
X0300063Y0146201D01*
X0299696Y0146568D01*
X0299329Y0146201D01*
X0299329Y0145100D01*
X0300063Y0145100D02*
X0300063Y0146201D01*
X0298587Y0146201D02*
X0298220Y0146568D01*
X0297119Y0146568D01*
X0297486Y0145834D02*
X0298220Y0145834D01*
X0298587Y0146201D01*
X0298587Y0145100D02*
X0297486Y0145100D01*
X0297119Y0145467D01*
X0297486Y0145834D01*
X0305222Y0145467D02*
X0305589Y0145834D01*
X0306323Y0145834D01*
X0306690Y0146201D01*
X0306690Y0145100D02*
X0305589Y0145100D01*
X0305222Y0145467D01*
X0307432Y0145100D02*
X0308533Y0145100D01*
X0308900Y0145467D01*
X0308900Y0146568D01*
X0309190Y0150100D02*
X0309190Y0151568D01*
X0308089Y0151568D01*
X0307722Y0151201D01*
X0307722Y0150100D01*
X0306613Y0150467D02*
X0306246Y0150100D01*
X0306613Y0150467D02*
X0306613Y0151935D01*
X0306980Y0151568D02*
X0306246Y0151568D01*
X0305507Y0151568D02*
X0305507Y0150100D01*
X0305507Y0150834D02*
X0304773Y0151568D01*
X0304406Y0151568D01*
X0303665Y0151201D02*
X0303665Y0150467D01*
X0303298Y0150100D01*
X0302564Y0150100D01*
X0302198Y0150467D01*
X0302198Y0151201D01*
X0302564Y0151568D01*
X0303298Y0151568D01*
X0303665Y0151201D01*
X0301456Y0152302D02*
X0301089Y0152302D01*
X0301089Y0150100D01*
X0301456Y0150100D02*
X0300722Y0150100D01*
X0301014Y0155100D02*
X0302115Y0155100D01*
X0302482Y0155467D01*
X0302482Y0156201D01*
X0302115Y0156568D01*
X0301014Y0156568D01*
X0301014Y0157302D02*
X0301014Y0155100D01*
X0303224Y0155100D02*
X0304325Y0155100D01*
X0304692Y0155467D01*
X0304325Y0155834D01*
X0303224Y0155834D01*
X0303224Y0156201D02*
X0303224Y0155100D01*
X0303224Y0156201D02*
X0303591Y0156568D01*
X0304325Y0156568D01*
X0305434Y0156201D02*
X0305434Y0155467D01*
X0305801Y0155100D01*
X0306535Y0155100D01*
X0306902Y0155467D01*
X0306902Y0156201D01*
X0306535Y0156568D01*
X0305801Y0156568D01*
X0305434Y0156201D01*
X0307643Y0156568D02*
X0308010Y0156568D01*
X0308744Y0155834D01*
X0308744Y0155100D02*
X0308744Y0156568D01*
X0309850Y0157302D02*
X0309850Y0155100D01*
X0310217Y0155100D02*
X0309483Y0155100D01*
X0310956Y0155100D02*
X0311690Y0155100D01*
X0311323Y0155100D02*
X0311323Y0156568D01*
X0311690Y0156568D01*
X0311323Y0157302D02*
X0311323Y0157669D01*
X0310217Y0157302D02*
X0309850Y0157302D01*
X0312432Y0156201D02*
X0312432Y0155100D01*
X0313533Y0155100D01*
X0313900Y0155467D01*
X0313533Y0155834D01*
X0312432Y0155834D01*
X0312432Y0156201D02*
X0312799Y0156568D01*
X0313533Y0156568D01*
X0313823Y0161100D02*
X0312722Y0161100D01*
X0312722Y0163302D01*
X0312722Y0162568D02*
X0313823Y0162568D01*
X0314190Y0162201D01*
X0314190Y0161467D01*
X0313823Y0161100D01*
X0314932Y0161467D02*
X0314932Y0162201D01*
X0315299Y0162568D01*
X0316033Y0162568D01*
X0316400Y0162201D01*
X0316400Y0161467D01*
X0316033Y0161100D01*
X0315299Y0161100D01*
X0314932Y0161467D01*
X0311980Y0161467D02*
X0311980Y0162201D01*
X0311613Y0162568D01*
X0310879Y0162568D01*
X0310512Y0162201D01*
X0310512Y0161834D01*
X0311980Y0161834D01*
X0311980Y0161467D02*
X0311613Y0161100D01*
X0310879Y0161100D01*
X0309770Y0161100D02*
X0309036Y0161100D01*
X0309403Y0161100D02*
X0309403Y0163302D01*
X0309770Y0163302D01*
X0310299Y0151568D02*
X0311033Y0151568D01*
X0311400Y0151201D01*
X0311400Y0150467D01*
X0311033Y0150100D01*
X0310299Y0150100D01*
X0309932Y0150467D01*
X0309932Y0151201D01*
X0310299Y0151568D01*
X0214900Y0152467D02*
X0214533Y0152834D01*
X0213432Y0152834D01*
X0214533Y0152834D01*
X0214900Y0152467D01*
X0214533Y0152100D01*
X0213432Y0152100D01*
X0213432Y0153201D01*
X0213799Y0153568D01*
X0214533Y0153568D01*
X0213799Y0153568D01*
X0213432Y0153201D01*
X0213432Y0152100D01*
X0214533Y0152100D01*
X0214900Y0152467D01*
X0214533Y0150702D02*
X0214900Y0150335D01*
X0214900Y0148867D01*
X0214533Y0148500D01*
X0213799Y0148500D01*
X0213432Y0148867D01*
X0213799Y0148500D01*
X0214533Y0148500D01*
X0214900Y0148867D01*
X0214900Y0150335D01*
X0214533Y0150702D01*
X0213799Y0150702D01*
X0213432Y0150335D01*
X0213799Y0150702D01*
X0214533Y0150702D01*
X0212690Y0152100D02*
X0212690Y0153568D01*
X0211589Y0153568D01*
X0211222Y0153201D01*
X0211222Y0152100D01*
X0211222Y0153201D01*
X0211589Y0153568D01*
X0212690Y0153568D01*
X0212690Y0152100D01*
X0212323Y0149968D02*
X0211589Y0149968D01*
X0211222Y0149601D01*
X0211222Y0148500D01*
X0212323Y0148500D01*
X0212690Y0148867D01*
X0212323Y0149234D01*
X0211222Y0149234D01*
X0212323Y0149234D01*
X0212690Y0148867D01*
X0212323Y0148500D01*
X0211222Y0148500D01*
X0211222Y0149601D01*
X0211589Y0149968D01*
X0212323Y0149968D01*
X0210480Y0150702D02*
X0210113Y0150702D01*
X0210113Y0148500D01*
X0210113Y0150702D01*
X0210480Y0150702D01*
X0210113Y0152100D02*
X0210480Y0152467D01*
X0210480Y0153201D01*
X0210113Y0153568D01*
X0209012Y0153568D01*
X0210113Y0153568D01*
X0210480Y0153201D01*
X0210480Y0152467D01*
X0210113Y0152100D01*
X0209012Y0152100D01*
X0209012Y0154302D01*
X0209012Y0152100D01*
X0210113Y0152100D01*
X0208640Y0151069D02*
X0208640Y0150702D01*
X0208640Y0151069D01*
X0208640Y0149968D02*
X0208640Y0148500D01*
X0208640Y0149968D01*
X0209007Y0149968D01*
X0208640Y0149968D01*
X0207534Y0149601D02*
X0206800Y0149601D01*
X0207534Y0149601D01*
X0207167Y0150335D02*
X0207167Y0148500D01*
X0207167Y0150335D01*
X0206800Y0150702D01*
X0207167Y0150335D01*
X0206060Y0149601D02*
X0205694Y0149968D01*
X0204960Y0149968D01*
X0204593Y0149601D01*
X0204593Y0148867D01*
X0204960Y0148500D01*
X0205694Y0148500D01*
X0206060Y0148867D01*
X0206060Y0149601D01*
X0206060Y0148867D01*
X0205694Y0148500D01*
X0204960Y0148500D01*
X0204593Y0148867D01*
X0204593Y0149601D01*
X0204960Y0149968D01*
X0205694Y0149968D01*
X0206060Y0149601D01*
X0203851Y0149968D02*
X0203851Y0148500D01*
X0203851Y0149968D01*
X0203851Y0149234D02*
X0203117Y0149968D01*
X0202750Y0149968D01*
X0203117Y0149968D01*
X0203851Y0149234D01*
X0202009Y0149968D02*
X0200908Y0149968D01*
X0200541Y0149601D01*
X0200541Y0148500D01*
X0200541Y0149601D01*
X0200908Y0149968D01*
X0202009Y0149968D01*
X0202009Y0148500D01*
X0202009Y0149968D01*
X0202377Y0152100D02*
X0202377Y0153568D01*
X0202377Y0152100D01*
X0202377Y0152834D02*
X0201643Y0153568D01*
X0201276Y0153568D01*
X0201643Y0153568D01*
X0202377Y0152834D01*
X0203117Y0152100D02*
X0203851Y0152100D01*
X0203117Y0152100D01*
X0203484Y0152100D02*
X0203484Y0153568D01*
X0203851Y0153568D01*
X0203484Y0153568D01*
X0203484Y0152100D01*
X0204593Y0152467D02*
X0204593Y0153201D01*
X0204960Y0153568D01*
X0206060Y0153568D01*
X0204960Y0153568D01*
X0204593Y0153201D01*
X0204593Y0152467D01*
X0204960Y0152100D01*
X0206060Y0152100D01*
X0206060Y0154302D01*
X0206060Y0152100D01*
X0204960Y0152100D01*
X0204593Y0152467D01*
X0203484Y0154302D02*
X0203484Y0154669D01*
X0203484Y0154302D01*
X0204961Y0155700D02*
X0204961Y0156801D01*
X0205328Y0157168D01*
X0206429Y0157168D01*
X0206429Y0155700D01*
X0206429Y0157168D01*
X0205328Y0157168D01*
X0204961Y0156801D01*
X0204961Y0155700D01*
X0207171Y0156067D02*
X0207171Y0157168D01*
X0207171Y0156067D01*
X0207538Y0155700D01*
X0207905Y0156067D01*
X0208272Y0155700D01*
X0208639Y0156067D01*
X0208639Y0157168D01*
X0208639Y0156067D01*
X0208272Y0155700D01*
X0207905Y0156067D01*
X0207538Y0155700D01*
X0207171Y0156067D01*
X0209381Y0156067D02*
X0209381Y0156801D01*
X0209748Y0157168D01*
X0210482Y0157168D01*
X0210849Y0156801D01*
X0210849Y0156067D01*
X0210482Y0155700D01*
X0209748Y0155700D01*
X0209381Y0156067D01*
X0209381Y0156801D01*
X0209748Y0157168D01*
X0210482Y0157168D01*
X0210849Y0156801D01*
X0210849Y0156067D01*
X0210482Y0155700D01*
X0209748Y0155700D01*
X0209381Y0156067D01*
X0211591Y0155700D02*
X0211591Y0156801D01*
X0211957Y0157168D01*
X0213058Y0157168D01*
X0213058Y0155700D01*
X0213058Y0157168D01*
X0211957Y0157168D01*
X0211591Y0156801D01*
X0211591Y0155700D01*
X0213799Y0155700D02*
X0214900Y0156434D01*
X0213799Y0157168D01*
X0214900Y0156434D01*
X0213799Y0155700D01*
X0214900Y0155700D02*
X0214900Y0157902D01*
X0214900Y0155700D01*
X0214900Y0159300D02*
X0214166Y0160034D01*
X0213432Y0159300D01*
X0213432Y0161502D01*
X0213432Y0159300D01*
X0214166Y0160034D01*
X0214900Y0159300D01*
X0214900Y0161502D01*
X0214900Y0159300D01*
X0212690Y0159300D02*
X0212690Y0160768D01*
X0211956Y0161502D01*
X0211222Y0160768D01*
X0211222Y0159300D01*
X0211222Y0160768D01*
X0211956Y0161502D01*
X0212690Y0160768D01*
X0212690Y0159300D01*
X0212690Y0160401D02*
X0211222Y0160401D01*
X0212690Y0160401D01*
X0210480Y0160034D02*
X0209379Y0160034D01*
X0209012Y0160401D01*
X0209012Y0161135D01*
X0209379Y0161502D01*
X0210480Y0161502D01*
X0210480Y0159300D01*
X0210480Y0161502D01*
X0209379Y0161502D01*
X0209012Y0161135D01*
X0209012Y0160401D01*
X0209379Y0160034D01*
X0210480Y0160034D01*
X0209746Y0160034D02*
X0209012Y0159300D01*
X0209746Y0160034D01*
X0208270Y0159300D02*
X0208270Y0161502D01*
X0206802Y0159300D01*
X0206802Y0161502D01*
X0206802Y0159300D01*
X0208270Y0161502D01*
X0208270Y0159300D01*
X0206060Y0159300D02*
X0205327Y0159300D01*
X0206060Y0159300D01*
X0205694Y0159300D02*
X0205694Y0161502D01*
X0205694Y0159300D01*
X0204587Y0159300D02*
X0204587Y0161502D01*
X0203119Y0159300D01*
X0203119Y0161502D01*
X0203119Y0159300D01*
X0204587Y0161502D01*
X0204587Y0159300D01*
X0202377Y0159667D02*
X0202010Y0159300D01*
X0201276Y0159300D01*
X0200909Y0159667D01*
X0200909Y0160401D01*
X0201643Y0160401D01*
X0200909Y0160401D01*
X0200909Y0159667D01*
X0201276Y0159300D01*
X0202010Y0159300D01*
X0202377Y0159667D01*
X0202377Y0161135D01*
X0202010Y0161502D01*
X0201276Y0161502D01*
X0200909Y0161135D01*
X0201276Y0161502D01*
X0202010Y0161502D01*
X0202377Y0161135D01*
X0202377Y0159667D01*
X0200167Y0159667D02*
X0200167Y0159300D01*
X0199800Y0159300D01*
X0199800Y0159667D01*
X0200167Y0159667D01*
X0200167Y0159300D01*
X0199800Y0159300D01*
X0199800Y0159667D01*
X0200167Y0159667D01*
X0200167Y0160401D02*
X0200167Y0160768D01*
X0199800Y0160768D01*
X0199800Y0160401D01*
X0200167Y0160401D01*
X0200167Y0160768D01*
X0199800Y0160768D01*
X0199800Y0160401D01*
X0200167Y0160401D01*
X0200167Y0162900D02*
X0200167Y0165102D01*
X0198700Y0165102D01*
X0200167Y0165102D01*
X0200167Y0162900D01*
X0200907Y0162900D02*
X0201641Y0162900D01*
X0200907Y0162900D01*
X0201274Y0162900D02*
X0201274Y0165102D01*
X0201274Y0162900D01*
X0202383Y0162900D02*
X0203851Y0162900D01*
X0203851Y0165102D01*
X0203851Y0162900D01*
X0202383Y0162900D01*
X0204593Y0162900D02*
X0204593Y0164368D01*
X0205327Y0165102D01*
X0206060Y0164368D01*
X0206060Y0162900D01*
X0206060Y0164368D01*
X0205327Y0165102D01*
X0204593Y0164368D01*
X0204593Y0162900D01*
X0204593Y0164001D02*
X0206060Y0164001D01*
X0204593Y0164001D01*
X0206802Y0164735D02*
X0207169Y0165102D01*
X0207903Y0165102D01*
X0208270Y0164735D01*
X0208270Y0163267D01*
X0207903Y0162900D01*
X0207169Y0162900D01*
X0206802Y0163267D01*
X0207169Y0162900D01*
X0207903Y0162900D01*
X0208270Y0163267D01*
X0208270Y0164735D01*
X0207903Y0165102D01*
X0207169Y0165102D01*
X0206802Y0164735D01*
X0201641Y0165102D02*
X0200907Y0165102D01*
X0201641Y0165102D01*
X0200167Y0164001D02*
X0199434Y0164001D01*
X0200167Y0164001D01*
X0197958Y0164735D02*
X0197958Y0163267D01*
X0197591Y0162900D01*
X0196857Y0162900D01*
X0196490Y0163267D01*
X0196490Y0164735D01*
X0196857Y0165102D01*
X0197591Y0165102D01*
X0197958Y0164735D01*
X0197958Y0163267D01*
X0197591Y0162900D01*
X0196857Y0162900D01*
X0196490Y0163267D01*
X0196490Y0164735D01*
X0196857Y0165102D01*
X0197591Y0165102D01*
X0197958Y0164735D01*
X0195748Y0165102D02*
X0194647Y0165102D01*
X0194280Y0164735D01*
X0194280Y0164001D01*
X0194647Y0163634D01*
X0195748Y0163634D01*
X0194647Y0163634D01*
X0194280Y0164001D01*
X0194280Y0164735D01*
X0194647Y0165102D01*
X0195748Y0165102D01*
X0195748Y0162900D01*
X0195748Y0165102D01*
X0195014Y0163634D02*
X0194280Y0162900D01*
X0195014Y0163634D01*
X0193538Y0162900D02*
X0193538Y0165102D01*
X0192070Y0162900D01*
X0192070Y0165102D01*
X0192070Y0162900D01*
X0193538Y0165102D01*
X0193538Y0162900D01*
X0194643Y0161502D02*
X0194643Y0159300D01*
X0194643Y0161502D01*
X0195385Y0161502D02*
X0196853Y0161502D01*
X0195385Y0161502D01*
X0196119Y0161502D02*
X0196119Y0159300D01*
X0196119Y0161502D01*
X0194643Y0160401D02*
X0194276Y0160768D01*
X0193542Y0160768D01*
X0193175Y0160401D01*
X0193175Y0159300D01*
X0193175Y0160401D01*
X0193542Y0160768D01*
X0194276Y0160768D01*
X0194643Y0160401D01*
X0192433Y0160768D02*
X0192066Y0160768D01*
X0192066Y0159300D01*
X0192066Y0160768D01*
X0192433Y0160768D01*
X0192066Y0161502D02*
X0192066Y0161869D01*
X0192066Y0161502D01*
X0190960Y0160401D02*
X0190593Y0160768D01*
X0189492Y0160768D01*
X0190593Y0160768D01*
X0190960Y0160401D01*
X0190593Y0160034D01*
X0189859Y0160034D01*
X0189492Y0159667D01*
X0189859Y0159300D01*
X0190960Y0159300D01*
X0189859Y0159300D01*
X0189492Y0159667D01*
X0189859Y0160034D01*
X0190593Y0160034D01*
X0190960Y0160401D01*
X0191699Y0159300D02*
X0192433Y0159300D01*
X0191699Y0159300D01*
X0192066Y0157168D02*
X0191332Y0157168D01*
X0190965Y0156801D01*
X0190965Y0156434D01*
X0192433Y0156434D01*
X0190965Y0156434D01*
X0190965Y0156801D01*
X0191332Y0157168D01*
X0192066Y0157168D01*
X0192433Y0156801D01*
X0192433Y0156067D01*
X0192066Y0155700D01*
X0191332Y0155700D01*
X0192066Y0155700D01*
X0192433Y0156067D01*
X0192433Y0156801D01*
X0192066Y0157168D01*
X0193175Y0156801D02*
X0193175Y0155700D01*
X0193175Y0156801D01*
X0193542Y0157168D01*
X0194276Y0157168D01*
X0194643Y0156801D01*
X0194276Y0157168D01*
X0193542Y0157168D01*
X0193175Y0156801D01*
X0194643Y0157902D02*
X0194643Y0155700D01*
X0194643Y0157902D01*
X0195382Y0157168D02*
X0196116Y0157168D01*
X0195382Y0157168D01*
X0195749Y0157535D02*
X0195749Y0156067D01*
X0195382Y0155700D01*
X0195749Y0156067D01*
X0195749Y0157535D01*
X0199068Y0156801D02*
X0199435Y0157168D01*
X0200169Y0157168D01*
X0200536Y0156801D01*
X0200536Y0156067D01*
X0200169Y0155700D01*
X0199435Y0155700D01*
X0199068Y0156067D01*
X0199068Y0156801D01*
X0199435Y0157168D01*
X0200169Y0157168D01*
X0200536Y0156801D01*
X0200536Y0156067D01*
X0200169Y0155700D01*
X0199435Y0155700D01*
X0199068Y0156067D01*
X0199068Y0156801D01*
X0201275Y0157168D02*
X0202009Y0157168D01*
X0201275Y0157168D01*
X0201642Y0157535D02*
X0201642Y0156067D01*
X0201275Y0155700D01*
X0201642Y0156067D01*
X0201642Y0157535D01*
X0200169Y0153935D02*
X0200169Y0152467D01*
X0199802Y0152100D01*
X0200169Y0152467D01*
X0200169Y0153935D01*
X0200536Y0153568D02*
X0199802Y0153568D01*
X0200536Y0153568D01*
X0199063Y0153201D02*
X0198696Y0153568D01*
X0197962Y0153568D01*
X0197595Y0153201D01*
X0197595Y0152100D01*
X0197595Y0153201D01*
X0197962Y0153568D01*
X0198696Y0153568D01*
X0199063Y0153201D01*
X0199063Y0154302D02*
X0199063Y0152100D01*
X0199063Y0154302D01*
X0199432Y0151069D02*
X0199432Y0150702D01*
X0199432Y0151069D01*
X0199432Y0149968D02*
X0199432Y0148500D01*
X0199432Y0149968D01*
X0199799Y0149968D01*
X0199432Y0149968D01*
X0197959Y0149968D02*
X0197225Y0149968D01*
X0196858Y0149601D01*
X0196858Y0148500D01*
X0197959Y0148500D01*
X0198326Y0148867D01*
X0197959Y0149234D01*
X0196858Y0149234D01*
X0197959Y0149234D01*
X0198326Y0148867D01*
X0197959Y0148500D01*
X0196858Y0148500D01*
X0196858Y0149601D01*
X0197225Y0149968D01*
X0197959Y0149968D01*
X0199065Y0148500D02*
X0199799Y0148500D01*
X0199065Y0148500D01*
X0199803Y0146368D02*
X0200537Y0146368D01*
X0200904Y0146001D01*
X0200904Y0145267D01*
X0200537Y0144900D01*
X0199803Y0144900D01*
X0199436Y0145267D01*
X0199436Y0146001D01*
X0199803Y0146368D01*
X0200537Y0146368D01*
X0200904Y0146001D01*
X0200904Y0145267D01*
X0200537Y0144900D01*
X0199803Y0144900D01*
X0199436Y0145267D01*
X0199436Y0146001D01*
X0199803Y0146368D01*
X0201643Y0146368D02*
X0202377Y0146368D01*
X0201643Y0146368D01*
X0202010Y0146735D02*
X0202010Y0145267D01*
X0201643Y0144900D01*
X0202010Y0145267D01*
X0202010Y0146735D01*
X0205329Y0146001D02*
X0205329Y0144900D01*
X0205329Y0146001D01*
X0205696Y0146368D01*
X0206797Y0146368D01*
X0206797Y0144900D01*
X0206797Y0146368D01*
X0205696Y0146368D01*
X0205329Y0146001D01*
X0207539Y0146001D02*
X0207539Y0145634D01*
X0209007Y0145634D01*
X0207539Y0145634D01*
X0207539Y0146001D01*
X0207906Y0146368D01*
X0208640Y0146368D01*
X0209007Y0146001D01*
X0209007Y0145267D01*
X0208640Y0144900D01*
X0207906Y0144900D01*
X0208640Y0144900D01*
X0209007Y0145267D01*
X0209007Y0146001D01*
X0208640Y0146368D01*
X0207906Y0146368D01*
X0207539Y0146001D01*
X0209749Y0146368D02*
X0210483Y0144900D01*
X0211217Y0146368D01*
X0210483Y0144900D01*
X0209749Y0146368D01*
X0209746Y0148500D02*
X0210480Y0148500D01*
X0209746Y0148500D01*
X0209007Y0148500D02*
X0208273Y0148500D01*
X0209007Y0148500D01*
X0212323Y0147469D02*
X0212323Y0147102D01*
X0212323Y0147469D01*
X0212323Y0146368D02*
X0212323Y0144900D01*
X0212323Y0146368D01*
X0212690Y0146368D01*
X0212323Y0146368D01*
X0213432Y0146368D02*
X0214533Y0146368D01*
X0214900Y0146001D01*
X0214900Y0145267D01*
X0214533Y0144900D01*
X0213432Y0144900D01*
X0214533Y0144900D01*
X0214900Y0145267D01*
X0214900Y0146001D01*
X0214533Y0146368D01*
X0213432Y0146368D01*
X0213432Y0144533D01*
X0213799Y0144166D01*
X0214166Y0144166D01*
X0213799Y0144166D01*
X0213432Y0144533D01*
X0213432Y0146368D01*
X0212690Y0144900D02*
X0211956Y0144900D01*
X0212690Y0144900D01*
X0196484Y0145267D02*
X0196117Y0144900D01*
X0195016Y0144900D01*
X0196117Y0144900D01*
X0196484Y0145267D01*
X0196484Y0146001D01*
X0196117Y0146368D01*
X0195016Y0146368D01*
X0196117Y0146368D01*
X0196484Y0146001D01*
X0196484Y0145267D01*
X0194274Y0145267D02*
X0193907Y0144900D01*
X0192807Y0144900D01*
X0192807Y0146368D01*
X0192807Y0144900D01*
X0193907Y0144900D01*
X0194274Y0145267D01*
X0194274Y0146368D01*
X0194274Y0145267D01*
X0192065Y0144900D02*
X0190964Y0144900D01*
X0190597Y0145267D01*
X0190964Y0145634D01*
X0191698Y0145634D01*
X0192065Y0146001D01*
X0191698Y0146368D01*
X0190597Y0146368D01*
X0191698Y0146368D01*
X0192065Y0146001D01*
X0191698Y0145634D01*
X0190964Y0145634D01*
X0190597Y0145267D01*
X0190964Y0144900D01*
X0192065Y0144900D01*
X0189488Y0145267D02*
X0189121Y0144900D01*
X0189488Y0145267D01*
X0189488Y0146735D01*
X0189488Y0145267D01*
X0188381Y0145267D02*
X0188014Y0144900D01*
X0187281Y0144900D01*
X0186914Y0145267D01*
X0186914Y0146001D01*
X0187281Y0146368D01*
X0188014Y0146368D01*
X0188381Y0146001D01*
X0188381Y0145267D01*
X0188014Y0144900D01*
X0187281Y0144900D01*
X0186914Y0145267D01*
X0186914Y0146001D01*
X0187281Y0146368D01*
X0188014Y0146368D01*
X0188381Y0146001D01*
X0188381Y0145267D01*
X0189121Y0146368D02*
X0189855Y0146368D01*
X0189121Y0146368D01*
X0189122Y0148500D02*
X0188755Y0148867D01*
X0188755Y0149968D01*
X0188755Y0148867D01*
X0189122Y0148500D01*
X0189489Y0148867D01*
X0189856Y0148500D01*
X0190223Y0148867D01*
X0190223Y0149968D01*
X0190223Y0148867D01*
X0189856Y0148500D01*
X0189489Y0148867D01*
X0189122Y0148500D01*
X0190965Y0148500D02*
X0192066Y0148500D01*
X0192433Y0148867D01*
X0192066Y0149234D01*
X0190965Y0149234D01*
X0192066Y0149234D01*
X0192433Y0148867D01*
X0192066Y0148500D01*
X0190965Y0148500D01*
X0190965Y0149601D01*
X0191332Y0149968D01*
X0192066Y0149968D01*
X0191332Y0149968D01*
X0190965Y0149601D01*
X0190965Y0148500D01*
X0193172Y0148500D02*
X0193906Y0148500D01*
X0193172Y0148500D01*
X0193539Y0148500D02*
X0193539Y0150702D01*
X0193906Y0150702D01*
X0193539Y0150702D01*
X0193539Y0148500D01*
X0193175Y0152100D02*
X0194276Y0152100D01*
X0194643Y0152467D01*
X0194643Y0153201D01*
X0194276Y0153568D01*
X0193175Y0153568D01*
X0194276Y0153568D01*
X0194643Y0153201D01*
X0194643Y0152467D01*
X0194276Y0152100D01*
X0193175Y0152100D01*
X0193175Y0154302D01*
X0193175Y0152100D01*
X0192433Y0152467D02*
X0192433Y0153201D01*
X0192066Y0153568D01*
X0191332Y0153568D01*
X0190965Y0153201D01*
X0190965Y0152834D01*
X0192433Y0152834D01*
X0190965Y0152834D01*
X0190965Y0153201D01*
X0191332Y0153568D01*
X0192066Y0153568D01*
X0192433Y0153201D01*
X0192433Y0152467D01*
X0192066Y0152100D01*
X0191332Y0152100D01*
X0192066Y0152100D01*
X0192433Y0152467D01*
X0190223Y0153201D02*
X0189489Y0153201D01*
X0190223Y0153201D01*
X0189856Y0153935D02*
X0189489Y0154302D01*
X0189856Y0153935D01*
X0189856Y0152100D01*
X0189856Y0153935D01*
X0188750Y0153201D02*
X0188383Y0153568D01*
X0187649Y0153568D01*
X0187282Y0153201D01*
X0187282Y0152834D01*
X0188750Y0152834D01*
X0187282Y0152834D01*
X0187282Y0153201D01*
X0187649Y0153568D01*
X0188383Y0153568D01*
X0188750Y0153201D01*
X0188750Y0152467D01*
X0188383Y0152100D01*
X0187649Y0152100D01*
X0188383Y0152100D01*
X0188750Y0152467D01*
X0188750Y0153201D01*
X0186540Y0153201D02*
X0186540Y0152467D01*
X0186173Y0152100D01*
X0185072Y0152100D01*
X0186173Y0152100D01*
X0186540Y0152467D01*
X0186540Y0153201D01*
X0186173Y0153568D01*
X0185072Y0153568D01*
X0186173Y0153568D01*
X0186540Y0153201D01*
X0184330Y0153568D02*
X0183596Y0153568D01*
X0184330Y0153568D01*
X0183963Y0153935D02*
X0183963Y0152467D01*
X0183596Y0152100D01*
X0183963Y0152467D01*
X0183963Y0153935D01*
X0182857Y0153201D02*
X0182490Y0153568D01*
X0181389Y0153568D01*
X0182490Y0153568D01*
X0182857Y0153201D01*
X0182490Y0152834D01*
X0181756Y0152834D01*
X0181389Y0152467D01*
X0181756Y0152100D01*
X0182857Y0152100D01*
X0181756Y0152100D01*
X0181389Y0152467D01*
X0181756Y0152834D01*
X0182490Y0152834D01*
X0182857Y0153201D01*
X0182862Y0155700D02*
X0183963Y0155700D01*
X0184330Y0156067D01*
X0183963Y0156434D01*
X0182862Y0156434D01*
X0183963Y0156434D01*
X0184330Y0156067D01*
X0183963Y0155700D01*
X0182862Y0155700D01*
X0182862Y0156801D01*
X0183229Y0157168D01*
X0183963Y0157168D01*
X0183229Y0157168D01*
X0182862Y0156801D01*
X0182862Y0155700D01*
X0181753Y0156067D02*
X0181386Y0155700D01*
X0181753Y0156067D01*
X0181753Y0157535D01*
X0181753Y0156067D01*
X0180647Y0156067D02*
X0180647Y0156801D01*
X0180280Y0157168D01*
X0179546Y0157168D01*
X0179179Y0156801D01*
X0179179Y0156434D01*
X0180647Y0156434D01*
X0179179Y0156434D01*
X0179179Y0156801D01*
X0179546Y0157168D01*
X0180280Y0157168D01*
X0180647Y0156801D01*
X0180647Y0156067D01*
X0180280Y0155700D01*
X0179546Y0155700D01*
X0180280Y0155700D01*
X0180647Y0156067D01*
X0181386Y0157168D02*
X0182120Y0157168D01*
X0181386Y0157168D01*
X0181387Y0159300D02*
X0181021Y0159667D01*
X0181021Y0160401D01*
X0181387Y0160768D01*
X0182121Y0160768D01*
X0182488Y0160401D01*
X0182488Y0159667D01*
X0182121Y0159300D01*
X0181387Y0159300D01*
X0181021Y0159667D01*
X0181021Y0160401D01*
X0181387Y0160768D01*
X0182121Y0160768D01*
X0182488Y0160401D01*
X0182488Y0159667D01*
X0182121Y0159300D01*
X0181387Y0159300D01*
X0180279Y0159667D02*
X0180279Y0160401D01*
X0179912Y0160768D01*
X0178811Y0160768D01*
X0179912Y0160768D01*
X0180279Y0160401D01*
X0180279Y0159667D01*
X0179912Y0159300D01*
X0178811Y0159300D01*
X0178811Y0161502D01*
X0178811Y0159300D01*
X0179912Y0159300D01*
X0180279Y0159667D01*
X0178069Y0159667D02*
X0177702Y0159300D01*
X0176601Y0159300D01*
X0176601Y0160768D01*
X0176601Y0159300D01*
X0177702Y0159300D01*
X0178069Y0159667D01*
X0178069Y0160768D01*
X0178069Y0159667D01*
X0175859Y0159667D02*
X0175492Y0159300D01*
X0174391Y0159300D01*
X0175492Y0159300D01*
X0175859Y0159667D01*
X0175859Y0160401D01*
X0175492Y0160768D01*
X0174391Y0160768D01*
X0175492Y0160768D01*
X0175859Y0160401D01*
X0175859Y0159667D01*
X0173649Y0160768D02*
X0172915Y0160768D01*
X0173649Y0160768D01*
X0173282Y0161135D02*
X0173282Y0159667D01*
X0172915Y0159300D01*
X0173282Y0159667D01*
X0173282Y0161135D01*
X0173285Y0162900D02*
X0174019Y0162900D01*
X0174386Y0163267D01*
X0174019Y0162900D01*
X0173285Y0162900D01*
X0172918Y0163267D01*
X0172918Y0163634D01*
X0173285Y0164001D01*
X0174019Y0164001D01*
X0174386Y0164368D01*
X0174386Y0164735D01*
X0174019Y0165102D01*
X0173285Y0165102D01*
X0172918Y0164735D01*
X0173285Y0165102D01*
X0174019Y0165102D01*
X0174386Y0164735D01*
X0174386Y0164368D01*
X0174019Y0164001D01*
X0173285Y0164001D01*
X0172918Y0163634D01*
X0172918Y0163267D01*
X0173285Y0162900D01*
X0172176Y0162900D02*
X0171442Y0162900D01*
X0172176Y0162900D01*
X0171809Y0162900D02*
X0171809Y0165102D01*
X0171809Y0162900D01*
X0169968Y0162900D02*
X0169968Y0165102D01*
X0169968Y0162900D01*
X0168493Y0162900D02*
X0167759Y0162900D01*
X0168493Y0162900D01*
X0168126Y0162900D02*
X0168126Y0165102D01*
X0168126Y0162900D01*
X0167019Y0163267D02*
X0166652Y0162900D01*
X0165918Y0162900D01*
X0165551Y0163267D01*
X0165551Y0164735D01*
X0165918Y0165102D01*
X0166652Y0165102D01*
X0167019Y0164735D01*
X0167019Y0163267D01*
X0166652Y0162900D01*
X0165918Y0162900D01*
X0165551Y0163267D01*
X0165551Y0164735D01*
X0165918Y0165102D01*
X0166652Y0165102D01*
X0167019Y0164735D01*
X0167019Y0163267D01*
X0167759Y0165102D02*
X0168493Y0165102D01*
X0167759Y0165102D01*
X0169234Y0165102D02*
X0170702Y0165102D01*
X0169234Y0165102D01*
X0171442Y0165102D02*
X0172176Y0165102D01*
X0171442Y0165102D01*
X0175128Y0164735D02*
X0175128Y0163267D01*
X0175494Y0162900D01*
X0176228Y0162900D01*
X0176595Y0163267D01*
X0176595Y0164735D01*
X0176228Y0165102D01*
X0175494Y0165102D01*
X0175128Y0164735D01*
X0175494Y0165102D01*
X0176228Y0165102D01*
X0176595Y0164735D01*
X0176595Y0163267D01*
X0176228Y0162900D01*
X0175494Y0162900D01*
X0175128Y0163267D01*
X0175128Y0164735D01*
X0177337Y0164735D02*
X0177337Y0164001D01*
X0177704Y0163634D01*
X0178805Y0163634D01*
X0177704Y0163634D01*
X0177337Y0164001D01*
X0177337Y0164735D01*
X0177704Y0165102D01*
X0178805Y0165102D01*
X0178805Y0162900D01*
X0178805Y0165102D01*
X0177704Y0165102D01*
X0177337Y0164735D01*
X0179547Y0164735D02*
X0179547Y0163267D01*
X0179914Y0162900D01*
X0180648Y0162900D01*
X0181015Y0163267D01*
X0181015Y0164735D01*
X0180648Y0165102D01*
X0179914Y0165102D01*
X0179547Y0164735D01*
X0179914Y0165102D01*
X0180648Y0165102D01*
X0181015Y0164735D01*
X0181015Y0163267D01*
X0180648Y0162900D01*
X0179914Y0162900D01*
X0179547Y0163267D01*
X0179547Y0164735D01*
X0181757Y0164735D02*
X0181757Y0164001D01*
X0182124Y0163634D01*
X0183225Y0163634D01*
X0182124Y0163634D01*
X0181757Y0164001D01*
X0181757Y0164735D01*
X0182124Y0165102D01*
X0183225Y0165102D01*
X0183225Y0162900D01*
X0183225Y0165102D01*
X0182124Y0165102D01*
X0181757Y0164735D01*
X0182491Y0163634D02*
X0181757Y0162900D01*
X0182491Y0163634D01*
X0183967Y0164001D02*
X0184334Y0163634D01*
X0185435Y0163634D01*
X0184334Y0163634D01*
X0183967Y0164001D01*
X0183967Y0164735D01*
X0184334Y0165102D01*
X0185435Y0165102D01*
X0185435Y0162900D01*
X0185435Y0165102D01*
X0184334Y0165102D01*
X0183967Y0164735D01*
X0183967Y0164001D01*
X0184330Y0160768D02*
X0184330Y0159300D01*
X0184330Y0160768D01*
X0183596Y0160768D02*
X0183229Y0160768D01*
X0183596Y0160768D01*
X0184330Y0160034D01*
X0183596Y0160768D01*
X0185072Y0160401D02*
X0185072Y0159667D01*
X0185439Y0159300D01*
X0186540Y0159300D01*
X0185439Y0159300D01*
X0185072Y0159667D01*
X0185072Y0160401D01*
X0185439Y0160768D01*
X0186540Y0160768D01*
X0186540Y0158566D01*
X0186540Y0160768D01*
X0185439Y0160768D01*
X0185072Y0160401D01*
X0185436Y0157535D02*
X0185436Y0156067D01*
X0185069Y0155700D01*
X0185436Y0156067D01*
X0185436Y0157535D01*
X0185803Y0157168D02*
X0185069Y0157168D01*
X0185803Y0157168D01*
X0186545Y0157535D02*
X0186912Y0157902D01*
X0187646Y0157902D01*
X0188013Y0157535D01*
X0188013Y0157168D01*
X0187646Y0156801D01*
X0186912Y0156801D01*
X0186545Y0156434D01*
X0186545Y0156067D01*
X0186912Y0155700D01*
X0187646Y0155700D01*
X0188013Y0156067D01*
X0187646Y0155700D01*
X0186912Y0155700D01*
X0186545Y0156067D01*
X0186545Y0156434D01*
X0186912Y0156801D01*
X0187646Y0156801D01*
X0188013Y0157168D01*
X0188013Y0157535D01*
X0187646Y0157902D01*
X0186912Y0157902D01*
X0186545Y0157535D01*
X0188387Y0162900D02*
X0188387Y0164368D01*
X0189121Y0165102D01*
X0189855Y0164368D01*
X0189855Y0162900D01*
X0189855Y0164368D01*
X0189121Y0165102D01*
X0188387Y0164368D01*
X0188387Y0162900D01*
X0188387Y0164001D02*
X0189855Y0164001D01*
X0188387Y0164001D01*
X0190594Y0165102D02*
X0191328Y0165102D01*
X0190594Y0165102D01*
X0190961Y0165102D02*
X0190961Y0162900D01*
X0190961Y0165102D01*
X0191328Y0162900D02*
X0190594Y0162900D01*
X0191328Y0162900D01*
X0205327Y0161502D02*
X0206060Y0161502D01*
X0205327Y0161502D01*
X0185803Y0149968D02*
X0185803Y0148500D01*
X0185803Y0149968D01*
X0185069Y0149968D02*
X0184702Y0149968D01*
X0185069Y0149968D01*
X0185803Y0149234D01*
X0185069Y0149968D01*
X0183962Y0149601D02*
X0183595Y0149968D01*
X0182861Y0149968D01*
X0182494Y0149601D01*
X0182494Y0149234D01*
X0183962Y0149234D01*
X0182494Y0149234D01*
X0182494Y0149601D01*
X0182861Y0149968D01*
X0183595Y0149968D01*
X0183962Y0149601D01*
X0183962Y0148867D01*
X0183595Y0148500D01*
X0182861Y0148500D01*
X0183595Y0148500D01*
X0183962Y0148867D01*
X0183962Y0149601D01*
X0181752Y0149601D02*
X0181385Y0149968D01*
X0180284Y0149968D01*
X0180284Y0147766D01*
X0180284Y0149968D01*
X0181385Y0149968D01*
X0181752Y0149601D01*
X0181752Y0148867D01*
X0181385Y0148500D01*
X0180284Y0148500D01*
X0181385Y0148500D01*
X0181752Y0148867D01*
X0181752Y0149601D01*
X0179542Y0149968D02*
X0179542Y0148867D01*
X0179175Y0148500D01*
X0178074Y0148500D01*
X0178074Y0149968D01*
X0178074Y0148500D01*
X0179175Y0148500D01*
X0179542Y0148867D01*
X0179542Y0149968D01*
X0177332Y0149968D02*
X0176965Y0149968D01*
X0176965Y0148500D01*
X0176965Y0149968D01*
X0177332Y0149968D01*
X0176965Y0150702D02*
X0176965Y0151069D01*
X0176965Y0150702D01*
X0175859Y0149968D02*
X0175859Y0148500D01*
X0175859Y0149968D01*
X0175859Y0149234D02*
X0175125Y0149968D01*
X0174758Y0149968D01*
X0175125Y0149968D01*
X0175859Y0149234D01*
X0176598Y0148500D02*
X0177332Y0148500D01*
X0176598Y0148500D01*
X0175123Y0147469D02*
X0175123Y0147102D01*
X0175123Y0147469D01*
X0175123Y0146368D02*
X0175123Y0144900D01*
X0175123Y0146368D01*
X0175490Y0146368D01*
X0175123Y0146368D01*
X0174017Y0146368D02*
X0172916Y0146368D01*
X0172549Y0146001D01*
X0172549Y0144900D01*
X0172549Y0146001D01*
X0172916Y0146368D01*
X0174017Y0146368D01*
X0174017Y0144900D01*
X0174017Y0146368D01*
X0174757Y0144900D02*
X0175490Y0144900D01*
X0174757Y0144900D01*
X0178442Y0145267D02*
X0178809Y0145634D01*
X0179543Y0145634D01*
X0179910Y0146001D01*
X0179543Y0146368D01*
X0178442Y0146368D01*
X0179543Y0146368D01*
X0179910Y0146001D01*
X0179543Y0145634D01*
X0178809Y0145634D01*
X0178442Y0145267D01*
X0178809Y0144900D01*
X0179910Y0144900D01*
X0178809Y0144900D01*
X0178442Y0145267D01*
X0180651Y0146368D02*
X0181018Y0146368D01*
X0181752Y0145634D01*
X0181018Y0146368D01*
X0180651Y0146368D01*
X0181752Y0146368D02*
X0181752Y0144900D01*
X0181752Y0146368D01*
X0182494Y0146001D02*
X0182494Y0145634D01*
X0183962Y0145634D01*
X0182494Y0145634D01*
X0182494Y0146001D01*
X0182861Y0146368D01*
X0183595Y0146368D01*
X0183962Y0146001D01*
X0183962Y0145267D01*
X0183595Y0144900D01*
X0182861Y0144900D01*
X0183595Y0144900D01*
X0183962Y0145267D01*
X0183962Y0146001D01*
X0183595Y0146368D01*
X0182861Y0146368D01*
X0182494Y0146001D01*
X0184704Y0146001D02*
X0184704Y0144900D01*
X0184704Y0146001D01*
X0185071Y0146368D01*
X0185438Y0146001D01*
X0185438Y0144900D01*
X0185438Y0146001D01*
X0185805Y0146368D01*
X0186172Y0146368D01*
X0186172Y0144900D01*
X0186172Y0146368D01*
X0185805Y0146368D01*
X0185438Y0146001D01*
X0185071Y0146368D01*
X0184704Y0146001D01*
X0178437Y0152467D02*
X0178070Y0152100D01*
X0177336Y0152100D01*
X0176969Y0152467D01*
X0176969Y0153201D01*
X0177336Y0153568D01*
X0178070Y0153568D01*
X0178437Y0153201D01*
X0178437Y0152467D01*
X0178070Y0152100D01*
X0177336Y0152100D01*
X0176969Y0152467D01*
X0176969Y0153201D01*
X0177336Y0153568D01*
X0178070Y0153568D01*
X0178437Y0153201D01*
X0178437Y0152467D01*
X0176227Y0152834D02*
X0175493Y0153568D01*
X0175126Y0153568D01*
X0175493Y0153568D01*
X0176227Y0152834D01*
X0176227Y0152100D02*
X0176227Y0153568D01*
X0176227Y0152100D01*
X0174017Y0149601D02*
X0173650Y0149968D01*
X0172916Y0149968D01*
X0172549Y0149601D01*
X0172549Y0149234D01*
X0174017Y0149234D01*
X0172549Y0149234D01*
X0172549Y0149601D01*
X0172916Y0149968D01*
X0173650Y0149968D01*
X0174017Y0149601D01*
X0174017Y0148867D01*
X0173650Y0148500D01*
X0172916Y0148500D01*
X0173650Y0148500D01*
X0174017Y0148867D01*
X0174017Y0149601D01*
X0171807Y0149601D02*
X0171440Y0149968D01*
X0170339Y0149968D01*
X0171440Y0149968D01*
X0171807Y0149601D01*
X0171440Y0149234D01*
X0170706Y0149234D01*
X0170339Y0148867D01*
X0170706Y0148500D01*
X0171807Y0148500D01*
X0170706Y0148500D01*
X0170339Y0148867D01*
X0170706Y0149234D01*
X0171440Y0149234D01*
X0171807Y0149601D01*
X0171809Y0152100D02*
X0172176Y0152467D01*
X0172176Y0153201D01*
X0171809Y0153568D01*
X0171075Y0153568D01*
X0170708Y0153201D01*
X0170708Y0152467D01*
X0171075Y0152100D01*
X0171809Y0152100D01*
X0172176Y0152467D01*
X0172176Y0153201D01*
X0171809Y0153568D01*
X0171075Y0153568D01*
X0170708Y0153201D01*
X0170708Y0152467D01*
X0171075Y0152100D01*
X0171809Y0152100D01*
X0169599Y0152467D02*
X0169232Y0152100D01*
X0169599Y0152467D01*
X0169599Y0153935D01*
X0169599Y0152467D01*
X0169966Y0153568D02*
X0169232Y0153568D01*
X0169966Y0153568D01*
X0168493Y0153201D02*
X0168126Y0153568D01*
X0167392Y0153568D01*
X0167025Y0153201D01*
X0167025Y0152100D01*
X0167025Y0153201D01*
X0167392Y0153568D01*
X0168126Y0153568D01*
X0168493Y0153201D01*
X0168493Y0154302D02*
X0168493Y0152100D01*
X0168493Y0154302D01*
X0167757Y0155700D02*
X0168124Y0156067D01*
X0167757Y0156434D01*
X0166656Y0156434D01*
X0167757Y0156434D01*
X0168124Y0156067D01*
X0167757Y0155700D01*
X0166656Y0155700D01*
X0166656Y0156801D01*
X0167023Y0157168D01*
X0167757Y0157168D01*
X0167023Y0157168D01*
X0166656Y0156801D01*
X0166656Y0155700D01*
X0167757Y0155700D01*
X0168866Y0156067D02*
X0169233Y0155700D01*
X0169967Y0155700D01*
X0170334Y0156067D01*
X0170334Y0157535D01*
X0169967Y0157902D01*
X0169233Y0157902D01*
X0168866Y0157535D01*
X0169233Y0157902D01*
X0169967Y0157902D01*
X0170334Y0157535D01*
X0170334Y0156067D01*
X0169967Y0155700D01*
X0169233Y0155700D01*
X0168866Y0156067D01*
X0165914Y0155700D02*
X0165180Y0155700D01*
X0165914Y0155700D01*
X0165547Y0155700D02*
X0165547Y0157902D01*
X0165914Y0157902D01*
X0165547Y0157902D01*
X0165547Y0155700D01*
X0164441Y0155700D02*
X0163707Y0155700D01*
X0164441Y0155700D01*
X0164074Y0155700D02*
X0164074Y0157168D01*
X0164441Y0157168D01*
X0164074Y0157168D01*
X0164074Y0155700D01*
X0162601Y0155700D02*
X0162601Y0157535D01*
X0162234Y0157902D01*
X0162601Y0157535D01*
X0162601Y0155700D01*
X0162968Y0156801D02*
X0162234Y0156801D01*
X0162968Y0156801D01*
X0161495Y0156801D02*
X0161495Y0156067D01*
X0161128Y0155700D01*
X0160394Y0155700D01*
X0160027Y0156067D01*
X0160027Y0156801D01*
X0160394Y0157168D01*
X0161128Y0157168D01*
X0161495Y0156801D01*
X0161495Y0156067D01*
X0161128Y0155700D01*
X0160394Y0155700D01*
X0160027Y0156067D01*
X0160027Y0156801D01*
X0160394Y0157168D01*
X0161128Y0157168D01*
X0161495Y0156801D01*
X0159285Y0157168D02*
X0159285Y0155700D01*
X0159285Y0157168D01*
X0159285Y0156434D02*
X0158551Y0157168D01*
X0158184Y0157168D01*
X0158551Y0157168D01*
X0159285Y0156434D01*
X0157443Y0157168D02*
X0156342Y0157168D01*
X0155975Y0156801D01*
X0155975Y0155700D01*
X0155975Y0156801D01*
X0156342Y0157168D01*
X0157443Y0157168D01*
X0157443Y0155700D01*
X0157443Y0157168D01*
X0155233Y0157168D02*
X0154866Y0157168D01*
X0154866Y0155700D01*
X0154866Y0157168D01*
X0155233Y0157168D01*
X0154866Y0157902D02*
X0154866Y0158269D01*
X0154866Y0157902D01*
X0154869Y0159300D02*
X0154502Y0159667D01*
X0154869Y0160034D01*
X0155603Y0160034D01*
X0155970Y0160401D01*
X0155603Y0160768D01*
X0154502Y0160768D01*
X0155603Y0160768D01*
X0155970Y0160401D01*
X0155603Y0160034D01*
X0154869Y0160034D01*
X0154502Y0159667D01*
X0154869Y0159300D01*
X0155970Y0159300D01*
X0154869Y0159300D01*
X0156712Y0159300D02*
X0156712Y0160401D01*
X0157079Y0160768D01*
X0158180Y0160768D01*
X0158180Y0159300D01*
X0158180Y0160768D01*
X0157079Y0160768D01*
X0156712Y0160401D01*
X0156712Y0159300D01*
X0158919Y0159300D02*
X0159653Y0159300D01*
X0158919Y0159300D01*
X0159286Y0159300D02*
X0159286Y0160768D01*
X0159653Y0160768D01*
X0159286Y0160768D01*
X0159286Y0159300D01*
X0160395Y0159300D02*
X0161496Y0159300D01*
X0161863Y0159667D01*
X0161496Y0160034D01*
X0160395Y0160034D01*
X0161496Y0160034D01*
X0161863Y0159667D01*
X0161496Y0159300D01*
X0160395Y0159300D01*
X0160395Y0160401D01*
X0160762Y0160768D01*
X0161496Y0160768D01*
X0160762Y0160768D01*
X0160395Y0160401D01*
X0160395Y0159300D01*
X0162602Y0159300D02*
X0162969Y0159667D01*
X0162969Y0161135D01*
X0162969Y0159667D01*
X0162602Y0159300D01*
X0162602Y0160768D02*
X0163336Y0160768D01*
X0162602Y0160768D01*
X0164078Y0160401D02*
X0164078Y0159300D01*
X0164078Y0160401D01*
X0164445Y0160768D01*
X0165546Y0160768D01*
X0165546Y0159300D01*
X0165546Y0160768D01*
X0164445Y0160768D01*
X0164078Y0160401D01*
X0164074Y0158269D02*
X0164074Y0157902D01*
X0164074Y0158269D01*
X0166288Y0159667D02*
X0166288Y0160401D01*
X0166655Y0160768D01*
X0167389Y0160768D01*
X0167756Y0160401D01*
X0167756Y0159667D01*
X0167389Y0159300D01*
X0166655Y0159300D01*
X0166288Y0159667D01*
X0166288Y0160401D01*
X0166655Y0160768D01*
X0167389Y0160768D01*
X0167756Y0160401D01*
X0167756Y0159667D01*
X0167389Y0159300D01*
X0166655Y0159300D01*
X0166288Y0159667D01*
X0168498Y0159300D02*
X0169599Y0159300D01*
X0169966Y0159667D01*
X0169966Y0160401D01*
X0169599Y0160768D01*
X0168498Y0160768D01*
X0169599Y0160768D01*
X0169966Y0160401D01*
X0169966Y0159667D01*
X0169599Y0159300D01*
X0168498Y0159300D01*
X0173283Y0157902D02*
X0173650Y0157535D01*
X0173650Y0155700D01*
X0173650Y0157535D01*
X0173283Y0157902D01*
X0173283Y0156801D02*
X0174017Y0156801D01*
X0173283Y0156801D01*
X0174759Y0156801D02*
X0175126Y0157168D01*
X0175860Y0157168D01*
X0176227Y0156801D01*
X0176227Y0156067D01*
X0175860Y0155700D01*
X0175126Y0155700D01*
X0174759Y0156067D01*
X0174759Y0156801D01*
X0175126Y0157168D01*
X0175860Y0157168D01*
X0176227Y0156801D01*
X0176227Y0156067D01*
X0175860Y0155700D01*
X0175126Y0155700D01*
X0174759Y0156067D01*
X0174759Y0156801D01*
X0166283Y0153201D02*
X0166283Y0152467D01*
X0165916Y0152100D01*
X0165182Y0152100D01*
X0165916Y0152100D01*
X0166283Y0152467D01*
X0166283Y0153201D01*
X0165916Y0153568D01*
X0165182Y0153568D01*
X0164815Y0153201D01*
X0164815Y0152834D01*
X0166283Y0152834D01*
X0164815Y0152834D01*
X0164815Y0153201D01*
X0165182Y0153568D01*
X0165916Y0153568D01*
X0166283Y0153201D01*
X0164073Y0153568D02*
X0164073Y0152100D01*
X0164073Y0153568D01*
X0164073Y0152834D02*
X0163339Y0153568D01*
X0162972Y0153568D01*
X0163339Y0153568D01*
X0164073Y0152834D01*
X0163337Y0151069D02*
X0163337Y0150702D01*
X0163337Y0151069D01*
X0163337Y0149968D02*
X0163337Y0148500D01*
X0163337Y0149968D01*
X0163704Y0149968D01*
X0163337Y0149968D01*
X0162231Y0149601D02*
X0161864Y0149968D01*
X0160763Y0149968D01*
X0161864Y0149968D01*
X0162231Y0149601D01*
X0161864Y0149234D01*
X0161130Y0149234D01*
X0160763Y0148867D01*
X0161130Y0148500D01*
X0162231Y0148500D01*
X0161130Y0148500D01*
X0160763Y0148867D01*
X0161130Y0149234D01*
X0161864Y0149234D01*
X0162231Y0149601D01*
X0162970Y0148500D02*
X0163704Y0148500D01*
X0162970Y0148500D01*
X0164446Y0148500D02*
X0164446Y0149601D01*
X0164813Y0149968D01*
X0165547Y0149968D01*
X0165914Y0149601D01*
X0165547Y0149968D01*
X0164813Y0149968D01*
X0164446Y0149601D01*
X0164446Y0148500D01*
X0165914Y0148500D02*
X0165914Y0150702D01*
X0165914Y0148500D01*
X0166654Y0148500D02*
X0167021Y0148867D01*
X0167021Y0150335D01*
X0167021Y0148867D01*
X0166654Y0148500D01*
X0166654Y0149968D02*
X0167388Y0149968D01*
X0166654Y0149968D01*
X0168124Y0147102D02*
X0168124Y0144900D01*
X0168124Y0147102D01*
X0167757Y0146368D02*
X0167023Y0146368D01*
X0166656Y0146001D01*
X0166656Y0144900D01*
X0166656Y0146001D01*
X0167023Y0146368D01*
X0167757Y0146368D01*
X0168124Y0146001D01*
X0167757Y0146368D01*
X0168864Y0146368D02*
X0169597Y0146368D01*
X0168864Y0146368D01*
X0169230Y0146735D02*
X0169230Y0145267D01*
X0168864Y0144900D01*
X0169230Y0145267D01*
X0169230Y0146735D01*
X0165914Y0146001D02*
X0165547Y0146368D01*
X0164813Y0146368D01*
X0164446Y0146001D01*
X0164446Y0145634D01*
X0165914Y0145634D01*
X0164446Y0145634D01*
X0164446Y0146001D01*
X0164813Y0146368D01*
X0165547Y0146368D01*
X0165914Y0146001D01*
X0165914Y0145267D01*
X0165547Y0144900D01*
X0164813Y0144900D01*
X0165547Y0144900D01*
X0165914Y0145267D01*
X0165914Y0146001D01*
X0161495Y0146368D02*
X0161128Y0146001D01*
X0160394Y0146001D01*
X0160027Y0145634D01*
X0160027Y0145267D01*
X0160394Y0144900D01*
X0161128Y0144900D01*
X0161495Y0145267D01*
X0161128Y0144900D01*
X0160394Y0144900D01*
X0160027Y0145267D01*
X0160027Y0145634D01*
X0160394Y0146001D01*
X0161128Y0146001D01*
X0161495Y0146368D01*
X0161495Y0146735D01*
X0161128Y0147102D01*
X0160394Y0147102D01*
X0160027Y0146735D01*
X0160394Y0147102D01*
X0161128Y0147102D01*
X0161495Y0146735D01*
X0161495Y0146368D01*
X0159285Y0146368D02*
X0158551Y0146368D01*
X0159285Y0146368D01*
X0158918Y0146735D02*
X0158918Y0145267D01*
X0158551Y0144900D01*
X0158918Y0145267D01*
X0158918Y0146735D01*
X0157444Y0146368D02*
X0156711Y0146368D01*
X0156344Y0146001D01*
X0156344Y0144900D01*
X0157444Y0144900D01*
X0157811Y0145267D01*
X0157444Y0145634D01*
X0156344Y0145634D01*
X0157444Y0145634D01*
X0157811Y0145267D01*
X0157444Y0144900D01*
X0156344Y0144900D01*
X0156344Y0146001D01*
X0156711Y0146368D01*
X0157444Y0146368D01*
X0155602Y0146368D02*
X0154868Y0146368D01*
X0155602Y0146368D01*
X0155235Y0146735D02*
X0155235Y0145267D01*
X0154868Y0144900D01*
X0155235Y0145267D01*
X0155235Y0146735D01*
X0154128Y0146001D02*
X0153761Y0146368D01*
X0153027Y0146368D01*
X0152660Y0146001D01*
X0152660Y0145634D01*
X0154128Y0145634D01*
X0152660Y0145634D01*
X0152660Y0146001D01*
X0153027Y0146368D01*
X0153761Y0146368D01*
X0154128Y0146001D01*
X0154128Y0145267D01*
X0153761Y0144900D01*
X0153027Y0144900D01*
X0153761Y0144900D01*
X0154128Y0145267D01*
X0154128Y0146001D01*
X0154134Y0148500D02*
X0155235Y0148500D01*
X0155602Y0148867D01*
X0155235Y0149234D01*
X0154134Y0149234D01*
X0155235Y0149234D01*
X0155602Y0148867D01*
X0155235Y0148500D01*
X0154134Y0148500D01*
X0154134Y0149601D01*
X0154501Y0149968D01*
X0155235Y0149968D01*
X0154501Y0149968D01*
X0154134Y0149601D01*
X0154134Y0148500D01*
X0153392Y0148500D02*
X0153392Y0149968D01*
X0153392Y0148500D01*
X0153392Y0149234D02*
X0152658Y0149968D01*
X0152291Y0149968D01*
X0152658Y0149968D01*
X0153392Y0149234D01*
X0151550Y0149968D02*
X0150449Y0149968D01*
X0150082Y0149601D01*
X0150082Y0148500D01*
X0150082Y0149601D01*
X0150449Y0149968D01*
X0151550Y0149968D01*
X0151550Y0148500D01*
X0151550Y0149968D01*
X0151551Y0152100D02*
X0151918Y0152467D01*
X0151918Y0153201D01*
X0151551Y0153568D01*
X0150817Y0153568D01*
X0150450Y0153201D01*
X0150450Y0152467D01*
X0150817Y0152100D01*
X0151551Y0152100D01*
X0151918Y0152467D01*
X0151918Y0153201D01*
X0151551Y0153568D01*
X0150817Y0153568D01*
X0150450Y0153201D01*
X0150450Y0152467D01*
X0150817Y0152100D01*
X0151551Y0152100D01*
X0152659Y0153568D02*
X0153026Y0153568D01*
X0153760Y0152834D01*
X0153026Y0153568D01*
X0152659Y0153568D01*
X0153760Y0153568D02*
X0153760Y0152100D01*
X0153760Y0153568D01*
X0154502Y0153201D02*
X0154502Y0152467D01*
X0154869Y0152100D01*
X0155970Y0152100D01*
X0154869Y0152100D01*
X0154502Y0152467D01*
X0154502Y0153201D01*
X0154869Y0153568D01*
X0155970Y0153568D01*
X0155970Y0151366D01*
X0155970Y0153568D01*
X0154869Y0153568D01*
X0154502Y0153201D01*
X0156712Y0153201D02*
X0156712Y0152834D01*
X0158180Y0152834D01*
X0156712Y0152834D01*
X0156712Y0153201D01*
X0157079Y0153568D01*
X0157813Y0153568D01*
X0158180Y0153201D01*
X0158180Y0152467D01*
X0157813Y0152100D01*
X0157079Y0152100D01*
X0157813Y0152100D01*
X0158180Y0152467D01*
X0158180Y0153201D01*
X0157813Y0153568D01*
X0157079Y0153568D01*
X0156712Y0153201D01*
X0158920Y0153568D02*
X0159287Y0153568D01*
X0160021Y0152834D01*
X0159287Y0153568D01*
X0158920Y0153568D01*
X0160021Y0153568D02*
X0160021Y0152100D01*
X0160021Y0153568D01*
X0157811Y0149968D02*
X0157811Y0148867D01*
X0157444Y0148500D01*
X0157077Y0148867D01*
X0156710Y0148500D01*
X0156344Y0148867D01*
X0156344Y0149968D01*
X0156344Y0148867D01*
X0156710Y0148500D01*
X0157077Y0148867D01*
X0157444Y0148500D01*
X0157811Y0148867D01*
X0157811Y0149968D01*
X0155233Y0155700D02*
X0154499Y0155700D01*
X0155233Y0155700D01*
X0153760Y0156067D02*
X0153393Y0156434D01*
X0152292Y0156434D01*
X0153393Y0156434D01*
X0153760Y0156067D01*
X0153393Y0155700D01*
X0152292Y0155700D01*
X0152292Y0156801D01*
X0152659Y0157168D01*
X0153393Y0157168D01*
X0152659Y0157168D01*
X0152292Y0156801D01*
X0152292Y0155700D01*
X0153393Y0155700D01*
X0153760Y0156067D01*
X0151183Y0159300D02*
X0150082Y0159300D01*
X0151183Y0159300D01*
X0151550Y0159667D01*
X0151550Y0160401D01*
X0151183Y0160768D01*
X0150082Y0160768D01*
X0151183Y0160768D01*
X0151550Y0160401D01*
X0151550Y0159667D01*
X0151183Y0159300D01*
X0149340Y0159300D02*
X0149340Y0161502D01*
X0149340Y0159300D01*
X0149340Y0160401D02*
X0148973Y0160768D01*
X0148239Y0160768D01*
X0147872Y0160401D01*
X0147872Y0159300D01*
X0147872Y0160401D01*
X0148239Y0160768D01*
X0148973Y0160768D01*
X0149340Y0160401D01*
X0147130Y0160401D02*
X0146763Y0160768D01*
X0146029Y0160768D01*
X0145662Y0160401D01*
X0145662Y0160034D01*
X0147130Y0160034D01*
X0145662Y0160034D01*
X0145662Y0160401D01*
X0146029Y0160768D01*
X0146763Y0160768D01*
X0147130Y0160401D01*
X0147130Y0159667D01*
X0146763Y0159300D01*
X0146029Y0159300D01*
X0146763Y0159300D01*
X0147130Y0159667D01*
X0147130Y0160401D01*
X0144920Y0160768D02*
X0144554Y0160768D01*
X0144187Y0160401D01*
X0143820Y0160768D01*
X0143453Y0160401D01*
X0143453Y0159300D01*
X0143453Y0160401D01*
X0143820Y0160768D01*
X0144187Y0160401D01*
X0144187Y0159300D01*
X0144187Y0160401D01*
X0144554Y0160768D01*
X0144920Y0160768D01*
X0144920Y0159300D01*
X0144920Y0160768D01*
X0144920Y0162900D02*
X0144187Y0162900D01*
X0144920Y0162900D01*
X0144554Y0162900D02*
X0144554Y0165102D01*
X0144554Y0162900D01*
X0143447Y0162900D02*
X0143447Y0165102D01*
X0141979Y0162900D01*
X0141979Y0165102D01*
X0141979Y0162900D01*
X0143447Y0165102D01*
X0143447Y0162900D01*
X0142344Y0161869D02*
X0142344Y0161502D01*
X0142344Y0161869D01*
X0142344Y0160768D02*
X0142344Y0159300D01*
X0142344Y0160768D01*
X0142711Y0160768D01*
X0142344Y0160768D01*
X0141237Y0160401D02*
X0141237Y0159667D01*
X0140870Y0159300D01*
X0139769Y0159300D01*
X0140870Y0159300D01*
X0141237Y0159667D01*
X0141237Y0160401D01*
X0140870Y0160768D01*
X0139769Y0160768D01*
X0140870Y0160768D01*
X0141237Y0160401D01*
X0141977Y0159300D02*
X0142711Y0159300D01*
X0141977Y0159300D01*
X0141979Y0157168D02*
X0143080Y0157168D01*
X0143447Y0156801D01*
X0143447Y0156067D01*
X0143080Y0155700D01*
X0141979Y0155700D01*
X0143080Y0155700D01*
X0143447Y0156067D01*
X0143447Y0156801D01*
X0143080Y0157168D01*
X0141979Y0157168D01*
X0140870Y0157168D02*
X0140136Y0157168D01*
X0139769Y0156801D01*
X0139769Y0155700D01*
X0140870Y0155700D01*
X0141237Y0156067D01*
X0140870Y0156434D01*
X0139769Y0156434D01*
X0140870Y0156434D01*
X0141237Y0156067D01*
X0140870Y0155700D01*
X0139769Y0155700D01*
X0139769Y0156801D01*
X0140136Y0157168D01*
X0140870Y0157168D01*
X0139027Y0157168D02*
X0139027Y0156067D01*
X0138660Y0155700D01*
X0137560Y0155700D01*
X0137560Y0157168D01*
X0137560Y0155700D01*
X0138660Y0155700D01*
X0139027Y0156067D01*
X0139027Y0157168D01*
X0138660Y0159300D02*
X0139027Y0159667D01*
X0138660Y0160034D01*
X0137560Y0160034D01*
X0138660Y0160034D01*
X0139027Y0159667D01*
X0138660Y0159300D01*
X0137560Y0159300D01*
X0137560Y0160401D01*
X0137927Y0160768D01*
X0138660Y0160768D01*
X0137927Y0160768D01*
X0137560Y0160401D01*
X0137560Y0159300D01*
X0138660Y0159300D01*
X0136818Y0159300D02*
X0136084Y0159300D01*
X0136818Y0159300D01*
X0136451Y0159300D02*
X0136451Y0161502D01*
X0136818Y0161502D01*
X0136451Y0161502D01*
X0136451Y0159300D01*
X0135344Y0159300D02*
X0134243Y0159300D01*
X0133876Y0159667D01*
X0134243Y0160034D01*
X0134977Y0160034D01*
X0135344Y0160401D01*
X0134977Y0160768D01*
X0133876Y0160768D01*
X0134977Y0160768D01*
X0135344Y0160401D01*
X0134977Y0160034D01*
X0134243Y0160034D01*
X0133876Y0159667D01*
X0134243Y0159300D01*
X0135344Y0159300D01*
X0135350Y0157168D02*
X0136451Y0157168D01*
X0136818Y0156801D01*
X0136451Y0156434D01*
X0135717Y0156434D01*
X0135350Y0156067D01*
X0135717Y0155700D01*
X0136818Y0155700D01*
X0135717Y0155700D01*
X0135350Y0156067D01*
X0135717Y0156434D01*
X0136451Y0156434D01*
X0136818Y0156801D01*
X0136451Y0157168D01*
X0135350Y0157168D01*
X0134608Y0156801D02*
X0134241Y0157168D01*
X0133507Y0157168D01*
X0133140Y0156801D01*
X0133140Y0156434D01*
X0134608Y0156434D01*
X0133140Y0156434D01*
X0133140Y0156801D01*
X0133507Y0157168D01*
X0134241Y0157168D01*
X0134608Y0156801D01*
X0134608Y0156067D01*
X0134241Y0155700D01*
X0133507Y0155700D01*
X0134241Y0155700D01*
X0134608Y0156067D01*
X0134608Y0156801D01*
X0133503Y0154302D02*
X0133503Y0152100D01*
X0133503Y0154302D01*
X0133136Y0153568D02*
X0132402Y0153568D01*
X0132035Y0153201D01*
X0132035Y0152100D01*
X0132035Y0153201D01*
X0132402Y0153568D01*
X0133136Y0153568D01*
X0133503Y0153201D01*
X0133136Y0153568D01*
X0131293Y0152467D02*
X0130926Y0152834D01*
X0129825Y0152834D01*
X0130926Y0152834D01*
X0131293Y0152467D01*
X0130926Y0152100D01*
X0129825Y0152100D01*
X0129825Y0153201D01*
X0130192Y0153568D01*
X0130926Y0153568D01*
X0130192Y0153568D01*
X0129825Y0153201D01*
X0129825Y0152100D01*
X0130926Y0152100D01*
X0131293Y0152467D01*
X0129083Y0152100D02*
X0129083Y0153568D01*
X0129083Y0152100D01*
X0129083Y0152834D02*
X0128349Y0153568D01*
X0127982Y0153568D01*
X0128349Y0153568D01*
X0129083Y0152834D01*
X0127241Y0153568D02*
X0126874Y0153568D01*
X0126507Y0153201D01*
X0126140Y0153568D01*
X0125773Y0153201D01*
X0125773Y0152100D01*
X0125773Y0153201D01*
X0126140Y0153568D01*
X0126507Y0153201D01*
X0126507Y0152100D01*
X0126507Y0153201D01*
X0126874Y0153568D01*
X0127241Y0153568D01*
X0127241Y0152100D01*
X0127241Y0153568D01*
X0127611Y0155700D02*
X0126510Y0155700D01*
X0126510Y0156801D01*
X0126877Y0157168D01*
X0127611Y0157168D01*
X0126877Y0157168D01*
X0126510Y0156801D01*
X0126510Y0155700D01*
X0127611Y0155700D01*
X0127978Y0156067D01*
X0127611Y0156434D01*
X0126510Y0156434D01*
X0127611Y0156434D01*
X0127978Y0156067D01*
X0127611Y0155700D01*
X0128720Y0155700D02*
X0129821Y0155700D01*
X0130188Y0156067D01*
X0130188Y0156801D01*
X0129821Y0157168D01*
X0128720Y0157168D01*
X0129821Y0157168D01*
X0130188Y0156801D01*
X0130188Y0156067D01*
X0129821Y0155700D01*
X0128720Y0155700D01*
X0125768Y0155700D02*
X0125768Y0157168D01*
X0124667Y0157168D01*
X0124300Y0156801D01*
X0124300Y0155700D01*
X0124300Y0156801D01*
X0124667Y0157168D01*
X0125768Y0157168D01*
X0125768Y0155700D01*
X0123558Y0156067D02*
X0123191Y0155700D01*
X0122090Y0155700D01*
X0123191Y0155700D01*
X0123558Y0156067D01*
X0123558Y0156801D01*
X0123191Y0157168D01*
X0122090Y0157168D01*
X0123191Y0157168D01*
X0123558Y0156801D01*
X0123558Y0156067D01*
X0121348Y0156067D02*
X0121348Y0156801D01*
X0120981Y0157168D01*
X0120247Y0157168D01*
X0119881Y0156801D01*
X0119881Y0156434D01*
X0121348Y0156434D01*
X0119881Y0156434D01*
X0119881Y0156801D01*
X0120247Y0157168D01*
X0120981Y0157168D01*
X0121348Y0156801D01*
X0121348Y0156067D01*
X0120981Y0155700D01*
X0120247Y0155700D01*
X0120981Y0155700D01*
X0121348Y0156067D01*
X0119139Y0156434D02*
X0118405Y0157168D01*
X0118038Y0157168D01*
X0118405Y0157168D01*
X0119139Y0156434D01*
X0119139Y0155700D02*
X0119139Y0157168D01*
X0119139Y0155700D01*
X0124665Y0152467D02*
X0124665Y0152100D01*
X0125032Y0152100D01*
X0125032Y0152467D01*
X0124665Y0152467D01*
X0124665Y0152100D01*
X0125032Y0152100D01*
X0125032Y0152467D01*
X0124665Y0152467D01*
X0128348Y0147469D02*
X0128348Y0147102D01*
X0128348Y0147469D01*
X0128348Y0146368D02*
X0128348Y0144900D01*
X0128348Y0146368D01*
X0128715Y0146368D01*
X0128348Y0146368D01*
X0129457Y0146001D02*
X0129457Y0144900D01*
X0129457Y0146001D01*
X0129824Y0146368D01*
X0130925Y0146368D01*
X0130925Y0144900D01*
X0130925Y0146368D01*
X0129824Y0146368D01*
X0129457Y0146001D01*
X0128715Y0144900D02*
X0127981Y0144900D01*
X0128715Y0144900D01*
X0127241Y0145267D02*
X0126874Y0145634D01*
X0125774Y0145634D01*
X0126874Y0145634D01*
X0127241Y0145267D01*
X0126874Y0144900D01*
X0125774Y0144900D01*
X0125774Y0146001D01*
X0126141Y0146368D01*
X0126874Y0146368D01*
X0126141Y0146368D01*
X0125774Y0146001D01*
X0125774Y0144900D01*
X0126874Y0144900D01*
X0127241Y0145267D01*
X0131665Y0146368D02*
X0132032Y0146368D01*
X0132766Y0145634D01*
X0132032Y0146368D01*
X0131665Y0146368D01*
X0132766Y0146368D02*
X0132766Y0144900D01*
X0132766Y0146368D01*
X0133508Y0146001D02*
X0133875Y0146368D01*
X0134609Y0146368D01*
X0134976Y0146001D01*
X0134976Y0145267D01*
X0134609Y0144900D01*
X0133875Y0144900D01*
X0133508Y0145267D01*
X0133508Y0146001D01*
X0133875Y0146368D01*
X0134609Y0146368D01*
X0134976Y0146001D01*
X0134976Y0145267D01*
X0134609Y0144900D01*
X0133875Y0144900D01*
X0133508Y0145267D01*
X0133508Y0146001D01*
X0135715Y0146001D02*
X0136449Y0146001D01*
X0135715Y0146001D01*
X0136082Y0146735D02*
X0135715Y0147102D01*
X0136082Y0146735D01*
X0136082Y0144900D01*
X0136082Y0146735D01*
X0137556Y0147102D02*
X0137556Y0147469D01*
X0137556Y0147102D01*
X0137556Y0146368D02*
X0137556Y0144900D01*
X0137556Y0146368D01*
X0137923Y0146368D01*
X0137556Y0146368D01*
X0137923Y0144900D02*
X0137189Y0144900D01*
X0137923Y0144900D01*
X0138662Y0144900D02*
X0139396Y0144900D01*
X0138662Y0144900D01*
X0139029Y0144900D02*
X0139029Y0147102D01*
X0139396Y0147102D01*
X0139029Y0147102D01*
X0139029Y0144900D01*
X0140138Y0144900D02*
X0141239Y0144900D01*
X0141606Y0145267D01*
X0141239Y0145634D01*
X0140138Y0145634D01*
X0141239Y0145634D01*
X0141606Y0145267D01*
X0141239Y0144900D01*
X0140138Y0144900D01*
X0140138Y0146001D01*
X0140505Y0146368D01*
X0141239Y0146368D01*
X0140505Y0146368D01*
X0140138Y0146001D01*
X0140138Y0144900D01*
X0142348Y0145267D02*
X0142715Y0144900D01*
X0143449Y0144900D01*
X0143816Y0145267D01*
X0143816Y0146735D01*
X0143449Y0147102D01*
X0142715Y0147102D01*
X0142348Y0146735D01*
X0142715Y0147102D01*
X0143449Y0147102D01*
X0143816Y0146735D01*
X0143816Y0145267D01*
X0143449Y0144900D01*
X0142715Y0144900D01*
X0142348Y0145267D01*
X0144556Y0147766D02*
X0144189Y0148133D01*
X0144189Y0149968D01*
X0145290Y0149968D01*
X0145657Y0149601D01*
X0145657Y0148867D01*
X0145290Y0148500D01*
X0144189Y0148500D01*
X0145290Y0148500D01*
X0145657Y0148867D01*
X0145657Y0149601D01*
X0145290Y0149968D01*
X0144189Y0149968D01*
X0144189Y0148133D01*
X0144556Y0147766D01*
X0144923Y0147766D01*
X0144556Y0147766D01*
X0146399Y0148500D02*
X0146399Y0149601D01*
X0146766Y0149968D01*
X0147867Y0149968D01*
X0147867Y0148500D01*
X0147867Y0149968D01*
X0146766Y0149968D01*
X0146399Y0149601D01*
X0146399Y0148500D01*
X0146765Y0147102D02*
X0147132Y0146735D01*
X0147132Y0144900D01*
X0147132Y0146735D01*
X0146765Y0147102D01*
X0146765Y0146001D02*
X0147499Y0146001D01*
X0146765Y0146001D01*
X0148241Y0146001D02*
X0148608Y0146368D01*
X0149342Y0146368D01*
X0149709Y0146001D01*
X0149709Y0145267D01*
X0149342Y0144900D01*
X0148608Y0144900D01*
X0148241Y0145267D01*
X0148241Y0146001D01*
X0148608Y0146368D01*
X0149342Y0146368D01*
X0149709Y0146001D01*
X0149709Y0145267D01*
X0149342Y0144900D01*
X0148608Y0144900D01*
X0148241Y0145267D01*
X0148241Y0146001D01*
X0148606Y0148500D02*
X0149340Y0148500D01*
X0148606Y0148500D01*
X0148973Y0148500D02*
X0148973Y0149968D01*
X0149340Y0149968D01*
X0148973Y0149968D01*
X0148973Y0148500D01*
X0148973Y0150702D02*
X0148973Y0151069D01*
X0148973Y0150702D01*
X0149342Y0152100D02*
X0149709Y0152467D01*
X0149709Y0153201D01*
X0149342Y0153568D01*
X0148241Y0153568D01*
X0149342Y0153568D01*
X0149709Y0153201D01*
X0149709Y0152467D01*
X0149342Y0152100D01*
X0148241Y0152100D01*
X0148241Y0154302D01*
X0148241Y0152100D01*
X0149342Y0152100D01*
X0147499Y0152467D02*
X0147499Y0153568D01*
X0147499Y0152467D01*
X0147132Y0152100D01*
X0146031Y0152100D01*
X0146031Y0153568D01*
X0146031Y0152100D01*
X0147132Y0152100D01*
X0147499Y0152467D01*
X0145289Y0152467D02*
X0144922Y0152100D01*
X0143821Y0152100D01*
X0144922Y0152100D01*
X0145289Y0152467D01*
X0145289Y0153201D01*
X0144922Y0153568D01*
X0143821Y0153568D01*
X0144922Y0153568D01*
X0145289Y0153201D01*
X0145289Y0152467D01*
X0143079Y0153568D02*
X0142345Y0153568D01*
X0143079Y0153568D01*
X0142712Y0153935D02*
X0142712Y0152467D01*
X0142345Y0152100D01*
X0142712Y0152467D01*
X0142712Y0153935D01*
X0141606Y0153568D02*
X0141239Y0153568D01*
X0141239Y0152100D01*
X0141239Y0153568D01*
X0141606Y0153568D01*
X0141239Y0154302D02*
X0141239Y0154669D01*
X0141239Y0154302D01*
X0140132Y0153568D02*
X0139398Y0152100D01*
X0138664Y0153568D01*
X0139398Y0152100D01*
X0140132Y0153568D01*
X0140872Y0152100D02*
X0141606Y0152100D01*
X0140872Y0152100D01*
X0140870Y0150335D02*
X0140870Y0148867D01*
X0140503Y0148500D01*
X0140870Y0148867D01*
X0140870Y0150335D01*
X0141237Y0149968D02*
X0140503Y0149968D01*
X0141237Y0149968D01*
X0139764Y0149601D02*
X0139764Y0148867D01*
X0139397Y0148500D01*
X0138663Y0148500D01*
X0138296Y0148867D01*
X0138296Y0149601D01*
X0138663Y0149968D01*
X0139397Y0149968D01*
X0139764Y0149601D01*
X0139764Y0148867D01*
X0139397Y0148500D01*
X0138663Y0148500D01*
X0138296Y0148867D01*
X0138296Y0149601D01*
X0138663Y0149968D01*
X0139397Y0149968D01*
X0139764Y0149601D01*
X0137556Y0152100D02*
X0137923Y0152467D01*
X0137923Y0153201D01*
X0137556Y0153568D01*
X0136822Y0153568D01*
X0136455Y0153201D01*
X0136455Y0152834D01*
X0137923Y0152834D01*
X0136455Y0152834D01*
X0136455Y0153201D01*
X0136822Y0153568D01*
X0137556Y0153568D01*
X0137923Y0153201D01*
X0137923Y0152467D01*
X0137556Y0152100D01*
X0136822Y0152100D01*
X0137556Y0152100D01*
X0135344Y0150702D02*
X0135344Y0148500D01*
X0134243Y0148500D01*
X0133876Y0148867D01*
X0133876Y0149601D01*
X0134243Y0149968D01*
X0135344Y0149968D01*
X0134243Y0149968D01*
X0133876Y0149601D01*
X0133876Y0148867D01*
X0134243Y0148500D01*
X0135344Y0148500D01*
X0135344Y0150702D01*
X0133134Y0149601D02*
X0132767Y0149968D01*
X0132034Y0149968D01*
X0131667Y0149601D01*
X0131667Y0149234D01*
X0133134Y0149234D01*
X0131667Y0149234D01*
X0131667Y0149601D01*
X0132034Y0149968D01*
X0132767Y0149968D01*
X0133134Y0149601D01*
X0133134Y0148867D01*
X0132767Y0148500D01*
X0132034Y0148500D01*
X0132767Y0148500D01*
X0133134Y0148867D01*
X0133134Y0149601D01*
X0146399Y0156067D02*
X0146399Y0156801D01*
X0146766Y0157168D01*
X0147500Y0157168D01*
X0147867Y0156801D01*
X0147867Y0156067D01*
X0147500Y0155700D01*
X0146766Y0155700D01*
X0146399Y0156067D01*
X0146399Y0156801D01*
X0146766Y0157168D01*
X0147500Y0157168D01*
X0147867Y0156801D01*
X0147867Y0156067D01*
X0147500Y0155700D01*
X0146766Y0155700D01*
X0146399Y0156067D01*
X0148606Y0155700D02*
X0148973Y0156067D01*
X0148973Y0157535D01*
X0148973Y0156067D01*
X0148606Y0155700D01*
X0148606Y0157168D02*
X0149340Y0157168D01*
X0148606Y0157168D01*
X0147872Y0162900D02*
X0148606Y0163634D01*
X0147872Y0162900D01*
X0147130Y0162900D02*
X0147130Y0165102D01*
X0145662Y0162900D01*
X0145662Y0165102D01*
X0145662Y0162900D01*
X0147130Y0165102D01*
X0147130Y0162900D01*
X0147872Y0164001D02*
X0148239Y0163634D01*
X0149340Y0163634D01*
X0148239Y0163634D01*
X0147872Y0164001D01*
X0147872Y0164735D01*
X0148239Y0165102D01*
X0149340Y0165102D01*
X0149340Y0162900D01*
X0149340Y0165102D01*
X0148239Y0165102D01*
X0147872Y0164735D01*
X0147872Y0164001D01*
X0150082Y0164001D02*
X0151550Y0164001D01*
X0150082Y0164001D01*
X0150082Y0164368D02*
X0150082Y0162900D01*
X0150082Y0164368D01*
X0150816Y0165102D01*
X0151550Y0164368D01*
X0151550Y0162900D01*
X0151550Y0164368D01*
X0150816Y0165102D01*
X0150082Y0164368D01*
X0152292Y0165102D02*
X0152292Y0162900D01*
X0153026Y0163634D01*
X0153760Y0162900D01*
X0153760Y0165102D01*
X0153760Y0162900D01*
X0153026Y0163634D01*
X0152292Y0162900D01*
X0152292Y0165102D01*
X0156712Y0165102D02*
X0158180Y0165102D01*
X0158180Y0164001D01*
X0157446Y0164368D01*
X0157079Y0164368D01*
X0156712Y0164001D01*
X0156712Y0163267D01*
X0157079Y0162900D01*
X0157813Y0162900D01*
X0158180Y0163267D01*
X0157813Y0162900D01*
X0157079Y0162900D01*
X0156712Y0163267D01*
X0156712Y0164001D01*
X0157079Y0164368D01*
X0157446Y0164368D01*
X0158180Y0164001D01*
X0158180Y0165102D01*
X0156712Y0165102D01*
X0158922Y0165102D02*
X0159656Y0164735D01*
X0160390Y0164001D01*
X0159289Y0164001D01*
X0158922Y0163634D01*
X0158922Y0163267D01*
X0159289Y0162900D01*
X0160023Y0162900D01*
X0160390Y0163267D01*
X0160390Y0164001D01*
X0159289Y0164001D01*
X0158922Y0163634D01*
X0158922Y0163267D01*
X0159289Y0162900D01*
X0160023Y0162900D01*
X0160390Y0163267D01*
X0160390Y0164001D01*
X0159656Y0164735D01*
X0158922Y0165102D01*
X0159286Y0161869D02*
X0159286Y0161502D01*
X0159286Y0161869D01*
X0163341Y0162900D02*
X0163341Y0165102D01*
X0163341Y0162900D01*
X0164809Y0165102D01*
X0164809Y0162900D01*
X0164809Y0165102D01*
X0163341Y0162900D01*
X0144920Y0165102D02*
X0144187Y0165102D01*
X0144920Y0165102D01*
X0141237Y0164735D02*
X0141237Y0163267D01*
X0140870Y0162900D01*
X0140136Y0162900D01*
X0139769Y0163267D01*
X0139769Y0164001D01*
X0140503Y0164001D01*
X0139769Y0164001D01*
X0139769Y0163267D01*
X0140136Y0162900D01*
X0140870Y0162900D01*
X0141237Y0163267D01*
X0141237Y0164735D01*
X0140870Y0165102D01*
X0140136Y0165102D01*
X0139769Y0164735D01*
X0140136Y0165102D01*
X0140870Y0165102D01*
X0141237Y0164735D01*
D12*
X0321000Y0155000D02*
X0325000Y0155000D01*
X0321500Y0158000D02*
X0325000Y0161500D01*
X0325000Y0148500D02*
X0325000Y0144500D01*
X0323000Y0144500D01*
X0325000Y0144500D02*
X0327000Y0144500D01*
D13*
X0325000Y0148500D02*
X0325000Y0155000D01*
X0325000Y0161500D01*
X0325000Y0162500D01*
D14*
X0319850Y0163853D02*
X0319850Y0160150D01*
X0317381Y0160150D02*
X0317381Y0163853D01*
X0318616Y0162619D01*
X0319850Y0163853D01*
X0317350Y0157853D02*
X0315498Y0157853D01*
X0314881Y0157236D01*
X0314881Y0156002D01*
X0315498Y0155384D01*
X0317350Y0155384D01*
X0317350Y0154150D02*
X0317350Y0157853D01*
X0316116Y0155384D02*
X0314881Y0154150D01*
X0314233Y0152853D02*
X0314850Y0152236D01*
X0314850Y0149767D01*
X0314233Y0149150D01*
X0312998Y0149150D01*
X0312381Y0149767D01*
X0311733Y0147853D02*
X0312350Y0147236D01*
X0312350Y0146619D01*
X0311733Y0146002D01*
X0310498Y0146002D01*
X0309881Y0145384D01*
X0309881Y0144767D01*
X0310498Y0144150D01*
X0311733Y0144150D01*
X0312350Y0144767D01*
X0311733Y0147853D02*
X0310498Y0147853D01*
X0309881Y0147236D01*
X0312381Y0152236D02*
X0312998Y0152853D01*
X0314233Y0152853D01*
M02*
