G75*
%MOIN*%
%OFA0B0*%
%FSLAX25Y25*%
%IPPOS*%
%LPD*%
%AMOC8*
5,1,8,0,0,1.08239X$1,22.5*
%
%ADD10C,0.00600*%
%ADD11C,0.00400*%
%ADD12C,0.01500*%
%ADD13C,0.00700*%
%ADD14C,0.00800*%
%ADD15C,0.00000*%
%ADD16C,0.00004*%
%ADD17C,0.00100*%
%ADD18C,0.01200*%
%ADD19C,0.00500*%
%ADD20C,0.00200*%
%ADD21R,0.02000X0.02000*%
%ADD22R,0.02300X0.02300*%
%ADD23C,0.00300*%
D10*
X0130295Y0137018D02*
X0135632Y0137018D01*
X0136700Y0138086D01*
X0136700Y0140221D01*
X0135632Y0141288D01*
X0130295Y0141288D01*
X0131362Y0143463D02*
X0132430Y0143463D01*
X0133497Y0144531D01*
X0133497Y0146666D01*
X0134565Y0147734D01*
X0135632Y0147734D01*
X0136700Y0146666D01*
X0136700Y0144531D01*
X0135632Y0143463D01*
X0131362Y0143463D02*
X0130295Y0144531D01*
X0130295Y0146666D01*
X0131362Y0147734D01*
X0130295Y0149909D02*
X0130295Y0153112D01*
X0131362Y0154179D01*
X0132430Y0154179D01*
X0133497Y0153112D01*
X0133497Y0149909D01*
X0130295Y0149909D02*
X0136700Y0149909D01*
X0136700Y0153112D01*
X0135632Y0154179D01*
X0134565Y0154179D01*
X0133497Y0153112D01*
X0140300Y0165300D02*
X0140300Y0169570D01*
X0142435Y0171705D01*
X0144570Y0169570D01*
X0144570Y0165300D01*
X0146745Y0165300D02*
X0146745Y0169570D01*
X0146745Y0167435D02*
X0148881Y0169570D01*
X0149948Y0169570D01*
X0152117Y0168503D02*
X0153184Y0169570D01*
X0156387Y0169570D01*
X0156387Y0171705D02*
X0156387Y0165300D01*
X0153184Y0165300D01*
X0152117Y0166368D01*
X0152117Y0168503D01*
X0144570Y0168503D02*
X0140300Y0168503D01*
X0158562Y0169570D02*
X0158562Y0166368D01*
X0159630Y0165300D01*
X0162833Y0165300D01*
X0162833Y0169570D01*
X0165008Y0169570D02*
X0166075Y0169570D01*
X0166075Y0165300D01*
X0165008Y0165300D02*
X0167143Y0165300D01*
X0169305Y0165300D02*
X0169305Y0169570D01*
X0172507Y0169570D01*
X0173575Y0168503D01*
X0173575Y0165300D01*
X0175750Y0166368D02*
X0175750Y0168503D01*
X0176818Y0169570D01*
X0178953Y0169570D01*
X0180021Y0168503D01*
X0180021Y0166368D01*
X0178953Y0165300D01*
X0176818Y0165300D01*
X0175750Y0166368D01*
X0166075Y0171705D02*
X0166075Y0172773D01*
X0188641Y0171705D02*
X0188641Y0165300D01*
X0192912Y0165300D02*
X0192912Y0171705D01*
X0196154Y0169570D02*
X0198289Y0169570D01*
X0199357Y0168503D01*
X0199357Y0165300D01*
X0196154Y0165300D01*
X0195087Y0166368D01*
X0196154Y0167435D01*
X0199357Y0167435D01*
X0201532Y0165300D02*
X0201532Y0169570D01*
X0204735Y0169570D01*
X0205803Y0168503D01*
X0205803Y0165300D01*
X0207978Y0166368D02*
X0207978Y0168503D01*
X0209045Y0169570D01*
X0211180Y0169570D01*
X0212248Y0168503D01*
X0212248Y0166368D01*
X0211180Y0165300D01*
X0209045Y0165300D01*
X0207978Y0166368D01*
X0192912Y0165300D02*
X0188641Y0171705D01*
X0343500Y0180000D02*
X0346500Y0180000D01*
X0345000Y0181500D02*
X0345000Y0178500D01*
X0352689Y0175000D02*
X0366500Y0175000D01*
X0340000Y0175000D02*
X0340006Y0175491D01*
X0340024Y0175981D01*
X0340054Y0176471D01*
X0340096Y0176960D01*
X0340150Y0177448D01*
X0340216Y0177935D01*
X0340294Y0178419D01*
X0340384Y0178902D01*
X0340486Y0179382D01*
X0340599Y0179860D01*
X0340724Y0180334D01*
X0340861Y0180806D01*
X0341009Y0181274D01*
X0341169Y0181738D01*
X0341340Y0182198D01*
X0341522Y0182654D01*
X0341716Y0183105D01*
X0341920Y0183551D01*
X0342136Y0183992D01*
X0342362Y0184428D01*
X0342598Y0184858D01*
X0342845Y0185282D01*
X0343103Y0185700D01*
X0343371Y0186111D01*
X0343648Y0186516D01*
X0343936Y0186914D01*
X0344233Y0187305D01*
X0344540Y0187688D01*
X0344856Y0188063D01*
X0345181Y0188431D01*
X0345515Y0188791D01*
X0345858Y0189142D01*
X0346209Y0189485D01*
X0346569Y0189819D01*
X0346937Y0190144D01*
X0347312Y0190460D01*
X0347695Y0190767D01*
X0348086Y0191064D01*
X0348484Y0191352D01*
X0348889Y0191629D01*
X0349300Y0191897D01*
X0349718Y0192155D01*
X0350142Y0192402D01*
X0350572Y0192638D01*
X0351008Y0192864D01*
X0351449Y0193080D01*
X0351895Y0193284D01*
X0352346Y0193478D01*
X0352802Y0193660D01*
X0353262Y0193831D01*
X0353726Y0193991D01*
X0354194Y0194139D01*
X0354666Y0194276D01*
X0355140Y0194401D01*
X0355618Y0194514D01*
X0356098Y0194616D01*
X0356581Y0194706D01*
X0357065Y0194784D01*
X0357552Y0194850D01*
X0358040Y0194904D01*
X0358529Y0194946D01*
X0359019Y0194976D01*
X0359509Y0194994D01*
X0360000Y0195000D01*
X0360491Y0194994D01*
X0360981Y0194976D01*
X0361471Y0194946D01*
X0361960Y0194904D01*
X0362448Y0194850D01*
X0362935Y0194784D01*
X0363419Y0194706D01*
X0363902Y0194616D01*
X0364382Y0194514D01*
X0364860Y0194401D01*
X0365334Y0194276D01*
X0365806Y0194139D01*
X0366274Y0193991D01*
X0366738Y0193831D01*
X0367198Y0193660D01*
X0367654Y0193478D01*
X0368105Y0193284D01*
X0368551Y0193080D01*
X0368992Y0192864D01*
X0369428Y0192638D01*
X0369858Y0192402D01*
X0370282Y0192155D01*
X0370700Y0191897D01*
X0371111Y0191629D01*
X0371516Y0191352D01*
X0371914Y0191064D01*
X0372305Y0190767D01*
X0372688Y0190460D01*
X0373063Y0190144D01*
X0373431Y0189819D01*
X0373791Y0189485D01*
X0374142Y0189142D01*
X0374485Y0188791D01*
X0374819Y0188431D01*
X0375144Y0188063D01*
X0375460Y0187688D01*
X0375767Y0187305D01*
X0376064Y0186914D01*
X0376352Y0186516D01*
X0376629Y0186111D01*
X0376897Y0185700D01*
X0377155Y0185282D01*
X0377402Y0184858D01*
X0377638Y0184428D01*
X0377864Y0183992D01*
X0378080Y0183551D01*
X0378284Y0183105D01*
X0378478Y0182654D01*
X0378660Y0182198D01*
X0378831Y0181738D01*
X0378991Y0181274D01*
X0379139Y0180806D01*
X0379276Y0180334D01*
X0379401Y0179860D01*
X0379514Y0179382D01*
X0379616Y0178902D01*
X0379706Y0178419D01*
X0379784Y0177935D01*
X0379850Y0177448D01*
X0379904Y0176960D01*
X0379946Y0176471D01*
X0379976Y0175981D01*
X0379994Y0175491D01*
X0380000Y0175000D01*
X0379994Y0174509D01*
X0379976Y0174019D01*
X0379946Y0173529D01*
X0379904Y0173040D01*
X0379850Y0172552D01*
X0379784Y0172065D01*
X0379706Y0171581D01*
X0379616Y0171098D01*
X0379514Y0170618D01*
X0379401Y0170140D01*
X0379276Y0169666D01*
X0379139Y0169194D01*
X0378991Y0168726D01*
X0378831Y0168262D01*
X0378660Y0167802D01*
X0378478Y0167346D01*
X0378284Y0166895D01*
X0378080Y0166449D01*
X0377864Y0166008D01*
X0377638Y0165572D01*
X0377402Y0165142D01*
X0377155Y0164718D01*
X0376897Y0164300D01*
X0376629Y0163889D01*
X0376352Y0163484D01*
X0376064Y0163086D01*
X0375767Y0162695D01*
X0375460Y0162312D01*
X0375144Y0161937D01*
X0374819Y0161569D01*
X0374485Y0161209D01*
X0374142Y0160858D01*
X0373791Y0160515D01*
X0373431Y0160181D01*
X0373063Y0159856D01*
X0372688Y0159540D01*
X0372305Y0159233D01*
X0371914Y0158936D01*
X0371516Y0158648D01*
X0371111Y0158371D01*
X0370700Y0158103D01*
X0370282Y0157845D01*
X0369858Y0157598D01*
X0369428Y0157362D01*
X0368992Y0157136D01*
X0368551Y0156920D01*
X0368105Y0156716D01*
X0367654Y0156522D01*
X0367198Y0156340D01*
X0366738Y0156169D01*
X0366274Y0156009D01*
X0365806Y0155861D01*
X0365334Y0155724D01*
X0364860Y0155599D01*
X0364382Y0155486D01*
X0363902Y0155384D01*
X0363419Y0155294D01*
X0362935Y0155216D01*
X0362448Y0155150D01*
X0361960Y0155096D01*
X0361471Y0155054D01*
X0360981Y0155024D01*
X0360491Y0155006D01*
X0360000Y0155000D01*
X0359509Y0155006D01*
X0359019Y0155024D01*
X0358529Y0155054D01*
X0358040Y0155096D01*
X0357552Y0155150D01*
X0357065Y0155216D01*
X0356581Y0155294D01*
X0356098Y0155384D01*
X0355618Y0155486D01*
X0355140Y0155599D01*
X0354666Y0155724D01*
X0354194Y0155861D01*
X0353726Y0156009D01*
X0353262Y0156169D01*
X0352802Y0156340D01*
X0352346Y0156522D01*
X0351895Y0156716D01*
X0351449Y0156920D01*
X0351008Y0157136D01*
X0350572Y0157362D01*
X0350142Y0157598D01*
X0349718Y0157845D01*
X0349300Y0158103D01*
X0348889Y0158371D01*
X0348484Y0158648D01*
X0348086Y0158936D01*
X0347695Y0159233D01*
X0347312Y0159540D01*
X0346937Y0159856D01*
X0346569Y0160181D01*
X0346209Y0160515D01*
X0345858Y0160858D01*
X0345515Y0161209D01*
X0345181Y0161569D01*
X0344856Y0161937D01*
X0344540Y0162312D01*
X0344233Y0162695D01*
X0343936Y0163086D01*
X0343648Y0163484D01*
X0343371Y0163889D01*
X0343103Y0164300D01*
X0342845Y0164718D01*
X0342598Y0165142D01*
X0342362Y0165572D01*
X0342136Y0166008D01*
X0341920Y0166449D01*
X0341716Y0166895D01*
X0341522Y0167346D01*
X0341340Y0167802D01*
X0341169Y0168262D01*
X0341009Y0168726D01*
X0340861Y0169194D01*
X0340724Y0169666D01*
X0340599Y0170140D01*
X0340486Y0170618D01*
X0340384Y0171098D01*
X0340294Y0171581D01*
X0340216Y0172065D01*
X0340150Y0172552D01*
X0340096Y0173040D01*
X0340054Y0173529D01*
X0340024Y0174019D01*
X0340006Y0174509D01*
X0340000Y0175000D01*
X0374996Y0180000D02*
X0377996Y0180000D01*
D11*
X0342081Y0202200D02*
X0339012Y0202200D01*
X0342081Y0205269D01*
X0342081Y0206037D01*
X0341314Y0206804D01*
X0339779Y0206804D01*
X0339012Y0206037D01*
X0337477Y0204502D02*
X0334408Y0204502D01*
X0332873Y0204502D02*
X0332873Y0202967D01*
X0332106Y0202200D01*
X0330571Y0202200D01*
X0329804Y0202967D01*
X0328269Y0202967D02*
X0328269Y0206037D01*
X0327502Y0206804D01*
X0325200Y0206804D01*
X0325200Y0202200D01*
X0327502Y0202200D01*
X0328269Y0202967D01*
X0329804Y0204502D02*
X0331339Y0205269D01*
X0332106Y0205269D01*
X0332873Y0204502D01*
X0332873Y0206804D02*
X0329804Y0206804D01*
X0329804Y0204502D01*
X0329973Y0229600D02*
X0329105Y0230467D01*
X0332575Y0233937D01*
X0332575Y0230467D01*
X0331707Y0229600D01*
X0329973Y0229600D01*
X0329105Y0230467D02*
X0329105Y0233937D01*
X0329973Y0234804D01*
X0331707Y0234804D01*
X0332575Y0233937D01*
X0334262Y0233937D02*
X0335129Y0234804D01*
X0336864Y0234804D01*
X0337731Y0233937D01*
X0337731Y0233070D01*
X0334262Y0229600D01*
X0337731Y0229600D01*
X0339418Y0230467D02*
X0342888Y0233937D01*
X0342888Y0230467D01*
X0342020Y0229600D01*
X0340285Y0229600D01*
X0339418Y0230467D01*
X0339418Y0233937D01*
X0340285Y0234804D01*
X0342020Y0234804D01*
X0342888Y0233937D01*
X0344574Y0233937D02*
X0344574Y0230467D01*
X0348044Y0233937D01*
X0348044Y0230467D01*
X0347177Y0229600D01*
X0345442Y0229600D01*
X0344574Y0230467D01*
X0344574Y0233937D02*
X0345442Y0234804D01*
X0347177Y0234804D01*
X0348044Y0233937D01*
X0349731Y0233937D02*
X0350598Y0234804D01*
X0352333Y0234804D01*
X0353200Y0233937D01*
X0353200Y0233070D01*
X0352333Y0232202D01*
X0353200Y0231335D01*
X0353200Y0230467D01*
X0352333Y0229600D01*
X0350598Y0229600D01*
X0349731Y0230467D01*
X0351466Y0232202D02*
X0352333Y0232202D01*
X0354887Y0233070D02*
X0356622Y0234804D01*
X0356622Y0229600D01*
X0354887Y0229600D02*
X0358357Y0229600D01*
X0360043Y0230467D02*
X0360043Y0231335D01*
X0360911Y0232202D01*
X0362646Y0232202D01*
X0363513Y0231335D01*
X0363513Y0230467D01*
X0362646Y0229600D01*
X0360911Y0229600D01*
X0360043Y0230467D01*
X0360911Y0232202D02*
X0360043Y0233070D01*
X0360043Y0233937D01*
X0360911Y0234804D01*
X0362646Y0234804D01*
X0363513Y0233937D01*
X0363513Y0233070D01*
X0362646Y0232202D01*
X0327418Y0233070D02*
X0327418Y0233937D01*
X0326551Y0234804D01*
X0324816Y0234804D01*
X0323949Y0233937D01*
X0327418Y0233070D02*
X0323949Y0229600D01*
X0327418Y0229600D01*
X0317106Y0230467D02*
X0316238Y0229600D01*
X0314503Y0229600D01*
X0313636Y0230467D01*
X0317106Y0233937D01*
X0317106Y0230467D01*
X0317106Y0233937D02*
X0316238Y0234804D01*
X0314503Y0234804D01*
X0313636Y0233937D01*
X0313636Y0230467D01*
X0311925Y0230467D02*
X0311925Y0229600D01*
X0311058Y0229600D01*
X0311058Y0230467D01*
X0311925Y0230467D01*
X0309371Y0229600D02*
X0305901Y0229600D01*
X0307636Y0229600D02*
X0307636Y0234804D01*
X0305901Y0233070D01*
X0304215Y0234804D02*
X0304215Y0231335D01*
X0302480Y0229600D01*
X0300745Y0231335D01*
X0300745Y0234804D01*
X0267081Y0206804D02*
X0265546Y0206037D01*
X0264012Y0204502D01*
X0266314Y0204502D01*
X0267081Y0203735D01*
X0267081Y0202967D01*
X0266314Y0202200D01*
X0264779Y0202200D01*
X0264012Y0202967D01*
X0264012Y0204502D01*
X0262477Y0204502D02*
X0259408Y0204502D01*
X0257873Y0204502D02*
X0255571Y0204502D01*
X0254804Y0205269D01*
X0254804Y0206037D01*
X0255571Y0206804D01*
X0257106Y0206804D01*
X0257873Y0206037D01*
X0257873Y0202967D01*
X0257106Y0202200D01*
X0255571Y0202200D01*
X0254804Y0202967D01*
X0253269Y0202967D02*
X0252502Y0202200D01*
X0250200Y0202200D01*
X0250200Y0206804D01*
X0252502Y0206804D01*
X0253269Y0206037D01*
X0253269Y0202967D01*
X0254333Y0177304D02*
X0255101Y0176537D01*
X0255101Y0175002D01*
X0254333Y0174235D01*
X0252031Y0174235D01*
X0252031Y0172700D02*
X0252031Y0177304D01*
X0254333Y0177304D01*
X0253566Y0174235D02*
X0255101Y0172700D01*
X0256635Y0175002D02*
X0259705Y0175002D01*
X0261239Y0177304D02*
X0262774Y0175769D01*
X0264309Y0177304D01*
X0264309Y0172700D01*
X0265843Y0172700D02*
X0268912Y0172700D01*
X0267378Y0172700D02*
X0267378Y0177304D01*
X0265843Y0175769D01*
X0270447Y0176537D02*
X0271214Y0177304D01*
X0272749Y0177304D01*
X0273516Y0176537D01*
X0270447Y0173467D01*
X0271214Y0172700D01*
X0272749Y0172700D01*
X0273516Y0173467D01*
X0273516Y0176537D01*
X0275051Y0176537D02*
X0275818Y0177304D01*
X0277353Y0177304D01*
X0278120Y0176537D01*
X0278120Y0175769D01*
X0275051Y0172700D01*
X0278120Y0172700D01*
X0279655Y0172700D02*
X0279655Y0177304D01*
X0281190Y0175769D01*
X0282724Y0177304D01*
X0282724Y0172700D01*
X0284259Y0172700D02*
X0284259Y0177304D01*
X0285794Y0175769D01*
X0287328Y0177304D01*
X0287328Y0172700D01*
X0270447Y0173467D02*
X0270447Y0176537D01*
X0261239Y0177304D02*
X0261239Y0172700D01*
X0250497Y0173467D02*
X0250497Y0176537D01*
X0249729Y0177304D01*
X0248195Y0177304D01*
X0247427Y0176537D01*
X0247427Y0173467D01*
X0248195Y0172700D01*
X0249729Y0172700D01*
X0250497Y0173467D01*
X0245893Y0177304D02*
X0242824Y0177304D01*
X0244358Y0177304D02*
X0244358Y0172700D01*
X0241289Y0173467D02*
X0240522Y0172700D01*
X0238987Y0172700D01*
X0238220Y0173467D01*
X0238220Y0176537D01*
X0238987Y0177304D01*
X0240522Y0177304D01*
X0241289Y0176537D01*
X0236685Y0177304D02*
X0233616Y0177304D01*
X0233616Y0172700D01*
X0236685Y0172700D01*
X0235150Y0175002D02*
X0233616Y0175002D01*
X0232081Y0172700D02*
X0232081Y0177304D01*
X0229012Y0177304D02*
X0232081Y0172700D01*
X0229012Y0172700D02*
X0229012Y0177304D01*
X0227477Y0177304D02*
X0227477Y0172700D01*
X0224408Y0177304D01*
X0224408Y0172700D01*
X0222873Y0173467D02*
X0222106Y0172700D01*
X0220571Y0172700D01*
X0219804Y0173467D01*
X0219804Y0176537D01*
X0220571Y0177304D01*
X0222106Y0177304D01*
X0222873Y0176537D01*
X0222873Y0173467D01*
X0218269Y0173467D02*
X0217502Y0172700D01*
X0215967Y0172700D01*
X0215200Y0173467D01*
X0215200Y0176537D01*
X0215967Y0177304D01*
X0217502Y0177304D01*
X0218269Y0176537D01*
X0171289Y0202967D02*
X0170522Y0202200D01*
X0168987Y0202200D01*
X0168220Y0202967D01*
X0171289Y0206037D01*
X0171289Y0202967D01*
X0168220Y0202967D02*
X0168220Y0206037D01*
X0168987Y0206804D01*
X0170522Y0206804D01*
X0171289Y0206037D01*
X0166685Y0202200D02*
X0163616Y0202200D01*
X0165150Y0202200D02*
X0165150Y0206804D01*
X0163616Y0205269D01*
X0162081Y0204502D02*
X0159012Y0204502D01*
X0157477Y0205269D02*
X0156710Y0204502D01*
X0157477Y0203735D01*
X0157477Y0202967D01*
X0156710Y0202200D01*
X0155175Y0202200D01*
X0154408Y0202967D01*
X0152873Y0202200D02*
X0149804Y0202200D01*
X0151339Y0202200D02*
X0151339Y0206804D01*
X0149804Y0205269D01*
X0148269Y0206037D02*
X0147502Y0206804D01*
X0145200Y0206804D01*
X0145200Y0202200D01*
X0147502Y0202200D01*
X0148269Y0202967D01*
X0148269Y0206037D01*
X0154408Y0206037D02*
X0155175Y0206804D01*
X0156710Y0206804D01*
X0157477Y0206037D01*
X0157477Y0205269D01*
X0156710Y0204502D02*
X0155942Y0204502D01*
X0154655Y0177304D02*
X0156190Y0175769D01*
X0157724Y0177304D01*
X0157724Y0172700D01*
X0159259Y0172700D02*
X0159259Y0177304D01*
X0160794Y0175769D01*
X0162328Y0177304D01*
X0162328Y0172700D01*
X0154655Y0172700D02*
X0154655Y0177304D01*
X0153120Y0176537D02*
X0152353Y0177304D01*
X0150818Y0177304D01*
X0150051Y0176537D01*
X0148516Y0176537D02*
X0145447Y0173467D01*
X0146214Y0172700D01*
X0147749Y0172700D01*
X0148516Y0173467D01*
X0148516Y0176537D01*
X0147749Y0177304D01*
X0146214Y0177304D01*
X0145447Y0176537D01*
X0145447Y0173467D01*
X0143912Y0172700D02*
X0140843Y0172700D01*
X0139309Y0172700D02*
X0139309Y0177304D01*
X0137774Y0175769D01*
X0136239Y0177304D01*
X0136239Y0172700D01*
X0134705Y0175002D02*
X0131635Y0175002D01*
X0130101Y0175002D02*
X0130101Y0176537D01*
X0129333Y0177304D01*
X0127031Y0177304D01*
X0127031Y0172700D01*
X0127031Y0174235D02*
X0129333Y0174235D01*
X0130101Y0175002D01*
X0128566Y0174235D02*
X0130101Y0172700D01*
X0125497Y0173467D02*
X0125497Y0176537D01*
X0124729Y0177304D01*
X0123195Y0177304D01*
X0122427Y0176537D01*
X0122427Y0173467D01*
X0123195Y0172700D01*
X0124729Y0172700D01*
X0125497Y0173467D01*
X0120893Y0177304D02*
X0117824Y0177304D01*
X0119358Y0177304D02*
X0119358Y0172700D01*
X0116289Y0173467D02*
X0115522Y0172700D01*
X0113987Y0172700D01*
X0113220Y0173467D01*
X0113220Y0176537D01*
X0113987Y0177304D01*
X0115522Y0177304D01*
X0116289Y0176537D01*
X0111685Y0177304D02*
X0108616Y0177304D01*
X0108616Y0172700D01*
X0111685Y0172700D01*
X0110150Y0175002D02*
X0108616Y0175002D01*
X0107081Y0172700D02*
X0107081Y0177304D01*
X0104012Y0177304D02*
X0107081Y0172700D01*
X0104012Y0172700D02*
X0104012Y0177304D01*
X0102477Y0177304D02*
X0102477Y0172700D01*
X0099408Y0177304D01*
X0099408Y0172700D01*
X0097873Y0173467D02*
X0097873Y0176537D01*
X0097106Y0177304D01*
X0095571Y0177304D01*
X0094804Y0176537D01*
X0094804Y0173467D01*
X0095571Y0172700D01*
X0097106Y0172700D01*
X0097873Y0173467D01*
X0093269Y0173467D02*
X0092502Y0172700D01*
X0090967Y0172700D01*
X0090200Y0173467D01*
X0090200Y0176537D01*
X0090967Y0177304D01*
X0092502Y0177304D01*
X0093269Y0176537D01*
X0063170Y0188467D02*
X0062403Y0187700D01*
X0060868Y0187700D01*
X0060101Y0188467D01*
X0060101Y0191537D01*
X0060868Y0192304D01*
X0062403Y0192304D01*
X0063170Y0191537D01*
X0063170Y0188467D01*
X0058566Y0192304D02*
X0055497Y0187700D01*
X0053962Y0187700D02*
X0052427Y0187700D01*
X0053195Y0187700D02*
X0053195Y0192304D01*
X0053962Y0192304D02*
X0052427Y0192304D01*
X0046289Y0192304D02*
X0046289Y0187700D01*
X0043987Y0187700D01*
X0043220Y0188467D01*
X0043220Y0190002D01*
X0043987Y0190769D01*
X0046289Y0190769D01*
X0041685Y0190002D02*
X0041685Y0189235D01*
X0038616Y0189235D01*
X0038616Y0190002D02*
X0039383Y0190769D01*
X0040918Y0190769D01*
X0041685Y0190002D01*
X0040918Y0187700D02*
X0039383Y0187700D01*
X0038616Y0188467D01*
X0038616Y0190002D01*
X0037081Y0190769D02*
X0034779Y0190769D01*
X0034012Y0190002D01*
X0034779Y0189235D01*
X0036314Y0189235D01*
X0037081Y0188467D01*
X0036314Y0187700D01*
X0034012Y0187700D01*
X0032477Y0187700D02*
X0032477Y0190769D01*
X0032477Y0187700D02*
X0030175Y0187700D01*
X0029408Y0188467D01*
X0029408Y0190769D01*
X0027873Y0190002D02*
X0027873Y0187700D01*
X0027873Y0190002D02*
X0027106Y0190769D01*
X0024804Y0190769D01*
X0024804Y0187700D01*
X0023269Y0188467D02*
X0022502Y0187700D01*
X0020967Y0187700D01*
X0020200Y0188467D01*
X0020200Y0192304D01*
X0023269Y0192304D02*
X0023269Y0188467D01*
X0045200Y0202200D02*
X0045200Y0205269D01*
X0046735Y0206804D01*
X0048269Y0205269D01*
X0048269Y0202200D01*
X0049804Y0202967D02*
X0050571Y0202200D01*
X0052106Y0202200D01*
X0052873Y0202967D01*
X0052873Y0203735D01*
X0052106Y0204502D01*
X0051339Y0204502D01*
X0052106Y0204502D02*
X0052873Y0205269D01*
X0052873Y0206037D01*
X0052106Y0206804D01*
X0050571Y0206804D01*
X0049804Y0206037D01*
X0048269Y0204502D02*
X0045200Y0204502D01*
X0054408Y0204502D02*
X0057477Y0204502D01*
X0059012Y0202967D02*
X0059012Y0206037D01*
X0059779Y0206804D01*
X0061314Y0206804D01*
X0062081Y0206037D01*
X0059012Y0202967D01*
X0059779Y0202200D01*
X0061314Y0202200D01*
X0062081Y0202967D01*
X0062081Y0206037D01*
X0140843Y0175769D02*
X0142378Y0177304D01*
X0142378Y0172700D01*
X0150051Y0172700D02*
X0153120Y0175769D01*
X0153120Y0176537D01*
X0153120Y0172700D02*
X0150051Y0172700D01*
X0325196Y0065522D02*
X0325196Y0063220D01*
X0329800Y0063220D01*
X0328265Y0063220D02*
X0328265Y0065522D01*
X0327498Y0066289D01*
X0325963Y0066289D01*
X0325196Y0065522D01*
X0328265Y0064754D02*
X0329800Y0066289D01*
X0329800Y0061685D02*
X0325196Y0061685D01*
X0325196Y0058616D02*
X0329800Y0058616D01*
X0328265Y0060150D01*
X0329800Y0061685D01*
X0327498Y0057081D02*
X0325963Y0057081D01*
X0325196Y0056314D01*
X0325196Y0054012D01*
X0329800Y0054012D01*
X0328265Y0054012D02*
X0328265Y0056314D01*
X0327498Y0057081D01*
X0328265Y0047873D02*
X0325196Y0047873D01*
X0325196Y0044804D02*
X0328265Y0044804D01*
X0329800Y0046339D01*
X0328265Y0047873D01*
X0327498Y0043269D02*
X0329033Y0043269D01*
X0329800Y0042502D01*
X0329800Y0040967D01*
X0329033Y0040200D01*
X0327498Y0040200D02*
X0326731Y0041735D01*
X0326731Y0042502D01*
X0327498Y0043269D01*
X0325196Y0043269D02*
X0325196Y0040200D01*
X0327498Y0040200D01*
X0335967Y0100200D02*
X0336735Y0100200D01*
X0337502Y0100967D01*
X0337502Y0104804D01*
X0336735Y0104804D02*
X0338269Y0104804D01*
X0339804Y0103269D02*
X0341339Y0104804D01*
X0341339Y0100200D01*
X0342873Y0100200D02*
X0339804Y0100200D01*
X0335967Y0100200D02*
X0335200Y0100967D01*
X0214878Y0032502D02*
X0214878Y0030200D01*
X0214878Y0032502D02*
X0214110Y0033269D01*
X0211809Y0033269D01*
X0211809Y0030200D01*
X0210274Y0030200D02*
X0210274Y0032502D01*
X0209507Y0033269D01*
X0207205Y0033269D01*
X0207205Y0030200D01*
X0205670Y0030200D02*
X0203368Y0030200D01*
X0202601Y0030967D01*
X0203368Y0031735D01*
X0205670Y0031735D01*
X0205670Y0032502D02*
X0205670Y0030200D01*
X0205670Y0032502D02*
X0204903Y0033269D01*
X0203368Y0033269D01*
X0201066Y0032502D02*
X0201066Y0030200D01*
X0199531Y0030200D02*
X0199531Y0032502D01*
X0200299Y0033269D01*
X0201066Y0032502D01*
X0199531Y0032502D02*
X0198764Y0033269D01*
X0197997Y0033269D01*
X0197997Y0030200D01*
X0196462Y0030200D02*
X0196462Y0033269D01*
X0196462Y0030200D02*
X0194160Y0030200D01*
X0193393Y0030967D01*
X0193393Y0033269D01*
X0191858Y0032502D02*
X0191858Y0031735D01*
X0188789Y0031735D01*
X0188789Y0032502D02*
X0188789Y0030967D01*
X0189556Y0030200D01*
X0191091Y0030200D01*
X0191858Y0032502D02*
X0191091Y0033269D01*
X0189556Y0033269D01*
X0188789Y0032502D01*
X0187254Y0030200D02*
X0187254Y0034804D01*
X0184185Y0034804D02*
X0184185Y0030200D01*
X0183418Y0027304D02*
X0181883Y0027304D01*
X0181116Y0026537D01*
X0181116Y0025769D01*
X0181883Y0025002D01*
X0183418Y0025002D01*
X0184185Y0024235D01*
X0184185Y0023467D01*
X0183418Y0022700D01*
X0181883Y0022700D01*
X0181116Y0023467D01*
X0185720Y0023467D02*
X0185720Y0025002D01*
X0186487Y0025769D01*
X0188789Y0025769D01*
X0190324Y0025002D02*
X0191091Y0025769D01*
X0192626Y0025769D01*
X0193393Y0025002D01*
X0193393Y0022700D01*
X0194927Y0022700D02*
X0194927Y0025769D01*
X0195695Y0025769D01*
X0196462Y0025002D01*
X0197229Y0025769D01*
X0197997Y0025002D01*
X0197997Y0022700D01*
X0199531Y0022700D02*
X0201066Y0022700D01*
X0200299Y0022700D02*
X0200299Y0025769D01*
X0199531Y0025769D01*
X0200299Y0027304D02*
X0200299Y0028071D01*
X0203368Y0025769D02*
X0205670Y0025769D01*
X0207205Y0025769D02*
X0208739Y0025769D01*
X0207972Y0026537D02*
X0207972Y0023467D01*
X0208739Y0022700D01*
X0205670Y0022700D02*
X0203368Y0022700D01*
X0202601Y0023467D01*
X0202601Y0025002D01*
X0203368Y0025769D01*
X0205670Y0027304D02*
X0205670Y0022700D01*
X0196462Y0022700D02*
X0196462Y0025002D01*
X0190324Y0027304D02*
X0190324Y0022700D01*
X0188789Y0022700D02*
X0186487Y0022700D01*
X0185720Y0023467D01*
X0184185Y0026537D02*
X0183418Y0027304D01*
X0187254Y0030200D02*
X0184185Y0034804D01*
X0178046Y0032502D02*
X0178046Y0030200D01*
X0178046Y0032502D02*
X0177279Y0033269D01*
X0175744Y0033269D01*
X0174977Y0032502D01*
X0173442Y0033269D02*
X0171908Y0033269D01*
X0172675Y0034037D02*
X0172675Y0030967D01*
X0173442Y0030200D01*
X0174977Y0030200D02*
X0174977Y0034804D01*
X0170373Y0032502D02*
X0170373Y0031735D01*
X0167304Y0031735D01*
X0167304Y0032502D02*
X0167304Y0030967D01*
X0168071Y0030200D01*
X0169606Y0030200D01*
X0170373Y0032502D02*
X0169606Y0033269D01*
X0168071Y0033269D01*
X0167304Y0032502D01*
X0165769Y0031735D02*
X0165769Y0030967D01*
X0165002Y0030200D01*
X0163467Y0030200D01*
X0162700Y0030967D01*
X0163467Y0032502D02*
X0165002Y0032502D01*
X0165769Y0031735D01*
X0165769Y0034037D02*
X0165002Y0034804D01*
X0163467Y0034804D01*
X0162700Y0034037D01*
X0162700Y0033269D01*
X0163467Y0032502D01*
X0164235Y0027304D02*
X0165769Y0027304D01*
X0165002Y0027304D02*
X0165002Y0023467D01*
X0164235Y0022700D01*
X0163467Y0022700D01*
X0162700Y0023467D01*
X0167304Y0023467D02*
X0167304Y0025002D01*
X0168071Y0025769D01*
X0169606Y0025769D01*
X0170373Y0025002D01*
X0170373Y0023467D01*
X0169606Y0022700D01*
X0168071Y0022700D01*
X0167304Y0023467D01*
X0171908Y0022700D02*
X0171908Y0025769D01*
X0174210Y0025769D01*
X0174977Y0025002D01*
X0174977Y0022700D01*
X0153505Y0033070D02*
X0152638Y0033070D01*
X0150903Y0031335D01*
X0149216Y0031335D02*
X0145746Y0031335D01*
X0145746Y0032202D02*
X0146614Y0033070D01*
X0148349Y0033070D01*
X0149216Y0032202D01*
X0149216Y0031335D01*
X0148349Y0029600D02*
X0146614Y0029600D01*
X0145746Y0030467D01*
X0145746Y0032202D01*
X0144044Y0029600D02*
X0142309Y0029600D01*
X0143176Y0029600D02*
X0143176Y0034804D01*
X0142309Y0034804D01*
X0139739Y0034804D02*
X0139739Y0029600D01*
X0140606Y0029600D02*
X0138871Y0029600D01*
X0137184Y0030467D02*
X0137184Y0032202D01*
X0136317Y0033070D01*
X0134582Y0033070D01*
X0133715Y0032202D01*
X0133715Y0030467D01*
X0134582Y0029600D01*
X0136317Y0029600D01*
X0137184Y0030467D01*
X0138871Y0034804D02*
X0139739Y0034804D01*
X0132020Y0033070D02*
X0131153Y0033070D01*
X0129418Y0031335D01*
X0129418Y0029600D02*
X0129418Y0033070D01*
X0127715Y0033070D02*
X0125980Y0033070D01*
X0126848Y0033937D02*
X0126848Y0030467D01*
X0127715Y0029600D01*
X0124293Y0029600D02*
X0124293Y0032202D01*
X0123426Y0033070D01*
X0120824Y0033070D01*
X0120824Y0029600D01*
X0119137Y0030467D02*
X0119137Y0032202D01*
X0118270Y0033070D01*
X0116535Y0033070D01*
X0115667Y0032202D01*
X0115667Y0030467D01*
X0116535Y0029600D01*
X0118270Y0029600D01*
X0119137Y0030467D01*
X0120832Y0026404D02*
X0122567Y0026404D01*
X0123434Y0025537D01*
X0119964Y0022067D01*
X0120832Y0021200D01*
X0122567Y0021200D01*
X0123434Y0022067D01*
X0123434Y0025537D01*
X0125121Y0025537D02*
X0125988Y0026404D01*
X0127723Y0026404D01*
X0128590Y0025537D01*
X0128590Y0024670D01*
X0127723Y0023802D01*
X0128590Y0022935D01*
X0128590Y0022067D01*
X0127723Y0021200D01*
X0125988Y0021200D01*
X0125121Y0022067D01*
X0126856Y0023802D02*
X0127723Y0023802D01*
X0130277Y0024670D02*
X0132012Y0026404D01*
X0132012Y0021200D01*
X0130277Y0021200D02*
X0133747Y0021200D01*
X0135434Y0022067D02*
X0136301Y0021200D01*
X0138036Y0021200D01*
X0138903Y0022067D01*
X0138903Y0025537D01*
X0138036Y0026404D01*
X0136301Y0026404D01*
X0135434Y0025537D01*
X0135434Y0024670D01*
X0136301Y0023802D01*
X0138903Y0023802D01*
X0150903Y0029600D02*
X0150903Y0033070D01*
X0120832Y0026404D02*
X0119964Y0025537D01*
X0119964Y0022067D01*
X0118278Y0021200D02*
X0114808Y0021200D01*
X0118278Y0024670D01*
X0118278Y0025537D01*
X0117410Y0026404D01*
X0115675Y0026404D01*
X0114808Y0025537D01*
X0113121Y0025537D02*
X0112254Y0026404D01*
X0110519Y0026404D01*
X0109652Y0025537D01*
X0107965Y0025537D02*
X0104495Y0022067D01*
X0105363Y0021200D01*
X0107097Y0021200D01*
X0107965Y0022067D01*
X0107965Y0025537D01*
X0107097Y0026404D01*
X0105363Y0026404D01*
X0104495Y0025537D01*
X0104495Y0022067D01*
X0102808Y0021200D02*
X0099339Y0021200D01*
X0102808Y0024670D01*
X0102808Y0025537D01*
X0101941Y0026404D01*
X0100206Y0026404D01*
X0099339Y0025537D01*
X0101933Y0027865D02*
X0102800Y0027865D01*
X0103668Y0028733D01*
X0103668Y0033070D01*
X0100198Y0033070D02*
X0100198Y0030467D01*
X0101066Y0029600D01*
X0103668Y0029600D01*
X0098511Y0029600D02*
X0095909Y0029600D01*
X0095042Y0030467D01*
X0095909Y0031335D01*
X0098511Y0031335D01*
X0098511Y0032202D02*
X0098511Y0029600D01*
X0098511Y0032202D02*
X0097644Y0033070D01*
X0095909Y0033070D01*
X0092472Y0034804D02*
X0092472Y0029600D01*
X0093339Y0029600D02*
X0091604Y0029600D01*
X0089917Y0031335D02*
X0086448Y0031335D01*
X0086448Y0032202D02*
X0087315Y0033070D01*
X0089050Y0033070D01*
X0089917Y0032202D01*
X0089917Y0031335D01*
X0089050Y0029600D02*
X0087315Y0029600D01*
X0086448Y0030467D01*
X0086448Y0032202D01*
X0084761Y0032202D02*
X0084761Y0033937D01*
X0083894Y0034804D01*
X0081291Y0034804D01*
X0081291Y0029600D01*
X0081291Y0031335D02*
X0083894Y0031335D01*
X0084761Y0032202D01*
X0083026Y0031335D02*
X0084761Y0029600D01*
X0083026Y0026404D02*
X0083026Y0021200D01*
X0081291Y0021200D02*
X0084761Y0021200D01*
X0086448Y0021200D02*
X0087315Y0021200D01*
X0087315Y0022067D01*
X0086448Y0022067D01*
X0086448Y0021200D01*
X0089026Y0022067D02*
X0092496Y0025537D01*
X0092496Y0022067D01*
X0091628Y0021200D01*
X0089893Y0021200D01*
X0089026Y0022067D01*
X0089026Y0025537D01*
X0089893Y0026404D01*
X0091628Y0026404D01*
X0092496Y0025537D01*
X0083026Y0026404D02*
X0081291Y0024670D01*
X0074448Y0023802D02*
X0074448Y0021200D01*
X0074448Y0023802D02*
X0073581Y0024670D01*
X0070979Y0024670D01*
X0070979Y0021200D01*
X0069292Y0022067D02*
X0069292Y0023802D01*
X0068424Y0024670D01*
X0066690Y0024670D01*
X0065822Y0023802D01*
X0065822Y0022067D01*
X0066690Y0021200D01*
X0068424Y0021200D01*
X0069292Y0022067D01*
X0064119Y0021200D02*
X0062385Y0021200D01*
X0063252Y0021200D02*
X0063252Y0024670D01*
X0062385Y0024670D01*
X0060698Y0024670D02*
X0058096Y0024670D01*
X0057228Y0023802D01*
X0058096Y0022935D01*
X0059830Y0022935D01*
X0060698Y0022067D01*
X0059830Y0021200D01*
X0057228Y0021200D01*
X0055533Y0024670D02*
X0054666Y0024670D01*
X0052931Y0022935D01*
X0051244Y0022935D02*
X0047775Y0022935D01*
X0047775Y0023802D02*
X0047775Y0022067D01*
X0048642Y0021200D01*
X0050377Y0021200D01*
X0051244Y0022935D02*
X0051244Y0023802D01*
X0050377Y0024670D01*
X0048642Y0024670D01*
X0047775Y0023802D01*
X0046088Y0022935D02*
X0046088Y0026404D01*
X0046088Y0022935D02*
X0044353Y0021200D01*
X0042618Y0022935D01*
X0042618Y0026404D01*
X0042618Y0029600D02*
X0042618Y0033070D01*
X0044353Y0034804D01*
X0046088Y0033070D01*
X0046088Y0029600D01*
X0047775Y0029600D02*
X0047775Y0033070D01*
X0049510Y0033070D02*
X0050377Y0033070D01*
X0049510Y0033070D02*
X0047775Y0031335D01*
X0046088Y0032202D02*
X0042618Y0032202D01*
X0052072Y0032202D02*
X0052939Y0033070D01*
X0055541Y0033070D01*
X0057228Y0033070D02*
X0057228Y0030467D01*
X0058096Y0029600D01*
X0060698Y0029600D01*
X0060698Y0033070D01*
X0062385Y0033070D02*
X0063252Y0033070D01*
X0063252Y0029600D01*
X0062385Y0029600D02*
X0064119Y0029600D01*
X0065822Y0029600D02*
X0065822Y0033070D01*
X0068424Y0033070D01*
X0069292Y0032202D01*
X0069292Y0029600D01*
X0070979Y0030467D02*
X0071846Y0029600D01*
X0073581Y0029600D01*
X0074448Y0030467D01*
X0074448Y0032202D01*
X0073581Y0033070D01*
X0071846Y0033070D01*
X0070979Y0032202D01*
X0070979Y0030467D01*
X0063252Y0027272D02*
X0063252Y0026404D01*
X0055541Y0029600D02*
X0052939Y0029600D01*
X0052072Y0030467D01*
X0052072Y0032202D01*
X0055541Y0034804D02*
X0055541Y0029600D01*
X0063252Y0034804D02*
X0063252Y0035672D01*
X0052931Y0024670D02*
X0052931Y0021200D01*
X0091604Y0034804D02*
X0092472Y0034804D01*
X0109652Y0021200D02*
X0113121Y0024670D01*
X0113121Y0025537D01*
X0113121Y0021200D02*
X0109652Y0021200D01*
X0111378Y0029600D02*
X0113113Y0029600D01*
X0113981Y0030467D01*
X0111378Y0029600D02*
X0110511Y0030467D01*
X0110511Y0033937D01*
X0111378Y0034804D01*
X0113113Y0034804D01*
X0113981Y0033937D01*
D12*
X0260750Y0034262D02*
X0260750Y0027506D01*
X0265254Y0029758D01*
X0267506Y0029758D01*
X0269758Y0027506D01*
X0269758Y0023002D01*
X0267506Y0020750D01*
X0263002Y0020750D01*
X0260750Y0023002D01*
X0274562Y0023002D02*
X0274562Y0032010D01*
X0276814Y0034262D01*
X0281318Y0034262D01*
X0283569Y0032010D01*
X0283569Y0027506D02*
X0279066Y0027506D01*
X0283569Y0027506D02*
X0283569Y0023002D01*
X0281318Y0020750D01*
X0276814Y0020750D01*
X0274562Y0023002D01*
X0269758Y0034262D02*
X0260750Y0034262D01*
X0288374Y0034262D02*
X0288374Y0027506D01*
X0292877Y0029758D01*
X0295129Y0029758D01*
X0297381Y0027506D01*
X0297381Y0023002D01*
X0295129Y0020750D01*
X0290626Y0020750D01*
X0288374Y0023002D01*
X0302185Y0023002D02*
X0302185Y0032010D01*
X0304437Y0034262D01*
X0308941Y0034262D01*
X0311193Y0032010D01*
X0311193Y0027506D02*
X0306689Y0027506D01*
X0311193Y0027506D02*
X0311193Y0023002D01*
X0308941Y0020750D01*
X0304437Y0020750D01*
X0302185Y0023002D01*
X0297381Y0034262D02*
X0288374Y0034262D01*
X0286566Y0080750D02*
X0291069Y0085254D01*
X0291069Y0094262D01*
X0295874Y0094262D02*
X0302629Y0094262D01*
X0304881Y0092010D01*
X0304881Y0083002D01*
X0302629Y0080750D01*
X0295874Y0080750D01*
X0295874Y0094262D01*
X0282062Y0094262D02*
X0282062Y0085254D01*
X0286566Y0080750D01*
X0277258Y0083002D02*
X0277258Y0087506D01*
X0275006Y0089758D01*
X0272754Y0089758D01*
X0268250Y0087506D01*
X0268250Y0094262D01*
X0277258Y0094262D01*
X0277258Y0083002D02*
X0275006Y0080750D01*
X0270502Y0080750D01*
X0268250Y0083002D01*
X0309685Y0083002D02*
X0311937Y0080750D01*
X0316441Y0080750D01*
X0318693Y0083002D01*
X0309685Y0083002D02*
X0309685Y0092010D01*
X0311937Y0094262D01*
X0316441Y0094262D01*
X0318693Y0092010D01*
D13*
X0170967Y0255350D02*
X0168865Y0255350D01*
X0167814Y0256401D01*
X0172018Y0260604D01*
X0172018Y0256401D01*
X0170967Y0255350D01*
X0167814Y0256401D02*
X0167814Y0260604D01*
X0168865Y0261655D01*
X0170967Y0261655D01*
X0172018Y0260604D01*
X0165573Y0255350D02*
X0161369Y0255350D01*
X0163471Y0255350D02*
X0163471Y0261655D01*
X0161369Y0259554D01*
X0159127Y0260604D02*
X0159127Y0256401D01*
X0158076Y0255350D01*
X0154923Y0255350D01*
X0154923Y0261655D01*
X0158076Y0261655D01*
X0159127Y0260604D01*
X0139791Y0255350D02*
X0135587Y0255350D01*
X0137689Y0255350D02*
X0137689Y0261655D01*
X0135587Y0259554D01*
X0131243Y0261655D02*
X0131243Y0255350D01*
X0129141Y0255350D02*
X0133345Y0255350D01*
X0129141Y0259554D02*
X0131243Y0261655D01*
X0126900Y0260604D02*
X0125849Y0261655D01*
X0122696Y0261655D01*
X0122696Y0255350D01*
X0125849Y0255350D01*
X0126900Y0256401D01*
X0126900Y0260604D01*
X0101118Y0260604D02*
X0100067Y0261655D01*
X0097965Y0261655D01*
X0096914Y0260604D01*
X0101118Y0260604D02*
X0101118Y0259554D01*
X0096914Y0255350D01*
X0101118Y0255350D01*
X0094672Y0255350D02*
X0090468Y0255350D01*
X0092570Y0255350D02*
X0092570Y0261655D01*
X0090468Y0259554D01*
X0088227Y0260604D02*
X0088227Y0256401D01*
X0087176Y0255350D01*
X0084023Y0255350D01*
X0084023Y0261655D01*
X0087176Y0261655D01*
X0088227Y0260604D01*
X0062445Y0260604D02*
X0062445Y0259554D01*
X0061394Y0258503D01*
X0062445Y0257452D01*
X0062445Y0256401D01*
X0061394Y0255350D01*
X0059292Y0255350D01*
X0058241Y0256401D01*
X0055999Y0255350D02*
X0051795Y0255350D01*
X0053897Y0255350D02*
X0053897Y0261655D01*
X0051795Y0259554D01*
X0049554Y0260604D02*
X0049554Y0256401D01*
X0048503Y0255350D01*
X0045350Y0255350D01*
X0045350Y0261655D01*
X0048503Y0261655D01*
X0049554Y0260604D01*
X0058241Y0260604D02*
X0059292Y0261655D01*
X0061394Y0261655D01*
X0062445Y0260604D01*
X0061394Y0258503D02*
X0060343Y0258503D01*
X0056394Y0180155D02*
X0054292Y0180155D01*
X0053241Y0179104D01*
X0053241Y0174901D01*
X0057445Y0179104D01*
X0057445Y0174901D01*
X0056394Y0173850D01*
X0054292Y0173850D01*
X0053241Y0174901D01*
X0050999Y0173850D02*
X0046795Y0180155D01*
X0044554Y0180155D02*
X0040350Y0180155D01*
X0042452Y0180155D02*
X0042452Y0173850D01*
X0046795Y0173850D02*
X0050999Y0180155D01*
X0056394Y0180155D02*
X0057445Y0179104D01*
X0055343Y0169655D02*
X0053241Y0167554D01*
X0055343Y0169655D02*
X0055343Y0163350D01*
X0053241Y0163350D02*
X0057445Y0163350D01*
X0050999Y0163350D02*
X0046795Y0169655D01*
X0044554Y0168604D02*
X0044554Y0166503D01*
X0043503Y0165452D01*
X0040350Y0165452D01*
X0042452Y0165452D02*
X0044554Y0163350D01*
X0046795Y0163350D02*
X0050999Y0169655D01*
X0044554Y0168604D02*
X0043503Y0169655D01*
X0040350Y0169655D01*
X0040350Y0163350D01*
X0042452Y0159155D02*
X0044554Y0157054D01*
X0044554Y0152850D01*
X0046795Y0152850D02*
X0046795Y0153901D01*
X0050999Y0158104D01*
X0050999Y0159155D01*
X0046795Y0159155D01*
X0044554Y0156003D02*
X0040350Y0156003D01*
X0040350Y0157054D02*
X0042452Y0159155D01*
X0040350Y0157054D02*
X0040350Y0152850D01*
X0042452Y0148655D02*
X0044554Y0146554D01*
X0044554Y0142350D01*
X0046795Y0143401D02*
X0046795Y0145503D01*
X0049948Y0145503D01*
X0050999Y0144452D01*
X0050999Y0143401D01*
X0049948Y0142350D01*
X0047846Y0142350D01*
X0046795Y0143401D01*
X0046795Y0145503D02*
X0048897Y0147604D01*
X0050999Y0148655D01*
X0044554Y0145503D02*
X0040350Y0145503D01*
X0040350Y0146554D02*
X0042452Y0148655D01*
X0040350Y0146554D02*
X0040350Y0142350D01*
X0042452Y0138155D02*
X0044554Y0136054D01*
X0044554Y0131850D01*
X0046795Y0132901D02*
X0047846Y0131850D01*
X0049948Y0131850D01*
X0050999Y0132901D01*
X0050999Y0135003D01*
X0049948Y0136054D01*
X0048897Y0136054D01*
X0046795Y0135003D01*
X0046795Y0138155D01*
X0050999Y0138155D01*
X0044554Y0135003D02*
X0040350Y0135003D01*
X0040350Y0136054D02*
X0040350Y0131850D01*
X0042452Y0127655D02*
X0044554Y0125554D01*
X0044554Y0121350D01*
X0044554Y0124503D02*
X0040350Y0124503D01*
X0040350Y0125554D02*
X0042452Y0127655D01*
X0040350Y0125554D02*
X0040350Y0121350D01*
X0041401Y0117155D02*
X0040350Y0116104D01*
X0040350Y0111901D01*
X0041401Y0110850D01*
X0043503Y0110850D01*
X0044554Y0111901D01*
X0044554Y0114003D01*
X0042452Y0114003D01*
X0044554Y0116104D02*
X0043503Y0117155D01*
X0041401Y0117155D01*
X0046795Y0117155D02*
X0046795Y0110850D01*
X0046795Y0106655D02*
X0046795Y0103503D01*
X0048897Y0104554D01*
X0049948Y0104554D01*
X0050999Y0103503D01*
X0050999Y0101401D01*
X0049948Y0100350D01*
X0047846Y0100350D01*
X0046795Y0101401D01*
X0044554Y0103503D02*
X0040350Y0103503D01*
X0042452Y0105604D02*
X0042452Y0101401D01*
X0046795Y0106655D02*
X0050999Y0106655D01*
X0050999Y0110850D02*
X0050999Y0117155D01*
X0053241Y0117155D02*
X0056394Y0117155D01*
X0057445Y0116104D01*
X0057445Y0111901D01*
X0056394Y0110850D01*
X0053241Y0110850D01*
X0053241Y0117155D01*
X0046795Y0117155D02*
X0050999Y0110850D01*
X0049948Y0121350D02*
X0049948Y0127655D01*
X0046795Y0124503D01*
X0050999Y0124503D01*
X0040350Y0136054D02*
X0042452Y0138155D01*
D14*
X0030000Y0137500D02*
X0030000Y0132500D01*
X0027500Y0130000D01*
X0030000Y0127500D01*
X0030000Y0122500D01*
X0027500Y0120000D01*
X0030000Y0117500D01*
X0030000Y0112500D01*
X0027500Y0110000D01*
X0030000Y0107500D01*
X0030000Y0102500D01*
X0027500Y0100000D01*
X0022500Y0100000D01*
X0020000Y0102500D01*
X0020000Y0107500D01*
X0022500Y0110000D01*
X0020000Y0112500D01*
X0020000Y0117500D01*
X0022500Y0120000D01*
X0020000Y0122500D01*
X0020000Y0127500D01*
X0022500Y0130000D01*
X0020000Y0132500D01*
X0020000Y0137500D01*
X0022500Y0140000D01*
X0020000Y0142500D01*
X0020000Y0147500D01*
X0022500Y0150000D01*
X0020000Y0152500D01*
X0020000Y0157500D01*
X0022500Y0160000D01*
X0020000Y0162500D01*
X0020000Y0167500D01*
X0022500Y0170000D01*
X0020000Y0172500D01*
X0020000Y0177500D01*
X0022500Y0180000D01*
X0027500Y0180000D01*
X0030000Y0177500D01*
X0030000Y0172500D01*
X0027500Y0170000D01*
X0030000Y0167500D01*
X0030000Y0162500D01*
X0027500Y0160000D01*
X0030000Y0157500D01*
X0030000Y0152500D01*
X0027500Y0150000D01*
X0030000Y0147500D01*
X0030000Y0142500D01*
X0027500Y0140000D01*
X0030000Y0137500D01*
X0090079Y0180079D02*
X0090079Y0189921D01*
X0170787Y0189921D01*
X0170787Y0180079D01*
X0090079Y0180079D01*
X0092500Y0209500D02*
X0087500Y0209500D01*
X0085000Y0212000D01*
X0085000Y0217000D01*
X0087500Y0219500D01*
X0092500Y0219500D01*
X0095000Y0217000D01*
X0095000Y0212000D01*
X0092500Y0209500D01*
X0095000Y0212000D02*
X0097500Y0209500D01*
X0102500Y0209500D01*
X0105000Y0212000D01*
X0105000Y0217000D01*
X0102500Y0219500D01*
X0097500Y0219500D01*
X0095000Y0217000D01*
X0085000Y0217000D02*
X0082500Y0219500D01*
X0077500Y0219500D01*
X0075000Y0217000D01*
X0075000Y0212000D01*
X0072500Y0209500D01*
X0067500Y0209500D01*
X0065000Y0212000D01*
X0065000Y0217000D01*
X0067500Y0219500D01*
X0072500Y0219500D01*
X0075000Y0217000D01*
X0075000Y0212000D02*
X0077500Y0209500D01*
X0082500Y0209500D01*
X0085000Y0212000D01*
X0065000Y0212000D02*
X0062500Y0209500D01*
X0057500Y0209500D01*
X0055000Y0212000D01*
X0055000Y0217000D01*
X0057500Y0219500D01*
X0062500Y0219500D01*
X0065000Y0217000D01*
X0055000Y0217000D02*
X0052500Y0219500D01*
X0047500Y0219500D01*
X0045000Y0217000D01*
X0045000Y0212000D01*
X0047500Y0209500D01*
X0052500Y0209500D01*
X0055000Y0212000D01*
X0110000Y0212000D02*
X0110000Y0217000D01*
X0112500Y0219500D01*
X0117500Y0219500D01*
X0120000Y0217000D01*
X0120000Y0212000D01*
X0117500Y0209500D01*
X0112500Y0209500D01*
X0110000Y0212000D01*
X0120000Y0212000D02*
X0122500Y0209500D01*
X0127500Y0209500D01*
X0130000Y0212000D01*
X0130000Y0217000D01*
X0132500Y0219500D01*
X0137500Y0219500D01*
X0140000Y0217000D01*
X0140000Y0212000D01*
X0137500Y0209500D01*
X0132500Y0209500D01*
X0130000Y0212000D01*
X0130000Y0217000D02*
X0127500Y0219500D01*
X0122500Y0219500D01*
X0120000Y0217000D01*
X0140000Y0217000D02*
X0142500Y0219500D01*
X0147500Y0219500D01*
X0150000Y0217000D01*
X0150000Y0212000D01*
X0147500Y0209500D01*
X0142500Y0209500D01*
X0140000Y0212000D01*
X0150000Y0212000D02*
X0152500Y0209500D01*
X0157500Y0209500D01*
X0160000Y0212000D01*
X0160000Y0217000D01*
X0162500Y0219500D01*
X0167500Y0219500D01*
X0170000Y0217000D01*
X0170000Y0212000D01*
X0167500Y0209500D01*
X0162500Y0209500D01*
X0160000Y0212000D01*
X0160000Y0217000D02*
X0157500Y0219500D01*
X0152500Y0219500D01*
X0150000Y0217000D01*
X0190000Y0232500D02*
X0192500Y0230000D01*
X0197500Y0230000D01*
X0200000Y0232500D01*
X0202500Y0230000D01*
X0207500Y0230000D01*
X0210000Y0232500D01*
X0212500Y0230000D01*
X0217500Y0230000D01*
X0220000Y0232500D01*
X0222500Y0230000D01*
X0227500Y0230000D01*
X0230000Y0232500D01*
X0230000Y0237500D01*
X0227500Y0240000D01*
X0222500Y0240000D01*
X0220000Y0237500D01*
X0217500Y0240000D01*
X0212500Y0240000D01*
X0210000Y0237500D01*
X0207500Y0240000D01*
X0202500Y0240000D01*
X0200000Y0237500D01*
X0197500Y0240000D01*
X0192500Y0240000D01*
X0190000Y0237500D01*
X0190000Y0232500D01*
X0205000Y0217000D02*
X0207500Y0219500D01*
X0212500Y0219500D01*
X0215000Y0217000D01*
X0215000Y0212000D01*
X0212500Y0209500D01*
X0207500Y0209500D01*
X0205000Y0212000D01*
X0205000Y0217000D01*
X0215000Y0217000D02*
X0217500Y0219500D01*
X0222500Y0219500D01*
X0225000Y0217000D01*
X0225000Y0212000D01*
X0222500Y0209500D01*
X0217500Y0209500D01*
X0215000Y0212000D01*
X0225000Y0212000D02*
X0227500Y0209500D01*
X0232500Y0209500D01*
X0235000Y0212000D01*
X0235000Y0217000D01*
X0237500Y0219500D01*
X0242500Y0219500D01*
X0245000Y0217000D01*
X0245000Y0212000D01*
X0242500Y0209500D01*
X0237500Y0209500D01*
X0235000Y0212000D01*
X0235000Y0217000D02*
X0232500Y0219500D01*
X0227500Y0219500D01*
X0225000Y0217000D01*
X0245000Y0217000D02*
X0247500Y0219500D01*
X0252500Y0219500D01*
X0255000Y0217000D01*
X0255000Y0212000D01*
X0252500Y0209500D01*
X0247500Y0209500D01*
X0245000Y0212000D01*
X0255000Y0212000D02*
X0257500Y0209500D01*
X0262500Y0209500D01*
X0265000Y0212000D01*
X0265000Y0217000D01*
X0262500Y0219500D01*
X0257500Y0219500D01*
X0255000Y0217000D01*
X0252500Y0230000D02*
X0250000Y0232500D01*
X0247500Y0230000D01*
X0242500Y0230000D01*
X0240000Y0232500D01*
X0240000Y0237500D01*
X0242500Y0240000D01*
X0247500Y0240000D01*
X0250000Y0237500D01*
X0252500Y0240000D01*
X0257500Y0240000D01*
X0260000Y0237500D01*
X0262500Y0240000D01*
X0267500Y0240000D01*
X0270000Y0237500D01*
X0272500Y0240000D01*
X0277500Y0240000D01*
X0280000Y0237500D01*
X0280000Y0232500D01*
X0277500Y0230000D01*
X0272500Y0230000D01*
X0270000Y0232500D01*
X0267500Y0230000D01*
X0262500Y0230000D01*
X0260000Y0232500D01*
X0257500Y0230000D01*
X0252500Y0230000D01*
X0280000Y0217000D02*
X0280000Y0212000D01*
X0282500Y0209500D01*
X0287500Y0209500D01*
X0290000Y0212000D01*
X0290000Y0217000D01*
X0292500Y0219500D01*
X0297500Y0219500D01*
X0300000Y0217000D01*
X0300000Y0212000D01*
X0297500Y0209500D01*
X0292500Y0209500D01*
X0290000Y0212000D01*
X0290000Y0217000D02*
X0287500Y0219500D01*
X0282500Y0219500D01*
X0280000Y0217000D01*
X0300000Y0217000D02*
X0302500Y0219500D01*
X0307500Y0219500D01*
X0310000Y0217000D01*
X0310000Y0212000D01*
X0307500Y0209500D01*
X0302500Y0209500D01*
X0300000Y0212000D01*
X0310000Y0212000D02*
X0312500Y0209500D01*
X0317500Y0209500D01*
X0320000Y0212000D01*
X0320000Y0217000D01*
X0322500Y0219500D01*
X0327500Y0219500D01*
X0330000Y0217000D01*
X0330000Y0212000D01*
X0327500Y0209500D01*
X0322500Y0209500D01*
X0320000Y0212000D01*
X0320000Y0217000D02*
X0317500Y0219500D01*
X0312500Y0219500D01*
X0310000Y0217000D01*
X0330000Y0217000D02*
X0332500Y0219500D01*
X0337500Y0219500D01*
X0340000Y0217000D01*
X0340000Y0212000D01*
X0337500Y0209500D01*
X0332500Y0209500D01*
X0330000Y0212000D01*
X0327500Y0230000D02*
X0322500Y0230000D01*
X0320000Y0232500D01*
X0317500Y0230000D01*
X0312500Y0230000D01*
X0310000Y0232500D01*
X0307500Y0230000D01*
X0302500Y0230000D01*
X0300000Y0232500D01*
X0297500Y0230000D01*
X0292500Y0230000D01*
X0290000Y0232500D01*
X0290000Y0237500D01*
X0292500Y0240000D01*
X0297500Y0240000D01*
X0300000Y0237500D01*
X0302500Y0240000D01*
X0307500Y0240000D01*
X0310000Y0237500D01*
X0312500Y0240000D01*
X0317500Y0240000D01*
X0320000Y0237500D01*
X0322500Y0240000D01*
X0327500Y0240000D01*
X0330000Y0237500D01*
X0330000Y0232500D01*
X0327500Y0230000D01*
X0345000Y0232500D02*
X0347500Y0230000D01*
X0352500Y0230000D01*
X0355000Y0232500D01*
X0357500Y0230000D01*
X0362500Y0230000D01*
X0365000Y0232500D01*
X0367500Y0230000D01*
X0372500Y0230000D01*
X0375000Y0232500D01*
X0377500Y0230000D01*
X0382500Y0230000D01*
X0385000Y0232500D01*
X0385000Y0237500D01*
X0382500Y0240000D01*
X0377500Y0240000D01*
X0375000Y0237500D01*
X0372500Y0240000D01*
X0367500Y0240000D01*
X0365000Y0237500D01*
X0362500Y0240000D01*
X0357500Y0240000D01*
X0355000Y0237500D01*
X0352500Y0240000D01*
X0347500Y0240000D01*
X0345000Y0237500D01*
X0345000Y0232500D01*
X0295787Y0189921D02*
X0295787Y0180079D01*
X0215079Y0180079D01*
X0215079Y0189921D01*
X0295787Y0189921D01*
X0350000Y0140000D02*
X0350000Y0130000D01*
X0370000Y0130000D01*
X0370000Y0140000D01*
X0350000Y0140000D01*
X0360000Y0137500D02*
X0360000Y0132500D01*
X0360630Y0095354D02*
X0366929Y0095354D01*
X0366929Y0089055D01*
X0366929Y0095354D02*
X0333071Y0095354D01*
X0333071Y0039055D01*
X0366929Y0039055D01*
X0366929Y0070354D01*
X0361811Y0068189D02*
X0356562Y0068189D01*
X0352625Y0068189D02*
X0347375Y0068189D01*
X0343438Y0068189D02*
X0338189Y0068189D01*
X0338189Y0063981D01*
X0338189Y0060044D02*
X0338189Y0055837D01*
X0338189Y0051900D02*
X0338189Y0047692D01*
X0338189Y0043755D02*
X0338189Y0039547D01*
X0333071Y0039055D02*
X0333071Y0095354D01*
X0339370Y0095354D01*
X0366929Y0095354D02*
X0366929Y0039055D01*
X0333071Y0039055D01*
X0346457Y0044567D02*
X0346457Y0051457D01*
X0346457Y0055394D02*
X0346457Y0062283D01*
X0353543Y0062283D02*
X0353543Y0055394D01*
X0353543Y0051457D02*
X0353543Y0044567D01*
X0353544Y0044567D02*
X0353528Y0044449D01*
X0353508Y0044331D01*
X0353484Y0044214D01*
X0353456Y0044099D01*
X0353425Y0043984D01*
X0353390Y0043870D01*
X0353350Y0043757D01*
X0353308Y0043646D01*
X0353261Y0043536D01*
X0353211Y0043428D01*
X0353157Y0043321D01*
X0353100Y0043217D01*
X0353039Y0043114D01*
X0352975Y0043014D01*
X0352907Y0042916D01*
X0352837Y0042820D01*
X0352763Y0042726D01*
X0352686Y0042635D01*
X0352606Y0042547D01*
X0352523Y0042461D01*
X0352437Y0042378D01*
X0352349Y0042298D01*
X0352258Y0042221D01*
X0352164Y0042147D01*
X0352068Y0042076D01*
X0351970Y0042009D01*
X0351869Y0041945D01*
X0351767Y0041884D01*
X0351662Y0041827D01*
X0351556Y0041773D01*
X0351447Y0041723D01*
X0351338Y0041676D01*
X0351226Y0041633D01*
X0351114Y0041594D01*
X0351000Y0041559D01*
X0350885Y0041527D01*
X0350769Y0041500D01*
X0350652Y0041476D01*
X0350535Y0041456D01*
X0350416Y0041440D01*
X0350298Y0041428D01*
X0350179Y0041420D01*
X0350060Y0041416D01*
X0349940Y0041416D01*
X0349821Y0041420D01*
X0349702Y0041428D01*
X0349584Y0041440D01*
X0349465Y0041456D01*
X0349348Y0041476D01*
X0349231Y0041500D01*
X0349115Y0041527D01*
X0349000Y0041559D01*
X0348886Y0041594D01*
X0348774Y0041633D01*
X0348662Y0041676D01*
X0348553Y0041723D01*
X0348444Y0041773D01*
X0348338Y0041827D01*
X0348233Y0041884D01*
X0348131Y0041945D01*
X0348030Y0042009D01*
X0347932Y0042076D01*
X0347836Y0042147D01*
X0347742Y0042221D01*
X0347651Y0042298D01*
X0347563Y0042378D01*
X0347477Y0042461D01*
X0347394Y0042547D01*
X0347314Y0042635D01*
X0347237Y0042726D01*
X0347163Y0042820D01*
X0347093Y0042916D01*
X0347025Y0043014D01*
X0346961Y0043114D01*
X0346900Y0043217D01*
X0346843Y0043321D01*
X0346789Y0043428D01*
X0346739Y0043536D01*
X0346692Y0043646D01*
X0346650Y0043757D01*
X0346610Y0043870D01*
X0346575Y0043984D01*
X0346544Y0044099D01*
X0346516Y0044214D01*
X0346492Y0044331D01*
X0346472Y0044449D01*
X0346456Y0044567D01*
X0361811Y0043681D02*
X0361811Y0039449D01*
X0361811Y0047618D02*
X0361811Y0051850D01*
X0361811Y0055787D02*
X0361811Y0060020D01*
X0361811Y0063957D02*
X0361811Y0068189D01*
X0315630Y0059252D02*
X0315630Y0055315D01*
X0314055Y0055315D01*
X0314055Y0059252D02*
X0315630Y0059252D01*
X0314055Y0061024D02*
X0254606Y0061024D01*
X0254606Y0064173D01*
X0314055Y0064173D01*
X0314055Y0061024D01*
X0314055Y0036614D01*
X0254606Y0036614D01*
X0254606Y0061024D01*
X0254606Y0041535D02*
X0253031Y0041535D01*
X0253031Y0037598D01*
X0254606Y0037598D01*
D15*
X0032559Y0005000D02*
X0014843Y0005000D01*
X0014605Y0005003D01*
X0014367Y0005011D01*
X0014130Y0005026D01*
X0013893Y0005046D01*
X0013657Y0005072D01*
X0013421Y0005103D01*
X0013186Y0005140D01*
X0012952Y0005183D01*
X0012719Y0005232D01*
X0012487Y0005286D01*
X0012257Y0005346D01*
X0012028Y0005411D01*
X0011801Y0005482D01*
X0011576Y0005558D01*
X0011353Y0005640D01*
X0011131Y0005727D01*
X0010912Y0005819D01*
X0010695Y0005917D01*
X0010481Y0006019D01*
X0010269Y0006127D01*
X0010059Y0006241D01*
X0009853Y0006359D01*
X0009649Y0006482D01*
X0009449Y0006610D01*
X0009252Y0006742D01*
X0009057Y0006880D01*
X0008867Y0007022D01*
X0008679Y0007169D01*
X0008496Y0007320D01*
X0008316Y0007475D01*
X0008140Y0007635D01*
X0007968Y0007799D01*
X0007799Y0007968D01*
X0007635Y0008140D01*
X0007475Y0008316D01*
X0007320Y0008496D01*
X0007169Y0008679D01*
X0007022Y0008867D01*
X0006880Y0009057D01*
X0006742Y0009252D01*
X0006610Y0009449D01*
X0006482Y0009649D01*
X0006359Y0009853D01*
X0006241Y0010059D01*
X0006127Y0010269D01*
X0006019Y0010481D01*
X0005917Y0010695D01*
X0005819Y0010912D01*
X0005727Y0011131D01*
X0005640Y0011353D01*
X0005558Y0011576D01*
X0005482Y0011801D01*
X0005411Y0012028D01*
X0005346Y0012257D01*
X0005286Y0012487D01*
X0005232Y0012719D01*
X0005183Y0012952D01*
X0005140Y0013186D01*
X0005103Y0013421D01*
X0005072Y0013657D01*
X0005046Y0013893D01*
X0005026Y0014130D01*
X0005011Y0014367D01*
X0005003Y0014605D01*
X0005000Y0014843D01*
X0005000Y0036500D01*
X0005000Y0265000D01*
X0004989Y0265252D01*
X0004984Y0265504D01*
X0004986Y0265757D01*
X0004993Y0266009D01*
X0005006Y0266261D01*
X0005026Y0266512D01*
X0005051Y0266763D01*
X0005083Y0267013D01*
X0005121Y0267263D01*
X0005164Y0267511D01*
X0005214Y0267758D01*
X0005270Y0268004D01*
X0005331Y0268249D01*
X0005399Y0268492D01*
X0005472Y0268733D01*
X0005551Y0268973D01*
X0005636Y0269210D01*
X0005727Y0269446D01*
X0005823Y0269679D01*
X0005925Y0269909D01*
X0006032Y0270138D01*
X0006145Y0270363D01*
X0006263Y0270586D01*
X0006387Y0270806D01*
X0006516Y0271022D01*
X0006650Y0271236D01*
X0006789Y0271446D01*
X0006934Y0271653D01*
X0007083Y0271857D01*
X0007237Y0272056D01*
X0007396Y0272252D01*
X0007560Y0272444D01*
X0007728Y0272632D01*
X0007900Y0272816D01*
X0008077Y0272995D01*
X0008259Y0273171D01*
X0008444Y0273342D01*
X0008634Y0273508D01*
X0008828Y0273670D01*
X0009025Y0273827D01*
X0009226Y0273979D01*
X0009431Y0274126D01*
X0009639Y0274268D01*
X0009851Y0274405D01*
X0010066Y0274537D01*
X0010284Y0274664D01*
X0010505Y0274786D01*
X0010729Y0274902D01*
X0010955Y0275012D01*
X0011185Y0275118D01*
X0011416Y0275217D01*
X0011650Y0275311D01*
X0011887Y0275399D01*
X0012125Y0275482D01*
X0012365Y0275559D01*
X0012607Y0275630D01*
X0012851Y0275695D01*
X0013096Y0275754D01*
X0013343Y0275807D01*
X0013590Y0275854D01*
X0013839Y0275895D01*
X0014089Y0275931D01*
X0014339Y0275960D01*
X0014591Y0275983D01*
X0014842Y0276000D01*
X0014843Y0276000D02*
X0064055Y0276000D01*
X0387598Y0276000D01*
X0387857Y0275989D01*
X0388115Y0275973D01*
X0388372Y0275950D01*
X0388630Y0275921D01*
X0388886Y0275886D01*
X0389141Y0275844D01*
X0389395Y0275797D01*
X0389648Y0275743D01*
X0389900Y0275683D01*
X0390150Y0275617D01*
X0390399Y0275545D01*
X0390646Y0275467D01*
X0390890Y0275384D01*
X0391133Y0275294D01*
X0391373Y0275198D01*
X0391611Y0275097D01*
X0391847Y0274990D01*
X0392080Y0274877D01*
X0392310Y0274759D01*
X0392537Y0274635D01*
X0392761Y0274506D01*
X0392982Y0274371D01*
X0393199Y0274231D01*
X0393413Y0274086D01*
X0393624Y0273936D01*
X0393831Y0273780D01*
X0394034Y0273620D01*
X0394233Y0273455D01*
X0394428Y0273285D01*
X0394619Y0273110D01*
X0394805Y0272931D01*
X0394988Y0272748D01*
X0395165Y0272560D01*
X0395339Y0272367D01*
X0395507Y0272171D01*
X0395671Y0271971D01*
X0395829Y0271766D01*
X0395983Y0271558D01*
X0396132Y0271347D01*
X0396276Y0271132D01*
X0396414Y0270913D01*
X0396547Y0270691D01*
X0396674Y0270466D01*
X0396797Y0270238D01*
X0396913Y0270007D01*
X0397024Y0269773D01*
X0397129Y0269537D01*
X0397229Y0269298D01*
X0397323Y0269057D01*
X0397411Y0268814D01*
X0397493Y0268568D01*
X0397569Y0268321D01*
X0397639Y0268072D01*
X0397703Y0267822D01*
X0397760Y0267569D01*
X0397812Y0267316D01*
X0397858Y0267061D01*
X0397897Y0266806D01*
X0397931Y0266549D01*
X0397958Y0266292D01*
X0397979Y0266034D01*
X0397993Y0265776D01*
X0398002Y0265517D01*
X0398004Y0265259D01*
X0398000Y0265000D01*
X0398000Y0243000D01*
X0398000Y0014843D01*
X0398000Y0014842D02*
X0397990Y0014598D01*
X0397975Y0014354D01*
X0397953Y0014110D01*
X0397926Y0013867D01*
X0397893Y0013624D01*
X0397854Y0013383D01*
X0397809Y0013142D01*
X0397758Y0012903D01*
X0397701Y0012665D01*
X0397639Y0012428D01*
X0397571Y0012193D01*
X0397498Y0011960D01*
X0397418Y0011728D01*
X0397334Y0011499D01*
X0397243Y0011271D01*
X0397147Y0011046D01*
X0397046Y0010823D01*
X0396940Y0010603D01*
X0396828Y0010385D01*
X0396711Y0010170D01*
X0396589Y0009958D01*
X0396461Y0009749D01*
X0396329Y0009544D01*
X0396192Y0009341D01*
X0396050Y0009142D01*
X0395903Y0008946D01*
X0395751Y0008754D01*
X0395595Y0008566D01*
X0395434Y0008381D01*
X0395269Y0008201D01*
X0395100Y0008024D01*
X0394926Y0007852D01*
X0394748Y0007683D01*
X0394567Y0007519D01*
X0394381Y0007360D01*
X0394191Y0007205D01*
X0393998Y0007055D01*
X0393802Y0006909D01*
X0393601Y0006769D01*
X0393398Y0006633D01*
X0393191Y0006502D01*
X0392981Y0006376D01*
X0392769Y0006255D01*
X0392553Y0006140D01*
X0392334Y0006029D01*
X0392113Y0005924D01*
X0391890Y0005825D01*
X0391664Y0005730D01*
X0391436Y0005642D01*
X0391206Y0005558D01*
X0390974Y0005481D01*
X0390740Y0005409D01*
X0390504Y0005343D01*
X0390267Y0005282D01*
X0390029Y0005227D01*
X0389789Y0005178D01*
X0389548Y0005135D01*
X0389307Y0005097D01*
X0389064Y0005066D01*
X0388821Y0005040D01*
X0388577Y0005020D01*
X0388332Y0005006D01*
X0388088Y0004998D01*
X0387843Y0004996D01*
X0387598Y0005000D01*
X0032559Y0005000D01*
X0017126Y0025000D02*
X0017128Y0025193D01*
X0017135Y0025386D01*
X0017147Y0025579D01*
X0017164Y0025772D01*
X0017185Y0025964D01*
X0017211Y0026155D01*
X0017242Y0026346D01*
X0017277Y0026536D01*
X0017317Y0026725D01*
X0017362Y0026913D01*
X0017411Y0027100D01*
X0017465Y0027286D01*
X0017523Y0027470D01*
X0017586Y0027653D01*
X0017654Y0027834D01*
X0017725Y0028013D01*
X0017802Y0028191D01*
X0017882Y0028367D01*
X0017967Y0028540D01*
X0018056Y0028712D01*
X0018149Y0028881D01*
X0018246Y0029048D01*
X0018348Y0029213D01*
X0018453Y0029375D01*
X0018562Y0029534D01*
X0018676Y0029691D01*
X0018793Y0029844D01*
X0018913Y0029995D01*
X0019038Y0030143D01*
X0019166Y0030288D01*
X0019297Y0030429D01*
X0019432Y0030568D01*
X0019571Y0030703D01*
X0019712Y0030834D01*
X0019857Y0030962D01*
X0020005Y0031087D01*
X0020156Y0031207D01*
X0020309Y0031324D01*
X0020466Y0031438D01*
X0020625Y0031547D01*
X0020787Y0031652D01*
X0020952Y0031754D01*
X0021119Y0031851D01*
X0021288Y0031944D01*
X0021460Y0032033D01*
X0021633Y0032118D01*
X0021809Y0032198D01*
X0021987Y0032275D01*
X0022166Y0032346D01*
X0022347Y0032414D01*
X0022530Y0032477D01*
X0022714Y0032535D01*
X0022900Y0032589D01*
X0023087Y0032638D01*
X0023275Y0032683D01*
X0023464Y0032723D01*
X0023654Y0032758D01*
X0023845Y0032789D01*
X0024036Y0032815D01*
X0024228Y0032836D01*
X0024421Y0032853D01*
X0024614Y0032865D01*
X0024807Y0032872D01*
X0025000Y0032874D01*
X0025193Y0032872D01*
X0025386Y0032865D01*
X0025579Y0032853D01*
X0025772Y0032836D01*
X0025964Y0032815D01*
X0026155Y0032789D01*
X0026346Y0032758D01*
X0026536Y0032723D01*
X0026725Y0032683D01*
X0026913Y0032638D01*
X0027100Y0032589D01*
X0027286Y0032535D01*
X0027470Y0032477D01*
X0027653Y0032414D01*
X0027834Y0032346D01*
X0028013Y0032275D01*
X0028191Y0032198D01*
X0028367Y0032118D01*
X0028540Y0032033D01*
X0028712Y0031944D01*
X0028881Y0031851D01*
X0029048Y0031754D01*
X0029213Y0031652D01*
X0029375Y0031547D01*
X0029534Y0031438D01*
X0029691Y0031324D01*
X0029844Y0031207D01*
X0029995Y0031087D01*
X0030143Y0030962D01*
X0030288Y0030834D01*
X0030429Y0030703D01*
X0030568Y0030568D01*
X0030703Y0030429D01*
X0030834Y0030288D01*
X0030962Y0030143D01*
X0031087Y0029995D01*
X0031207Y0029844D01*
X0031324Y0029691D01*
X0031438Y0029534D01*
X0031547Y0029375D01*
X0031652Y0029213D01*
X0031754Y0029048D01*
X0031851Y0028881D01*
X0031944Y0028712D01*
X0032033Y0028540D01*
X0032118Y0028367D01*
X0032198Y0028191D01*
X0032275Y0028013D01*
X0032346Y0027834D01*
X0032414Y0027653D01*
X0032477Y0027470D01*
X0032535Y0027286D01*
X0032589Y0027100D01*
X0032638Y0026913D01*
X0032683Y0026725D01*
X0032723Y0026536D01*
X0032758Y0026346D01*
X0032789Y0026155D01*
X0032815Y0025964D01*
X0032836Y0025772D01*
X0032853Y0025579D01*
X0032865Y0025386D01*
X0032872Y0025193D01*
X0032874Y0025000D01*
X0032872Y0024807D01*
X0032865Y0024614D01*
X0032853Y0024421D01*
X0032836Y0024228D01*
X0032815Y0024036D01*
X0032789Y0023845D01*
X0032758Y0023654D01*
X0032723Y0023464D01*
X0032683Y0023275D01*
X0032638Y0023087D01*
X0032589Y0022900D01*
X0032535Y0022714D01*
X0032477Y0022530D01*
X0032414Y0022347D01*
X0032346Y0022166D01*
X0032275Y0021987D01*
X0032198Y0021809D01*
X0032118Y0021633D01*
X0032033Y0021460D01*
X0031944Y0021288D01*
X0031851Y0021119D01*
X0031754Y0020952D01*
X0031652Y0020787D01*
X0031547Y0020625D01*
X0031438Y0020466D01*
X0031324Y0020309D01*
X0031207Y0020156D01*
X0031087Y0020005D01*
X0030962Y0019857D01*
X0030834Y0019712D01*
X0030703Y0019571D01*
X0030568Y0019432D01*
X0030429Y0019297D01*
X0030288Y0019166D01*
X0030143Y0019038D01*
X0029995Y0018913D01*
X0029844Y0018793D01*
X0029691Y0018676D01*
X0029534Y0018562D01*
X0029375Y0018453D01*
X0029213Y0018348D01*
X0029048Y0018246D01*
X0028881Y0018149D01*
X0028712Y0018056D01*
X0028540Y0017967D01*
X0028367Y0017882D01*
X0028191Y0017802D01*
X0028013Y0017725D01*
X0027834Y0017654D01*
X0027653Y0017586D01*
X0027470Y0017523D01*
X0027286Y0017465D01*
X0027100Y0017411D01*
X0026913Y0017362D01*
X0026725Y0017317D01*
X0026536Y0017277D01*
X0026346Y0017242D01*
X0026155Y0017211D01*
X0025964Y0017185D01*
X0025772Y0017164D01*
X0025579Y0017147D01*
X0025386Y0017135D01*
X0025193Y0017128D01*
X0025000Y0017126D01*
X0024807Y0017128D01*
X0024614Y0017135D01*
X0024421Y0017147D01*
X0024228Y0017164D01*
X0024036Y0017185D01*
X0023845Y0017211D01*
X0023654Y0017242D01*
X0023464Y0017277D01*
X0023275Y0017317D01*
X0023087Y0017362D01*
X0022900Y0017411D01*
X0022714Y0017465D01*
X0022530Y0017523D01*
X0022347Y0017586D01*
X0022166Y0017654D01*
X0021987Y0017725D01*
X0021809Y0017802D01*
X0021633Y0017882D01*
X0021460Y0017967D01*
X0021288Y0018056D01*
X0021119Y0018149D01*
X0020952Y0018246D01*
X0020787Y0018348D01*
X0020625Y0018453D01*
X0020466Y0018562D01*
X0020309Y0018676D01*
X0020156Y0018793D01*
X0020005Y0018913D01*
X0019857Y0019038D01*
X0019712Y0019166D01*
X0019571Y0019297D01*
X0019432Y0019432D01*
X0019297Y0019571D01*
X0019166Y0019712D01*
X0019038Y0019857D01*
X0018913Y0020005D01*
X0018793Y0020156D01*
X0018676Y0020309D01*
X0018562Y0020466D01*
X0018453Y0020625D01*
X0018348Y0020787D01*
X0018246Y0020952D01*
X0018149Y0021119D01*
X0018056Y0021288D01*
X0017967Y0021460D01*
X0017882Y0021633D01*
X0017802Y0021809D01*
X0017725Y0021987D01*
X0017654Y0022166D01*
X0017586Y0022347D01*
X0017523Y0022530D01*
X0017465Y0022714D01*
X0017411Y0022900D01*
X0017362Y0023087D01*
X0017317Y0023275D01*
X0017277Y0023464D01*
X0017242Y0023654D01*
X0017211Y0023845D01*
X0017185Y0024036D01*
X0017164Y0024228D01*
X0017147Y0024421D01*
X0017135Y0024614D01*
X0017128Y0024807D01*
X0017126Y0025000D01*
X0017126Y0256000D02*
X0017128Y0256193D01*
X0017135Y0256386D01*
X0017147Y0256579D01*
X0017164Y0256772D01*
X0017185Y0256964D01*
X0017211Y0257155D01*
X0017242Y0257346D01*
X0017277Y0257536D01*
X0017317Y0257725D01*
X0017362Y0257913D01*
X0017411Y0258100D01*
X0017465Y0258286D01*
X0017523Y0258470D01*
X0017586Y0258653D01*
X0017654Y0258834D01*
X0017725Y0259013D01*
X0017802Y0259191D01*
X0017882Y0259367D01*
X0017967Y0259540D01*
X0018056Y0259712D01*
X0018149Y0259881D01*
X0018246Y0260048D01*
X0018348Y0260213D01*
X0018453Y0260375D01*
X0018562Y0260534D01*
X0018676Y0260691D01*
X0018793Y0260844D01*
X0018913Y0260995D01*
X0019038Y0261143D01*
X0019166Y0261288D01*
X0019297Y0261429D01*
X0019432Y0261568D01*
X0019571Y0261703D01*
X0019712Y0261834D01*
X0019857Y0261962D01*
X0020005Y0262087D01*
X0020156Y0262207D01*
X0020309Y0262324D01*
X0020466Y0262438D01*
X0020625Y0262547D01*
X0020787Y0262652D01*
X0020952Y0262754D01*
X0021119Y0262851D01*
X0021288Y0262944D01*
X0021460Y0263033D01*
X0021633Y0263118D01*
X0021809Y0263198D01*
X0021987Y0263275D01*
X0022166Y0263346D01*
X0022347Y0263414D01*
X0022530Y0263477D01*
X0022714Y0263535D01*
X0022900Y0263589D01*
X0023087Y0263638D01*
X0023275Y0263683D01*
X0023464Y0263723D01*
X0023654Y0263758D01*
X0023845Y0263789D01*
X0024036Y0263815D01*
X0024228Y0263836D01*
X0024421Y0263853D01*
X0024614Y0263865D01*
X0024807Y0263872D01*
X0025000Y0263874D01*
X0025193Y0263872D01*
X0025386Y0263865D01*
X0025579Y0263853D01*
X0025772Y0263836D01*
X0025964Y0263815D01*
X0026155Y0263789D01*
X0026346Y0263758D01*
X0026536Y0263723D01*
X0026725Y0263683D01*
X0026913Y0263638D01*
X0027100Y0263589D01*
X0027286Y0263535D01*
X0027470Y0263477D01*
X0027653Y0263414D01*
X0027834Y0263346D01*
X0028013Y0263275D01*
X0028191Y0263198D01*
X0028367Y0263118D01*
X0028540Y0263033D01*
X0028712Y0262944D01*
X0028881Y0262851D01*
X0029048Y0262754D01*
X0029213Y0262652D01*
X0029375Y0262547D01*
X0029534Y0262438D01*
X0029691Y0262324D01*
X0029844Y0262207D01*
X0029995Y0262087D01*
X0030143Y0261962D01*
X0030288Y0261834D01*
X0030429Y0261703D01*
X0030568Y0261568D01*
X0030703Y0261429D01*
X0030834Y0261288D01*
X0030962Y0261143D01*
X0031087Y0260995D01*
X0031207Y0260844D01*
X0031324Y0260691D01*
X0031438Y0260534D01*
X0031547Y0260375D01*
X0031652Y0260213D01*
X0031754Y0260048D01*
X0031851Y0259881D01*
X0031944Y0259712D01*
X0032033Y0259540D01*
X0032118Y0259367D01*
X0032198Y0259191D01*
X0032275Y0259013D01*
X0032346Y0258834D01*
X0032414Y0258653D01*
X0032477Y0258470D01*
X0032535Y0258286D01*
X0032589Y0258100D01*
X0032638Y0257913D01*
X0032683Y0257725D01*
X0032723Y0257536D01*
X0032758Y0257346D01*
X0032789Y0257155D01*
X0032815Y0256964D01*
X0032836Y0256772D01*
X0032853Y0256579D01*
X0032865Y0256386D01*
X0032872Y0256193D01*
X0032874Y0256000D01*
X0032872Y0255807D01*
X0032865Y0255614D01*
X0032853Y0255421D01*
X0032836Y0255228D01*
X0032815Y0255036D01*
X0032789Y0254845D01*
X0032758Y0254654D01*
X0032723Y0254464D01*
X0032683Y0254275D01*
X0032638Y0254087D01*
X0032589Y0253900D01*
X0032535Y0253714D01*
X0032477Y0253530D01*
X0032414Y0253347D01*
X0032346Y0253166D01*
X0032275Y0252987D01*
X0032198Y0252809D01*
X0032118Y0252633D01*
X0032033Y0252460D01*
X0031944Y0252288D01*
X0031851Y0252119D01*
X0031754Y0251952D01*
X0031652Y0251787D01*
X0031547Y0251625D01*
X0031438Y0251466D01*
X0031324Y0251309D01*
X0031207Y0251156D01*
X0031087Y0251005D01*
X0030962Y0250857D01*
X0030834Y0250712D01*
X0030703Y0250571D01*
X0030568Y0250432D01*
X0030429Y0250297D01*
X0030288Y0250166D01*
X0030143Y0250038D01*
X0029995Y0249913D01*
X0029844Y0249793D01*
X0029691Y0249676D01*
X0029534Y0249562D01*
X0029375Y0249453D01*
X0029213Y0249348D01*
X0029048Y0249246D01*
X0028881Y0249149D01*
X0028712Y0249056D01*
X0028540Y0248967D01*
X0028367Y0248882D01*
X0028191Y0248802D01*
X0028013Y0248725D01*
X0027834Y0248654D01*
X0027653Y0248586D01*
X0027470Y0248523D01*
X0027286Y0248465D01*
X0027100Y0248411D01*
X0026913Y0248362D01*
X0026725Y0248317D01*
X0026536Y0248277D01*
X0026346Y0248242D01*
X0026155Y0248211D01*
X0025964Y0248185D01*
X0025772Y0248164D01*
X0025579Y0248147D01*
X0025386Y0248135D01*
X0025193Y0248128D01*
X0025000Y0248126D01*
X0024807Y0248128D01*
X0024614Y0248135D01*
X0024421Y0248147D01*
X0024228Y0248164D01*
X0024036Y0248185D01*
X0023845Y0248211D01*
X0023654Y0248242D01*
X0023464Y0248277D01*
X0023275Y0248317D01*
X0023087Y0248362D01*
X0022900Y0248411D01*
X0022714Y0248465D01*
X0022530Y0248523D01*
X0022347Y0248586D01*
X0022166Y0248654D01*
X0021987Y0248725D01*
X0021809Y0248802D01*
X0021633Y0248882D01*
X0021460Y0248967D01*
X0021288Y0249056D01*
X0021119Y0249149D01*
X0020952Y0249246D01*
X0020787Y0249348D01*
X0020625Y0249453D01*
X0020466Y0249562D01*
X0020309Y0249676D01*
X0020156Y0249793D01*
X0020005Y0249913D01*
X0019857Y0250038D01*
X0019712Y0250166D01*
X0019571Y0250297D01*
X0019432Y0250432D01*
X0019297Y0250571D01*
X0019166Y0250712D01*
X0019038Y0250857D01*
X0018913Y0251005D01*
X0018793Y0251156D01*
X0018676Y0251309D01*
X0018562Y0251466D01*
X0018453Y0251625D01*
X0018348Y0251787D01*
X0018246Y0251952D01*
X0018149Y0252119D01*
X0018056Y0252288D01*
X0017967Y0252460D01*
X0017882Y0252633D01*
X0017802Y0252809D01*
X0017725Y0252987D01*
X0017654Y0253166D01*
X0017586Y0253347D01*
X0017523Y0253530D01*
X0017465Y0253714D01*
X0017411Y0253900D01*
X0017362Y0254087D01*
X0017317Y0254275D01*
X0017277Y0254464D01*
X0017242Y0254654D01*
X0017211Y0254845D01*
X0017185Y0255036D01*
X0017164Y0255228D01*
X0017147Y0255421D01*
X0017135Y0255614D01*
X0017128Y0255807D01*
X0017126Y0256000D01*
X0370126Y0256000D02*
X0370128Y0256193D01*
X0370135Y0256386D01*
X0370147Y0256579D01*
X0370164Y0256772D01*
X0370185Y0256964D01*
X0370211Y0257155D01*
X0370242Y0257346D01*
X0370277Y0257536D01*
X0370317Y0257725D01*
X0370362Y0257913D01*
X0370411Y0258100D01*
X0370465Y0258286D01*
X0370523Y0258470D01*
X0370586Y0258653D01*
X0370654Y0258834D01*
X0370725Y0259013D01*
X0370802Y0259191D01*
X0370882Y0259367D01*
X0370967Y0259540D01*
X0371056Y0259712D01*
X0371149Y0259881D01*
X0371246Y0260048D01*
X0371348Y0260213D01*
X0371453Y0260375D01*
X0371562Y0260534D01*
X0371676Y0260691D01*
X0371793Y0260844D01*
X0371913Y0260995D01*
X0372038Y0261143D01*
X0372166Y0261288D01*
X0372297Y0261429D01*
X0372432Y0261568D01*
X0372571Y0261703D01*
X0372712Y0261834D01*
X0372857Y0261962D01*
X0373005Y0262087D01*
X0373156Y0262207D01*
X0373309Y0262324D01*
X0373466Y0262438D01*
X0373625Y0262547D01*
X0373787Y0262652D01*
X0373952Y0262754D01*
X0374119Y0262851D01*
X0374288Y0262944D01*
X0374460Y0263033D01*
X0374633Y0263118D01*
X0374809Y0263198D01*
X0374987Y0263275D01*
X0375166Y0263346D01*
X0375347Y0263414D01*
X0375530Y0263477D01*
X0375714Y0263535D01*
X0375900Y0263589D01*
X0376087Y0263638D01*
X0376275Y0263683D01*
X0376464Y0263723D01*
X0376654Y0263758D01*
X0376845Y0263789D01*
X0377036Y0263815D01*
X0377228Y0263836D01*
X0377421Y0263853D01*
X0377614Y0263865D01*
X0377807Y0263872D01*
X0378000Y0263874D01*
X0378193Y0263872D01*
X0378386Y0263865D01*
X0378579Y0263853D01*
X0378772Y0263836D01*
X0378964Y0263815D01*
X0379155Y0263789D01*
X0379346Y0263758D01*
X0379536Y0263723D01*
X0379725Y0263683D01*
X0379913Y0263638D01*
X0380100Y0263589D01*
X0380286Y0263535D01*
X0380470Y0263477D01*
X0380653Y0263414D01*
X0380834Y0263346D01*
X0381013Y0263275D01*
X0381191Y0263198D01*
X0381367Y0263118D01*
X0381540Y0263033D01*
X0381712Y0262944D01*
X0381881Y0262851D01*
X0382048Y0262754D01*
X0382213Y0262652D01*
X0382375Y0262547D01*
X0382534Y0262438D01*
X0382691Y0262324D01*
X0382844Y0262207D01*
X0382995Y0262087D01*
X0383143Y0261962D01*
X0383288Y0261834D01*
X0383429Y0261703D01*
X0383568Y0261568D01*
X0383703Y0261429D01*
X0383834Y0261288D01*
X0383962Y0261143D01*
X0384087Y0260995D01*
X0384207Y0260844D01*
X0384324Y0260691D01*
X0384438Y0260534D01*
X0384547Y0260375D01*
X0384652Y0260213D01*
X0384754Y0260048D01*
X0384851Y0259881D01*
X0384944Y0259712D01*
X0385033Y0259540D01*
X0385118Y0259367D01*
X0385198Y0259191D01*
X0385275Y0259013D01*
X0385346Y0258834D01*
X0385414Y0258653D01*
X0385477Y0258470D01*
X0385535Y0258286D01*
X0385589Y0258100D01*
X0385638Y0257913D01*
X0385683Y0257725D01*
X0385723Y0257536D01*
X0385758Y0257346D01*
X0385789Y0257155D01*
X0385815Y0256964D01*
X0385836Y0256772D01*
X0385853Y0256579D01*
X0385865Y0256386D01*
X0385872Y0256193D01*
X0385874Y0256000D01*
X0385872Y0255807D01*
X0385865Y0255614D01*
X0385853Y0255421D01*
X0385836Y0255228D01*
X0385815Y0255036D01*
X0385789Y0254845D01*
X0385758Y0254654D01*
X0385723Y0254464D01*
X0385683Y0254275D01*
X0385638Y0254087D01*
X0385589Y0253900D01*
X0385535Y0253714D01*
X0385477Y0253530D01*
X0385414Y0253347D01*
X0385346Y0253166D01*
X0385275Y0252987D01*
X0385198Y0252809D01*
X0385118Y0252633D01*
X0385033Y0252460D01*
X0384944Y0252288D01*
X0384851Y0252119D01*
X0384754Y0251952D01*
X0384652Y0251787D01*
X0384547Y0251625D01*
X0384438Y0251466D01*
X0384324Y0251309D01*
X0384207Y0251156D01*
X0384087Y0251005D01*
X0383962Y0250857D01*
X0383834Y0250712D01*
X0383703Y0250571D01*
X0383568Y0250432D01*
X0383429Y0250297D01*
X0383288Y0250166D01*
X0383143Y0250038D01*
X0382995Y0249913D01*
X0382844Y0249793D01*
X0382691Y0249676D01*
X0382534Y0249562D01*
X0382375Y0249453D01*
X0382213Y0249348D01*
X0382048Y0249246D01*
X0381881Y0249149D01*
X0381712Y0249056D01*
X0381540Y0248967D01*
X0381367Y0248882D01*
X0381191Y0248802D01*
X0381013Y0248725D01*
X0380834Y0248654D01*
X0380653Y0248586D01*
X0380470Y0248523D01*
X0380286Y0248465D01*
X0380100Y0248411D01*
X0379913Y0248362D01*
X0379725Y0248317D01*
X0379536Y0248277D01*
X0379346Y0248242D01*
X0379155Y0248211D01*
X0378964Y0248185D01*
X0378772Y0248164D01*
X0378579Y0248147D01*
X0378386Y0248135D01*
X0378193Y0248128D01*
X0378000Y0248126D01*
X0377807Y0248128D01*
X0377614Y0248135D01*
X0377421Y0248147D01*
X0377228Y0248164D01*
X0377036Y0248185D01*
X0376845Y0248211D01*
X0376654Y0248242D01*
X0376464Y0248277D01*
X0376275Y0248317D01*
X0376087Y0248362D01*
X0375900Y0248411D01*
X0375714Y0248465D01*
X0375530Y0248523D01*
X0375347Y0248586D01*
X0375166Y0248654D01*
X0374987Y0248725D01*
X0374809Y0248802D01*
X0374633Y0248882D01*
X0374460Y0248967D01*
X0374288Y0249056D01*
X0374119Y0249149D01*
X0373952Y0249246D01*
X0373787Y0249348D01*
X0373625Y0249453D01*
X0373466Y0249562D01*
X0373309Y0249676D01*
X0373156Y0249793D01*
X0373005Y0249913D01*
X0372857Y0250038D01*
X0372712Y0250166D01*
X0372571Y0250297D01*
X0372432Y0250432D01*
X0372297Y0250571D01*
X0372166Y0250712D01*
X0372038Y0250857D01*
X0371913Y0251005D01*
X0371793Y0251156D01*
X0371676Y0251309D01*
X0371562Y0251466D01*
X0371453Y0251625D01*
X0371348Y0251787D01*
X0371246Y0251952D01*
X0371149Y0252119D01*
X0371056Y0252288D01*
X0370967Y0252460D01*
X0370882Y0252633D01*
X0370802Y0252809D01*
X0370725Y0252987D01*
X0370654Y0253166D01*
X0370586Y0253347D01*
X0370523Y0253530D01*
X0370465Y0253714D01*
X0370411Y0253900D01*
X0370362Y0254087D01*
X0370317Y0254275D01*
X0370277Y0254464D01*
X0370242Y0254654D01*
X0370211Y0254845D01*
X0370185Y0255036D01*
X0370164Y0255228D01*
X0370147Y0255421D01*
X0370135Y0255614D01*
X0370128Y0255807D01*
X0370126Y0256000D01*
X0370126Y0025000D02*
X0370128Y0025193D01*
X0370135Y0025386D01*
X0370147Y0025579D01*
X0370164Y0025772D01*
X0370185Y0025964D01*
X0370211Y0026155D01*
X0370242Y0026346D01*
X0370277Y0026536D01*
X0370317Y0026725D01*
X0370362Y0026913D01*
X0370411Y0027100D01*
X0370465Y0027286D01*
X0370523Y0027470D01*
X0370586Y0027653D01*
X0370654Y0027834D01*
X0370725Y0028013D01*
X0370802Y0028191D01*
X0370882Y0028367D01*
X0370967Y0028540D01*
X0371056Y0028712D01*
X0371149Y0028881D01*
X0371246Y0029048D01*
X0371348Y0029213D01*
X0371453Y0029375D01*
X0371562Y0029534D01*
X0371676Y0029691D01*
X0371793Y0029844D01*
X0371913Y0029995D01*
X0372038Y0030143D01*
X0372166Y0030288D01*
X0372297Y0030429D01*
X0372432Y0030568D01*
X0372571Y0030703D01*
X0372712Y0030834D01*
X0372857Y0030962D01*
X0373005Y0031087D01*
X0373156Y0031207D01*
X0373309Y0031324D01*
X0373466Y0031438D01*
X0373625Y0031547D01*
X0373787Y0031652D01*
X0373952Y0031754D01*
X0374119Y0031851D01*
X0374288Y0031944D01*
X0374460Y0032033D01*
X0374633Y0032118D01*
X0374809Y0032198D01*
X0374987Y0032275D01*
X0375166Y0032346D01*
X0375347Y0032414D01*
X0375530Y0032477D01*
X0375714Y0032535D01*
X0375900Y0032589D01*
X0376087Y0032638D01*
X0376275Y0032683D01*
X0376464Y0032723D01*
X0376654Y0032758D01*
X0376845Y0032789D01*
X0377036Y0032815D01*
X0377228Y0032836D01*
X0377421Y0032853D01*
X0377614Y0032865D01*
X0377807Y0032872D01*
X0378000Y0032874D01*
X0378193Y0032872D01*
X0378386Y0032865D01*
X0378579Y0032853D01*
X0378772Y0032836D01*
X0378964Y0032815D01*
X0379155Y0032789D01*
X0379346Y0032758D01*
X0379536Y0032723D01*
X0379725Y0032683D01*
X0379913Y0032638D01*
X0380100Y0032589D01*
X0380286Y0032535D01*
X0380470Y0032477D01*
X0380653Y0032414D01*
X0380834Y0032346D01*
X0381013Y0032275D01*
X0381191Y0032198D01*
X0381367Y0032118D01*
X0381540Y0032033D01*
X0381712Y0031944D01*
X0381881Y0031851D01*
X0382048Y0031754D01*
X0382213Y0031652D01*
X0382375Y0031547D01*
X0382534Y0031438D01*
X0382691Y0031324D01*
X0382844Y0031207D01*
X0382995Y0031087D01*
X0383143Y0030962D01*
X0383288Y0030834D01*
X0383429Y0030703D01*
X0383568Y0030568D01*
X0383703Y0030429D01*
X0383834Y0030288D01*
X0383962Y0030143D01*
X0384087Y0029995D01*
X0384207Y0029844D01*
X0384324Y0029691D01*
X0384438Y0029534D01*
X0384547Y0029375D01*
X0384652Y0029213D01*
X0384754Y0029048D01*
X0384851Y0028881D01*
X0384944Y0028712D01*
X0385033Y0028540D01*
X0385118Y0028367D01*
X0385198Y0028191D01*
X0385275Y0028013D01*
X0385346Y0027834D01*
X0385414Y0027653D01*
X0385477Y0027470D01*
X0385535Y0027286D01*
X0385589Y0027100D01*
X0385638Y0026913D01*
X0385683Y0026725D01*
X0385723Y0026536D01*
X0385758Y0026346D01*
X0385789Y0026155D01*
X0385815Y0025964D01*
X0385836Y0025772D01*
X0385853Y0025579D01*
X0385865Y0025386D01*
X0385872Y0025193D01*
X0385874Y0025000D01*
X0385872Y0024807D01*
X0385865Y0024614D01*
X0385853Y0024421D01*
X0385836Y0024228D01*
X0385815Y0024036D01*
X0385789Y0023845D01*
X0385758Y0023654D01*
X0385723Y0023464D01*
X0385683Y0023275D01*
X0385638Y0023087D01*
X0385589Y0022900D01*
X0385535Y0022714D01*
X0385477Y0022530D01*
X0385414Y0022347D01*
X0385346Y0022166D01*
X0385275Y0021987D01*
X0385198Y0021809D01*
X0385118Y0021633D01*
X0385033Y0021460D01*
X0384944Y0021288D01*
X0384851Y0021119D01*
X0384754Y0020952D01*
X0384652Y0020787D01*
X0384547Y0020625D01*
X0384438Y0020466D01*
X0384324Y0020309D01*
X0384207Y0020156D01*
X0384087Y0020005D01*
X0383962Y0019857D01*
X0383834Y0019712D01*
X0383703Y0019571D01*
X0383568Y0019432D01*
X0383429Y0019297D01*
X0383288Y0019166D01*
X0383143Y0019038D01*
X0382995Y0018913D01*
X0382844Y0018793D01*
X0382691Y0018676D01*
X0382534Y0018562D01*
X0382375Y0018453D01*
X0382213Y0018348D01*
X0382048Y0018246D01*
X0381881Y0018149D01*
X0381712Y0018056D01*
X0381540Y0017967D01*
X0381367Y0017882D01*
X0381191Y0017802D01*
X0381013Y0017725D01*
X0380834Y0017654D01*
X0380653Y0017586D01*
X0380470Y0017523D01*
X0380286Y0017465D01*
X0380100Y0017411D01*
X0379913Y0017362D01*
X0379725Y0017317D01*
X0379536Y0017277D01*
X0379346Y0017242D01*
X0379155Y0017211D01*
X0378964Y0017185D01*
X0378772Y0017164D01*
X0378579Y0017147D01*
X0378386Y0017135D01*
X0378193Y0017128D01*
X0378000Y0017126D01*
X0377807Y0017128D01*
X0377614Y0017135D01*
X0377421Y0017147D01*
X0377228Y0017164D01*
X0377036Y0017185D01*
X0376845Y0017211D01*
X0376654Y0017242D01*
X0376464Y0017277D01*
X0376275Y0017317D01*
X0376087Y0017362D01*
X0375900Y0017411D01*
X0375714Y0017465D01*
X0375530Y0017523D01*
X0375347Y0017586D01*
X0375166Y0017654D01*
X0374987Y0017725D01*
X0374809Y0017802D01*
X0374633Y0017882D01*
X0374460Y0017967D01*
X0374288Y0018056D01*
X0374119Y0018149D01*
X0373952Y0018246D01*
X0373787Y0018348D01*
X0373625Y0018453D01*
X0373466Y0018562D01*
X0373309Y0018676D01*
X0373156Y0018793D01*
X0373005Y0018913D01*
X0372857Y0019038D01*
X0372712Y0019166D01*
X0372571Y0019297D01*
X0372432Y0019432D01*
X0372297Y0019571D01*
X0372166Y0019712D01*
X0372038Y0019857D01*
X0371913Y0020005D01*
X0371793Y0020156D01*
X0371676Y0020309D01*
X0371562Y0020466D01*
X0371453Y0020625D01*
X0371348Y0020787D01*
X0371246Y0020952D01*
X0371149Y0021119D01*
X0371056Y0021288D01*
X0370967Y0021460D01*
X0370882Y0021633D01*
X0370802Y0021809D01*
X0370725Y0021987D01*
X0370654Y0022166D01*
X0370586Y0022347D01*
X0370523Y0022530D01*
X0370465Y0022714D01*
X0370411Y0022900D01*
X0370362Y0023087D01*
X0370317Y0023275D01*
X0370277Y0023464D01*
X0370242Y0023654D01*
X0370211Y0023845D01*
X0370185Y0024036D01*
X0370164Y0024228D01*
X0370147Y0024421D01*
X0370135Y0024614D01*
X0370128Y0024807D01*
X0370126Y0025000D01*
D16*
X0303327Y0050000D02*
X0303329Y0050081D01*
X0303335Y0050163D01*
X0303345Y0050244D01*
X0303359Y0050324D01*
X0303376Y0050403D01*
X0303398Y0050482D01*
X0303423Y0050559D01*
X0303452Y0050636D01*
X0303485Y0050710D01*
X0303522Y0050783D01*
X0303561Y0050854D01*
X0303605Y0050923D01*
X0303651Y0050990D01*
X0303701Y0051054D01*
X0303754Y0051116D01*
X0303810Y0051176D01*
X0303868Y0051232D01*
X0303930Y0051286D01*
X0303994Y0051337D01*
X0304060Y0051384D01*
X0304128Y0051428D01*
X0304199Y0051469D01*
X0304271Y0051506D01*
X0304346Y0051540D01*
X0304421Y0051570D01*
X0304499Y0051596D01*
X0304577Y0051619D01*
X0304656Y0051637D01*
X0304736Y0051652D01*
X0304817Y0051663D01*
X0304898Y0051670D01*
X0304980Y0051673D01*
X0305061Y0051672D01*
X0305142Y0051667D01*
X0305223Y0051658D01*
X0305304Y0051645D01*
X0305384Y0051628D01*
X0305462Y0051608D01*
X0305540Y0051583D01*
X0305617Y0051555D01*
X0305692Y0051523D01*
X0305765Y0051488D01*
X0305836Y0051449D01*
X0305906Y0051406D01*
X0305973Y0051361D01*
X0306039Y0051312D01*
X0306101Y0051260D01*
X0306161Y0051204D01*
X0306218Y0051146D01*
X0306273Y0051086D01*
X0306324Y0051022D01*
X0306372Y0050957D01*
X0306417Y0050889D01*
X0306459Y0050819D01*
X0306497Y0050747D01*
X0306532Y0050673D01*
X0306563Y0050598D01*
X0306590Y0050521D01*
X0306613Y0050443D01*
X0306633Y0050364D01*
X0306649Y0050284D01*
X0306661Y0050203D01*
X0306669Y0050122D01*
X0306673Y0050041D01*
X0306673Y0049959D01*
X0306669Y0049878D01*
X0306661Y0049797D01*
X0306649Y0049716D01*
X0306633Y0049636D01*
X0306613Y0049557D01*
X0306590Y0049479D01*
X0306563Y0049402D01*
X0306532Y0049327D01*
X0306497Y0049253D01*
X0306459Y0049181D01*
X0306417Y0049111D01*
X0306372Y0049043D01*
X0306324Y0048978D01*
X0306273Y0048914D01*
X0306218Y0048854D01*
X0306161Y0048796D01*
X0306101Y0048740D01*
X0306039Y0048688D01*
X0305973Y0048639D01*
X0305906Y0048594D01*
X0305837Y0048551D01*
X0305765Y0048512D01*
X0305692Y0048477D01*
X0305617Y0048445D01*
X0305540Y0048417D01*
X0305462Y0048392D01*
X0305384Y0048372D01*
X0305304Y0048355D01*
X0305223Y0048342D01*
X0305142Y0048333D01*
X0305061Y0048328D01*
X0304980Y0048327D01*
X0304898Y0048330D01*
X0304817Y0048337D01*
X0304736Y0048348D01*
X0304656Y0048363D01*
X0304577Y0048381D01*
X0304499Y0048404D01*
X0304421Y0048430D01*
X0304346Y0048460D01*
X0304271Y0048494D01*
X0304199Y0048531D01*
X0304128Y0048572D01*
X0304060Y0048616D01*
X0303994Y0048663D01*
X0303930Y0048714D01*
X0303868Y0048768D01*
X0303810Y0048824D01*
X0303754Y0048884D01*
X0303701Y0048946D01*
X0303651Y0049010D01*
X0303605Y0049077D01*
X0303561Y0049146D01*
X0303522Y0049217D01*
X0303485Y0049290D01*
X0303452Y0049364D01*
X0303423Y0049441D01*
X0303398Y0049518D01*
X0303376Y0049597D01*
X0303359Y0049676D01*
X0303345Y0049756D01*
X0303335Y0049837D01*
X0303329Y0049919D01*
X0303327Y0050000D01*
X0289547Y0050000D02*
X0289549Y0050081D01*
X0289555Y0050163D01*
X0289565Y0050244D01*
X0289579Y0050324D01*
X0289596Y0050403D01*
X0289618Y0050482D01*
X0289643Y0050559D01*
X0289672Y0050636D01*
X0289705Y0050710D01*
X0289742Y0050783D01*
X0289781Y0050854D01*
X0289825Y0050923D01*
X0289871Y0050990D01*
X0289921Y0051054D01*
X0289974Y0051116D01*
X0290030Y0051176D01*
X0290088Y0051232D01*
X0290150Y0051286D01*
X0290214Y0051337D01*
X0290280Y0051384D01*
X0290348Y0051428D01*
X0290419Y0051469D01*
X0290491Y0051506D01*
X0290566Y0051540D01*
X0290641Y0051570D01*
X0290719Y0051596D01*
X0290797Y0051619D01*
X0290876Y0051637D01*
X0290956Y0051652D01*
X0291037Y0051663D01*
X0291118Y0051670D01*
X0291200Y0051673D01*
X0291281Y0051672D01*
X0291362Y0051667D01*
X0291443Y0051658D01*
X0291524Y0051645D01*
X0291604Y0051628D01*
X0291682Y0051608D01*
X0291760Y0051583D01*
X0291837Y0051555D01*
X0291912Y0051523D01*
X0291985Y0051488D01*
X0292056Y0051449D01*
X0292126Y0051406D01*
X0292193Y0051361D01*
X0292259Y0051312D01*
X0292321Y0051260D01*
X0292381Y0051204D01*
X0292438Y0051146D01*
X0292493Y0051086D01*
X0292544Y0051022D01*
X0292592Y0050957D01*
X0292637Y0050889D01*
X0292679Y0050819D01*
X0292717Y0050747D01*
X0292752Y0050673D01*
X0292783Y0050598D01*
X0292810Y0050521D01*
X0292833Y0050443D01*
X0292853Y0050364D01*
X0292869Y0050284D01*
X0292881Y0050203D01*
X0292889Y0050122D01*
X0292893Y0050041D01*
X0292893Y0049959D01*
X0292889Y0049878D01*
X0292881Y0049797D01*
X0292869Y0049716D01*
X0292853Y0049636D01*
X0292833Y0049557D01*
X0292810Y0049479D01*
X0292783Y0049402D01*
X0292752Y0049327D01*
X0292717Y0049253D01*
X0292679Y0049181D01*
X0292637Y0049111D01*
X0292592Y0049043D01*
X0292544Y0048978D01*
X0292493Y0048914D01*
X0292438Y0048854D01*
X0292381Y0048796D01*
X0292321Y0048740D01*
X0292259Y0048688D01*
X0292193Y0048639D01*
X0292126Y0048594D01*
X0292057Y0048551D01*
X0291985Y0048512D01*
X0291912Y0048477D01*
X0291837Y0048445D01*
X0291760Y0048417D01*
X0291682Y0048392D01*
X0291604Y0048372D01*
X0291524Y0048355D01*
X0291443Y0048342D01*
X0291362Y0048333D01*
X0291281Y0048328D01*
X0291200Y0048327D01*
X0291118Y0048330D01*
X0291037Y0048337D01*
X0290956Y0048348D01*
X0290876Y0048363D01*
X0290797Y0048381D01*
X0290719Y0048404D01*
X0290641Y0048430D01*
X0290566Y0048460D01*
X0290491Y0048494D01*
X0290419Y0048531D01*
X0290348Y0048572D01*
X0290280Y0048616D01*
X0290214Y0048663D01*
X0290150Y0048714D01*
X0290088Y0048768D01*
X0290030Y0048824D01*
X0289974Y0048884D01*
X0289921Y0048946D01*
X0289871Y0049010D01*
X0289825Y0049077D01*
X0289781Y0049146D01*
X0289742Y0049217D01*
X0289705Y0049290D01*
X0289672Y0049364D01*
X0289643Y0049441D01*
X0289618Y0049518D01*
X0289596Y0049597D01*
X0289579Y0049676D01*
X0289565Y0049756D01*
X0289555Y0049837D01*
X0289549Y0049919D01*
X0289547Y0050000D01*
X0275768Y0050000D02*
X0275770Y0050081D01*
X0275776Y0050163D01*
X0275786Y0050244D01*
X0275800Y0050324D01*
X0275817Y0050403D01*
X0275839Y0050482D01*
X0275864Y0050559D01*
X0275893Y0050636D01*
X0275926Y0050710D01*
X0275963Y0050783D01*
X0276002Y0050854D01*
X0276046Y0050923D01*
X0276092Y0050990D01*
X0276142Y0051054D01*
X0276195Y0051116D01*
X0276251Y0051176D01*
X0276309Y0051232D01*
X0276371Y0051286D01*
X0276435Y0051337D01*
X0276501Y0051384D01*
X0276569Y0051428D01*
X0276640Y0051469D01*
X0276712Y0051506D01*
X0276787Y0051540D01*
X0276862Y0051570D01*
X0276940Y0051596D01*
X0277018Y0051619D01*
X0277097Y0051637D01*
X0277177Y0051652D01*
X0277258Y0051663D01*
X0277339Y0051670D01*
X0277421Y0051673D01*
X0277502Y0051672D01*
X0277583Y0051667D01*
X0277664Y0051658D01*
X0277745Y0051645D01*
X0277825Y0051628D01*
X0277903Y0051608D01*
X0277981Y0051583D01*
X0278058Y0051555D01*
X0278133Y0051523D01*
X0278206Y0051488D01*
X0278277Y0051449D01*
X0278347Y0051406D01*
X0278414Y0051361D01*
X0278480Y0051312D01*
X0278542Y0051260D01*
X0278602Y0051204D01*
X0278659Y0051146D01*
X0278714Y0051086D01*
X0278765Y0051022D01*
X0278813Y0050957D01*
X0278858Y0050889D01*
X0278900Y0050819D01*
X0278938Y0050747D01*
X0278973Y0050673D01*
X0279004Y0050598D01*
X0279031Y0050521D01*
X0279054Y0050443D01*
X0279074Y0050364D01*
X0279090Y0050284D01*
X0279102Y0050203D01*
X0279110Y0050122D01*
X0279114Y0050041D01*
X0279114Y0049959D01*
X0279110Y0049878D01*
X0279102Y0049797D01*
X0279090Y0049716D01*
X0279074Y0049636D01*
X0279054Y0049557D01*
X0279031Y0049479D01*
X0279004Y0049402D01*
X0278973Y0049327D01*
X0278938Y0049253D01*
X0278900Y0049181D01*
X0278858Y0049111D01*
X0278813Y0049043D01*
X0278765Y0048978D01*
X0278714Y0048914D01*
X0278659Y0048854D01*
X0278602Y0048796D01*
X0278542Y0048740D01*
X0278480Y0048688D01*
X0278414Y0048639D01*
X0278347Y0048594D01*
X0278278Y0048551D01*
X0278206Y0048512D01*
X0278133Y0048477D01*
X0278058Y0048445D01*
X0277981Y0048417D01*
X0277903Y0048392D01*
X0277825Y0048372D01*
X0277745Y0048355D01*
X0277664Y0048342D01*
X0277583Y0048333D01*
X0277502Y0048328D01*
X0277421Y0048327D01*
X0277339Y0048330D01*
X0277258Y0048337D01*
X0277177Y0048348D01*
X0277097Y0048363D01*
X0277018Y0048381D01*
X0276940Y0048404D01*
X0276862Y0048430D01*
X0276787Y0048460D01*
X0276712Y0048494D01*
X0276640Y0048531D01*
X0276569Y0048572D01*
X0276501Y0048616D01*
X0276435Y0048663D01*
X0276371Y0048714D01*
X0276309Y0048768D01*
X0276251Y0048824D01*
X0276195Y0048884D01*
X0276142Y0048946D01*
X0276092Y0049010D01*
X0276046Y0049077D01*
X0276002Y0049146D01*
X0275963Y0049217D01*
X0275926Y0049290D01*
X0275893Y0049364D01*
X0275864Y0049441D01*
X0275839Y0049518D01*
X0275817Y0049597D01*
X0275800Y0049676D01*
X0275786Y0049756D01*
X0275776Y0049837D01*
X0275770Y0049919D01*
X0275768Y0050000D01*
X0261988Y0050000D02*
X0261990Y0050081D01*
X0261996Y0050163D01*
X0262006Y0050244D01*
X0262020Y0050324D01*
X0262037Y0050403D01*
X0262059Y0050482D01*
X0262084Y0050559D01*
X0262113Y0050636D01*
X0262146Y0050710D01*
X0262183Y0050783D01*
X0262222Y0050854D01*
X0262266Y0050923D01*
X0262312Y0050990D01*
X0262362Y0051054D01*
X0262415Y0051116D01*
X0262471Y0051176D01*
X0262529Y0051232D01*
X0262591Y0051286D01*
X0262655Y0051337D01*
X0262721Y0051384D01*
X0262789Y0051428D01*
X0262860Y0051469D01*
X0262932Y0051506D01*
X0263007Y0051540D01*
X0263082Y0051570D01*
X0263160Y0051596D01*
X0263238Y0051619D01*
X0263317Y0051637D01*
X0263397Y0051652D01*
X0263478Y0051663D01*
X0263559Y0051670D01*
X0263641Y0051673D01*
X0263722Y0051672D01*
X0263803Y0051667D01*
X0263884Y0051658D01*
X0263965Y0051645D01*
X0264045Y0051628D01*
X0264123Y0051608D01*
X0264201Y0051583D01*
X0264278Y0051555D01*
X0264353Y0051523D01*
X0264426Y0051488D01*
X0264497Y0051449D01*
X0264567Y0051406D01*
X0264634Y0051361D01*
X0264700Y0051312D01*
X0264762Y0051260D01*
X0264822Y0051204D01*
X0264879Y0051146D01*
X0264934Y0051086D01*
X0264985Y0051022D01*
X0265033Y0050957D01*
X0265078Y0050889D01*
X0265120Y0050819D01*
X0265158Y0050747D01*
X0265193Y0050673D01*
X0265224Y0050598D01*
X0265251Y0050521D01*
X0265274Y0050443D01*
X0265294Y0050364D01*
X0265310Y0050284D01*
X0265322Y0050203D01*
X0265330Y0050122D01*
X0265334Y0050041D01*
X0265334Y0049959D01*
X0265330Y0049878D01*
X0265322Y0049797D01*
X0265310Y0049716D01*
X0265294Y0049636D01*
X0265274Y0049557D01*
X0265251Y0049479D01*
X0265224Y0049402D01*
X0265193Y0049327D01*
X0265158Y0049253D01*
X0265120Y0049181D01*
X0265078Y0049111D01*
X0265033Y0049043D01*
X0264985Y0048978D01*
X0264934Y0048914D01*
X0264879Y0048854D01*
X0264822Y0048796D01*
X0264762Y0048740D01*
X0264700Y0048688D01*
X0264634Y0048639D01*
X0264567Y0048594D01*
X0264498Y0048551D01*
X0264426Y0048512D01*
X0264353Y0048477D01*
X0264278Y0048445D01*
X0264201Y0048417D01*
X0264123Y0048392D01*
X0264045Y0048372D01*
X0263965Y0048355D01*
X0263884Y0048342D01*
X0263803Y0048333D01*
X0263722Y0048328D01*
X0263641Y0048327D01*
X0263559Y0048330D01*
X0263478Y0048337D01*
X0263397Y0048348D01*
X0263317Y0048363D01*
X0263238Y0048381D01*
X0263160Y0048404D01*
X0263082Y0048430D01*
X0263007Y0048460D01*
X0262932Y0048494D01*
X0262860Y0048531D01*
X0262789Y0048572D01*
X0262721Y0048616D01*
X0262655Y0048663D01*
X0262591Y0048714D01*
X0262529Y0048768D01*
X0262471Y0048824D01*
X0262415Y0048884D01*
X0262362Y0048946D01*
X0262312Y0049010D01*
X0262266Y0049077D01*
X0262222Y0049146D01*
X0262183Y0049217D01*
X0262146Y0049290D01*
X0262113Y0049364D01*
X0262084Y0049441D01*
X0262059Y0049518D01*
X0262037Y0049597D01*
X0262020Y0049676D01*
X0262006Y0049756D01*
X0261996Y0049837D01*
X0261990Y0049919D01*
X0261988Y0050000D01*
D17*
X0301210Y0044951D02*
X0301210Y0044201D01*
X0301711Y0044451D01*
X0301961Y0044451D01*
X0302211Y0044201D01*
X0302211Y0043700D01*
X0301961Y0043450D01*
X0301461Y0043450D01*
X0301210Y0043700D01*
X0301210Y0044951D02*
X0302211Y0044951D01*
X0302684Y0044951D02*
X0302684Y0043950D01*
X0303184Y0043450D01*
X0303685Y0043950D01*
X0303685Y0044951D01*
X0305630Y0044951D02*
X0305630Y0043450D01*
X0305630Y0043950D02*
X0306381Y0043950D01*
X0306631Y0044201D01*
X0306631Y0044701D01*
X0306381Y0044951D01*
X0305630Y0044951D01*
X0307103Y0044951D02*
X0307103Y0043450D01*
X0307604Y0043950D01*
X0308104Y0043450D01*
X0308104Y0044951D01*
X0308577Y0044951D02*
X0309327Y0044951D01*
X0309578Y0044701D01*
X0309578Y0044201D01*
X0309327Y0043950D01*
X0308577Y0043950D01*
X0308577Y0043450D02*
X0308577Y0044951D01*
X0309077Y0043950D02*
X0309578Y0043450D01*
X0309077Y0039951D02*
X0309077Y0038450D01*
X0308577Y0038450D02*
X0309578Y0038450D01*
X0308577Y0039451D02*
X0309077Y0039951D01*
X0308104Y0039951D02*
X0308104Y0038450D01*
X0307103Y0039951D01*
X0307103Y0038450D01*
X0306631Y0038700D02*
X0306631Y0039701D01*
X0306381Y0039951D01*
X0305880Y0039951D01*
X0305630Y0039701D01*
X0305630Y0038700D01*
X0305880Y0038450D01*
X0306381Y0038450D01*
X0306631Y0038700D01*
X0305158Y0038700D02*
X0304908Y0038450D01*
X0304407Y0038450D01*
X0304157Y0038700D01*
X0304157Y0039701D01*
X0304407Y0039951D01*
X0304908Y0039951D01*
X0305158Y0039701D01*
D18*
X0226500Y0027500D02*
X0222500Y0027500D01*
X0226000Y0030500D02*
X0222500Y0034000D01*
X0222500Y0021000D02*
X0222500Y0017000D01*
X0224500Y0017000D01*
X0222500Y0017000D02*
X0220500Y0017000D01*
X0359000Y0170500D02*
X0359000Y0179500D01*
X0361477Y0179429D02*
X0361372Y0179224D01*
X0361271Y0179017D01*
X0361176Y0178807D01*
X0361086Y0178595D01*
X0361001Y0178380D01*
X0360922Y0178164D01*
X0360847Y0177946D01*
X0360778Y0177726D01*
X0360714Y0177505D01*
X0360656Y0177282D01*
X0360603Y0177057D01*
X0360556Y0176832D01*
X0360514Y0176605D01*
X0360478Y0176378D01*
X0360447Y0176149D01*
X0360422Y0175920D01*
X0360402Y0175691D01*
X0360388Y0175461D01*
X0360380Y0175230D01*
X0360377Y0175000D01*
X0360380Y0174770D01*
X0360388Y0174539D01*
X0360402Y0174309D01*
X0360422Y0174080D01*
X0360447Y0173851D01*
X0360478Y0173622D01*
X0360514Y0173395D01*
X0360556Y0173168D01*
X0360603Y0172943D01*
X0360656Y0172718D01*
X0360714Y0172495D01*
X0360778Y0172274D01*
X0360847Y0172054D01*
X0360922Y0171836D01*
X0361001Y0171620D01*
X0361086Y0171405D01*
X0361176Y0171193D01*
X0361271Y0170983D01*
X0361372Y0170776D01*
X0361477Y0170571D01*
D19*
X0359410Y0167054D02*
X0360160Y0166303D01*
X0357158Y0163301D01*
X0357908Y0162550D01*
X0359410Y0162550D01*
X0360160Y0163301D01*
X0360160Y0166303D01*
X0359410Y0167054D02*
X0357908Y0167054D01*
X0357158Y0166303D01*
X0357158Y0163301D01*
X0355556Y0166303D02*
X0352554Y0163301D01*
X0352554Y0162550D01*
X0350202Y0162550D02*
X0350202Y0167054D01*
X0347950Y0164802D01*
X0350953Y0164802D01*
X0352554Y0167054D02*
X0355556Y0167054D01*
X0355556Y0166303D01*
X0366366Y0165553D02*
X0366366Y0163301D01*
X0367116Y0162550D01*
X0369368Y0162550D01*
X0369368Y0165553D01*
X0370970Y0164802D02*
X0372471Y0164802D01*
X0370970Y0167054D02*
X0373972Y0167054D01*
X0370970Y0167054D02*
X0370970Y0162550D01*
X0380177Y0163301D02*
X0380177Y0166303D01*
X0380928Y0167054D01*
X0382429Y0167054D01*
X0383180Y0166303D01*
X0383180Y0164802D01*
X0382429Y0164051D01*
X0382429Y0165553D01*
X0380928Y0165553D01*
X0380928Y0164051D01*
X0382429Y0164051D01*
X0383180Y0163301D02*
X0382429Y0162550D01*
X0380928Y0162550D01*
X0380177Y0163301D01*
X0389385Y0162550D02*
X0392388Y0162550D01*
X0390887Y0162550D02*
X0390887Y0167054D01*
X0389385Y0165553D01*
X0393989Y0164802D02*
X0393989Y0163301D01*
X0394740Y0162550D01*
X0396241Y0162550D01*
X0396992Y0163301D01*
X0396992Y0164051D01*
X0396241Y0164802D01*
X0393989Y0164802D01*
X0395491Y0166303D01*
X0396992Y0167054D01*
X0398593Y0167054D02*
X0398593Y0164051D01*
X0400094Y0162550D01*
X0401596Y0164051D01*
X0401596Y0167054D01*
X0386356Y0186050D02*
X0383354Y0186050D01*
X0384855Y0186050D02*
X0384855Y0190554D01*
X0383354Y0189053D01*
X0381753Y0189803D02*
X0381002Y0190554D01*
X0379501Y0190554D01*
X0378750Y0189803D01*
X0378750Y0186801D01*
X0379501Y0186050D01*
X0381002Y0186050D01*
X0381753Y0186801D01*
X0361764Y0242450D02*
X0358762Y0242450D01*
X0361764Y0245453D01*
X0361764Y0246203D01*
X0361014Y0246954D01*
X0359512Y0246954D01*
X0358762Y0246203D01*
X0357160Y0244702D02*
X0354158Y0244702D01*
X0352556Y0245453D02*
X0351806Y0244702D01*
X0352556Y0243951D01*
X0352556Y0243201D01*
X0351806Y0242450D01*
X0350305Y0242450D01*
X0349554Y0243201D01*
X0347953Y0243201D02*
X0347953Y0246203D01*
X0347202Y0246954D01*
X0344950Y0246954D01*
X0344950Y0242450D01*
X0347202Y0242450D01*
X0347953Y0243201D01*
X0349554Y0246203D02*
X0350305Y0246954D01*
X0351806Y0246954D01*
X0352556Y0246203D01*
X0352556Y0245453D01*
X0351806Y0244702D02*
X0351055Y0244702D01*
X0306764Y0244702D02*
X0303762Y0244702D01*
X0306014Y0246954D01*
X0306014Y0242450D01*
X0302160Y0244702D02*
X0299158Y0244702D01*
X0297556Y0244702D02*
X0297556Y0243201D01*
X0296806Y0242450D01*
X0295305Y0242450D01*
X0294554Y0243201D01*
X0294554Y0244702D02*
X0296055Y0245453D01*
X0296806Y0245453D01*
X0297556Y0244702D01*
X0297556Y0246954D02*
X0294554Y0246954D01*
X0294554Y0244702D01*
X0292953Y0246203D02*
X0292202Y0246954D01*
X0289950Y0246954D01*
X0289950Y0242450D01*
X0292202Y0242450D01*
X0292953Y0243201D01*
X0292953Y0246203D01*
X0256764Y0246954D02*
X0255263Y0246203D01*
X0253762Y0244702D01*
X0256014Y0244702D01*
X0256764Y0243951D01*
X0256764Y0243201D01*
X0256014Y0242450D01*
X0254512Y0242450D01*
X0253762Y0243201D01*
X0253762Y0244702D01*
X0252160Y0244702D02*
X0249158Y0244702D01*
X0247556Y0246203D02*
X0244554Y0243201D01*
X0244554Y0242450D01*
X0242953Y0243201D02*
X0242953Y0246203D01*
X0242202Y0246954D01*
X0239950Y0246954D01*
X0239950Y0242450D01*
X0242202Y0242450D01*
X0242953Y0243201D01*
X0247556Y0246203D02*
X0247556Y0246954D01*
X0244554Y0246954D01*
X0206764Y0246203D02*
X0206764Y0245453D01*
X0206014Y0244702D01*
X0204512Y0244702D01*
X0203762Y0245453D01*
X0203762Y0246203D01*
X0204512Y0246954D01*
X0206014Y0246954D01*
X0206764Y0246203D01*
X0206014Y0244702D02*
X0206764Y0243951D01*
X0206764Y0243201D01*
X0206014Y0242450D01*
X0204512Y0242450D01*
X0203762Y0243201D01*
X0203762Y0243951D01*
X0204512Y0244702D01*
X0202160Y0244702D02*
X0199158Y0244702D01*
X0197556Y0244702D02*
X0195305Y0244702D01*
X0194554Y0245453D01*
X0194554Y0246203D01*
X0195305Y0246954D01*
X0196806Y0246954D01*
X0197556Y0246203D01*
X0197556Y0243201D01*
X0196806Y0242450D01*
X0195305Y0242450D01*
X0194554Y0243201D01*
X0192953Y0243201D02*
X0192953Y0246203D01*
X0192202Y0246954D01*
X0189950Y0246954D01*
X0189950Y0242450D01*
X0192202Y0242450D01*
X0192953Y0243201D01*
X0175000Y0247000D02*
X0145000Y0247000D01*
X0145000Y0225000D01*
X0150000Y0225000D01*
X0150000Y0230000D01*
X0170000Y0230000D01*
X0170000Y0225000D01*
X0150000Y0225000D01*
X0140000Y0225000D02*
X0135000Y0225000D01*
X0135000Y0230000D01*
X0115000Y0230000D01*
X0115000Y0225000D01*
X0110000Y0225000D01*
X0110000Y0247000D01*
X0140000Y0247000D01*
X0140000Y0225000D01*
X0135000Y0225000D02*
X0115000Y0225000D01*
X0105000Y0225000D02*
X0100000Y0225000D01*
X0100000Y0230000D01*
X0080000Y0230000D01*
X0080000Y0225000D01*
X0075000Y0225000D01*
X0075000Y0247000D01*
X0105000Y0247000D01*
X0105000Y0225000D01*
X0100000Y0225000D02*
X0080000Y0225000D01*
X0070000Y0225000D02*
X0065000Y0225000D01*
X0065000Y0230000D01*
X0045000Y0230000D01*
X0045000Y0225000D01*
X0040000Y0225000D01*
X0040000Y0247000D01*
X0070000Y0247000D01*
X0070000Y0225000D01*
X0065000Y0225000D02*
X0045000Y0225000D01*
X0089950Y0196954D02*
X0089950Y0192450D01*
X0092202Y0192450D01*
X0092953Y0193201D01*
X0092953Y0196203D01*
X0092202Y0196954D01*
X0089950Y0196954D01*
X0094554Y0195453D02*
X0096055Y0196954D01*
X0096055Y0192450D01*
X0094554Y0192450D02*
X0097556Y0192450D01*
X0099158Y0193201D02*
X0102160Y0196203D01*
X0102160Y0193201D01*
X0101410Y0192450D01*
X0099908Y0192450D01*
X0099158Y0193201D01*
X0099158Y0196203D01*
X0099908Y0196954D01*
X0101410Y0196954D01*
X0102160Y0196203D01*
X0103762Y0194702D02*
X0106764Y0194702D01*
X0108366Y0194702D02*
X0111368Y0194702D01*
X0111368Y0195453D02*
X0111368Y0192450D01*
X0112970Y0193201D02*
X0113720Y0192450D01*
X0115222Y0192450D01*
X0115972Y0193201D01*
X0115972Y0193951D01*
X0115222Y0194702D01*
X0114471Y0194702D01*
X0115222Y0194702D02*
X0115972Y0195453D01*
X0115972Y0196203D01*
X0115222Y0196954D01*
X0113720Y0196954D01*
X0112970Y0196203D01*
X0111368Y0195453D02*
X0109867Y0196954D01*
X0108366Y0195453D01*
X0108366Y0192450D01*
X0170000Y0225000D02*
X0175000Y0225000D01*
X0175000Y0247000D01*
X0214950Y0196954D02*
X0217202Y0196954D01*
X0217953Y0196203D01*
X0217953Y0193201D01*
X0217202Y0192450D01*
X0214950Y0192450D01*
X0214950Y0196954D01*
X0219554Y0196203D02*
X0220305Y0196954D01*
X0221806Y0196954D01*
X0222556Y0196203D01*
X0222556Y0195453D01*
X0219554Y0192450D01*
X0222556Y0192450D01*
X0224158Y0194702D02*
X0227160Y0194702D01*
X0228762Y0196954D02*
X0228762Y0192450D01*
X0231014Y0192450D01*
X0231764Y0193201D01*
X0231764Y0196203D01*
X0231014Y0196954D01*
X0228762Y0196954D01*
X0233366Y0196203D02*
X0233366Y0195453D01*
X0234116Y0194702D01*
X0236368Y0194702D01*
X0236368Y0196203D02*
X0235618Y0196954D01*
X0234116Y0196954D01*
X0233366Y0196203D01*
X0236368Y0196203D02*
X0236368Y0193201D01*
X0235618Y0192450D01*
X0234116Y0192450D01*
X0233366Y0193201D01*
X0036950Y0178949D02*
X0036950Y0175946D01*
X0033947Y0178949D01*
X0033197Y0178949D01*
X0032446Y0178198D01*
X0032446Y0176697D01*
X0033197Y0175946D01*
X0032446Y0174345D02*
X0032446Y0172843D01*
X0032446Y0173594D02*
X0036199Y0173594D01*
X0036950Y0172843D01*
X0036950Y0172093D01*
X0036199Y0171342D01*
X0222500Y0035000D02*
X0222500Y0034000D01*
X0222500Y0027500D01*
X0222500Y0021000D01*
D20*
X0233600Y0027967D02*
X0233967Y0028334D01*
X0235068Y0028334D01*
X0235068Y0028701D02*
X0235068Y0027600D01*
X0233967Y0027600D01*
X0233600Y0027967D01*
X0233967Y0029068D02*
X0234701Y0029068D01*
X0235068Y0028701D01*
X0235810Y0029068D02*
X0236177Y0029068D01*
X0236177Y0027600D01*
X0235810Y0027600D02*
X0236544Y0027600D01*
X0237283Y0027600D02*
X0238017Y0027600D01*
X0237650Y0027600D02*
X0237650Y0029802D01*
X0237283Y0029802D01*
X0236177Y0029802D02*
X0236177Y0030169D01*
X0235778Y0032600D02*
X0234677Y0032600D01*
X0234310Y0032967D01*
X0234310Y0033701D01*
X0234677Y0034068D01*
X0235778Y0034068D01*
X0235778Y0034802D02*
X0235778Y0032600D01*
X0236520Y0032967D02*
X0236520Y0033701D01*
X0236887Y0034068D01*
X0237621Y0034068D01*
X0237988Y0033701D01*
X0237988Y0033334D01*
X0236520Y0033334D01*
X0236520Y0032967D02*
X0236887Y0032600D01*
X0237621Y0032600D01*
X0238730Y0032600D02*
X0239464Y0032600D01*
X0239097Y0032600D02*
X0239097Y0034802D01*
X0238730Y0034802D01*
X0233568Y0033701D02*
X0233201Y0034068D01*
X0232467Y0034068D01*
X0232100Y0033701D01*
X0232100Y0032967D01*
X0232467Y0032600D01*
X0233201Y0032600D01*
X0233568Y0032967D01*
X0233568Y0033701D01*
X0238756Y0029068D02*
X0238756Y0027600D01*
X0238756Y0028334D02*
X0239490Y0029068D01*
X0239857Y0029068D01*
X0240598Y0028701D02*
X0240598Y0027967D01*
X0240965Y0027600D01*
X0241699Y0027600D01*
X0242066Y0027967D01*
X0242066Y0028701D01*
X0241699Y0029068D01*
X0240965Y0029068D01*
X0240598Y0028701D01*
X0242808Y0027967D02*
X0243175Y0028334D01*
X0244276Y0028334D01*
X0244276Y0028701D02*
X0244276Y0027600D01*
X0243175Y0027600D01*
X0242808Y0027967D01*
X0243175Y0029068D02*
X0243909Y0029068D01*
X0244276Y0028701D01*
X0245018Y0028701D02*
X0245385Y0029068D01*
X0246486Y0029068D01*
X0246486Y0029802D02*
X0246486Y0027600D01*
X0245385Y0027600D01*
X0245018Y0027967D01*
X0245018Y0028701D01*
X0246044Y0024802D02*
X0246411Y0024802D01*
X0246411Y0022600D01*
X0246044Y0022600D02*
X0246778Y0022600D01*
X0245302Y0022967D02*
X0245302Y0023701D01*
X0244936Y0024068D01*
X0244202Y0024068D01*
X0243835Y0023701D01*
X0243835Y0022967D01*
X0244202Y0022600D01*
X0244936Y0022600D01*
X0245302Y0022967D01*
X0243094Y0024068D02*
X0242727Y0024068D01*
X0241993Y0023334D01*
X0241993Y0022600D02*
X0241993Y0024068D01*
X0241254Y0024068D02*
X0240520Y0024068D01*
X0240887Y0024435D02*
X0240887Y0022967D01*
X0241254Y0022600D01*
X0239778Y0022600D02*
X0239778Y0023701D01*
X0239411Y0024068D01*
X0238310Y0024068D01*
X0238310Y0022600D01*
X0237568Y0022967D02*
X0237568Y0023701D01*
X0237201Y0024068D01*
X0236467Y0024068D01*
X0236100Y0023701D01*
X0236100Y0022967D01*
X0236467Y0022600D01*
X0237201Y0022600D01*
X0237568Y0022967D01*
X0238600Y0019068D02*
X0238600Y0017967D01*
X0238967Y0017600D01*
X0240068Y0017600D01*
X0240068Y0017233D02*
X0239701Y0016866D01*
X0239334Y0016866D01*
X0240068Y0017233D02*
X0240068Y0019068D01*
X0240810Y0018701D02*
X0241177Y0019068D01*
X0242278Y0019068D01*
X0243020Y0019068D02*
X0243754Y0019068D01*
X0243387Y0019435D02*
X0243387Y0017967D01*
X0243754Y0017600D01*
X0244493Y0017967D02*
X0244860Y0017600D01*
X0245594Y0017600D01*
X0245961Y0018334D02*
X0244493Y0018334D01*
X0244493Y0018701D02*
X0244860Y0019068D01*
X0245594Y0019068D01*
X0245961Y0018701D01*
X0245961Y0018334D01*
X0246703Y0019068D02*
X0247070Y0019068D01*
X0247437Y0018701D01*
X0247804Y0019068D01*
X0248171Y0018701D01*
X0248171Y0017600D01*
X0247437Y0017600D02*
X0247437Y0018701D01*
X0246703Y0019068D02*
X0246703Y0017600D01*
X0248913Y0017600D02*
X0250014Y0017600D01*
X0250381Y0017967D01*
X0250014Y0018334D01*
X0249280Y0018334D01*
X0248913Y0018701D01*
X0249280Y0019068D01*
X0250381Y0019068D01*
X0244493Y0018701D02*
X0244493Y0017967D01*
X0242278Y0017967D02*
X0241911Y0018334D01*
X0241177Y0018334D01*
X0240810Y0018701D01*
X0240810Y0017600D02*
X0241911Y0017600D01*
X0242278Y0017967D01*
X0350100Y0125100D02*
X0350467Y0125100D01*
X0350467Y0125467D01*
X0350100Y0125467D01*
X0350100Y0125100D01*
X0351205Y0125100D02*
X0352673Y0125100D01*
X0351939Y0125100D02*
X0351939Y0127302D01*
X0351205Y0126568D01*
X0355625Y0126935D02*
X0355625Y0125467D01*
X0355992Y0125100D01*
X0356726Y0125100D01*
X0357093Y0125467D01*
X0356726Y0125834D02*
X0356726Y0126568D01*
X0355992Y0126568D01*
X0355992Y0125834D01*
X0356726Y0125834D01*
X0357093Y0126201D01*
X0357093Y0126935D01*
X0356726Y0127302D01*
X0355992Y0127302D01*
X0355625Y0126935D01*
X0360044Y0126935D02*
X0360411Y0127302D01*
X0361145Y0127302D01*
X0361512Y0126935D01*
X0361512Y0126568D01*
X0360044Y0125100D01*
X0361512Y0125100D01*
X0362254Y0125467D02*
X0362621Y0125100D01*
X0363355Y0125100D01*
X0363722Y0125467D01*
X0363722Y0126201D01*
X0363355Y0126568D01*
X0362988Y0126568D01*
X0362254Y0126201D01*
X0362254Y0127302D01*
X0363722Y0127302D01*
X0364464Y0127302D02*
X0364464Y0125834D01*
X0365198Y0125100D01*
X0365932Y0125834D01*
X0365932Y0127302D01*
X0353778Y0142600D02*
X0352310Y0142600D01*
X0353778Y0144068D01*
X0353778Y0144435D01*
X0353411Y0144802D01*
X0352677Y0144802D01*
X0352310Y0144435D01*
X0351568Y0144435D02*
X0351201Y0144802D01*
X0350467Y0144802D01*
X0350100Y0144435D01*
X0350100Y0142967D01*
X0350467Y0142600D01*
X0351201Y0142600D01*
X0351568Y0142967D01*
D21*
X0290866Y0185000D03*
X0282992Y0185000D03*
X0275118Y0185000D03*
X0267244Y0185000D03*
X0259370Y0185000D03*
X0251496Y0185000D03*
X0243622Y0185000D03*
X0235748Y0185000D03*
X0227874Y0185000D03*
X0220000Y0185000D03*
X0165866Y0185000D03*
X0157992Y0185000D03*
X0150118Y0185000D03*
X0142244Y0185000D03*
X0134370Y0185000D03*
X0126496Y0185000D03*
X0118622Y0185000D03*
X0110748Y0185000D03*
X0102874Y0185000D03*
X0095000Y0185000D03*
X0025000Y0175000D03*
X0025000Y0165000D03*
X0025000Y0155000D03*
X0025000Y0145000D03*
X0025000Y0135000D03*
X0025000Y0125000D03*
X0025000Y0115000D03*
X0025000Y0105000D03*
X0195000Y0235000D03*
X0205000Y0235000D03*
X0215000Y0235000D03*
X0225000Y0235000D03*
X0245000Y0235000D03*
X0255000Y0235000D03*
X0265000Y0235000D03*
X0275000Y0235000D03*
X0295000Y0235000D03*
X0305000Y0235000D03*
X0315000Y0235000D03*
X0325000Y0235000D03*
X0350000Y0235000D03*
X0360000Y0235000D03*
X0370000Y0235000D03*
X0380000Y0235000D03*
D22*
X0335000Y0214500D03*
X0325000Y0214500D03*
X0315000Y0214500D03*
X0305000Y0214500D03*
X0295000Y0214500D03*
X0285000Y0214500D03*
X0260000Y0214500D03*
X0250000Y0214500D03*
X0240000Y0214500D03*
X0230000Y0214500D03*
X0220000Y0214500D03*
X0210000Y0214500D03*
X0170000Y0235000D03*
X0160000Y0235000D03*
X0150000Y0235000D03*
X0135000Y0235000D03*
X0125000Y0235000D03*
X0115000Y0235000D03*
X0100000Y0235000D03*
X0090000Y0235000D03*
X0080000Y0235000D03*
X0065000Y0235000D03*
X0055000Y0235000D03*
X0045000Y0235000D03*
X0050000Y0214500D03*
X0060000Y0214500D03*
X0070000Y0214500D03*
X0080000Y0214500D03*
X0090000Y0214500D03*
X0100000Y0214500D03*
X0115000Y0214500D03*
X0125000Y0214500D03*
X0135000Y0214500D03*
X0145000Y0214500D03*
X0155000Y0214500D03*
X0165000Y0214500D03*
D23*
X0227650Y0035353D02*
X0228884Y0034119D01*
X0230119Y0035353D01*
X0230119Y0031650D01*
X0230150Y0030353D02*
X0232002Y0030353D01*
X0232619Y0029736D01*
X0232619Y0028502D01*
X0232002Y0027884D01*
X0230150Y0027884D01*
X0230150Y0026650D02*
X0230150Y0030353D01*
X0231384Y0027884D02*
X0232619Y0026650D01*
X0233267Y0025353D02*
X0232650Y0024736D01*
X0232650Y0022267D01*
X0233267Y0021650D01*
X0234502Y0021650D01*
X0235119Y0022267D01*
X0235767Y0020353D02*
X0235150Y0019736D01*
X0235150Y0019119D01*
X0235767Y0018502D01*
X0237002Y0018502D01*
X0237619Y0017884D01*
X0237619Y0017267D01*
X0237002Y0016650D01*
X0235767Y0016650D01*
X0235150Y0017267D01*
X0235767Y0020353D02*
X0237002Y0020353D01*
X0237619Y0019736D01*
X0235119Y0024736D02*
X0234502Y0025353D01*
X0233267Y0025353D01*
X0227650Y0031650D02*
X0227650Y0035353D01*
M02*
